<svg width="45" height="30" viewBox="0 0 45 30" fill="none" xmlns="http://www.w3.org/2000/svg">
<path d="M38.4865 10.0466C38.4422 10.0187 38.3676 10 38.3116 10C38.2324 10 38.1951 10.0163 38.1298 10.0769C38.0832 10.1166 38.0342 10.1888 38.0202 10.2331C38.0016 10.2914 38.0016 11.9747 38.0155 16.1036C38.0272 19.286 38.0319 21.8902 38.0249 21.8902C38.0179 21.8902 37.9503 21.8646 37.8733 21.8296C37.7964 21.797 37.6448 21.748 37.5353 21.72C37.3697 21.6781 37.2718 21.6711 36.9408 21.6734C36.6353 21.6757 36.4885 21.6874 36.2996 21.727C36.1644 21.7527 35.9452 21.8133 35.81 21.8599C35.6748 21.9042 35.472 21.9905 35.3554 22.0464C35.2412 22.1047 35.057 22.2096 34.9474 22.2819C34.8378 22.3542 34.656 22.5081 34.5394 22.6246C34.4252 22.7412 34.2946 22.8951 34.255 22.965C34.213 23.0326 34.1501 23.1585 34.1151 23.2424C34.0568 23.38 34.0498 23.4196 34.0498 23.6738C34.0498 23.9465 34.0521 23.9605 34.1291 24.1167C34.178 24.217 34.2596 24.3289 34.3389 24.4082C34.4112 24.4804 34.5371 24.576 34.621 24.6226C34.7049 24.6693 34.8402 24.7299 34.9241 24.7579C35.008 24.7835 35.1805 24.8231 35.3088 24.8418C35.472 24.8674 35.6305 24.8744 35.8333 24.8674C35.9942 24.8605 36.2297 24.8325 36.3579 24.8068C36.4861 24.7812 36.7006 24.7229 36.8358 24.6763C36.9711 24.6296 37.1762 24.5457 37.2905 24.4898C37.407 24.4338 37.5796 24.3382 37.6752 24.2729C37.7707 24.21 37.913 24.1027 37.9899 24.0351C38.0668 23.9675 38.1857 23.8486 38.2533 23.7693C38.321 23.6924 38.4235 23.5339 38.4795 23.4173C38.5378 23.2961 38.5937 23.1375 38.6124 23.0443C38.6357 22.9137 38.6427 21.6548 38.6404 16.5629C38.638 10.7227 38.6357 10.2401 38.6007 10.1702C38.5774 10.1282 38.5261 10.0723 38.4865 10.0466Z" fill="#FFF8E3"/>
<path d="M32.7705 2.68994L39 5.026L32.7705 8.14075" stroke="#FFF8E3"/>
<path d="M14.4367 10.0466C14.3924 10.0187 14.3178 10 14.2618 10C14.1826 10 14.1453 10.0163 14.08 10.0769C14.0334 10.1166 13.9844 10.1888 13.9704 10.2331C13.9518 10.2914 13.9518 11.9747 13.9657 16.1036C13.9774 19.286 13.9821 21.8902 13.9751 21.8902C13.9681 21.8902 13.9005 21.8646 13.8235 21.8296C13.7466 21.797 13.595 21.748 13.4855 21.72C13.3199 21.6781 13.222 21.6711 12.891 21.6734C12.5855 21.6757 12.4387 21.6874 12.2498 21.727C12.1146 21.7527 11.8954 21.8133 11.7602 21.8599C11.625 21.9042 11.4222 21.9905 11.3056 22.0464C11.1914 22.1047 11.0072 22.2096 10.8976 22.2819C10.788 22.3542 10.6062 22.5081 10.4896 22.6246C10.3754 22.7412 10.2448 22.8951 10.2052 22.965C10.1632 23.0326 10.1003 23.1585 10.0653 23.2424C10.007 23.38 10 23.4196 10 23.6738C10 23.9465 10.0023 23.9605 10.0793 24.1167C10.1282 24.217 10.2098 24.3289 10.2891 24.4082C10.3614 24.4804 10.4873 24.576 10.5712 24.6226C10.6551 24.6693 10.7904 24.7299 10.8743 24.7579C10.9582 24.7835 11.1307 24.8231 11.259 24.8418C11.4222 24.8674 11.5807 24.8744 11.7835 24.8674C11.9444 24.8605 12.1799 24.8325 12.3081 24.8068C12.4363 24.7812 12.6508 24.7229 12.786 24.6763C12.9213 24.6296 13.1264 24.5457 13.2407 24.4898C13.3572 24.4338 13.5298 24.3382 13.6254 24.2729C13.7209 24.21 13.8632 24.1027 13.9401 24.0351C14.017 23.9675 14.1359 23.8486 14.2035 23.7693C14.2712 23.6924 14.3737 23.5339 14.4297 23.4173C14.488 23.2961 14.5439 23.1375 14.5626 23.0443C14.5859 22.9137 14.5929 21.6548 14.5906 16.5629C14.5882 10.7227 14.5859 10.2401 14.5509 10.1702C14.5276 10.1282 14.4763 10.0723 14.4367 10.0466Z" fill="#FFF8E3"/>
<path d="M26.6823 10.0466C26.638 10.0187 26.5634 10 26.5074 10C26.4282 10 26.3909 10.0163 26.3256 10.0769C26.279 10.1166 26.23 10.1888 26.216 10.2331C26.1974 10.2914 26.1974 11.9747 26.2113 16.1036C26.223 19.286 26.2277 21.8902 26.2207 21.8902C26.2137 21.8902 26.1461 21.8646 26.0691 21.8296C25.9922 21.797 25.8407 21.748 25.7311 21.72C25.5655 21.6781 25.4676 21.6711 25.1366 21.6734C24.8311 21.6757 24.6843 21.6874 24.4954 21.727C24.3602 21.7527 24.141 21.8133 24.0058 21.8599C23.8706 21.9042 23.6678 21.9905 23.5512 22.0464C23.437 22.1047 23.2528 22.2096 23.1432 22.2819C23.0336 22.3542 22.8518 22.5081 22.7352 22.6246C22.621 22.7412 22.4904 22.8951 22.4508 22.965C22.4088 23.0326 22.3459 23.1585 22.3109 23.2424C22.2526 23.38 22.2456 23.4196 22.2456 23.6738C22.2456 23.9465 22.2479 23.9605 22.3249 24.1167C22.3738 24.217 22.4554 24.3289 22.5347 24.4082C22.607 24.4804 22.7329 24.576 22.8168 24.6226C22.9007 24.6693 23.036 24.7299 23.1199 24.7579C23.2038 24.7835 23.3763 24.8231 23.5046 24.8418C23.6678 24.8674 23.8263 24.8744 24.0291 24.8674C24.19 24.8605 24.4255 24.8325 24.5537 24.8068C24.6819 24.7812 24.8964 24.7229 25.0316 24.6763C25.1669 24.6296 25.372 24.5457 25.4863 24.4898C25.6028 24.4338 25.7754 24.3382 25.871 24.2729C25.9665 24.21 26.1088 24.1027 26.1857 24.0351C26.2626 23.9675 26.3815 23.8486 26.4491 23.7693C26.5168 23.6924 26.6193 23.5339 26.6753 23.4173C26.7336 23.2961 26.7895 23.1375 26.8082 23.0443C26.8315 22.9137 26.8385 21.6548 26.8362 16.5629C26.8338 10.7227 26.8315 10.2401 26.7965 10.1702C26.7732 10.1282 26.7219 10.0723 26.6823 10.0466Z" fill="#FFF8E3"/>
<path d="M14.2861 10.3418L26.4865 10.3418" stroke="#FFF8E3" stroke-width="0.7" stroke-linecap="round"/>
</svg>
