<svg width="21" height="16" viewBox="0 0 21 16" fill="none" xmlns="http://www.w3.org/2000/svg">
<path fill-rule="evenodd" clip-rule="evenodd" d="M19.041 8.75031C19.4552 8.75031 19.791 8.41452 19.791 8.00031C19.791 7.5861 19.4552 7.25031 19.041 7.25031L5.26607 7.25031L11.6049 1.93149C11.9222 1.66524 11.9636 1.19217 11.6973 0.874865C11.4311 0.557557 10.958 0.516165 10.6407 0.782414L2.72394 7.42528C2.40663 7.69153 2.36524 8.16459 2.63149 8.4819C2.66683 8.52401 2.7058 8.56126 2.74758 8.59358L10.6414 15.2172C10.9587 15.4835 11.4318 15.4421 11.6981 15.1248C11.9643 14.8074 11.9229 14.3344 11.6056 14.0681L5.26797 8.75031L19.041 8.75031Z" fill="#FFF8E3"/>
</svg>
