<svg width="140" height="132" viewBox="0 0 140 132" fill="none" xmlns="http://www.w3.org/2000/svg">
<path d="M93.9299 97.2334C93.9299 97.2334 88.7418 105.674 79.3725 107.761C74.246 108.903 75.2631 109.684 77.0199 109.828C79.3622 110.023 81.7045 109.581 83.8209 108.553C86.0708 107.453 89.3377 105.674 91.7931 102.929C91.7931 102.929 92.7074 107.391 82.1463 113.94C73.907 119.05 79.3211 117.241 82.0847 116.202C83.0504 115.842 83.9852 115.41 84.879 114.907C87.2727 113.56 91.9883 110.65 93.7861 107.658C95.0189 105.613 95.3271 106.24 95.3169 107.391C95.3169 109.036 91.1972 113.724 90.0055 114.866C86.5022 118.238 81.119 122.926 73.044 124.777C62.6781 127.141 51.028 116.305 47.4837 108.759C45.1516 104.111 44.6071 101.675 44.8845 98.9401C44.9462 98.3129 44.7304 97.696 44.2065 97.3568C43.5592 96.9352 43.2408 97.4596 46.5796 103.659C51.7677 113.313 50.8534 112.491 57.7674 118.135C62.7295 122.104 61.3426 119.286 60.9522 123.779C59.7707 129.609 54.0484 129.156 51.7266 129.547C51.7266 129.547 51.7985 127.851 51.7677 126.329C51.8602 121.137 52.2198 122.237 48.3056 116.408C44.4017 110.578 43.1175 109.859 42.573 106.939C42.0285 104.029 42.4497 98.8887 43.8161 97.3259" stroke="#293D67" stroke-width="1.39573" stroke-miterlimit="91.7336" stroke-linecap="round" stroke-linejoin="round"/>
<path d="M55.9285 53.2919C55.9285 53.2919 58.1784 50.5263 63.5616 51.0815C68.9449 51.6264 71.3284 53.148 74.3693 53.0143C77.4102 52.8807 77.1329 52.8807 77.1329 52.8807C77.1329 52.8807 76.0747 53.477 74.883 55.3687C73.6913 57.2604 73.044 58.5045 72.0783 57.0754C71.1126 55.6463 69.8284 54.9575 70.5579 54.5873C71.2975 54.2172 70.0956 54.1247 67.6607 54.8135C65.2157 55.5024 62.2775 57.1576 60.9419 57.0651C59.6064 56.9726 65.2362 55.6771 65.2362 55.6771" stroke="#293D67" stroke-width="1.39573" stroke-miterlimit="91.7336" stroke-linecap="round" stroke-linejoin="round"/>
<path d="M67.8868 56.0983C68.6162 57.2189 66.9108 59.6967 64.6712 58.0825C62.4419 56.4787 65.1232 55.6665 65.6883 55.4608C66.2533 55.2655 67.1574 54.9776 67.8868 56.0983Z" stroke="#293D67" stroke-width="1.39573" stroke-miterlimit="91.7336" stroke-linecap="round" stroke-linejoin="round"/>
<path d="M66.808 55.749C65.6882 56.8697 66.0889 58.5455 64.6711 58.0931" stroke="#293D67" stroke-width="1.39573" stroke-miterlimit="91.7336" stroke-linecap="round" stroke-linejoin="round"/>
<path d="M87.0263 55.348C87.0263 55.348 86.3688 55.7695 86.4818 56.7051C86.5845 57.651 87.7351 57.5173 88.2077 56.7359C88.6803 55.9546 89.3275 54.9882 89.9542 55.5845C90.5809 56.1808 89.122 59.2754 87.0468 57.7332C84.9818 56.191 87.1804 55.1629 88.0639 55.0396" stroke="#293D67" stroke-width="1.39573" stroke-miterlimit="91.7336" stroke-linecap="round" stroke-linejoin="round"/>
<path d="M95.4197 54.3506C95.4197 54.3506 95.5225 55.6974 92.7794 55.7899C90.0364 55.8928 90.2727 54.587 86.6667 54.9263C86.6667 54.9263 84.6942 55.2142 84.8381 56.9928" stroke="#293D67" stroke-width="1.39573" stroke-miterlimit="91.7336" stroke-linecap="round" stroke-linejoin="round"/>
<path d="M95.656 58.0517C95.656 58.0517 98.738 52.7672 95.3786 51.4923C92.0192 50.2278 88.444 53.1476 86.8414 53.4252C85.2387 53.7028 83.595 53.9187 82.9888 53.5897C82.3827 53.2607 81.8382 55.9544 82.5984 57.8872C83.369 59.8098 83.3176 61.7941 83.8621 64.3335C84.4066 66.8729 85.6188 70.677 86.1222 71.8901C86.6154 73.1033 87.6633 70.5125 86.5126 68.8572C85.362 67.2019 85.5778 71.2836 85.4134 73.1547C85.249 75.0259 82.8245 78.5523 78.8589 75.2418C78.8589 75.2418 77.3795 74.1931 75.0064 73.8641C72.6435 73.5351 70.7121 73.6482 72.5305 69.4535" stroke="#293D67" stroke-width="1.39573" stroke-miterlimit="91.7336" stroke-linecap="round" stroke-linejoin="round"/>
<path d="M133.318 129.989C133.133 127.984 134.644 126.278 131.459 120.181C128.274 114.084 126.589 117.446 118.401 110.897C110.902 104.893 107.933 104.687 107.203 104.636C107.121 104.625 107.039 104.615 106.957 104.605C103.649 104.214 98.7277 104.482 96.8888 100.616C95.0088 96.6884 98.4298 96.781 103.618 93.4602C108.816 90.1291 112.032 89.7384 116.121 83.765C119.121 79.3853 117.374 75.2625 116.265 73.7512C115.381 72.538 114.61 71.2426 114.015 69.8649C108.087 56.191 120.775 55.1732 122.521 63.4495C124.401 72.3118 115.71 73.4222 110.933 70.3481C106.166 67.2741 103.638 57.6098 111.313 51.0401C118.319 45.0462 119.192 56.3658 115.145 54.0011C114.313 53.5179 113.727 52.7057 113.501 51.7701C112.453 47.4623 117.723 50.413 116.141 38.7233C114.539 26.8486 106.155 33.7987 109.33 35.053C109.7 35.1969 110.1 35.2175 110.481 35.1249C117.528 33.3668 115.628 24.1755 110.861 20.9061C106.464 17.8937 100.279 21.7594 102.231 23.754C102.642 24.1755 103.258 24.34 103.834 24.1961C109.772 22.7464 109.063 7.57144 99.9606 9.13417C91.4541 10.5838 91.9165 15.8889 94.454 15.7141C94.9677 15.673 95.43 15.416 95.7484 15.015C97.8339 12.4344 97.7723 6.92373 90.848 4.18894C84.6326 1.73175 81.1088 1.28966 77.5336 3.19167C76.5782 3.69545 75.6947 4.34316 74.9036 5.0834L73.8763 6.03955C72.9517 6.96485 72.1503 7.46863 70.9894 7.55088C70.3114 7.60228 69.6334 7.45835 69.0169 7.16019C68.5033 6.91345 68.041 6.55361 67.6917 6.11152C66.5102 4.65159 65.2671 2.48227 61.2913 4.96003C56.3293 8.04437 58.0963 10.6044 59.3805 11.0876C60.0996 11.3549 60.9934 11.5708 62.2057 11.067C63.0275 10.7175 63.5001 9.52486 63.4385 8.91827C63.4077 8.60984 63.2433 8.33224 62.9864 8.14718C61.4352 7.00598 57.8292 5.73111 52.8671 5.88533C47.5866 6.06011 43.2409 9.29867 43.2409 9.29867C33.7585 17.4619 42.4087 17.1946 44.6175 14.6551C46.6003 12.383 45.388 11.7045 44.6175 11.4269C40.7239 10.0389 36.9125 13.956 36.5221 14.2542C35.5872 14.9739 34.8783 15.8889 34.5393 16.259C24.2556 27.5374 42.3676 22.2735 38.6898 19.8471C38.3815 19.6518 38.022 19.5387 37.6624 19.5387C28.4574 19.3742 27.1424 26.8486 27.1424 26.8486C25.6322 37.2737 37.7446 30.1797 32.5257 29.1516C31.7757 29.0076 31.0052 29.059 30.2861 29.3058C21.1016 32.4004 22.6632 39.1346 22.6632 39.1346C25.2315 47.9147 32.464 40.4403 29.3409 39.0832C29.1252 38.9906 28.8889 38.9392 28.6423 38.9392C25.2315 38.9187 19.6942 46.2594 20.8448 52.2533C21.9851 58.1958 32.0737 52.8188 31.3442 50.7009C31.2415 50.413 30.7689 50.0531 30.471 50.012C26.1459 49.4157 17.1977 57.5687 19.6531 64.272C22.2111 71.2632 31.8374 65.8861 30.7278 64.015C29.6183 62.1438 22.6426 64.6935 15.9854 74.0699C9.33853 83.4463 14.3725 92.2264 18.1223 92.3909C21.5434 92.5451 22.3242 86.6952 19.6017 88.2887C19.0777 88.5972 18.6565 89.0495 18.3689 89.5842C13.6534 98.5596 22.4988 101.397 24.7487 100.225C26.7315 99.197 25.098 96.0613 22.9919 97.295C22.3755 97.6549 21.5845 98.426 21.1633 99.1456C19.6942 101.685 19.6942 105.212 24.4097 108.8C24.7281 109.036 25.0261 109.293 25.3137 109.56C30.0601 113.971 39.5835 112.449 39.6657 100.657C39.7068 94.735 37.0357 92.9872 34.5906 93.162C31.6833 93.3676 31.9196 97.7371 34.8269 97.6446C38.7719 97.5212 42.4909 95.4444 44.6894 83.5286C47.5866 67.8395 33.5325 70.3173 36.4296 72.9596C39.3267 75.6018 45.2853 71.6847 44.8641 61.5372C44.4429 51.4 27.8307 54.6385 39.1623 57.9594C50.4939 61.2904 48.5317 44.1723 47.4222 32.5752C47.5044 24.3811 54.2026 20.9267 55.0553 20.5154C55.117 20.4846 55.1889 20.4537 55.2403 20.4126C55.3225 20.3612 55.3944 20.3098 55.4663 20.2584C56.3909 19.6107 64.2706 13.8429 77.8213 17.4825C92.2349 21.3585 93.4883 27.8253 94.8444 30.3853C96.9402 34.3333 98.851 44.7481 99.5496 51.5542C99.8475 54.4638 99.9297 58.9258 99.9297 61.6606C99.9297 64.3954 98.5325 68.9088 97.8956 73.4222C97.2586 77.9356 96.9915 84.9165 95.543 89.7075C94.0944 94.4986 93.1493 95.7323 89.0193 99.6494C84.8894 103.567 76.5474 103.998 69.7258 101.099C62.9042 98.1998 61.5276 97.6857 57.5415 96.2361C53.7712 94.8687 49.3639 87.5382 63.8494 85.0193C64.9281 84.8343 66.0274 84.7109 67.1164 84.6492C67.6403 84.6184 68.6985 84.495 70.8045 84.1146C74.8625 83.3846 77.5439 84.0426 80.7389 83.7548C83.934 83.4669 87.0468 85.2764 87.9201 83.9707C88.7111 82.778 85.927 83.7136 83.6669 82.4285C83.3895 82.2743 83.1737 82.0481 82.9888 81.7808C82.8758 81.606 82.5573 81.4723 81.6533 81.9453C81.5916 81.9761 81.53 82.0172 81.4684 82.0584C81.2423 82.2023 80.4102 82.6444 79.1877 81.8527C78.9925 81.7294 78.7664 81.6677 78.5302 81.6882C76.5679 81.8939 67.9177 83.0454 74.0612 86.6643C80.9444 90.7254 86.1017 87.3223 85.9579 84.4847" stroke="#293D67" stroke-width="1.39573" stroke-miterlimit="91.7336" stroke-linecap="round" stroke-linejoin="round"/>
<path d="M95.8613 57.7124C95.8613 57.7124 94.3409 60.7042 90.9814 60.2004" stroke="#293D67" stroke-width="1.39573" stroke-miterlimit="91.7336" stroke-linecap="round" stroke-linejoin="round"/>
<path d="M30.0497 111.863C30.0497 111.863 27.4916 114.752 23.4952 117.662C19.4886 120.571 16.7661 119.749 11.6705 123.584C6.57488 127.408 6.48242 128.498 6.48242 128.498" stroke="#293D67" stroke-width="1.39573" stroke-miterlimit="91.7336" stroke-linecap="round" stroke-linejoin="round"/>
</svg>
