<svg width="151" height="144" viewBox="0 0 151 144" fill="none" xmlns="http://www.w3.org/2000/svg">
<path d="M37.1058 83.7192C37.1058 83.7192 36.9464 83.6495 33.2886 85.281C29.6309 86.9125 27.9266 87.9173 25.7539 88.544C23.5712 89.1608 18.1295 96.4527 25.9831 102.431C33.8368 108.41 37.654 110.977 39.5177 117.025C41.3815 123.074 42.8565 123.322 42.8565 128.127C42.8565 132.932 45.8066 132.246 44.81 136.125C43.7934 140.005 44.4911 140.473 41.5409 136.981C38.5908 133.489 39.8367 133.26 35.2321 130.147C30.6475 127.043 30.2588 123.551 33.3684 127.51C36.4779 131.47 39.0393 128.913 39.0393 134.106C39.0393 139.309 41.222 140.154 37.3351 139.16C33.4481 138.145 34.5444 139.627 29.8701 138.463C25.1958 137.309 29.4814 139.01 24.3486 139.16" stroke="#293D67" stroke-width="1.2554" stroke-miterlimit="9.0703" stroke-linecap="round" stroke-linejoin="round"/>
<path d="M63.278 47.4685C61.9425 48.4434 61.3744 47.8267 60.009 50.0749C58.6336 52.3232 58.2848 52.4027 58.5439 55.0688C58.813 57.715 59.0721 59.5753 56.9991 59.5355C54.9161 59.4957 53.162 59.446 53.0623 57.4166C52.9726 55.3872 52.8929 55.4269 52.7035 53.9248C52.5341 52.4226 54.2483 52.9996 55.5241 51.01C56.7998 49.0204 56.9393 46.5036 57.029 50.1247C57.1187 53.7457 56.7599 56.4317 57.6469 56.0338C58.5339 55.6359 58.6236 49.6372 59.7698 47.8665C60.916 46.1056 62.999 45.1805 63.3578 42.5343C63.7166 39.8881 62.7797 34.0188 62.999 32.3873C63.2183 30.7558 64.7232 29.7013 65.969 28.5076C67.2049 27.3238 69.9556 25.9907 71.1815 25.5928C72.4174 25.1949 73.0353 25.9211 74.8492 24.6477C76.6731 23.3644 76.0253 22.4592 78.9654 22.4592C81.9056 22.4592 82.982 22.7278 85.075 22.8272C87.1679 22.9267 83.3109 21.0664 81.6464 21.4942C79.982 21.922 80.3607 22.3 78.9256 19.6737C77.4804 17.0574 76.5735 15.1374 73.733 15.1772C70.8925 15.2369 72.0686 15.3364 68.6401 15.605C65.2116 15.8736 64.783 17.0474 63.0189 14.5306C61.2548 12.0237 60.8861 7.9052 59.9193 9.78538C58.0954 13.307 62.7 10.6409 60.2881 12.5609C57.8761 14.4808 57.5672 12.5012 54.7865 16.0825C52.0058 19.6638 51.0889 19.4449 50.77 22.867C50.451 26.2892 49.9129 27.0253 48.5773 27.8311C47.2418 28.6369 43.2353 27.6719 43.1157 26.0703C43.016 24.4687 43.8632 23.1854 44.8797 26.7169C45.8963 30.2385 48.8963 34.0884 45.8963 33.1832C42.8964 32.2779 41.1423 31.8999 41.2918 29.9799C41.4512 28.0599 41.3914 30.0396 43.0559 32.0093C44.7203 33.979 45.2485 32.2281 42.5276 33.979C39.8067 35.7298 38.9995 33.9193 38.242 38.6745C37.4945 43.4197 37.2254 44.0066 38.242 45.7276C39.2586 47.4287 38.83 49.1497 41.6705 49.3089C44.511 49.4681 43.5442 46.046 41.4512 47.767C39.3582 49.4681 39.7868 49.4283 38.6706 50.9702C37.5543 52.5122 37.3849 53.9049 39.5775 53.7457C41.7702 53.5866 42.3582 52.1441 41.0227 53.9049C39.6872 55.6657 37.9231 54.3327 40.0061 57.914C42.0991 61.4953 43.0559 63.7336 44.7602 63.833C46.4644 63.9325 46.0458 64.6886 48.986 63.4053C50.5507 62.7189 51.8264 62.4801 52.6736 62.3906C53.6503 62.2911 54.5972 62.0921 55.5141 61.734L55.6835 61.6644C56.2018 61.4654 56.6901 61.1769 57.1187 60.8188C57.5672 60.4507 58.0655 60.0926 58.4044 60.202C58.8628 60.3612 58.7034 61.1471 57.2483 61.7141C54.5274 62.7885 54.4576 64.032 53.9194 66.0614C53.3912 68.0908 53.5507 70.3391 54.4078 73.2737C55.2649 76.2084 56.5406 74.557 58.4243 79.0933C60.298 83.6296 60.5572 85.1318 62.1219 87.3204C63.6667 89.5089 66.1385 89.877 69.2281 87.2607C72.3277 84.6443 71.8493 83.5699 74.2612 85.0721C76.6731 86.5742 75.218 87.201 78.5867 87.9073C81.9554 88.6136 83.8889 91.1106 85.3241 88.8126C86.7693 86.5245 86.1314 86.0371 87.8855 85.1815C89.6496 84.326 89.0018 83.7987 92.2708 83.8485C95.5399 83.9082 95.5398 84.3359 96.5963 84.2166C97.6727 84.1171 98.1411 83.8485 100.075 82.6149C101.998 81.3814 104.46 81.5405 100.294 80.3667C98.0614 79.4117 96.8554 78.9541 96.8554 78.9541C96.8554 78.9541 96.1777 78.6059 94.5233 78.0786C92.8588 77.5514 93.716 81.9683 95.0515 83.5301C96.387 85.0721 96.1677 84.2763 98.2009 86.3653C100.234 88.4544 101.251 89.2503 103.762 91.6975C106.274 94.1547 108.726 98.3826 110.918 100.123C113.111 101.864 112.025 99.3475 115.423 102.203C118.822 105.048 122.33 107.893 123.207 111.076C124.084 114.25 125.848 115.006 126.715 119.95C127.592 124.874 126.935 124.327 128.131 128.157C129.337 131.987 130.542 137.24 128.35 134.394C126.157 131.549 125.051 131.549 126.038 127.61C127.024 123.68 126.536 119.124 126.536 119.124" stroke="#293D67" stroke-width="1.2554" stroke-miterlimit="9.0703" stroke-linejoin="round"/>
<path d="M93.0681 85.7983C91.2044 86.4549 89.7692 87.0021 89.9984 88.8623C90.2177 90.7226 92.5199 90.832 89.6695 92.7918C86.8191 94.7615 87.3573 95.1992 86.3706 93.7767C85.3839 92.364 85.055 91.4687 89.221 91.3692C93.387 91.2499 95.5797 91.5881 97.5531 92.9012C99.5264 94.2144 99.5264 92.7819 97.2242 90.3844C94.9119 87.977 94.3737 87.3204 94.3737 87.3204C94.3737 87.3204 92.7292 85.0124 93.1678 86.8727C93.6163 88.733 95.8089 91.3692 97.6727 93.2295C99.5364 95.0898 98.7789 94.4332 102.178 96.7312C105.576 99.0392 107.34 99.5764 107.769 102.75C108.217 105.923 106.991 106.679 108.427 108.112C109.862 109.544 112.264 110.131 111.496 114.061C111.496 114.061 110.908 115.264 111.915 117.453C112.922 119.642 114.098 120.417 115.523 122.815C116.31 124.148 117.676 123.531 117.446 125.073C117.277 126.227 118.164 128.893 118.164 128.893C118.164 128.893 117.536 131.082 117.965 133.27C118.413 135.459 118.951 132.723 115.553 131.41C112.154 130.097 112.812 131.738 110.181 129.003C107.54 126.267 106.453 127.471 106.672 125.282C106.892 123.094 109.523 119.373 109.084 122.875C108.636 126.376 108.536 125.61 106.443 128.127C104.36 130.644 101.181 128.346 101.839 126.924" stroke="#293D67" stroke-width="1.2554" stroke-miterlimit="9.0703" stroke-linecap="round" stroke-linejoin="round"/>
<path d="M64.7332 33.0239C66.0089 35.3518 66.4275 34.7549 65.4109 38.9331C64.4043 42.9919 65.0122 45.0312 63.4574 46.7721C61.9126 48.513 65.8793 47.2994 67.9623 46.9711C70.0453 46.6428 71.9191 45.2998 74.2014 44.8223C76.4838 44.3448 78.4272 44.494 80.3807 45.2898C82.3341 46.0857 84.0783 47.6774 85.2145 47.5381C86.3606 47.4088 87.4968 47.8664 85.962 48.6125C84.4172 49.3586 83.1414 48.2942 81.8059 47.7669C80.4704 47.2397 79.0551 47.2397 77.2512 46.5632C75.4472 45.8867 74.8991 45.9663 73.3543 46.0956C71.8094 46.225 70.2746 48.7717 71.8792 48.9706C73.4838 49.1696 74.5004 48.9706 75.7761 48.6423C77.0519 48.3141 79.3741 47.6077 79.2844 49.7764C79.1947 51.9451 76.703 50.7314 76.4638 50.4031C76.2346 50.0848 75.6765 49.5476 76.0751 49.0303C76.2745 48.7717 77.0519 48.5429 77.7695 48.4832C78.487 48.4235 78.8259 48.6523 78.8159 49.0602C79.2046 50.1743 78.1183 50.3932 77.321 49.7366C76.5336 49.0801 77.909 48.135 78.6664 48.3538C79.4239 48.5727 80.4305 48.8512 80.9787 49.7565C81.5069 50.6618 81.766 50.8607 81.9953 51.1293C82.2245 51.3979 82.1547 51.5173 81.4372 51.3482C80.7395 51.1791 80.7096 51.0597 80.1714 51.1791C79.6531 51.2985 81.3076 50.4031 80.9588 49.7665" stroke="#293D67" stroke-width="1.2554" stroke-miterlimit="9.0703" stroke-linejoin="round"/>
<path d="M102.158 56.9391C102.257 59.3167 100.722 63.2462 102.098 62.2514C103.473 61.2466 104.191 61.7241 104.33 58.9287C104.47 56.1234 105.616 53.6065 106.184 56.0836C106.762 58.5607 108.177 61.3461 106.942 61.0178C105.706 60.6895 105.506 59.1675 107.948 57.9837C110.38 56.7999 111.616 58.6004 112.603 56.6108C113.609 54.6212 118.403 51.3483 115.084 46.6827C111.755 42.037 111.835 48.543 115.353 48.931C118.882 49.3189 117.058 47.011 117.835 44.5936C118.612 42.1762 119.599 42.0171 119.101 39.928C118.603 37.8389 119.928 38.0578 116.948 39.3311C113.978 40.5945 113.928 42.2359 112.991 38.9431C112.054 35.6503 113.38 35.322 113.38 32.3476C113.38 29.3831 114.257 29.4428 112.453 27.5128C110.629 25.5929 110.689 26.4086 109.543 25.752C108.387 25.0955 111.636 26.5777 111.516 23.9316C111.397 21.2953 111.187 20.0817 110.47 19.4251C109.752 18.7685 109.812 17.9926 110.021 21.1262C110.241 24.2598 109.752 25.3641 109.194 23.5436C108.646 21.7231 108.925 19.8131 107.101 15.5354C105.277 11.2578 103.633 8.84038 101.271 7.01989C98.9085 5.1994 103.364 9.21841 99.955 11.0289C96.5465 12.8494 98.7989 14.1626 98.6893 11.2478C98.5697 8.34298 100.334 7.18901 95.6694 4.49309C91.0051 1.79717 92.5897 2.29458 93.7459 6.64187C94.902 10.9792 96.4966 10.82 92.211 11.9641C87.9254 13.118 87.2676 12.4117 86.8789 15.8736C86.4902 19.3356 85.2842 19.8827 87.0483 21.9718C88.8124 24.0609 87.5965 24.8766 90.7359 23.0163C93.8754 21.1461 91.1845 21.5241 97.0149 21.6435C102.845 21.7629 105.267 23.7923 105.596 19.2858C105.925 14.7794 104.998 13.5756 104.998 13.5756C104.998 13.5756 104.879 12.3719 104.55 14.1228C104.221 15.8836 105.377 17.0276 104.221 19.445C103.065 21.8624 101.021 22.31 98.5996 22.4095C96.9252 22.4791 95.4003 22.5388 94.6329 22.5488C94.1346 22.5587 93.6263 22.7079 93.1977 22.9765C92.51 23.4242 91.9818 24.22 94.0847 25.2546C97.4435 26.8961 102.168 27.3437 102.556 29.9203C102.945 32.4968 101.35 29.8606 101.45 33.0539C101.57 36.2472 101.839 33.7702 102.985 37.5604C104.141 41.3506 104.061 41.848 104.061 41.848C104.061 41.848 104.191 43.0815 103.702 44.3648C103.045 48.3142 102.825 47.9859 102.546 50.1347C102.277 52.2834 102.487 51.9552 102.427 53.8652C102.367 55.7852 102.138 57.5161 102.138 57.5161" stroke="#293D67" stroke-width="1.2554" stroke-miterlimit="9.0703" stroke-linejoin="round"/>
<path d="M80.7993 58.6401C80.7993 58.6401 78.5169 60.4904 79.992 62.2015C81.467 63.9225 81.5667 62.858 82.7029 62.7785C83.849 62.679 83.3208 62.679 84.8955 63.435C86.4703 64.1911 87.4171 65.4843 88.1347 64.579C88.8523 63.6738 89.2808 63.0669 90.0881 63.246C90.8954 63.435 90.128 64.967 89.7592 64.2906C89.829 63.6738 90.7658 63.9623 91.1944 62.9575C91.623 61.9528 91.1944 61.336 90.6662 60.2517C90.1379 59.1673 89.4303 57.9238 89.4303 55.785C89.4303 53.6462 89.6695 52.9399 89.3307 51.567C89.0018 50.1942 89.4303 50.224 90.1479 49.3785C90.8655 48.5229 91.5333 48.4035 92.9685 48.0753C94.4036 47.747 95.4601 46.9611 96.9351 46.7323C98.4102 46.4935 98.8886 47.3093 99.975 47.5381C101.061 47.7768 101.968 48.5826 100.264 48.5428C98.5398 48.503 98.0713 47.5381 96.1179 48.2145C94.1644 48.8711 93.5067 48.7418 92.3804 49.647C91.2343 50.5523 91.623 51.6963 91.623 51.6963C91.623 51.6963 91.3838 52.3131 92.9087 50.8906C94.4236 49.458 94.3438 49.4182 95.8189 49.657C97.294 49.8958 97.2541 52.2733 96.2873 52.4623C95.3405 52.6514 93.9651 52.5519 94.0548 51.4576C94.284 49.4083 96.4468 49.7167 96.6362 50.5125C96.7956 51.1591 95.7192 52.0047 95.1013 51.6267C94.7425 51.4079 94.6827 50.9303 94.7525 50.5125C94.8721 49.7565 95.6794 49.4779 97.0647 50.0251C98.7291 50.6816 98.1112 50.8806 98.9683 51.3581C99.8255 51.8257 99.4966 52.0744 98.6394 52.6911C97.7823 53.3079 100.693 53.1189 101.639 52.5917C102.586 52.0644 102.257 54.4917 101.968 56.6704C101.679 58.8589 101.44 60.9878 100.344 63.4649C99.2574 65.9419 98.8288 66.8372 97.9218 69.4436C97.0149 72.06 96.8853 73.2736 95.7392 74.8554" stroke="#293D67" stroke-width="1.2554" stroke-miterlimit="9.0703" stroke-linecap="round" stroke-linejoin="round"/>
<path d="M58.4344 60.3013C58.4344 60.3013 58.4045 61.2463 60.4576 66.1408C62.5107 71.0352 65.9193 73.9201 67.5837 75.671C69.2481 77.4318 71.7696 79.5905 74.4805 80.9633C77.1914 82.3362 80.899 82.5849 82.4737 81.9681C84.0484 81.3513 84.4272 80.8837 84.3275 80.1675C84.2279 79.4512 83.281 80.9733 84.5667 81.7393C85.8524 82.4953 88.6131 82.2068 89.5101 81.411C90.4171 80.6052 92.6895 78.7549 93.1778 78.0884C93.6463 77.4318 95.8389 75.1437 96.0283 74.0992C96.2176 73.0546 96.8854 70.498 96.8854 70.498C96.8854 70.498 93.7459 70.498 92.2709 70.3587C90.7958 70.2195 88.8025 70.0702 87.2677 69.8912C85.7527 69.7022 85.6531 69.931 83.9388 69.2744C82.2146 68.6178 81.6764 69.1849 79.7229 69.0456C77.7695 68.9063 77.032 69.1849 77.032 69.1849C77.032 69.1849 77.032 68.9262 78.6266 68.7173C80.4804 69.2943 83.3009 68.4189 84.2876 68.4189C85.2743 68.4189 85.0451 68.3194 85.663 68.8864C86.281 69.4634 86.57 69.3142 87.2378 69.0257C87.8955 68.7372 88.045 68.6974 88.8523 69.2644C89.6596 69.8414 92.1612 70.0802 90.457 70.5079C88.7327 70.9357 88.0351 71.9206 86.1315 71.6818C84.2278 71.4431 82.5236 72.2389 81.3774 71.4829" stroke="#293D67" stroke-width="1.2554" stroke-miterlimit="9.0703" stroke-linecap="round" stroke-linejoin="round"/>
<path d="M94.0847 7.72611C92.7193 4.9904 90.0981 2.43376 87.4171 1.74734C84.7361 1.06093 79.8923 0.275034 83.2012 2.26464C86.5101 4.25425 89.6397 6.12448 88.1646 4.42336C86.6895 2.72225 85.8822 3.12017 82.9222 2.55313C79.9621 1.98609 78.4173 2.38402 75.6266 2.15521C72.836 1.92641 68.8494 2.32433 71.0719 3.79664C73.2945 5.26895 76.6034 4.48305 73.5835 4.19456C70.5636 3.90607 69.0288 4.71186 66.6866 5.10978C64.3445 5.5077 63.6668 6.14437 62.8196 8.07429C61.9625 10.0042 60.6568 8.7607 63.3378 12.1132C66.0189 15.4756 66.5869 12.6305 64.0255 11.2577C61.4641 9.89478 60.7764 11.0885 60.4276 12.0038" stroke="#293D67" stroke-width="1.2554" stroke-miterlimit="9.0703" stroke-linejoin="round"/>
<path d="M64.793 33.1035C64.793 33.1035 64.5638 32.4868 61.7532 34.4167C58.9625 36.3665 55.4443 37.6796 57.5573 39.6195C59.6602 41.5693 59.8894 36.5157 56.8596 35.9686C53.8198 35.4214 48.5275 41.8578 53.2716 44.2851C58.0157 46.6926 57.8563 43.6684 55.3746 43.4296C52.8829 43.2008 53.3514 41.4102 50.2418 45.9863C47.1322 50.5623 48.2186 47.7769 46.0459 49.2492C43.8632 50.7215 41.1423 54.3724 43.7137 56.7003C46.2751 59.0281 48.8465 61.5052 48.2983 63.3854C47.7501 65.2456 47.2119 68.817 47.2119 68.817C47.2119 68.817 46.3548 73.9402 44.4213 76.1089C42.4678 78.2875 40.2951 79.2823 38.3616 81.3913C36.4082 83.4903 36.5676 85.5794 37.4347 88.3748C38.3018 91.1702 47.7003 106.232 48.6272 116.946C49.5541 127.66 49.6438 125.262 48.8564 122.069C48.079 118.895 49.6338 119.035 52.1255 116.478C54.6171 113.921 56.8696 113.842 57.8862 112.21C58.9027 110.579 58.9027 108.719 58.1154 113.523C57.338 118.328 56.1619 118.259 58.5838 118.726C60.9957 119.194 63.7963 118.657 64.6435 117.871C65.5006 117.095 65.7298 116.717 63.009 120.119C60.2881 123.541 57.5672 125.869 54.8364 129.361C52.1055 132.852 50.4112 132.146 53.0424 135.568C55.6736 138.99 53.8995 138.205 57.3978 140.144C60.896 142.094 91.2244 142.472 91.2244 142.472C91.2244 142.472 87.7958 136.583 86.4105 131.758C85.0052 126.953 79.8724 116.538 76.4539 111.414C73.0254 106.291 72.258 103.347 68.8295 98.293C65.401 93.2394 64.5538 92.1551 63.7664 90.454C62.989 88.7529 62.7498 86.3355 66.3278 89.3696C69.9158 92.4038 73.4838 92.4038 74.022 96.0547C74.5602 99.7056 73.9523 98.7705 76.2047 101.486C78.0585 103.934 78.6665 105.078 78.6665 105.078C78.6665 105.078 76.9024 102.889 80.2412 104.202C83.58 105.515 87.6364 102.64 85.7627 106.918C83.8989 111.186 82.3342 109.246 85.1447 113.285C87.9354 117.324 91.3639 117.005 88.8025 120.039C86.2411 123.074 85.6231 127.023 85.075 124.387C84.5268 121.75 86.2311 121.979 88.0251 121.75C89.8191 121.522 90.2078 122.218 91.613 124.536C93.0183 126.864 96.2874 131.291 98.1511 135.797C100.015 140.304 99.8554 142.711 101.33 142.005C102.806 141.308 104.121 140.692 103.035 138.971C101.948 137.269 101.4 137.021 102.806 136.096C104.211 135.17 104.829 135.628 103.274 133.847C101.709 132.057 100.483 131.131 102.188 130.515C103.892 129.898 101.958 130.584 101.57 128.724C101.181 126.864 101.839 126.923 101.839 126.923" stroke="#293D67" stroke-width="1.2554" stroke-miterlimit="9.0703" stroke-linecap="round" stroke-linejoin="round"/>
<path d="M77.61 49.8459C77.3508 49.7763 77.8791 48.8113 79.1149 48.9207" stroke="#293D67" stroke-width="1.2554" stroke-miterlimit="9.0703" stroke-linejoin="round"/>
<path d="M95.3605 51.4081C94.5731 51.4777 95.221 50.5824 96.8654 50.4829" stroke="#293D67" stroke-width="1.2554" stroke-miterlimit="9.0703" stroke-linejoin="round"/>
<path d="M72.8658 49.04C72.8658 49.04 75.1781 49.3584 76.4339 50.4029" stroke="#293D67" stroke-width="1.2554" stroke-miterlimit="9.0703" stroke-linejoin="round"/>
</svg>
