<svg width="13" height="13" viewBox="0 0 13 13" fill="none" xmlns="http://www.w3.org/2000/svg">
<g clip-path="url(#clip0_0_1527)">
<path d="M9.87598 6H2.87598C2.32369 6 1.87598 6.44772 1.87598 7V10.5C1.87598 11.0523 2.32369 11.5 2.87598 11.5H9.87598C10.4283 11.5 10.876 11.0523 10.876 10.5V7C10.876 6.44772 10.4283 6 9.87598 6Z" stroke="#293D67" stroke-width="1.5" stroke-linecap="round" stroke-linejoin="round"/>
<path d="M3.87598 6V4C3.87598 3.33696 4.13937 2.70107 4.60821 2.23223C5.07705 1.76339 5.71294 1.5 6.37598 1.5C7.03902 1.5 7.6749 1.76339 8.14374 2.23223C8.61258 2.70107 8.87598 3.33696 8.87598 4V6" stroke="#293D67" stroke-width="1.5" stroke-linecap="round" stroke-linejoin="round"/>
</g>
<defs>
<clipPath id="clip0_0_1527">
<rect width="12" height="12" fill="white" transform="translate(0.375977 0.5)"/>
</clipPath>
</defs>
</svg>
