<svg width="24" height="25" viewBox="0 0 24 25" fill="none" xmlns="http://www.w3.org/2000/svg">
<circle cx="12" cy="12.2317" r="12" fill="#293D67"/>
<g clip-path="url(#clip0_0_2692)">
<path d="M16.0833 11.6483H7.91667C7.27233 11.6483 6.75 12.1706 6.75 12.815V16.8983C6.75 17.5426 7.27233 18.065 7.91667 18.065H16.0833C16.7277 18.065 17.25 17.5426 17.25 16.8983V12.815C17.25 12.1706 16.7277 11.6483 16.0833 11.6483Z" stroke="#FFF8E3" stroke-width="1.5" stroke-linecap="round" stroke-linejoin="round"/>
<path d="M9.0835 11.6483V9.31498C9.0835 8.54143 9.39079 7.79957 9.93777 7.25259C10.4847 6.70561 11.2266 6.39832 12.0002 6.39832C12.7737 6.39832 13.5156 6.70561 14.0626 7.25259C14.6095 7.79957 14.9168 8.54143 14.9168 9.31498V11.6483" stroke="#FFF8E3" stroke-width="1.5" stroke-linecap="round" stroke-linejoin="round"/>
</g>
<defs>
<clipPath id="clip0_0_2692">
<rect width="14" height="14" fill="white" transform="translate(5 5.23169)"/>
</clipPath>
</defs>
</svg>
