<svg width="361" height="138" viewBox="0 0 361 138" fill="none" xmlns="http://www.w3.org/2000/svg">
<g clip-path="url(#clip0_0_4226)">
<path d="M347.475 114.21C245.938 111.517 232.446 19.676 203.275 19.676C192.321 19.676 186.373 33.1671 183.422 50.7894C180.075 70.7833 180.605 96.0377 182.043 112.994C182.101 113.685 182.68 114.21 183.374 114.21H347.475Z" fill="#293D67"/>
<path d="M352.067 114.271C246.336 114.271 232.88 19.676 203.275 19.676C192.321 19.676 186.373 33.1671 183.422 50.7894C180.075 70.7833 180.605 96.0377 182.043 112.994C182.101 113.685 182.68 114.21 183.374 114.21H352.067" stroke="#FFF8E3" stroke-width="1.33977"/>
<path d="M303.61 114.21C202.073 111.517 188.58 19.676 159.41 19.676C148.455 19.676 142.507 33.1671 139.557 50.7894C136.21 70.7833 136.74 96.0377 138.177 112.994C138.236 113.685 138.815 114.21 139.509 114.21H303.61Z" fill="#293D67"/>
<path d="M308.202 114.271C202.471 114.271 189.014 19.676 159.41 19.676C148.455 19.676 142.507 33.1671 139.557 50.7894C136.21 70.7833 136.74 96.0377 138.177 112.994C138.236 113.685 138.815 114.21 139.509 114.21H308.202" stroke="#FFF8E3" stroke-width="1.33977"/>
<path d="M259.745 114.21C158.208 111.517 144.715 19.676 115.545 19.676C104.59 19.676 98.6422 33.1671 95.6919 50.7894C92.3445 70.7833 92.8748 96.0377 94.3123 112.994C94.3709 113.685 94.9498 114.21 95.6435 114.21H259.745Z" fill="#293D67"/>
<path d="M264.337 114.271C158.606 114.271 145.149 19.676 115.545 19.676C104.59 19.676 98.6422 33.1671 95.6919 50.7894C92.3445 70.7833 92.8748 96.0377 94.3123 112.994C94.3709 113.685 94.9498 114.21 95.6435 114.21H264.337" stroke="#FFF8E3" stroke-width="1.33977"/>
<path d="M3.53566 7.94242V12.641H9.05955V14.1228H3.53566V19.8999H1.71625V6.46063H9.99739V7.94242H3.53566Z" fill="#293D67"/>
<path d="M5.68332 62.8978C6.20226 62.8978 6.65867 62.829 7.05257 62.6915C7.45271 62.5539 7.78721 62.3632 8.05606 62.1194C8.33116 61.8693 8.53748 61.5723 8.67503 61.2284C8.81258 60.8846 8.88136 60.5063 8.88136 60.0936C8.88136 59.2371 8.61564 58.5681 8.08419 58.0867C7.559 57.6052 6.75871 57.3645 5.68332 57.3645H3.52628V62.8978H5.68332ZM5.68332 55.9296C6.53363 55.9296 7.2714 56.0297 7.89663 56.2297C8.5281 56.4236 9.05017 56.7018 9.46282 57.0644C9.87547 57.427 10.1818 57.8647 10.3819 58.3774C10.5882 58.8901 10.6914 59.4622 10.6914 60.0936C10.6914 60.7189 10.582 61.291 10.3631 61.8099C10.1443 62.3288 9.82233 62.7759 9.39717 63.151C8.97827 63.5261 8.4562 63.82 7.83098 64.0326C7.212 64.2389 6.49612 64.3421 5.68332 64.3421H3.52628V69.3689H1.71625V55.9296H5.68332Z" fill="#293D67"/>
<path d="M3.00109 116.55C3.30745 116.962 3.64195 117.253 4.00458 117.422C4.36721 117.591 4.77361 117.675 5.22378 117.675C6.1116 117.675 6.7931 117.359 7.26827 116.728C7.74344 116.097 7.98103 115.196 7.98103 114.027C7.98103 113.408 7.92476 112.877 7.81222 112.433C7.70593 111.989 7.54962 111.626 7.3433 111.345C7.13697 111.057 6.88376 110.848 6.58365 110.716C6.28354 110.585 5.94279 110.519 5.5614 110.519C5.01745 110.519 4.53915 110.645 4.1265 110.895C3.7201 111.145 3.34497 111.498 3.00109 111.954V116.55ZM2.91669 110.81C3.31683 110.316 3.7795 109.919 4.30469 109.619C4.82988 109.319 5.4301 109.169 6.10535 109.169C6.65555 109.169 7.1526 109.275 7.59652 109.488C8.04043 109.694 8.41869 110.004 8.7313 110.416C9.04392 110.823 9.28463 111.329 9.45344 111.936C9.62225 112.542 9.70666 113.239 9.70666 114.027C9.70666 114.727 9.61288 115.381 9.42531 115.987C9.23774 116.587 8.96576 117.109 8.60938 117.553C8.25926 117.991 7.82785 118.338 7.31516 118.594C6.80873 118.844 6.23665 118.969 5.59891 118.969C5.01745 118.969 4.51727 118.873 4.09837 118.679C3.68572 118.479 3.31996 118.204 3.00109 117.853V122.055H1.32236V109.338H2.32585C2.56343 109.338 2.71036 109.453 2.76663 109.685L2.91669 110.81ZM13.5152 116.55C13.8215 116.962 14.156 117.253 14.5187 117.422C14.8813 117.591 15.2877 117.675 15.7379 117.675C16.6257 117.675 17.3072 117.359 17.7824 116.728C18.2575 116.097 18.4951 115.196 18.4951 114.027C18.4951 113.408 18.4388 112.877 18.3263 112.433C18.22 111.989 18.0637 111.626 17.8574 111.345C17.6511 111.057 17.3978 110.848 17.0977 110.716C16.7976 110.585 16.4569 110.519 16.0755 110.519C15.5315 110.519 15.0532 110.645 14.6406 110.895C14.2342 111.145 13.859 111.498 13.5152 111.954V116.55ZM13.4308 110.81C13.8309 110.316 14.2936 109.919 14.8188 109.619C15.344 109.319 15.9442 109.169 16.6194 109.169C17.1696 109.169 17.6667 109.275 18.1106 109.488C18.5545 109.694 18.9328 110.004 19.2454 110.416C19.558 110.823 19.7987 111.329 19.9675 111.936C20.1363 112.542 20.2207 113.239 20.2207 114.027C20.2207 114.727 20.127 115.381 19.9394 115.987C19.7518 116.587 19.4798 117.109 19.1235 117.553C18.7733 117.991 18.3419 118.338 17.8292 118.594C17.3228 118.844 16.7507 118.969 16.113 118.969C15.5315 118.969 15.0314 118.873 14.6124 118.679C14.1998 118.479 13.834 118.204 13.5152 117.853V122.055H11.8364V109.338H12.8399C13.0775 109.338 13.2244 109.453 13.2807 109.685L13.4308 110.81Z" fill="#293D67"/>
<path d="M49.1589 132.439C49.4777 132.896 49.8466 133.23 50.2655 133.443C50.6907 133.649 51.1283 133.752 51.5785 133.752C52.4601 133.752 53.1384 133.437 53.6136 132.805C54.0888 132.174 54.3264 131.273 54.3264 130.104C54.3264 129.485 54.2607 128.954 54.1294 128.51C54.0044 128.066 53.8262 127.703 53.5948 127.422C53.3698 127.134 53.0947 126.925 52.7695 126.794C52.4507 126.662 52.0974 126.597 51.7098 126.597C51.3534 126.597 51.0189 126.662 50.7063 126.794C50.3999 126.919 50.1311 127.106 49.8998 127.356C49.6747 127.6 49.4934 127.9 49.3558 128.257C49.2245 128.613 49.1589 129.019 49.1589 129.476V132.439ZM47.4895 129.476C47.4895 128.832 47.5864 128.25 47.7802 127.731C47.9741 127.212 48.2523 126.772 48.6149 126.409C48.9775 126.04 49.4183 125.759 49.9373 125.565C50.4625 125.365 51.0533 125.265 51.7098 125.265C52.31 125.265 52.8727 125.371 53.3979 125.584C53.9293 125.796 54.3889 126.109 54.7765 126.522C55.1704 126.934 55.4799 127.441 55.705 128.041C55.9363 128.641 56.052 129.329 56.052 130.104C56.052 130.804 55.9582 131.458 55.7706 132.064C55.5831 132.664 55.3142 133.187 54.9641 133.63C54.614 134.068 54.1826 134.415 53.6699 134.671C53.1634 134.922 52.5914 135.047 51.9536 135.047C51.3847 135.047 50.8657 134.943 50.3968 134.737C49.9279 134.525 49.5152 134.234 49.1589 133.865V138.132H47.4895V129.476Z" fill="#293D67"/>
<path d="M170.456 121.476V134.916H168.862V125.04C168.862 124.909 168.865 124.768 168.871 124.618C168.884 124.468 168.896 124.315 168.909 124.158L164.295 132.562C164.151 132.843 163.932 132.984 163.638 132.984H163.376C163.082 132.984 162.863 132.843 162.719 132.562L158.011 124.121C158.049 124.452 158.067 124.759 158.067 125.04V134.916H156.473V121.476H157.814C157.977 121.476 158.102 121.492 158.189 121.523C158.277 121.554 158.361 121.642 158.443 121.786L163.085 130.058C163.16 130.208 163.232 130.364 163.301 130.526C163.376 130.689 163.444 130.855 163.507 131.023C163.569 130.855 163.635 130.689 163.704 130.526C163.773 130.358 163.848 130.198 163.929 130.048L168.487 121.786C168.562 121.642 168.643 121.554 168.731 121.523C168.824 121.492 168.953 121.476 169.115 121.476H170.456ZM179.564 129.129C179.564 128.741 179.508 128.388 179.396 128.069C179.289 127.744 179.13 127.466 178.917 127.235C178.711 126.997 178.458 126.816 178.158 126.691C177.857 126.559 177.517 126.494 177.135 126.494C176.335 126.494 175.7 126.728 175.232 127.197C174.769 127.66 174.481 128.304 174.369 129.129H179.564ZM180.915 133.584C180.709 133.834 180.462 134.053 180.174 134.24C179.886 134.422 179.577 134.572 179.245 134.69C178.92 134.809 178.583 134.897 178.233 134.953C177.882 135.016 177.535 135.047 177.192 135.047C176.535 135.047 175.929 134.937 175.372 134.719C174.822 134.493 174.344 134.168 173.937 133.743C173.537 133.312 173.225 132.78 172.999 132.149C172.774 131.517 172.662 130.792 172.662 129.973C172.662 129.31 172.762 128.691 172.962 128.116C173.168 127.541 173.462 127.044 173.844 126.625C174.225 126.2 174.691 125.868 175.241 125.631C175.791 125.387 176.41 125.265 177.098 125.265C177.667 125.265 178.192 125.362 178.673 125.556C179.161 125.743 179.58 126.019 179.93 126.381C180.286 126.738 180.565 127.181 180.765 127.713C180.965 128.238 181.065 128.838 181.065 129.514C181.065 129.776 181.037 129.951 180.98 130.039C180.924 130.126 180.818 130.17 180.662 130.17H174.312C174.331 130.77 174.412 131.292 174.556 131.736C174.706 132.18 174.913 132.552 175.175 132.852C175.438 133.146 175.75 133.368 176.113 133.518C176.476 133.662 176.882 133.734 177.332 133.734C177.751 133.734 178.111 133.687 178.411 133.593C178.717 133.493 178.98 133.387 179.199 133.274C179.417 133.162 179.599 133.059 179.743 132.965C179.893 132.865 180.021 132.815 180.127 132.815C180.265 132.815 180.371 132.868 180.446 132.974L180.915 133.584ZM191.443 134.916H189.774V126.728H186.773C186.698 127.935 186.585 128.979 186.435 129.861C186.285 130.736 186.104 131.483 185.891 132.102C185.685 132.715 185.451 133.215 185.188 133.603C184.932 133.984 184.66 134.281 184.372 134.493C184.091 134.706 183.797 134.85 183.491 134.925C183.19 135 182.89 135.037 182.59 135.037C182.059 135.037 181.793 134.953 181.793 134.784V133.724H182.281C182.493 133.724 182.709 133.687 182.928 133.612C183.147 133.537 183.359 133.393 183.566 133.181C183.778 132.968 183.981 132.671 184.175 132.29C184.369 131.902 184.544 131.402 184.7 130.789C184.863 130.17 185 129.423 185.113 128.548C185.232 127.666 185.322 126.622 185.385 125.415H191.443V134.916ZM198.092 125.265C198.786 125.265 199.411 125.381 199.968 125.612C200.524 125.843 200.999 126.172 201.393 126.597C201.787 127.022 202.087 127.538 202.294 128.144C202.506 128.745 202.612 129.417 202.612 130.161C202.612 130.911 202.506 131.586 202.294 132.186C202.087 132.787 201.787 133.299 201.393 133.724C200.999 134.15 200.524 134.478 199.968 134.709C199.411 134.934 198.786 135.047 198.092 135.047C197.392 135.047 196.76 134.934 196.198 134.709C195.641 134.478 195.166 134.15 194.772 133.724C194.378 133.299 194.075 132.787 193.862 132.186C193.656 131.586 193.553 130.911 193.553 130.161C193.553 129.417 193.656 128.745 193.862 128.144C194.075 127.538 194.378 127.022 194.772 126.597C195.166 126.172 195.641 125.843 196.198 125.612C196.76 125.381 197.392 125.265 198.092 125.265ZM198.092 133.743C199.03 133.743 199.73 133.431 200.193 132.805C200.655 132.174 200.887 131.295 200.887 130.17C200.887 129.038 200.655 128.157 200.193 127.525C199.73 126.894 199.03 126.578 198.092 126.578C197.617 126.578 197.201 126.659 196.845 126.822C196.495 126.985 196.201 127.219 195.963 127.525C195.732 127.832 195.557 128.21 195.438 128.66C195.325 129.104 195.269 129.607 195.269 130.17C195.269 131.295 195.5 132.174 195.963 132.805C196.432 133.431 197.142 133.743 198.092 133.743ZM210.928 133.696V126.728H207.917C207.855 127.704 207.767 128.566 207.655 129.317C207.542 130.067 207.411 130.727 207.261 131.295C207.117 131.858 206.955 132.336 206.773 132.73C206.598 133.124 206.414 133.446 206.22 133.696H210.928ZM214.285 133.649V137.673C214.285 137.835 214.238 137.96 214.145 138.048C214.057 138.142 213.941 138.189 213.798 138.189H212.775V134.916H204.785V137.71C204.785 137.829 204.747 137.939 204.672 138.039C204.604 138.139 204.488 138.189 204.325 138.189H203.275V133.696H203.585C203.803 133.696 204.019 133.659 204.232 133.584C204.45 133.509 204.66 133.368 204.86 133.162C205.06 132.949 205.248 132.652 205.423 132.271C205.604 131.889 205.767 131.392 205.91 130.78C206.054 130.167 206.179 129.423 206.286 128.548C206.392 127.666 206.476 126.622 206.539 125.415H212.55V133.649H214.285ZM224.126 125.415V134.916H222.457V128.463C222.457 128.338 222.463 128.204 222.476 128.06C222.488 127.916 222.504 127.772 222.523 127.628C222.466 127.754 222.41 127.869 222.354 127.976C222.298 128.082 222.238 128.179 222.176 128.266L217.59 134.503C217.521 134.603 217.433 134.7 217.327 134.794C217.227 134.881 217.114 134.925 216.989 134.925H215.976V125.425H217.655V131.877C217.655 131.996 217.649 132.127 217.636 132.271C217.624 132.408 217.608 132.549 217.59 132.693C217.646 132.574 217.702 132.465 217.758 132.365C217.815 132.258 217.871 132.161 217.927 132.074L222.513 125.837C222.582 125.737 222.67 125.643 222.776 125.556C222.882 125.462 222.998 125.415 223.123 125.415H224.126ZM231.764 129.851V126.541H230.17C229.813 126.541 229.513 126.594 229.269 126.7C229.026 126.8 228.829 126.931 228.679 127.094C228.535 127.25 228.432 127.428 228.369 127.628C228.307 127.822 228.275 128.016 228.275 128.21C228.275 128.723 228.463 129.126 228.838 129.42C229.213 129.707 229.726 129.851 230.376 129.851H231.764ZM233.358 125.415V134.916H231.764V130.911H231.033C230.857 130.911 230.711 130.927 230.592 130.958C230.479 130.983 230.379 131.02 230.292 131.07C230.21 131.12 230.138 131.186 230.076 131.267C230.013 131.342 229.948 131.43 229.879 131.53L227.797 134.334C227.691 134.534 227.559 134.681 227.403 134.775C227.253 134.869 227.031 134.916 226.737 134.916H225.574L228.332 131.333C228.557 130.958 228.854 130.708 229.222 130.583C228.741 130.52 228.335 130.408 228.003 130.245C227.672 130.083 227.4 129.892 227.187 129.673C226.981 129.448 226.831 129.201 226.737 128.932C226.643 128.663 226.597 128.391 226.597 128.116C226.597 127.791 226.659 127.466 226.784 127.141C226.915 126.816 227.122 126.528 227.403 126.278C227.684 126.022 228.047 125.815 228.491 125.659C228.941 125.496 229.485 125.415 230.123 125.415H233.358Z" fill="#FF847F"/>
<path d="M215.88 114.21C114.343 111.517 100.85 19.676 71.6793 19.676C60.725 19.676 54.777 33.1671 51.8267 50.7894C48.4793 70.7833 49.0096 96.0377 50.447 112.994C50.5056 113.685 51.0845 114.21 51.7782 114.21H215.88Z" fill="#293D67"/>
<path d="M220.472 114.271C114.741 114.271 101.284 19.676 71.6793 19.676C60.725 19.676 54.777 33.1671 51.8267 50.7894C48.4793 70.7833 49.0096 96.0377 50.447 112.994C50.5056 113.685 51.0845 114.21 51.7782 114.21H220.472" stroke="#FFF8E3" stroke-width="1.33977"/>
<path fill-rule="evenodd" clip-rule="evenodd" d="M26.2621 114.238C26.2621 114.978 26.8619 115.578 27.6019 115.578C28.3418 115.578 28.9416 114.978 28.9416 114.238L28.9416 13.6331L31.0757 19.4965C31.3288 20.1918 32.0976 20.5503 32.7929 20.2973C33.4882 20.0442 33.8467 19.2754 33.5937 18.5801L28.8582 5.56909C28.655 5.01081 28.1193 4.66966 27.5561 4.68787C26.9923 4.66885 26.4556 5.01014 26.2522 5.56903L21.5167 18.58C21.2636 19.2753 21.6221 20.0442 22.3175 20.2972C23.0128 20.5503 23.7816 20.1918 24.0347 19.4965L26.2621 13.3765L26.2621 114.238Z" fill="#293D67"/>
<path fill-rule="evenodd" clip-rule="evenodd" d="M27.6083 112.931C26.8684 112.931 26.2686 113.53 26.2686 114.27C26.2686 115.01 26.8684 115.61 27.6083 115.61L351.018 115.61L345.025 117.791C344.329 118.044 343.971 118.813 344.224 119.508C344.477 120.204 345.246 120.562 345.941 120.309L358.952 115.574C359.511 115.37 359.852 114.834 359.833 114.271C359.852 113.707 359.511 113.171 358.952 112.967L345.941 108.232C345.246 107.979 344.477 108.337 344.224 109.033C343.971 109.728 344.329 110.497 345.025 110.75L351.016 112.931L27.6083 112.931Z" fill="#293D67"/>
<path fill-rule="evenodd" clip-rule="evenodd" d="M336.366 94.1619C336.366 90.7063 334.783 85.8401 329.535 85.8401C324.288 85.8401 316.373 95.3169 307.598 93.211C298.823 91.105 290.049 80.5752 281.274 78.4693C272.499 76.3633 263.724 82.6812 254.949 85.8401C246.174 88.9991 237.4 88.9991 228.625 82.6812C219.85 76.3633 211.075 63.7276 202.3 58.4627C193.525 53.1978 184.751 55.3037 175.976 63.7276C167.201 72.1514 158.426 86.8931 149.651 90.052C140.876 93.211 134.95 87.6357 130.563 83.4238C130.563 83.4238 124.105 76.5851 119.478 81.1873C110.16 90.4547 114.2 114.271 114.2 114.271H127.714C132.102 114.271 140.876 114.271 149.651 114.271C158.426 114.271 167.201 114.271 175.976 114.271C184.751 114.271 193.525 114.271 202.3 114.271C211.075 114.271 219.85 114.271 228.625 114.271C237.4 114.271 246.174 114.271 254.949 114.271C263.724 114.271 272.499 114.271 281.274 114.271C290.049 114.271 298.823 114.271 307.598 114.271C316.373 114.271 325.148 114.271 329.535 114.271H336.366C336.366 114.271 336.366 106.513 336.366 94.1619Z" stroke="#FF847F" stroke-width="2.67955"/>
<path d="M329.333 133.875L328.471 135.345L325.08 133.385C324.845 133.241 324.636 133.098 324.453 132.954C324.27 132.81 324.107 132.627 323.963 132.405C324.172 132.836 324.277 133.313 324.277 133.836V137.716H322.552V133.855C322.552 133.594 322.565 133.352 322.591 133.13C322.631 132.908 322.703 132.692 322.807 132.483C322.663 132.666 322.507 132.83 322.337 132.973C322.167 133.117 321.971 133.254 321.749 133.385L318.378 135.325L317.516 133.855L320.886 131.896C321.383 131.595 321.879 131.438 322.376 131.425C322.115 131.399 321.86 131.353 321.612 131.288C321.376 131.21 321.135 131.092 320.886 130.935L317.496 128.956L318.358 127.486L321.749 129.446C321.984 129.59 322.193 129.74 322.376 129.897C322.559 130.053 322.722 130.243 322.866 130.465C322.657 130.008 322.552 129.518 322.552 128.995V125.115H324.277V128.975C324.277 129.237 324.257 129.485 324.218 129.72C324.192 129.942 324.127 130.158 324.022 130.367C324.166 130.184 324.323 130.021 324.492 129.877C324.662 129.733 324.858 129.59 325.08 129.446L328.451 127.506L329.313 128.975L325.943 130.935C325.721 131.079 325.498 131.19 325.276 131.268C325.054 131.347 324.819 131.399 324.571 131.425C324.819 131.451 325.054 131.504 325.276 131.582C325.498 131.647 325.721 131.752 325.943 131.896L329.333 133.875Z" fill="#293D67"/>
</g>
<defs>
<clipPath id="clip0_0_4226">
<rect width="361" height="137" fill="white" transform="translate(0 0.101074)"/>
</clipPath>
</defs>
</svg>
