<svg width="357" height="169" viewBox="0 0 357 169" fill="none" xmlns="http://www.w3.org/2000/svg">
<path d="M31.2127 32.6738C27.1713 38.2695 26.8947 50.6602 27.2843 56.7252C27.3062 57.067 27.5913 57.3296 27.9339 57.3296H144.773C144.892 57.3296 144.989 57.2327 144.989 57.1133C144.989 56.9938 144.895 56.8971 144.776 56.8961C131.722 56.7829 111.788 46.3378 93.2822 34.7136C86.0524 30.1721 83.9848 21.9907 75.5029 21.9907C67.021 21.9907 63.6404 28.5198 58.4144 31.4678C54.2336 33.8262 49.2578 32.4504 47.2925 31.4678C43.6745 29.4578 35.3934 26.885 31.2127 32.6738Z" fill="#FFF8E3"/>
<path d="M27.5402 57.3466C26.9529 47.4156 27.5401 28.9951 38.4323 28.9951C48.0428 28.9951 78.1563 57.3466 97.698 57.3466" stroke="#293D67" stroke-width="1.31111"/>
<path d="M49.2575 42.3584C56.2156 42.3584 59.9929 52.9471 78.4879 56.3762C78.5858 55.4863 78.8056 53.8704 79.2953 50.9805C80.1227 46.097 81.7907 42.3584 84.8628 42.3584C93.1652 42.3584 96.9391 57.434 126.591 57.434C116.812 57.434 103.551 57.4336 90.4655 57.4324C68.5046 57.4305 47.0376 57.4266 43.3546 57.4193C43.0234 57.4186 42.8073 57.1697 42.8362 56.8398C42.9011 56.0997 43.0991 54.4677 43.6899 50.9805C44.5173 46.097 46.1854 42.3584 49.2575 42.3584Z" fill="#FFF8E3"/>
<path d="M90.9853 57.434C61.3338 57.434 57.5599 42.3584 49.2575 42.3584C46.1854 42.3584 44.5173 46.097 43.6899 50.9805C43.0991 54.4677 42.9011 56.0997 42.8362 56.8398C42.8073 57.1697 43.0234 57.4186 43.3546 57.4193C49.2322 57.431 100.401 57.434 126.591 57.434C96.9391 57.434 93.1652 42.3584 84.8628 42.3584C81.7907 42.3584 80.1227 46.097 79.2953 50.9805C78.3338 56.6552 78.4125 57.4173 78.4125 57.4173" stroke="#293D67" stroke-width="1.31111"/>
<path d="M27.2842 56.8238C27.3061 57.1666 27.5912 57.4298 27.9338 57.4298H91.4173H144.773C144.892 57.4298 144.989 57.3327 144.989 57.213C144.989 57.0932 144.895 56.9962 144.776 56.9952C131.722 56.8817 112.009 46.1288 93.2822 34.752C85.7561 30.1799 83.167 21.9943 74.6851 21.9943M61.7859 57.4298C61.4297 54.8567 60.7172 21.9907 74.7287 21.9907" stroke="#293D67" stroke-width="1.31111"/>
<path fill-rule="evenodd" clip-rule="evenodd" d="M10.228 57.4143C10.228 57.7763 10.5215 58.0698 10.8835 58.0698C11.2456 58.0698 11.5391 57.7763 11.5391 57.4143L11.5391 8.18666L12.5837 11.0569C12.7075 11.3971 13.0837 11.5725 13.4239 11.4487C13.7642 11.3249 13.9396 10.9487 13.8158 10.6085L11.4987 4.24214C11.3992 3.96896 11.1371 3.80203 10.8615 3.81096C10.5856 3.80163 10.323 3.96863 10.2235 4.24211L7.90638 10.6084C7.78255 10.9486 7.95797 11.3248 8.29819 11.4487C8.63841 11.5725 9.01459 11.3971 9.13842 11.0568L10.228 8.06327L10.228 57.4143Z" fill="#293D67"/>
<path fill-rule="evenodd" clip-rule="evenodd" d="M10.886 56.7742C10.524 56.7742 10.2305 57.0677 10.2305 57.4298C10.2305 57.7919 10.524 58.0854 10.886 58.0854L169.13 58.0854L166.198 59.1526C165.858 59.2764 165.682 59.6526 165.806 59.9928C165.93 60.333 166.306 60.5084 166.646 60.3846L173.013 58.0675C173.286 57.968 173.453 57.7056 173.444 57.4299C173.453 57.1541 173.286 56.8917 173.013 56.7922L166.646 54.4751C166.306 54.3513 165.93 54.5267 165.806 54.8669C165.682 55.2072 165.858 55.5834 166.198 55.7072L169.13 56.7742L10.886 56.7742Z" fill="#293D67"/>
<path d="M1.73001 5.14917V7.4482H4.43286V8.17325H1.73001V11H0.839766V4.42413H4.89175V5.14917H1.73001Z" fill="#293D67"/>
<path d="M1.46844 58.291C1.61835 58.4929 1.78202 58.6351 1.95945 58.7177C2.13689 58.8003 2.33574 58.8416 2.55601 58.8416C2.99042 58.8416 3.32388 58.6871 3.55638 58.3781C3.78889 58.0692 3.90514 57.6286 3.90514 57.0565C3.90514 56.7537 3.87761 56.4936 3.82254 56.2764C3.77053 56.0592 3.69405 55.8818 3.5931 55.7441C3.49214 55.6034 3.36824 55.5009 3.2214 55.4367C3.07455 55.3724 2.90782 55.3403 2.72121 55.3403C2.45505 55.3403 2.22102 55.4015 2.01911 55.5239C1.82026 55.6462 1.6367 55.8191 1.46844 56.0424V58.291ZM1.42714 55.4826C1.62294 55.2409 1.84932 55.0466 2.1063 54.8998C2.36328 54.7529 2.65696 54.6795 2.98736 54.6795C3.25658 54.6795 3.49979 54.7315 3.717 54.8355C3.9342 54.9365 4.11929 55.0879 4.27225 55.2898C4.42521 55.4887 4.54299 55.7365 4.62559 56.0332C4.70819 56.33 4.74949 56.6711 4.74949 57.0565C4.74949 57.3992 4.70361 57.7189 4.61183 58.0156C4.52005 58.3093 4.38697 58.5648 4.2126 58.782C4.04128 58.9961 3.83019 59.1659 3.57933 59.2913C3.33153 59.4137 3.05161 59.4749 2.73956 59.4749C2.45505 59.4749 2.21031 59.4275 2.00534 59.3326C1.80343 59.2347 1.62446 59.1001 1.46844 58.9288V60.9846H0.647033V54.7621H1.13804C1.25429 54.7621 1.32619 54.8187 1.35372 54.9319L1.42714 55.4826Z" fill="#293D67"/>
<path fill-rule="evenodd" clip-rule="evenodd" d="M86.2548 78.0215C86.255 77.7453 86.4791 77.5217 86.7553 77.522C87.0314 77.5223 87.255 77.7463 87.2548 78.0225L87.2456 87.2133L87.5427 86.3968C87.6372 86.1374 87.9241 86.0036 88.1836 86.098C88.4431 86.1924 88.5769 86.4794 88.4824 86.7389L87.2044 90.2503C87.129 90.4573 86.9313 90.5843 86.7226 90.5793C86.514 90.5843 86.3162 90.4573 86.2409 90.2503L84.9628 86.7389C84.8684 86.4794 85.0022 86.1924 85.2617 86.098C85.5212 86.0036 85.8081 86.1374 85.9025 86.3968L86.2454 87.339L86.2548 78.0215Z" fill="#293D67"/>
<path d="M31.2127 136.464C27.1713 142.06 26.8947 154.451 27.2843 160.516C27.3062 160.858 27.5913 161.12 27.9339 161.12H144.773C144.892 161.12 144.989 161.023 144.989 160.904C144.989 160.784 144.895 160.688 144.776 160.687C131.722 160.573 111.788 150.128 93.2822 138.504C86.0524 133.963 83.9848 125.781 75.5029 125.781C67.021 125.781 63.6404 132.31 58.4144 135.258C54.2336 137.617 49.2578 136.241 47.2925 135.258C43.6746 133.248 35.3935 130.676 31.2127 136.464Z" fill="#293D67"/>
<path fill-rule="evenodd" clip-rule="evenodd" d="M10.228 161.105C10.228 161.467 10.5215 161.76 10.8835 161.76C11.2456 161.76 11.5391 161.467 11.5391 161.105L11.5391 111.877L12.5837 114.747C12.7075 115.088 13.0837 115.263 13.4239 115.139C13.7642 115.015 13.9396 114.639 13.8158 114.299L11.4987 107.933C11.3992 107.659 11.1371 107.492 10.8615 107.501C10.5856 107.492 10.323 107.659 10.2235 107.933L7.90638 114.299C7.78255 114.639 7.95797 115.015 8.29819 115.139C8.63841 115.263 9.01459 115.087 9.13842 114.747L10.228 111.754L10.228 161.105Z" fill="#293D67"/>
<path fill-rule="evenodd" clip-rule="evenodd" d="M10.886 160.465C10.524 160.465 10.2305 160.758 10.2305 161.12C10.2305 161.482 10.524 161.776 10.886 161.776L169.13 161.776L166.198 162.843C165.858 162.967 165.682 163.343 165.806 163.683C165.93 164.023 166.306 164.199 166.646 164.075L173.013 161.758C173.286 161.658 173.453 161.396 173.444 161.12C173.453 160.845 173.286 160.582 173.013 160.483L166.646 158.166C166.306 158.042 165.93 158.217 165.806 158.557C165.682 158.898 165.858 159.274 166.198 159.398L169.13 160.465L10.886 160.465Z" fill="#293D67"/>
<path d="M1.73001 108.84V111.139H4.43286V111.864H1.73001V114.69H0.839766V108.115H4.89175V108.84H1.73001Z" fill="#293D67"/>
<path d="M1.46844 161.981C1.61835 162.183 1.78202 162.326 1.95945 162.408C2.13689 162.491 2.33574 162.532 2.55601 162.532C2.99042 162.532 3.32388 162.378 3.55638 162.069C3.78889 161.76 3.90514 161.319 3.90514 160.747C3.90514 160.444 3.87761 160.184 3.82254 159.967C3.77053 159.75 3.69405 159.572 3.5931 159.435C3.49214 159.294 3.36824 159.191 3.2214 159.127C3.07455 159.063 2.90782 159.031 2.72121 159.031C2.45505 159.031 2.22102 159.092 2.01911 159.214C1.82026 159.337 1.6367 159.51 1.46844 159.733V161.981ZM1.42714 159.173C1.62294 158.931 1.84932 158.737 2.1063 158.59C2.36328 158.443 2.65696 158.37 2.98736 158.37C3.25658 158.37 3.49979 158.422 3.717 158.526C3.9342 158.627 4.11929 158.778 4.27225 158.98C4.42521 159.179 4.54299 159.427 4.62559 159.724C4.70819 160.02 4.74949 160.362 4.74949 160.747C4.74949 161.09 4.70361 161.409 4.61183 161.706C4.52005 162 4.38697 162.255 4.2126 162.472C4.04128 162.687 3.83019 162.856 3.57933 162.982C3.33153 163.104 3.05161 163.165 2.73956 163.165C2.45505 163.165 2.21031 163.118 2.00534 163.023C1.80343 162.925 1.62446 162.791 1.46844 162.619V164.675H0.647033V158.453H1.13804C1.25429 158.453 1.32619 158.509 1.35372 158.622L1.42714 159.173Z" fill="#293D67"/>
<path d="M278.318 2.24805C281.315 2.97098 281.78 4.13148 282.696 8.81458C283.612 13.4977 291.757 16.3992 294.506 22.7112C297.255 29.0232 317.412 57.4272 333.905 57.4272L250.658 56.7373M250.658 56.7373L209.815 56.3988C209.936 39.8207 211.401 6.56839 216.302 6.18396C216.979 6.07433 217.337 6.04367 218.376 6.83083C219.415 7.618 224 11.2001 226.054 13.0671C234.656 20.8875 235.711 47.459 240.674 49.6459C246.877 52.3794 250.229 56.7337 250.658 56.7373Z" stroke="#FF847F" stroke-width="1.31111"/>
<path d="M218.376 6.88757C217.337 6.09042 216.979 6.12147 216.302 6.23248C211.401 6.62179 209.936 40.2961 209.815 57.0846L250.658 57.4274C250.229 57.4238 247.203 52.4684 241 49.7002" stroke="#FF847F" stroke-width="1.31111"/>
<path d="M232.237 13.5099C228.032 13.8438 226.775 42.7313 226.672 57.1332L261.708 57.4273C261.341 57.4242 257 47.2001 252 43.2001C246.747 38.9979 248.961 29.6006 240 19.7001C237.847 17.3214 234.907 14.7557 234.016 14.0718C233.124 13.3879 232.818 13.4146 232.237 13.5099Z" stroke="#FF847F" stroke-width="1.31111"/>
<path d="M259.535 23.4473C256.282 23.7057 255.309 46.0566 255.229 57.1997L282.338 57.4273C282.054 57.4249 279.829 54.4981 275.711 52.6607C272.418 51.1908 273.292 35.3877 266.008 28.0739C264.189 26.248 261.601 24.4112 260.911 23.8821C260.222 23.353 259.985 23.3736 259.535 23.4473Z" stroke="#FF847F" stroke-width="1.31111"/>
<path d="M278.318 2.24805C281.314 2.97098 281.779 4.13148 282.696 8.81458C283.612 13.4977 291.757 16.3992 294.505 22.7112C297.254 29.0232 317.412 57.4272 333.904 57.4272M282.227 6.73294C282.227 6.73294 281.411 3.93845 280.295 3.08238C279.18 2.22632 277.285 2.32962 276.558 2.44884C271.295 2.86692 269.721 39.0299 269.592 57.0591L328.314 57.4272" stroke="#FF847F" stroke-width="1.31111"/>
<path fill-rule="evenodd" clip-rule="evenodd" d="M193.672 57.4143C193.672 57.7763 193.966 58.0698 194.328 58.0698C194.69 58.0698 194.983 57.7763 194.983 57.4143L194.983 8.18662L196.028 11.0569C196.152 11.3971 196.528 11.5725 196.868 11.4487C197.209 11.3249 197.384 10.9487 197.26 10.6085L194.943 4.24214C194.844 3.96895 194.581 3.80203 194.306 3.81096C194.03 3.80163 193.767 3.96862 193.668 4.24211L191.351 10.6084C191.227 10.9486 191.402 11.3248 191.743 11.4487C192.083 11.5725 192.459 11.3971 192.583 11.0568L193.672 8.06328L193.672 57.4143Z" fill="#FF847F"/>
<path fill-rule="evenodd" clip-rule="evenodd" d="M194.33 56.7742C193.968 56.7742 193.675 57.0677 193.675 57.4298C193.675 57.7918 193.968 58.0853 194.33 58.0853L352.575 58.0853L349.643 59.1526C349.302 59.2764 349.127 59.6526 349.251 59.9928C349.375 60.333 349.751 60.5084 350.091 60.3846L356.457 58.0675C356.731 57.968 356.898 57.7056 356.889 57.4299C356.898 57.1541 356.731 56.8917 356.457 56.7922L350.091 54.4751C349.751 54.3513 349.375 54.5267 349.251 54.8669C349.127 55.2072 349.302 55.5834 349.643 55.7072L352.574 56.7742L194.33 56.7742Z" fill="#FF847F"/>
<path d="M185.174 5.14917V7.4482H187.877V8.17325H185.174V11H184.284V4.42413H188.336V5.14917H185.174Z" fill="#FF847F"/>
<path d="M184.913 58.291C185.063 58.4929 185.226 58.6351 185.404 58.7177C185.581 58.8003 185.78 58.8416 186 58.8416C186.435 58.8416 186.768 58.6871 187.001 58.3781C187.233 58.0692 187.349 57.6286 187.349 57.0565C187.349 56.7537 187.322 56.4936 187.267 56.2764C187.215 56.0592 187.138 55.8818 187.037 55.7441C186.936 55.6034 186.813 55.5009 186.666 55.4367C186.519 55.3724 186.352 55.3403 186.166 55.3403C185.899 55.3403 185.665 55.4015 185.463 55.5239C185.265 55.6462 185.081 55.8191 184.913 56.0424V58.291ZM184.871 55.4826C185.067 55.2409 185.294 55.0466 185.551 54.8998C185.808 54.7529 186.101 54.6795 186.432 54.6795C186.701 54.6795 186.944 54.7315 187.161 54.8355C187.379 54.9365 187.564 55.0879 187.717 55.2898C187.87 55.4887 187.987 55.7365 188.07 56.0332C188.153 56.33 188.194 56.6711 188.194 57.0565C188.194 57.3992 188.148 57.7189 188.056 58.0156C187.964 58.3093 187.831 58.5648 187.657 58.782C187.486 58.9961 187.275 59.1659 187.024 59.2913C186.776 59.4137 186.496 59.4749 186.184 59.4749C185.899 59.4749 185.655 59.4275 185.45 59.3326C185.248 59.2347 185.069 59.1001 184.913 58.9288V60.9846H184.091V54.7621H184.582C184.699 54.7621 184.771 54.8187 184.798 54.9319L184.871 55.4826Z" fill="#FF847F"/>
<path fill-rule="evenodd" clip-rule="evenodd" d="M269.699 78.0215C269.699 77.7453 269.923 77.5217 270.2 77.522C270.476 77.5223 270.699 77.7463 270.699 78.0225L270.69 87.2133L270.987 86.3968C271.081 86.1374 271.368 86.0036 271.628 86.098C271.887 86.1924 272.021 86.4794 271.927 86.7389L270.649 90.2503C270.573 90.4573 270.376 90.5843 270.167 90.5793C269.958 90.5843 269.761 90.4573 269.685 90.2503L268.407 86.7389C268.313 86.4794 268.447 86.1924 268.706 86.098C268.966 86.0036 269.252 86.1374 269.347 86.3968L269.69 87.339L269.699 78.0215Z" fill="#FF847F"/>
<path d="M209.815 160.089C209.936 143.511 211.401 110.259 216.302 109.874C216.979 109.764 217.337 109.734 218.376 110.521C219.415 111.308 224.052 116.44 226.054 116.757C228.056 117.075 232.249 116.058 234.41 117.742C236.57 119.426 244.227 127.559 251.884 127.559C259.541 127.559 261.826 125.79 262.742 124.874C263.658 123.958 271.141 111.639 271.141 111.639C271.141 111.639 274.839 105.099 278.318 105.938C281.315 106.661 281.78 107.822 282.696 112.505C283.612 117.188 291.757 120.089 294.506 126.401C297.241 132.683 317.218 160.843 333.666 161.115L333.905 161.117C333.825 161.117 333.745 161.117 333.666 161.115L209.815 160.089Z" fill="#FF847F"/>
<path fill-rule="evenodd" clip-rule="evenodd" d="M193.672 161.105C193.672 161.467 193.966 161.76 194.328 161.76C194.69 161.76 194.983 161.467 194.983 161.105L194.983 111.877L196.028 114.747C196.152 115.088 196.528 115.263 196.868 115.139C197.209 115.015 197.384 114.639 197.26 114.299L194.943 107.933C194.844 107.659 194.581 107.492 194.306 107.501C194.03 107.492 193.767 107.659 193.668 107.933L191.351 114.299C191.227 114.639 191.402 115.015 191.743 115.139C192.083 115.263 192.459 115.087 192.583 114.747L193.672 111.754L193.672 161.105Z" fill="#FF847F"/>
<path fill-rule="evenodd" clip-rule="evenodd" d="M194.33 160.465C193.968 160.465 193.675 160.758 193.675 161.12C193.675 161.482 193.968 161.776 194.33 161.776L352.575 161.776L349.643 162.843C349.302 162.967 349.127 163.343 349.251 163.683C349.375 164.023 349.751 164.199 350.091 164.075L356.457 161.758C356.731 161.658 356.898 161.396 356.889 161.12C356.898 160.845 356.731 160.582 356.457 160.483L350.091 158.166C349.751 158.042 349.375 158.217 349.251 158.557C349.127 158.898 349.302 159.274 349.643 159.398L352.575 160.465L194.33 160.465Z" fill="#FF847F"/>
<path d="M185.174 108.84V111.139H187.877V111.864H185.174V114.69H184.284V108.115H188.336V108.84H185.174Z" fill="#FF847F"/>
<path d="M184.913 161.981C185.063 162.183 185.226 162.326 185.404 162.408C185.581 162.491 185.78 162.532 186 162.532C186.435 162.532 186.768 162.378 187.001 162.069C187.233 161.76 187.349 161.319 187.349 160.747C187.349 160.444 187.322 160.184 187.267 159.967C187.215 159.75 187.138 159.572 187.037 159.435C186.936 159.294 186.813 159.191 186.666 159.127C186.519 159.063 186.352 159.031 186.166 159.031C185.899 159.031 185.665 159.092 185.463 159.214C185.265 159.337 185.081 159.51 184.913 159.733V161.981ZM184.871 159.173C185.067 158.931 185.294 158.737 185.551 158.59C185.808 158.443 186.101 158.37 186.432 158.37C186.701 158.37 186.944 158.422 187.161 158.526C187.379 158.627 187.564 158.778 187.717 158.98C187.87 159.179 187.987 159.427 188.07 159.724C188.153 160.02 188.194 160.362 188.194 160.747C188.194 161.09 188.148 161.409 188.056 161.706C187.964 162 187.831 162.255 187.657 162.472C187.486 162.687 187.275 162.856 187.024 162.982C186.776 163.104 186.496 163.165 186.184 163.165C185.899 163.165 185.655 163.118 185.45 163.023C185.248 162.925 185.069 162.791 184.913 162.619V164.675H184.091V158.453H184.582C184.699 158.453 184.771 158.509 184.798 158.622L184.871 159.173Z" fill="#FF847F"/>
</svg>
