<svg width="361" height="154" viewBox="0 0 361 154" fill="none" xmlns="http://www.w3.org/2000/svg">
<g clip-path="url(#clip0_0_4293)">
<path d="M217.286 118.33C149.473 116.088 164.377 21.2202 144.831 21.2202C137.512 21.2202 133.537 30.2342 131.566 42.0083C129.357 55.2028 130.617 103.508 130.71 116.982C130.715 117.734 131.324 118.33 132.076 118.33H217.286Z" fill="#FF847F"/>
<path d="M219.755 118.37C149.111 118.37 164.611 21.2202 144.831 21.2202C137.512 21.2202 133.537 30.2342 131.566 42.0083C129.357 55.2027 130.617 103.508 130.71 116.982C130.715 117.734 131.324 118.33 132.076 118.33H219.755" stroke="#FF847F" stroke-width="2.72133" stroke-linecap="round"/>
<path d="M245.543 118.33C177.73 116.088 192.634 21.2202 173.087 21.2202C165.768 21.2202 161.794 30.2342 159.823 42.0083C157.614 55.2028 158.874 103.508 158.967 116.982C158.972 117.734 159.581 118.33 160.333 118.33H245.543Z" fill="#FF847F"/>
<path d="M248.011 118.37C177.368 118.37 192.867 21.2202 173.087 21.2202C165.768 21.2202 161.794 30.2342 159.823 42.0083C157.614 55.2027 158.874 103.508 158.967 116.982C158.972 117.734 159.581 118.33 160.333 118.33H248.011" stroke="#FF847F" stroke-width="2.72133" stroke-linecap="round"/>
<path d="M273.799 118.33C205.986 116.088 220.89 21.2202 201.343 21.2202C194.024 21.2202 190.05 30.2342 188.079 42.0083C185.87 55.2028 187.13 103.508 187.223 116.982C187.228 117.734 187.837 118.33 188.588 118.33H273.799Z" fill="#FF847F"/>
<path d="M276.267 118.37C205.624 118.37 221.123 21.2202 201.343 21.2202C194.024 21.2202 190.05 30.2342 188.079 42.0083C185.87 55.2027 187.13 103.508 187.223 116.982C187.228 117.734 187.837 118.33 188.588 118.33H276.267" stroke="#FF847F" stroke-width="2.72133" stroke-linecap="round"/>
<path d="M303.871 119.315C198.587 116.49 113.228 17.0635 67.854 17.0635C56.7289 17.0635 50.6881 37.0086 47.6918 54.9056C44.2922 75.2114 44.8308 100.86 46.2906 118.08C46.3502 118.782 46.9381 119.315 47.6426 119.315H218.966H303.871Z" fill="#293D67"/>
<path fill-rule="evenodd" clip-rule="evenodd" d="M30.7246 119.344C30.7246 120.095 31.3338 120.705 32.0853 120.705C32.8368 120.705 33.446 120.095 33.446 119.344L33.446 17.1674L35.6143 23.1248C35.8713 23.831 36.6521 24.1951 37.3582 23.9381C38.0644 23.6811 38.4285 22.9003 38.1715 22.1941L33.3621 8.98023C33.1558 8.41319 32.6117 8.06672 32.0397 8.08527C31.467 8.06591 30.9219 8.41253 30.7153 8.98016L25.906 22.194C25.649 22.9002 26.0131 23.681 26.7192 23.938C27.4254 24.195 28.2062 23.8309 28.4632 23.1248L30.7246 16.9114L30.7246 119.344Z" fill="#293D67"/>
<path fill-rule="evenodd" clip-rule="evenodd" d="M32.0384 118.016C31.2869 118.016 30.6777 118.625 30.6777 119.377C30.6777 120.128 31.2869 120.737 32.0384 120.737L351.546 120.737L345.46 122.952C344.753 123.209 344.389 123.99 344.646 124.696C344.903 125.403 345.684 125.767 346.39 125.51L359.604 120.7C360.172 120.494 360.518 119.949 360.499 119.377C360.518 118.804 360.172 118.26 359.604 118.053L346.39 113.244C345.684 112.987 344.903 113.351 344.646 114.057C344.389 114.763 344.753 115.544 345.46 115.801L351.545 118.016L32.0384 118.016Z" fill="#293D67"/>
<path d="M4.09079 12.0318V16.8037H9.70082V18.3086H4.09079V24.1758H2.24301V10.527H10.6533V12.0318H4.09079ZM14.8618 12.0318V16.8037H20.4719V18.3086H14.8618V24.1758H13.0141V10.527H21.4243V12.0318H14.8618Z" fill="#293D67"/>
<path d="M14.0908 112.513V117.285H19.7008V118.79H14.0908V124.657H12.243V111.008H20.6533V112.513H14.0908Z" fill="#293D67"/>
<path d="M33.4145 142.142C33.7384 142.606 34.113 142.945 34.5385 143.161C34.9702 143.371 35.4147 143.476 35.8719 143.476C36.7672 143.476 37.4562 143.155 37.9388 142.514C38.4213 141.872 38.6626 140.958 38.6626 139.771C38.6626 139.142 38.596 138.602 38.4626 138.151C38.3356 137.701 38.1546 137.332 37.9197 137.047C37.6911 136.754 37.4117 136.542 37.0815 136.408C36.7577 136.275 36.3989 136.208 36.0053 136.208C35.6433 136.208 35.3036 136.275 34.9861 136.408C34.675 136.535 34.4019 136.726 34.167 136.98C33.9384 137.228 33.7543 137.532 33.6146 137.894C33.4812 138.256 33.4145 138.669 33.4145 139.132V142.142ZM31.7192 139.132C31.7192 138.478 31.8176 137.888 32.0144 137.361C32.2113 136.834 32.4938 136.386 32.8621 136.018C33.2304 135.643 33.6781 135.358 34.2051 135.161C34.7385 134.957 35.3385 134.856 36.0053 134.856C36.6148 134.856 37.1863 134.964 37.7197 135.18C38.2594 135.396 38.7261 135.713 39.1198 136.132C39.5198 136.551 39.8342 137.066 40.0628 137.675C40.2977 138.285 40.4152 138.983 40.4152 139.771C40.4152 140.482 40.3199 141.145 40.1294 141.761C39.9389 142.371 39.6659 142.901 39.3103 143.352C38.9547 143.796 38.5166 144.149 37.9959 144.409C37.4816 144.663 36.9006 144.79 36.2529 144.79C35.6751 144.79 35.148 144.685 34.6718 144.476C34.1956 144.26 33.7765 143.965 33.4145 143.59V147.924H31.7192V139.132Z" fill="#293D67"/>
<path d="M287.142 140.834L286.279 142.304L282.889 140.344C282.654 140.201 282.445 140.057 282.262 139.913C282.079 139.77 281.916 139.587 281.772 139.365C281.981 139.796 282.085 140.273 282.085 140.795V144.675H280.361V140.815C280.361 140.553 280.374 140.312 280.4 140.09C280.439 139.868 280.511 139.652 280.616 139.443C280.472 139.626 280.315 139.789 280.145 139.933C279.975 140.077 279.779 140.214 279.557 140.344L276.187 142.285L275.324 140.815L278.695 138.855C279.192 138.554 279.688 138.398 280.184 138.385C279.923 138.359 279.668 138.313 279.42 138.247C279.185 138.169 278.943 138.051 278.695 137.895L275.305 135.915L276.167 134.446L279.557 136.405C279.793 136.549 280.002 136.699 280.184 136.856C280.367 137.013 280.531 137.202 280.674 137.424C280.465 136.967 280.361 136.477 280.361 135.955V132.074H282.085V135.935C282.085 136.196 282.066 136.444 282.027 136.68C282.001 136.902 281.935 137.117 281.831 137.326C281.974 137.143 282.131 136.98 282.301 136.836C282.471 136.693 282.667 136.549 282.889 136.405L286.26 134.465L287.122 135.935L283.751 137.895C283.529 138.038 283.307 138.149 283.085 138.228C282.863 138.306 282.628 138.359 282.379 138.385C282.628 138.411 282.863 138.463 283.085 138.541C283.307 138.607 283.529 138.711 283.751 138.855L287.142 140.834Z" fill="#293D67"/>
<path d="M219.755 118.37C149.111 118.37 164.611 21.2202 144.831 21.2202C137.512 21.2202 133.537 30.2342 131.566 42.0083C129.357 55.2027 130.617 103.508 130.71 116.982C130.715 117.734 131.324 118.33 132.076 118.33H219.755" stroke="#FF847F" stroke-width="2.72133" stroke-linecap="round"/>
<path d="M248.011 118.37C177.368 118.37 192.867 21.2202 173.087 21.2202C165.768 21.2202 161.794 30.2342 159.823 42.0083C157.614 55.2027 158.874 103.508 158.967 116.982C158.972 117.734 159.581 118.33 160.333 118.33H248.011" stroke="#FF847F" stroke-width="2.72133" stroke-linecap="round"/>
<path d="M276.267 118.37C205.624 118.37 221.123 21.2202 201.343 21.2202C194.024 21.2202 190.05 30.2342 188.079 42.0083C185.87 55.2027 187.13 103.508 187.223 116.982C187.228 117.734 187.837 118.33 188.588 118.33H276.267" stroke="#FF847F" stroke-width="2.72133" stroke-linecap="round"/>
<path d="M102.958 13.0985C103.305 13.0985 103.602 13.0588 103.848 12.9794C104.099 12.9001 104.301 12.7915 104.456 12.6536C104.615 12.5116 104.73 12.3424 104.801 12.1461C104.876 11.9455 104.913 11.7262 104.913 11.4881C104.913 11.2375 104.876 11.0161 104.801 10.8239C104.73 10.6276 104.615 10.4626 104.456 10.3289C104.301 10.191 104.101 10.0887 103.854 10.0219C103.608 9.95084 103.311 9.91533 102.965 9.91533H101.216V13.0985H102.958ZM102.965 8.95035C103.512 8.95035 103.984 9.01092 104.381 9.13207C104.778 9.24903 105.103 9.41613 105.358 9.63335C105.617 9.8464 105.807 10.1012 105.928 10.3978C106.054 10.6944 106.116 11.0182 106.116 11.3691C106.116 11.7826 106.045 12.1565 105.903 12.4907C105.766 12.8207 105.561 13.1027 105.289 13.3366C105.022 13.5705 104.692 13.7502 104.299 13.8755C103.907 14.0008 103.46 14.0635 102.958 14.0635H100.007V5.08418H105.809V6.04289H101.216V8.95035H102.965ZM110.919 11.2061C110.405 11.2229 109.966 11.2646 109.603 11.3315C109.244 11.3941 108.949 11.4777 108.719 11.5821C108.494 11.6865 108.329 11.8098 108.224 11.9518C108.124 12.0938 108.074 12.2526 108.074 12.428C108.074 12.5951 108.101 12.7392 108.155 12.8604C108.21 12.9815 108.283 13.0818 108.375 13.1612C108.471 13.2364 108.581 13.2927 108.707 13.3303C108.836 13.3638 108.974 13.3805 109.12 13.3805C109.317 13.3805 109.496 13.3617 109.659 13.3241C109.822 13.2823 109.975 13.2238 110.117 13.1486C110.263 13.0734 110.401 12.9836 110.53 12.8792C110.664 12.7748 110.793 12.6557 110.919 12.522V11.2061ZM107.316 8.61198C107.667 8.27361 108.045 8.02088 108.45 7.85379C108.855 7.68669 109.304 7.60314 109.797 7.60314C110.152 7.60314 110.467 7.66163 110.743 7.77859C111.019 7.89556 111.251 8.05848 111.439 8.26735C111.627 8.47622 111.769 8.72895 111.865 9.02554C111.961 9.32214 112.009 9.64798 112.009 10.0031V14.0635H111.514C111.405 14.0635 111.322 14.0468 111.263 14.0133C111.205 13.9758 111.159 13.9047 111.125 13.8003L111 13.1988C110.833 13.3533 110.67 13.4912 110.511 13.6123C110.353 13.7293 110.186 13.8295 110.01 13.9131C109.835 13.9925 109.647 14.053 109.446 14.0948C109.25 14.1408 109.03 14.1637 108.788 14.1637C108.542 14.1637 108.31 14.1303 108.093 14.0635C107.875 13.9925 107.685 13.888 107.522 13.7502C107.364 13.6123 107.236 13.439 107.14 13.2301C107.048 13.017 107.002 12.7664 107.002 12.4782C107.002 12.2275 107.071 11.9873 107.209 11.7576C107.347 11.5236 107.57 11.3168 107.88 11.1372C108.189 10.9576 108.592 10.8114 109.089 10.6986C109.586 10.5816 110.196 10.5148 110.919 10.4981V10.0031C110.919 9.51012 110.812 9.13833 110.599 8.88769C110.386 8.63287 110.075 8.50546 109.665 8.50546C109.39 8.50546 109.158 8.54097 108.97 8.61198C108.786 8.67882 108.625 8.7561 108.487 8.84383C108.354 8.92738 108.237 9.00466 108.137 9.07567C108.04 9.14251 107.944 9.17593 107.848 9.17593C107.773 9.17593 107.708 9.15713 107.654 9.11954C107.6 9.07776 107.554 9.02763 107.516 8.96915L107.316 8.61198ZM118.126 8.84383C118.092 8.88978 118.059 8.92529 118.025 8.95035C117.992 8.97542 117.946 8.98795 117.887 8.98795C117.825 8.98795 117.756 8.96288 117.681 8.91275C117.605 8.85845 117.511 8.79997 117.399 8.7373C117.29 8.67464 117.154 8.61825 116.991 8.56812C116.833 8.51381 116.636 8.48666 116.402 8.48666C116.089 8.48666 115.813 8.54306 115.575 8.65585C115.337 8.76446 115.137 8.9232 114.974 9.13207C114.815 9.34094 114.694 9.59367 114.61 9.89026C114.531 10.1869 114.491 10.519 114.491 10.8866C114.491 11.2709 114.535 11.6134 114.623 11.9142C114.711 12.2108 114.834 12.4614 114.992 12.6661C115.155 12.8667 115.35 13.0212 115.575 13.1298C115.805 13.2343 116.062 13.2865 116.346 13.2865C116.617 13.2865 116.841 13.2552 117.016 13.1925C117.192 13.1257 117.336 13.0525 117.449 12.9732C117.566 12.8938 117.662 12.8228 117.737 12.7601C117.816 12.6933 117.894 12.6599 117.969 12.6599C118.061 12.6599 118.132 12.6954 118.182 12.7664L118.495 13.1737C118.357 13.345 118.201 13.4912 118.025 13.6123C117.85 13.7335 117.66 13.8358 117.455 13.9194C117.255 13.9987 117.044 14.0572 116.822 14.0948C116.601 14.1324 116.375 14.1512 116.145 14.1512C115.749 14.1512 115.379 14.0781 115.036 13.9319C114.698 13.7857 114.403 13.5747 114.153 13.299C113.902 13.0191 113.706 12.6766 113.564 12.2714C113.422 11.8662 113.351 11.4046 113.351 10.8866C113.351 10.4145 113.416 9.97799 113.545 9.57696C113.679 9.17593 113.871 8.8313 114.121 8.54306C114.376 8.25064 114.688 8.02297 115.055 7.86005C115.427 7.69713 115.853 7.61568 116.333 7.61568C116.78 7.61568 117.173 7.68878 117.511 7.83499C117.854 7.97702 118.157 8.17962 118.42 8.4428L118.126 8.84383Z" fill="#293D67"/>
<path d="M204.179 5.08418V14.0635H203.114V7.46529C203.114 7.37756 203.116 7.28357 203.12 7.18332C203.128 7.08306 203.137 6.98071 203.145 6.87628L200.062 12.4907C199.966 12.6787 199.82 12.7727 199.623 12.7727H199.448C199.252 12.7727 199.105 12.6787 199.009 12.4907L195.864 6.85121C195.889 7.07261 195.901 7.27731 195.901 7.46529V14.0635H194.836V5.08418H195.732C195.841 5.08418 195.924 5.09462 195.983 5.11551C196.041 5.13639 196.098 5.19488 196.152 5.29096L199.254 10.8176C199.304 10.9179 199.352 11.0223 199.398 11.1309C199.448 11.2396 199.494 11.3503 199.536 11.4631C199.577 11.3503 199.621 11.2396 199.667 11.1309C199.713 11.0182 199.763 10.9116 199.818 10.8114L202.863 5.29096C202.913 5.19488 202.967 5.13639 203.026 5.11551C203.089 5.09462 203.174 5.08418 203.283 5.08418H204.179ZM210.264 10.1973C210.264 9.9383 210.227 9.70228 210.152 9.48923C210.081 9.27201 209.974 9.08612 209.832 8.93155C209.694 8.77281 209.525 8.65167 209.324 8.56812C209.124 8.48039 208.896 8.43653 208.641 8.43653C208.107 8.43653 207.683 8.59318 207.369 8.90649C207.06 9.21562 206.868 9.64589 206.793 10.1973H210.264ZM211.167 13.1737C211.029 13.3408 210.864 13.487 210.672 13.6123C210.479 13.7335 210.273 13.8337 210.051 13.9131C209.834 13.9925 209.608 14.0509 209.375 14.0885C209.141 14.1303 208.909 14.1512 208.679 14.1512C208.24 14.1512 207.835 14.0781 207.463 13.9319C207.096 13.7815 206.776 13.5643 206.505 13.2802C206.237 12.992 206.028 12.6369 205.878 12.215C205.728 11.7931 205.652 11.3085 205.652 10.7612C205.652 10.3184 205.719 9.90488 205.853 9.52057C205.991 9.13625 206.187 8.80414 206.442 8.52426C206.697 8.24019 207.008 8.01879 207.376 7.86005C207.743 7.69713 208.157 7.61568 208.616 7.61568C208.996 7.61568 209.347 7.68042 209.669 7.80992C209.995 7.93525 210.275 8.11905 210.509 8.36134C210.747 8.59945 210.933 8.89605 211.066 9.25112C211.2 9.60202 211.267 10.0031 211.267 10.4542C211.267 10.6297 211.248 10.7466 211.211 10.8051C211.173 10.8636 211.102 10.8928 210.997 10.8928H206.755C206.768 11.2939 206.822 11.6427 206.918 11.9393C207.018 12.2359 207.156 12.4844 207.332 12.6849C207.507 12.8813 207.716 13.0296 207.958 13.1298C208.201 13.2259 208.472 13.2739 208.773 13.2739C209.053 13.2739 209.293 13.2426 209.494 13.18C209.698 13.1131 209.874 13.0421 210.02 12.9669C210.166 12.8917 210.287 12.8228 210.383 12.7601C210.484 12.6933 210.569 12.6599 210.64 12.6599C210.732 12.6599 210.803 12.6954 210.853 12.7664L211.167 13.1737ZM218.201 14.0635H217.086V8.59318H215.081C215.031 9.39942 214.955 10.097 214.855 10.6861C214.755 11.2709 214.634 11.7701 214.492 12.1837C214.354 12.593 214.197 12.9272 214.022 13.1862C213.85 13.441 213.669 13.6395 213.477 13.7815C213.289 13.9235 213.092 14.0196 212.888 14.0697C212.687 14.1199 212.487 14.1449 212.286 14.1449C211.931 14.1449 211.753 14.0885 211.753 13.9758V13.2677H212.079C212.221 13.2677 212.365 13.2426 212.512 13.1925C212.658 13.1424 212.8 13.0463 212.938 12.9043C213.08 12.7622 213.215 12.5638 213.345 12.309C213.474 12.05 213.591 11.7158 213.696 11.3064C213.804 10.8928 213.896 10.3936 213.972 9.8088C214.051 9.21979 214.112 8.52217 214.153 7.71593H218.201V14.0635ZM222.643 7.61568C223.107 7.61568 223.525 7.69296 223.897 7.84752C224.268 8.00208 224.586 8.2214 224.849 8.50546C225.112 8.78952 225.313 9.13416 225.451 9.53936C225.593 9.94039 225.664 10.3895 225.664 10.8866C225.664 11.3879 225.593 11.839 225.451 12.24C225.313 12.6411 225.112 12.9836 224.849 13.2677C224.586 13.5517 224.268 13.7711 223.897 13.9256C223.525 14.076 223.107 14.1512 222.643 14.1512C222.175 14.1512 221.754 14.076 221.378 13.9256C221.006 13.7711 220.688 13.5517 220.425 13.2677C220.162 12.9836 219.959 12.6411 219.817 12.24C219.68 11.839 219.611 11.3879 219.611 10.8866C219.611 10.3895 219.68 9.94039 219.817 9.53936C219.959 9.13416 220.162 8.78952 220.425 8.50546C220.688 8.2214 221.006 8.00208 221.378 7.84752C221.754 7.69296 222.175 7.61568 222.643 7.61568ZM222.643 13.2802C223.27 13.2802 223.738 13.0713 224.047 12.6536C224.356 12.2317 224.511 11.6448 224.511 10.8928C224.511 10.1367 224.356 9.54772 224.047 9.1258C223.738 8.70389 223.27 8.49293 222.643 8.49293C222.326 8.49293 222.048 8.54723 221.81 8.65585C221.576 8.76446 221.38 8.92111 221.221 9.1258C221.066 9.33049 220.949 9.58323 220.87 9.884C220.795 10.1806 220.757 10.5169 220.757 10.8928C220.757 11.6448 220.912 12.2317 221.221 12.6536C221.534 13.0713 222.008 13.2802 222.643 13.2802ZM231.219 13.2489V8.59318H229.208C229.166 9.24486 229.108 9.82134 229.033 10.3226C228.957 10.8239 228.87 11.2646 228.769 11.6448C228.673 12.0207 228.565 12.3403 228.444 12.6035C228.327 12.8667 228.203 13.0818 228.074 13.2489H231.219ZM233.463 13.2176V15.9057C233.463 16.0143 233.431 16.0979 233.369 16.1563C233.31 16.219 233.233 16.2503 233.137 16.2503H232.454V14.0635H227.115V15.9308C227.115 16.0101 227.09 16.0832 227.04 16.1501C226.994 16.2169 226.917 16.2503 226.808 16.2503H226.106V13.2489H226.313C226.459 13.2489 226.603 13.2238 226.745 13.1737C226.892 13.1236 227.032 13.0296 227.165 12.8917C227.299 12.7497 227.424 12.5513 227.541 12.2964C227.662 12.0416 227.771 11.7095 227.867 11.3001C227.963 10.8907 228.047 10.3936 228.118 9.8088C228.189 9.21979 228.245 8.52217 228.287 7.71593H232.304V13.2176H233.463ZM240.038 7.71593V14.0635H238.923V9.75241C238.923 9.66886 238.927 9.57905 238.935 9.48297C238.943 9.38689 238.954 9.29081 238.966 9.19473C238.929 9.27828 238.891 9.35556 238.854 9.42657C238.816 9.49759 238.776 9.56234 238.735 9.62082L235.67 13.7878C235.625 13.8546 235.566 13.9194 235.495 13.982C235.428 14.0405 235.353 14.0697 235.269 14.0697H234.593V7.7222H235.714V12.0333C235.714 12.1126 235.71 12.2004 235.702 12.2964C235.693 12.3883 235.683 12.4823 235.67 12.5784C235.708 12.499 235.746 12.4259 235.783 12.3591C235.821 12.2881 235.858 12.2233 235.896 12.1649L238.96 7.99791C239.006 7.93107 239.065 7.86841 239.136 7.80992C239.207 7.74726 239.284 7.71593 239.367 7.71593H240.038ZM245.141 10.6798V8.46786H244.076C243.838 8.46786 243.637 8.50337 243.474 8.57439C243.311 8.64122 243.18 8.72895 243.079 8.83756C242.983 8.942 242.914 9.06105 242.873 9.19473C242.831 9.32423 242.81 9.45373 242.81 9.58323C242.81 9.92577 242.935 10.1952 243.186 10.3916C243.437 10.5837 243.779 10.6798 244.214 10.6798H245.141ZM246.206 7.71593V14.0635H245.141V11.3879H244.652C244.535 11.3879 244.437 11.3983 244.358 11.4192C244.283 11.4359 244.216 11.461 244.157 11.4944C244.103 11.5278 244.055 11.5717 244.013 11.626C243.971 11.6761 243.927 11.7346 243.881 11.8014L242.49 13.675C242.419 13.8087 242.332 13.9068 242.227 13.9695C242.127 14.0321 241.979 14.0635 241.782 14.0635H241.005L242.848 11.6698C242.998 11.4192 243.196 11.2521 243.443 11.1685C243.121 11.1268 242.85 11.0516 242.628 10.943C242.407 10.8344 242.225 10.7069 242.083 10.5607C241.945 10.4103 241.845 10.2453 241.782 10.0657C241.72 9.88609 241.688 9.70437 241.688 9.52057C241.688 9.30334 241.73 9.08612 241.814 8.86889C241.901 8.65167 242.039 8.45951 242.227 8.29241C242.415 8.12114 242.658 7.98329 242.954 7.87885C243.255 7.77024 243.618 7.71593 244.044 7.71593H246.206Z" fill="#FF847F"/>
</g>
<defs>
<clipPath id="clip0_0_4293">
<rect width="361" height="153" fill="white" transform="translate(0 0.175781)"/>
</clipPath>
</defs>
</svg>
