<svg width="361" height="131" viewBox="0 0 361 131" fill="none" xmlns="http://www.w3.org/2000/svg">
<g clip-path="url(#clip0_0_4178)">
<path d="M54.7344 113.961C54.9836 79.5512 58.0254 10.5329 68.1986 9.73498C69.604 9.50745 70.346 9.4438 72.5027 11.0776C74.6593 12.7115 84.2847 23.3622 88.4392 24.0216C92.5936 24.681 101.298 22.5708 105.782 26.0659C110.267 29.5609 126.159 46.4425 142.051 46.4425C157.944 46.4425 162.687 42.7709 164.589 40.8691C166.49 38.9673 182.022 13.3989 182.022 13.3989C182.022 13.3989 189.696 -0.177137 196.919 1.56563C203.137 3.06615 204.103 5.47488 206.005 15.1951C207.907 24.9153 224.812 30.9376 230.517 44.0388C236.195 57.0766 277.658 115.527 311.797 116.091L312.294 116.095C312.128 116.095 311.963 116.094 311.797 116.091L54.7344 113.961Z" fill="#FF847F"/>
<path d="M64.7848 64.9256C56.3966 76.5402 55.8225 102.258 56.631 114.847C56.6766 115.556 57.2684 116.101 57.9794 116.101H300.49C300.738 116.101 300.939 115.9 300.939 115.652C300.939 115.404 300.744 115.203 300.496 115.201C273.402 114.966 232.025 93.2866 193.616 69.1594C178.61 59.7332 174.318 42.752 156.713 42.752C139.108 42.752 132.091 56.3037 121.245 62.4225C112.567 67.3175 102.239 64.4621 98.16 62.4225C90.6506 58.2506 73.4624 52.9105 64.7848 64.9256Z" fill="#293D67"/>
<path fill-rule="evenodd" clip-rule="evenodd" d="M21.2285 116.068C21.2285 116.82 21.8377 117.429 22.5892 117.429C23.3407 117.429 23.9499 116.82 23.9499 116.068L23.9499 13.8915L26.1182 19.8489C26.3752 20.5551 27.156 20.9192 27.8622 20.6622C28.5683 20.4052 28.9324 19.6244 28.6754 18.9182L23.8661 5.70435C23.6597 5.13731 23.1156 4.79084 22.5436 4.80939C21.9709 4.79003 21.4258 5.13665 21.2192 5.70429L16.4099 18.9182C16.1529 19.6243 16.517 20.4051 17.2232 20.6621C17.9293 20.9191 18.7101 20.555 18.9671 19.8489L21.2286 13.6355L21.2285 116.068Z" fill="#293D67"/>
<path fill-rule="evenodd" clip-rule="evenodd" d="M22.595 114.74C21.8436 114.74 21.2344 115.349 21.2344 116.101C21.2344 116.852 21.8436 117.461 22.595 117.461L351.046 117.461L344.96 119.676C344.253 119.933 343.889 120.714 344.146 121.42C344.403 122.126 345.184 122.49 345.89 122.233L359.104 117.424C359.672 117.218 360.018 116.673 359.999 116.1C360.018 115.528 359.672 114.984 359.104 114.777L345.89 109.968C345.184 109.711 344.403 110.075 344.146 110.781C343.889 111.487 344.253 112.268 344.96 112.525L351.045 114.74L22.595 114.74Z" fill="#293D67"/>
<path d="M3.59079 8.75597V13.5278H9.20082V15.0327H3.59079V20.8999H1.74301V7.25107H10.1533V8.75597H3.59079Z" fill="#293D67"/>
<path d="M3.04789 119.057C3.35903 119.476 3.69874 119.771 4.06703 119.943C4.43531 120.114 4.84805 120.2 5.30523 120.2C6.2069 120.2 6.89903 119.879 7.38161 119.238C7.86419 118.596 8.10548 117.682 8.10548 116.495C8.10548 115.866 8.04833 115.326 7.93404 114.876C7.82609 114.425 7.66735 114.056 7.4578 113.771C7.24826 113.479 6.9911 113.266 6.68631 113.133C6.38152 112.999 6.03546 112.932 5.64812 112.932C5.09569 112.932 4.60993 113.059 4.19085 113.313C3.77811 113.567 3.39713 113.926 3.04789 114.39V119.057ZM2.96217 113.228C3.36855 112.726 3.83844 112.323 4.37182 112.018C4.9052 111.713 5.51478 111.561 6.20055 111.561C6.75933 111.561 7.26414 111.669 7.71497 111.885C8.1658 112.094 8.54997 112.409 8.86745 112.828C9.18494 113.24 9.42941 113.755 9.60085 114.371C9.7723 114.987 9.85802 115.695 9.85802 116.495C9.85802 117.206 9.76277 117.869 9.57228 118.485C9.38178 119.095 9.10557 119.625 8.74363 120.076C8.38805 120.52 7.94991 120.873 7.42923 121.133C6.9149 121.387 6.3339 121.514 5.68622 121.514C5.09569 121.514 4.58771 121.416 4.16227 121.219C3.74319 121.016 3.37173 120.736 3.04789 120.381V124.648H1.34298V111.732H2.36211C2.60341 111.732 2.75263 111.85 2.80977 112.085L2.96217 113.228Z" fill="#293D67"/>
</g>
<defs>
<clipPath id="clip0_0_4178">
<rect width="361" height="130" fill="white" transform="translate(0 0.101074)"/>
</clipPath>
</defs>
</svg>
