<svg width="361" height="131" viewBox="0 0 361 131" fill="none" xmlns="http://www.w3.org/2000/svg">
<g clip-path="url(#clip0_0_4199)">
<path d="M71.4556 65.6379C58.054 72.6688 56.323 108.43 56.9816 113.036V118.468H260.294H306.999C287.249 118.468 238.499 104.277 221.499 83.277C200.499 65.6379 195.499 31.777 176.732 59.7161C170.014 69.7172 163 77.5971 156.513 80.7712C148.104 84.8858 137.556 85.204 130.016 80.7712C97.3485 61.5652 82.743 59.7161 71.4556 65.6379Z" fill="#FF847F"/>
<path d="M65.2853 75.3863C56.9044 86.9907 56.1187 104.013 56.9101 116.021C56.9568 116.731 57.5488 117.277 58.2598 117.277H300.5C273.415 117.277 232.736 103.879 194.116 79.6201C179.11 70.1938 174.819 53.2126 157.214 53.2126C139.609 53.2126 132.592 66.7644 121.745 72.8832C113.067 77.7782 102.74 74.9228 98.6605 72.8832C91.1511 68.7113 73.9629 63.3712 65.2853 75.3863Z" stroke="#293D67" stroke-width="2.72133"/>
<path fill-rule="evenodd" clip-rule="evenodd" d="M21.7285 117.529C21.7285 118.28 22.3377 118.89 23.0892 118.89C23.8407 118.89 24.4499 118.28 24.4499 117.529L24.4499 15.3524L26.6182 21.3099C26.8752 22.016 27.656 22.3801 28.3622 22.1231C29.0683 21.8661 29.4324 21.0853 29.1754 20.3792L24.3661 7.16528C24.1597 6.59825 23.6156 6.25178 23.0436 6.27033C22.4709 6.25097 21.9258 6.59759 21.7192 7.16522L16.9099 20.3791C16.6529 21.0853 17.017 21.8661 17.7232 22.1231C18.4293 22.3801 19.2101 22.016 19.4671 21.3098L21.7286 15.0965L21.7285 117.529Z" fill="#293D67"/>
<path fill-rule="evenodd" clip-rule="evenodd" d="M23.095 116.201C22.3436 116.201 21.7344 116.81 21.7344 117.561C21.7344 118.313 22.3436 118.922 23.095 118.922L351.546 118.922L345.46 121.137C344.753 121.394 344.389 122.175 344.646 122.881C344.903 123.587 345.684 123.951 346.39 123.694L359.604 118.885C360.172 118.679 360.518 118.134 360.499 117.561C360.518 116.989 360.172 116.445 359.604 116.238L346.39 111.429C345.684 111.172 344.903 111.536 344.646 112.242C344.389 112.948 344.753 113.729 345.46 113.986L351.545 116.201L23.095 116.201Z" fill="#293D67"/>
<path d="M4.09079 10.2167V14.9885H9.70082V16.4934H4.09079V22.3606H2.24301V8.71177H10.6533V10.2167H4.09079Z" fill="#293D67"/>
<path d="M3.54789 120.518C3.85903 120.937 4.19874 121.232 4.56703 121.403C4.93531 121.575 5.34805 121.66 5.80523 121.66C6.7069 121.66 7.39903 121.34 7.88161 120.699C8.36419 120.057 8.60548 119.143 8.60548 117.955C8.60548 117.327 8.54833 116.787 8.43404 116.336C8.32609 115.885 8.16735 115.517 7.9578 115.231C7.74826 114.939 7.4911 114.727 7.18631 114.593C6.88152 114.46 6.53546 114.393 6.14812 114.393C5.59569 114.393 5.10993 114.52 4.69085 114.774C4.27811 115.028 3.89713 115.387 3.54789 115.85V120.518ZM3.46217 114.688C3.86855 114.187 4.33844 113.784 4.87182 113.479C5.4052 113.174 6.01478 113.022 6.70055 113.022C7.25933 113.022 7.76414 113.13 8.21497 113.345C8.6658 113.555 9.04997 113.869 9.36745 114.288C9.68494 114.701 9.92941 115.215 10.1009 115.831C10.2723 116.447 10.358 117.155 10.358 117.955C10.358 118.667 10.2628 119.33 10.0723 119.946C9.88178 120.556 9.60557 121.086 9.24363 121.537C8.88805 121.981 8.44991 122.334 7.92923 122.594C7.4149 122.848 6.8339 122.975 6.18622 122.975C5.59569 122.975 5.08771 122.876 4.66227 122.68C4.24319 122.476 3.87173 122.197 3.54789 121.841V126.109H1.84298V113.193H2.86211C3.10341 113.193 3.25263 113.311 3.30977 113.545L3.46217 114.688Z" fill="#293D67"/>
</g>
<defs>
<clipPath id="clip0_0_4199">
<rect width="361" height="130" fill="white" transform="translate(0 0.101074)"/>
</clipPath>
</defs>
</svg>
