<svg width="150" height="144" viewBox="0 0 150 144" fill="none" xmlns="http://www.w3.org/2000/svg">
<path d="M56.0895 56.2866C56.0895 56.2866 55.1415 62.1956 57.2916 66.7102C59.4417 71.2345 62.5202 73.6332 66.2339 76.8314C69.9477 80.0297 72.0293 79.5324 74.6094 81.8628C80.2485 84.6808 86.0341 82.6526 86.9234 81.775C87.803 80.8975 83.8156 82.6721 82.1053 81.2777C80.395 79.8834 81.9783 81.8433 79.4666 81.151C76.9549 80.4587 68.9411 71.2833 68.4524 69.2746C67.9442 67.2562 68.7651 66.1349 70.0943 65.7546C71.4234 65.3743 72.6059 66.5736 74.3162 67.1392C76.007 67.7047 78.0984 67.8997 79.6132 68.2703C81.128 68.6505 81.9978 68.9041 83.1999 68.2703C84.402 67.6365 85.8386 68.1435 87.6076 68.5238C89.3765 68.9041 90.0606 68.5823 90.0606 68.5823C90.0606 68.5823 87.5489 68.8358 85.78 69.9084C84.49 70.6787 82.5842 71.4588 80.0335 71.0395C78.4795 70.786 77.0136 70.1229 75.7529 69.1673C71.4723 65.9398 74.0133 67.2074 75.0785 66.3884C76.2122 65.5108 77.9127 64.448 80.1214 65.5108C82.3203 66.5834 81.6851 66.0764 83.0826 65.6961C84.4704 65.3158 85.7898 65.8813 86.8648 66.7687C87.9398 67.6462 88.7608 68.28 90.0704 68.5823" stroke="#293D67" stroke-width="1.22669" stroke-miterlimit="9.0703" stroke-linecap="round" stroke-linejoin="round"/>
<path d="M55.8944 60.2066C54.1842 59.0268 52.1807 58.1785 51.1741 56.4721C50.1674 54.7852 49.6592 54.4049 49.6104 53.3324C49.5517 52.2598 50.3727 52.133 51.4282 52.5718C52.0341 52.8253 52.4348 53.5274 52.8648 54.0344C53.285 54.5317 54.0473 54.6292 54.5458 54.2002C54.7705 54.0149 54.7706 53.7809 54.1939 52.8156C53.3144 51.3627 53.1189 51.8112 53.2459 49.6173C53.373 47.4234 53.4316 46.7311 54.5751 44.7127C55.7088 42.6943 54.9562 45.717 55.269 48.0377C55.5817 50.3584 54.9562 51.6162 54.448 48.6715C53.9398 45.717 55.3276 43.2013 56.2658 41.1927C57.2138 39.1743 58.5429 38.7453 58.1618 35.7225C57.7806 32.7095 57.722 32.3293 57.4679 28.9263C57.2138 25.5233 60.0089 27.1516 61.4651 24.3922C62.9213 21.6327 58.9632 19.5168 58.8361 23.0368C58.7091 26.5568 59.0511 28.8678 61.1914 29.6868C63.3415 30.5059 66.3614 31.1397 67.4168 27.9999C68.4919 24.8602 70.1826 23.6609 70.8179 20.7747C71.4531 17.8884 75.9194 10.3999 79.4475 10.9654C82.9755 11.531 84.676 14.0759 82.1546 13.6956C79.6332 13.3153 79.4963 16.0943 77.3658 15.129C75.978 13.6176 81.4607 14.9925 83.9724 15.6263C86.4841 16.2601 92.602 15.5678 92.602 15.5678C92.602 15.5678 94.4979 14.8755 97.078 15.8798C99.6581 16.8841 103.685 20.2774 104.447 26.3033C105.209 32.3293 105.962 31.6467 105.268 35.4203C104.574 39.1938 105.395 40.5101 104.388 41.3292C103.382 42.1483 101.495 41.963 100.547 39.5156C99.5995 37.0681 100.362 36.6878 98.2215 36.1906C96.0714 35.6835 95.3287 35.8103 93.3056 35.8103C91.2826 35.8103 90.3444 35.625 89.4648 36.5026C88.5853 37.3801 90.2174 37.4874 90.2174 37.4874" stroke="#293D67" stroke-width="1.22669" stroke-miterlimit="9.0703" stroke-linejoin="round"/>
<path d="M90.0709 37.2826C91.5955 36.4831 95.2115 37.0876 97.1368 37.1949C99.0621 37.3216 100.538 39.5155 100.792 40.5881C101.036 41.6705 99.023 43.4353 99.023 43.4353C99.023 43.4353 98.1043 41.5437 97.3811 40.7831C96.6579 40.0226 92.6118 37.3411 89.6018 40.3444C86.5917 43.3476 87.1976 42.821 87.7937 43.1526C88.3997 43.4743 88.517 42.431 90.452 41.5437C92.3773 40.6661 96.1399 40.7831 95.7099 43.2208C95.2701 45.6585 91.4586 44.2252 91.615 42.9771C91.7714 41.7387 94.3026 40.7344 94.6251 42.3433C94.9476 43.9521 92.9735 43.7084 92.905 42.9088C92.6216 41.7777 95.9542 40.6661 97.3518 42.821C98.7493 44.976 97.5082 44.1471 97.5082 44.1471C97.5082 44.1471 94.6935 45.5805 89.4454 43.8644" stroke="#293D67" stroke-width="1.22669" stroke-miterlimit="9.0703" stroke-linecap="round" stroke-linejoin="round"/>
<path d="M103.802 41.6606C103.802 41.6606 105.092 43.3963 104.046 48.7884C103 54.1806 107.183 59.2705 110.926 54.9216C114.669 50.5631 111.171 47.0138 108.161 47.3161C105.15 47.6281 104.349 51.4894 106.802 52.5327C109.255 53.576 111.532 50.5046 109.568 49.8415C107.603 49.1687 105.199 53.8296 104.838 56.277C104.466 58.7244 105.023 60.9378 103.479 62.0397C101.935 63.1415 101.261 64.6139 101.026 63.083C100.792 61.5521 100.713 59.719 101.652 57.4471C102.57 55.1752 103.684 53.5858 103.929 51.1871" stroke="#293D67" stroke-width="1.22669" stroke-miterlimit="9.0703" stroke-linejoin="round"/>
<path d="M101.378 63.746C101.378 63.746 100.43 67.383 99.6284 68.9139C98.827 70.4545 98.7097 70.9421 99.2081 71.8001C99.7066 72.6582 102.345 72.3462 103.264 70.513C104.183 68.6701 103.997 68.8652 105.355 66.0277C106.714 63.2097 106.157 63.5803 106.401 60.9378C106.645 58.3051 108.248 57.6811 109.597 56.2185C110.955 54.7558 113.721 54.1318 114.571 51.3723C115.431 48.6129 115.49 48.0083 113.281 43.8935C111.063 39.7787 109.783 37.2728 108.551 32.9727C107.32 28.6726 108.796 27.3953 107.378 23.5925C105.961 19.7897 104.368 16.0552 102.277 13.1105C100.185 10.1657 92.8166 -2.27619 79.1148 1.81911C65.413 5.92417 63.7222 8.40086 61.1324 9.07366C58.5523 9.74646 50.685 11.1603 48.7206 20.1115C48.0854 26.7907 51.8871 25.6597 49.004 31.3736C46.1112 37.0778 43.9025 39.2229 43.5409 42.5869C43.1695 45.9509 43.4823 49.6367 45.8669 53.1957C48.2711 56.745 47.2254 56.1404 46.5412 59.4557C45.8669 62.7709 46.854 64.8576 50.2843 66.6322C53.7342 68.4069 55.9331 70.8055 56.3729 72.5802C56.7931 74.3548 55.3272 72.6387 55.3272 69.0894C55.3272 65.5402 55.5911 62.4979 55.7768 61.0841C55.7377 59.4069 56.8029 61.1426 53.2944 58.2954C49.4829 55.1069 50.47 53.7613 49.2386 52.7179C48.0072 51.6746 46.9126 51.7331 46.1015 49.9585C45.3001 48.1838 44.6844 45.2976 46.9615 43.8838C49.2386 42.4699 52.796 45.9119 51.5646 48.2911C50.3332 50.6898 48.6131 49.2759 49.6002 47.004C50.5873 44.7321 55.1415 44.0008 55.1415 44.0008" stroke="#293D67" stroke-width="1.22669" stroke-miterlimit="9.0703" stroke-linejoin="round"/>
<path d="M85.9465 51.9184C85.9465 51.9184 86.8945 53.5273 86.8749 54.9509C86.8749 56.7645 86.2495 57.8566 84.7542 58.5196C84.4903 58.6366 83.8062 58.6561 83.2882 58.6464C82.7214 58.6464 82.2034 58.7341 81.7343 58.3929C81.2554 58.0418 81.0013 57.6616 80.845 57.213C80.7082 56.9303 80.5518 55.9747 78.7926 56.238C78.5776 56.2672 78.3822 56.3647 78.2258 56.5012C77.1117 57.5836 81.2066 58.3929 79.7699 57.9931C79.682 57.9638 76.7501 58.3734 75.7141 56.823C74.8541 55.5554 75.6457 54.0733 76.0953 53.5565C76.4666 53.1372 76.9455 52.7277 77.5905 52.2597C78.1281 51.8696 78.6167 51.4114 79.0467 50.8946L79.3302 50.5533C79.7015 50.1145 79.9654 49.627 80.1218 49.0907L80.6397 47.355C80.8645 46.5945 80.9818 45.8047 80.9622 45.0149C80.9329 43.4645 80.9916 41.9824 81.2261 41.0658C81.5486 39.8275 82.2132 39.2912 81.187 37.5946C80.1609 35.9077 78.8317 34.4938 77.1801 34.2793C75.5284 34.0648 73.0461 33.9868 70.8765 33.4505C68.7264 32.9142 69.5083 32.2902 67.7296 32.5729C65.9509 32.8655 65.9509 33.86 65.2863 33.9868C64.6217 34.1135 65.3254 34.1135 67.9836 34.4841C70.6419 34.8546 72.7822 35.5567 74.903 36.2197C77.0042 36.8828 78.2551 36.0052 79.0858 37.7408C79.9165 39.4764 78.1378 41.6606 77.5612 42.2067C76.9846 42.7429 76.7305 39.808 75.5284 38.8914C74.3263 37.9943 69.0782 35.1276 65.384 40.1785C65.384 40.1785 63.9669 40.8026 64.2699 41.8264C64.5631 42.8502 65.5599 42.1969 66.0877 41.5729C66.6154 40.9488 67.7002 39.7592 68.658 39.4764C69.606 39.1839 71.932 38.5794 72.919 40.1785C73.9061 41.7776 70.3878 43.4938 68.6971 41.8264C67.0063 40.1785 68.57 40.0127 69.5278 39.4764C70.4758 38.9402 72.8311 39.925 71.8147 41.1926C70.9156 42.0701 69.6939 41.4558 70.1044 40.5003C70.5149 39.5545 72.6747 38.6379 75.03 41.0756C75.03 41.0756 75.4014 41.8264 75.7825 42.3627C76.1539 42.899 73.7888 42.9867 72.1372 43.1915C70.4855 43.406 68.4039 42.6942 67.3386 42.2067" stroke="#293D67" stroke-width="1.22669" stroke-miterlimit="9.0703" stroke-linecap="round" stroke-linejoin="round"/>
<path d="M56.3928 73.3115C56.3928 73.3115 61.2207 79.4155 68.5407 82.799C75.8607 86.1825 78.5678 88.7469 80.9818 88.2106C83.3957 87.6939 91.3901 79.7178 93.5792 77.7579C95.7684 75.798 98.456 73.7991 97.3907 73.9551C96.3254 74.1111 95.9931 76.2562 95.612 78.8207C95.2308 81.3851 96.4427 85.0612 95.9932 86.3483C95.5436 87.6353 94.4099 90.7166 93.286 91.3894C92.1524 92.0622 87.4808 89.3612 84.461 90.6386C81.4411 91.9257 87.5492 91.0189 85.8194 96.2745C84.0798 101.54 85.5947 101.774 82.8778 103.198C80.1706 104.621 71.414 108.541 69.303 103.49C67.1822 98.4489 66.6447 90.0438 72.9874 92.2279C79.2128 94.5389 87.0997 102.047 87.1974 101.92" stroke="#293D67" stroke-width="1.22669" stroke-miterlimit="9.0703" stroke-linejoin="round"/>
<path d="M89.582 103.88L81.8711 97.5909C81.8711 97.5909 87.1486 101.891 90.0218 104.231C92.8853 106.571 96.1398 109.497 96.4329 107.546C96.7261 105.596 100.948 101.686 100.499 99.1218C100.049 96.5573 94.8497 93.5541 93.2567 95.514C91.6735 97.4739 94.5468 99.2095 97.7034 98.5952C100.86 97.9809 102.678 96.7231 102.375 94.4512C102.082 92.1987 99.2085 87.4501 97.0193 87.3819C94.8302 87.3136 93.9995 90.5411 93.0906 92.423C92.1915 94.2952 93.6085 96.1185 91.351 98.6635C89.0934 101.228 87.8034 101.452 88.937 103.402C90.0707 105.362 101.534 110.472 96.0225 105.362C90.5105 100.243 91.048 100.243 88.8588 101.374C86.6697 102.505 75.8118 106.786 72.7138 107.166C69.6255 107.546 65.7749 100.994 63.8887 97.6786C62.0123 94.3634 57.0281 82.6333 56.7251 79.0938C56.4221 75.5542 56.6664 73.9259 56.0605 73.019C55.4546 72.122 58.3474 73.1068 52.7963 76.0028C46.5416 79.084 36.964 84.3592 32.058 88.4837C27.1617 92.6278 27.0053 92.1792 24.7379 94.6559C22.4804 97.1326 61.162 92.7838 61.162 92.7838C61.162 92.7838 67.6416 106.025 61.2305 114.372C54.8194 122.719 51.0469 129.417 46.5318 131.523C42.0167 133.639 41.4791 133.327 41.1078 134.156C40.7266 134.985 43.3653 132.869 48.1932 137.169C53.0211 141.45 52.64 141.606 54.448 142.435C56.256 143.263 80.845 142.951 80.845 142.951C80.845 142.951 68.1009 115.483 66.2147 110.374C64.3383 105.255 65.081 107.059 64.1819 103.149C63.2828 99.229 61.768 93.4371 61.768 93.4371" stroke="#293D67" stroke-width="1.22669" stroke-miterlimit="9.0703" stroke-linejoin="round"/>
<path d="M114.767 131.777C114.767 131.777 112.353 128.462 107.907 123.577C103.46 118.691 102.551 118.984 100.206 114.547C97.86 110.111 94.6252 107.624 96.14 107.858C97.6548 108.092 99.6876 112.295 99.844 115.084C100 117.872 102.258 124.191 102.639 127.945C103.02 131.709 104.76 133.21 104.515 137.949C104.291 142.688 104.584 143.068 104.584 143.068L114.767 131.777ZM114.767 131.777C114.767 131.777 116.419 110.413 115.285 107.176C114.152 103.939 105.17 94.6949 103.587 94.1586C102.004 93.6419 100.89 96.2843 99.9808 97.9517" stroke="#293D67" stroke-width="1.22669" stroke-miterlimit="9.0703" stroke-linejoin="round"/>
<path d="M99.4725 113.699C99.4725 113.699 91.0091 121.393 88.0283 120.505C85.3602 119.715 86.1616 116.507 88.1455 116.771C88.644 116.839 89.074 117.122 89.4063 117.522C90.1588 118.467 89.5724 119.208 89.1619 121.831C88.6831 124.893 89.1326 134.975 90.8331 137.306C92.5239 139.646 96.6774 137.042 93.5989 134.966C90.6865 133.922 89.7679 137.462 92.5825 139.626C95.4069 141.801 101.026 142.561 104.584 143.039" stroke="#293D67" stroke-width="1.22669" stroke-miterlimit="9.0703" stroke-linecap="round" stroke-linejoin="round"/>
</svg>
