<svg width="23" height="30" viewBox="0 0 23 30" fill="none" xmlns="http://www.w3.org/2000/svg">
<path fill-rule="evenodd" clip-rule="evenodd" d="M1.84912 4.1733C1.84912 3.41797 2.46143 2.80566 3.21675 2.80566H11.5035C11.5078 2.80566 11.5122 2.80564 11.5166 2.80558V2.80566H19.8033C20.5586 2.80566 21.1709 3.41797 21.1709 4.1733V26.7256L12.1071 19.8608C11.7062 19.5572 11.1503 19.6018 10.8023 19.9445L1.84912 26.7256V4.1733ZM11.51 21.9175L2.40217 28.8157C1.35368 29.6098 -0.150879 28.8619 -0.150879 27.5467V4.1733C-0.150879 2.3134 1.35686 0.805664 3.21675 0.805664H11.5035C11.5078 0.805664 11.5122 0.805692 11.5166 0.805748V0.805664H19.8033C21.6632 0.805664 23.1709 2.3134 23.1709 4.1733V27.5467C23.1709 28.8619 21.6663 29.6098 20.6179 28.8157L11.51 21.9175Z" fill="#293D67"/>
</svg>
