<svg width="23" height="28" viewBox="0 0 23 28" fill="none" xmlns="http://www.w3.org/2000/svg">
<g clip-path="url(#clip0_0_1420)">
<path fill-rule="evenodd" clip-rule="evenodd" d="M11.6271 21.0652L2.51905 27.9636C1.47057 28.7577 -0.0339966 28.0099 -0.0339966 26.6946V3.32125C-0.0339966 1.46135 1.47374 -0.0463867 3.33364 -0.0463867H11.6203C11.6249 -0.0463867 11.6294 -0.0463566 11.6339 -0.0462965L19.9206 -0.0463867C21.7805 -0.0463867 23.2883 1.46135 23.2883 3.32125V26.6946C23.2883 28.0099 21.7837 28.7577 20.7352 27.9636L11.6271 21.0652ZM1.966 3.32125C1.966 2.56592 2.57831 1.95361 3.33364 1.95361H11.6203C11.6249 1.95361 11.6294 1.95358 11.6339 1.95352L19.9206 1.95361C20.676 1.95361 21.2883 2.56592 21.2883 3.32125V25.8736L12.2244 19.0087C11.8242 18.7056 11.2694 18.7496 10.9214 19.0909L1.966 25.8736V3.32125Z" fill="#293D67"/>
<path d="M3.33364 1.95361C2.57831 1.95361 1.966 2.56592 1.966 3.32125V25.8736L10.9214 19.0909C11.2694 18.7496 11.8242 18.7056 12.2244 19.0087L21.2883 25.8736V3.32125C21.2883 2.56592 20.676 1.95361 19.9206 1.95361L11.6339 1.95352L11.6203 1.95361H3.33364Z" fill="#293D67"/>
</g>
<defs>
<clipPath id="clip0_0_1420">
<rect width="23" height="28" fill="white"/>
</clipPath>
</defs>
</svg>
