<svg width="31" height="30" viewBox="0 0 31 30" fill="none" xmlns="http://www.w3.org/2000/svg">
<path fill-rule="evenodd" clip-rule="evenodd" d="M27.586 16.6679C27.5804 14.2637 26.4469 13.1669 25.4466 12.1989L25.4436 12.1959C24.6947 11.4709 23.9866 10.7854 23.7469 9.61373C23.0012 5.96451 21.1852 3.42154 18.4955 2.2642C14.5482 0.568731 11.6987 2.00873 10.6608 2.70623C7.9121 4.54045 7.64538 7.51982 7.43116 9.91373L7.41641 10.0798L7.4164 10.0798C7.39737 10.295 7.37855 10.5076 7.35616 10.7233C7.31307 11.4432 7.15857 12.1521 6.89819 12.8247C6.76443 13.1149 6.59419 13.4044 6.4133 13.7119L6.38538 13.7594C5.65038 15.003 4.73585 16.5512 5.57538 19.1547C6.16835 20.9828 8.58804 22.7776 10.3365 23.1512C9.5226 23.774 8.85654 24.5691 8.386 25.4795C7.88304 26.4934 8.3021 27.0733 8.74366 27.384C9.8621 28.1617 11.8248 28.5559 14.5773 28.5559C16.5627 28.5104 18.5321 28.1886 20.4287 27.5997C21.0938 27.4072 21.7377 27.1479 22.3505 26.8258C22.891 26.5328 23.6696 26.0247 23.4901 25.224C23.2704 24.3118 22.8182 23.4721 22.1776 22.7865C24.084 22.329 27.5954 20.9059 27.586 16.6679ZM14.8885 19.6839C14.8314 19.3687 14.746 19.0594 14.6335 18.7595C15.0325 18.6582 15.4251 18.5329 15.8091 18.3845C15.8673 18.3626 15.9144 18.3185 15.9401 18.2619C15.9658 18.2053 15.9679 18.1408 15.946 18.0826C15.9241 18.0245 15.88 17.9774 15.8234 17.9517C15.7668 17.926 15.7023 17.9239 15.6441 17.9458C15.1982 18.1245 14.7373 18.2637 14.2669 18.3615C13.7938 18.4538 13.3111 18.4872 12.8298 18.4609C11.3185 18.37 9.50866 16.9295 9.24897 15.6076C9.11119 14.7891 9.02866 13.9622 9.00194 13.1326C8.99168 12.9503 8.94655 12.3844 8.90515 11.8652L8.90514 11.865L8.90513 11.8648L8.90512 11.8648C8.86521 11.3642 8.82877 10.9072 8.83038 10.8794C8.87741 10.5618 8.97201 10.2534 9.11086 9.96434C9.59988 9.77443 10.1433 9.77545 10.6326 9.96863C10.6919 9.98728 10.7562 9.98161 10.8113 9.95286C10.8664 9.92412 10.9079 9.87465 10.9265 9.81535C10.9452 9.75605 10.9395 9.69177 10.9108 9.63665C10.882 9.58154 10.8326 9.54009 10.7733 9.52145C10.4606 9.40113 10.127 9.34435 9.79212 9.35441C9.66676 9.35817 9.54215 9.37128 9.4193 9.39349C10.1251 8.14625 10.9649 6.97911 11.9241 5.91295C12.6981 6.99322 13.5598 8.16215 14.6516 9.23903C14.5976 9.23963 14.5435 9.24216 14.4895 9.24664C14.1919 9.27134 13.902 9.35471 13.6367 9.49194C13.5974 9.52145 13.5683 9.5626 13.5536 9.60955C13.539 9.65651 13.5394 9.70689 13.555 9.75355C13.5706 9.80022 13.6004 9.84081 13.6403 9.86957C13.6802 9.89833 13.7282 9.91381 13.7773 9.91381C13.8297 9.91434 13.8806 9.89734 13.9222 9.86553C14.3253 9.68971 14.7773 9.66085 15.1995 9.78397C15.2164 9.79128 15.234 9.79656 15.2521 9.79973C15.7965 10.28 16.3955 10.7338 17.063 11.1433C17.5689 11.4303 18.1044 11.6616 18.6601 11.8333C18.7128 11.8493 18.7693 11.8469 18.8205 11.8265C18.8716 11.806 18.9143 11.7687 18.9413 11.7208C19.018 11.5734 19.1232 11.4428 19.2507 11.3364C19.403 11.21 19.5803 11.1174 19.771 11.0646C19.9616 11.0117 20.1614 10.9999 20.3569 11.0298C20.5534 11.0799 20.7333 11.1809 20.8784 11.3226C21.0234 11.4643 21.1286 11.6417 21.1833 11.837C21.3109 12.2429 21.328 12.6753 21.233 13.09C21.1249 13.6323 20.8133 14.1127 20.3621 14.4325C20.2412 14.5142 20.1048 14.5703 19.9614 14.5975C19.8181 14.6247 19.6706 14.6223 19.5282 14.5905C19.3278 14.5329 19.1438 14.429 18.991 14.2872C18.9578 14.2611 18.9183 14.2445 18.8764 14.239C18.8346 14.2336 18.7921 14.2395 18.7533 14.2562C18.7151 14.2738 18.6821 14.3009 18.6575 14.335C18.6329 14.3691 18.6174 14.409 18.6127 14.4508C18.5697 14.8313 18.4609 15.2015 18.2912 15.5448C18.1334 15.8888 17.9164 16.2024 17.6499 16.4711C17.5646 16.5605 17.4728 16.6436 17.3752 16.7195C17.3265 16.7578 17.2949 16.8138 17.2874 16.8753C17.2798 16.9367 17.2969 16.9987 17.3349 17.0476C17.3666 17.0854 17.409 17.1127 17.4565 17.126C17.504 17.1393 17.5544 17.138 17.6012 17.1222C17.6448 18.1431 17.8693 20.462 19.0027 21.1253C19.0769 21.1577 19.149 21.1945 19.2208 21.2312L19.2606 21.2515C19.2732 21.2579 19.2858 21.2643 19.2984 21.2706C19.3047 21.2737 19.311 21.2769 19.3173 21.28C18.7797 22.0612 18.0262 22.6688 17.1489 23.0287C16.2715 23.3885 15.3084 23.4851 14.3771 23.3064C14.0539 23.2585 13.7501 23.1223 13.4993 22.9129C13.2485 22.7035 13.0602 22.429 12.9554 22.1195C13.0241 22.0866 13.1468 22.03 13.2953 21.9615C13.7541 21.7498 14.4591 21.4244 14.5791 21.3348C15.0193 21.01 14.9902 20.2581 14.8885 19.6839ZM10.7282 11.3528C10.7477 11.3457 10.7662 11.336 10.7834 11.3239C10.8231 11.2958 10.8531 11.2561 10.8692 11.2102C10.8854 11.1643 10.8868 11.1145 10.8734 11.0677C10.8599 11.021 10.8322 10.9796 10.7942 10.9492C10.568 10.7684 10.2869 10.6699 9.99732 10.6699C9.7077 10.6699 9.42669 10.7684 9.20045 10.9492C9.15184 10.9881 9.12065 11.0446 9.11375 11.1065C9.11033 11.1371 9.11298 11.1681 9.12154 11.1977C9.13011 11.2273 9.14441 11.2549 9.16365 11.279C9.18289 11.3031 9.20668 11.3231 9.23366 11.338C9.26064 11.3529 9.29029 11.3623 9.32091 11.3657C9.35153 11.3691 9.38253 11.3665 9.41213 11.3579C9.44172 11.3493 9.46935 11.335 9.49342 11.3158C9.63605 11.2011 9.81359 11.1386 9.99662 11.1386C10.061 11.1386 10.1248 11.1463 10.1865 11.1613C9.99525 11.1731 9.84375 11.332 9.84375 11.5263V11.9763C9.84375 12.1782 10.0074 12.3419 10.2094 12.3419H10.4063C10.6082 12.3419 10.7719 12.1782 10.7719 11.9763V11.5263C10.7719 11.4635 10.7561 11.4044 10.7282 11.3528ZM15.7903 11.3369C15.7509 11.3648 15.7039 11.3799 15.6556 11.38L15.6558 11.3805L15.6567 11.381L15.656 11.381C15.6717 11.4217 15.6803 11.466 15.6803 11.5122V11.9622C15.6803 12.1642 15.5166 12.3279 15.3146 12.3279H15.1225C14.9205 12.3279 14.7568 12.1642 14.7568 11.9622V11.5122C14.7568 11.3357 14.882 11.1883 15.0485 11.1541C15.0341 11.1533 15.0196 11.1529 15.0051 11.1529C14.8213 11.1529 14.643 11.2153 14.4993 11.3299C14.4506 11.3681 14.3887 11.3856 14.3272 11.3784C14.2657 11.3712 14.2095 11.3399 14.171 11.2914C14.1324 11.2429 14.1147 11.1811 14.1216 11.1195C14.1285 11.0579 14.1595 11.0016 14.2078 10.9628C14.4343 10.7827 14.7152 10.6846 15.0046 10.6846C15.2941 10.6846 15.575 10.7827 15.8015 10.9628C15.8394 10.9932 15.8669 11.0346 15.8802 11.0813C15.8935 11.1279 15.892 11.1776 15.8759 11.2234C15.8598 11.2692 15.8299 11.3089 15.7903 11.3369ZM12.4729 15.7604H12.4194C12.2622 15.761 12.1068 15.7271 11.9641 15.661C11.8215 15.5949 11.6951 15.4983 11.594 15.3779C11.5579 15.3285 11.5425 15.267 11.5512 15.2065C11.5598 15.146 11.5918 15.0912 11.6402 15.0539C11.6886 15.0166 11.7497 14.9997 11.8104 15.0068C11.8712 15.0139 11.9267 15.0445 11.9652 15.092C12.0252 15.1567 12.0983 15.2081 12.1795 15.2426C12.2608 15.2771 12.3485 15.294 12.4368 15.2921C12.5751 15.2975 12.7129 15.2733 12.8411 15.2212C12.9693 15.1691 13.0849 15.0902 13.1802 14.9898C13.2003 14.9655 13.2251 14.9455 13.2531 14.9311C13.2811 14.9166 13.3118 14.9079 13.3432 14.9056C13.3746 14.9032 13.4062 14.9072 13.4361 14.9174C13.4659 14.9275 13.4934 14.9435 13.5169 14.9645C13.5404 14.9856 13.5594 15.0111 13.5728 15.0396C13.5862 15.0682 13.5938 15.0991 13.5949 15.1306C13.5961 15.1621 13.5909 15.1935 13.5796 15.2229C13.5684 15.2524 13.5513 15.2793 13.5294 15.302C13.3949 15.4477 13.2315 15.5638 13.0496 15.6427C12.8676 15.7217 12.6712 15.7617 12.4729 15.7604ZM11.6211 14.186C11.7208 14.2721 11.8479 14.3201 11.9797 14.3214C12.0587 14.3206 12.1365 14.3022 12.2075 14.2675C12.237 14.2557 12.2638 14.2379 12.2863 14.2154C12.3087 14.1929 12.3263 14.166 12.3381 14.1364C12.3498 14.1068 12.3554 14.0752 12.3545 14.0434C12.3536 14.0116 12.3462 13.9803 12.3329 13.9514C12.3195 13.9226 12.3004 13.8967 12.2767 13.8755C12.253 13.8542 12.2252 13.8381 12.1951 13.8279C12.1649 13.8177 12.133 13.8138 12.1013 13.8164C12.0696 13.819 12.0387 13.828 12.0106 13.8428C12.0007 13.8486 11.9895 13.8516 11.978 13.8516C11.9666 13.8516 11.9553 13.8486 11.9454 13.8428C11.9116 13.8233 11.8854 13.7929 11.8709 13.7566C11.8808 13.6974 11.8676 13.6366 11.8341 13.5868C11.8005 13.537 11.7491 13.5021 11.6904 13.4891C11.6318 13.4761 11.5705 13.4861 11.519 13.517C11.4675 13.548 11.4299 13.5975 11.4139 13.6553C11.3961 13.7543 11.406 13.8562 11.4426 13.9499C11.4791 14.0435 11.5409 14.1253 11.6211 14.186ZM19.4707 13.1575C19.455 13.1573 19.4393 13.1557 19.4238 13.1529C19.3935 13.1467 19.3647 13.1345 19.3391 13.1172C19.3135 13.0998 19.2916 13.0775 19.2746 13.0516C19.2577 13.0257 19.246 12.9968 19.2403 12.9663C19.2346 12.9359 19.235 12.9047 19.2415 12.8744C19.306 12.6361 19.4529 12.4285 19.6562 12.2884C19.8594 12.1483 20.1058 12.0849 20.3515 12.1094C20.382 12.1131 20.4116 12.1227 20.4384 12.1378C20.4652 12.1529 20.4889 12.1731 20.5079 12.1973C20.5269 12.2215 20.541 12.2492 20.5493 12.2789C20.5576 12.3085 20.56 12.3395 20.5563 12.37C20.5531 12.4007 20.5437 12.4304 20.5288 12.4574C20.5139 12.4844 20.4937 12.5082 20.4694 12.5272C20.4452 12.5463 20.4173 12.5603 20.3876 12.5684C20.3578 12.5765 20.3267 12.5785 20.2962 12.5744C20.1667 12.5655 20.038 12.5997 19.9301 12.6717C19.8222 12.7437 19.7413 12.8494 19.6999 12.9724C19.6886 13.0248 19.6597 13.0718 19.618 13.1055C19.5763 13.1392 19.5243 13.1576 19.4707 13.1575Z" fill="#293D67"/>
</svg>
