<svg width="361" height="148" viewBox="0 0 361 148" fill="none" xmlns="http://www.w3.org/2000/svg">
<g clip-path="url(#clip0_0_4256)">
<path d="M257.673 116.283C191.25 114.33 235.456 40.9768 184 40.9768C176.793 40.9768 172.779 49.9073 170.838 61.5007C168.668 74.4635 169.898 102.987 169.995 114.952C170 115.692 170.6 116.283 171.34 116.283H257.673Z" fill="#CC0033"/>
<path d="M257.673 116.283C191.25 114.33 235.456 40.9768 184 40.9768C176.793 40.9768 172.779 49.9073 170.838 61.5007C168.668 74.4635 169.898 102.987 169.995 114.952C170 115.692 170.6 116.283 171.34 116.283H257.673ZM257.673 116.283C258.57 116.309 256.746 116.323 257.673 116.323" stroke="#CC0033" stroke-width="1.33977" stroke-linecap="round"/>
<path d="M140.01 116.283C73.2372 114.076 87.9125 20.6643 68.6663 20.6643C61.4596 20.6643 57.5465 29.5399 55.6056 41.1332C53.4305 54.1251 50.9509 101.688 50.7773 114.956C50.7676 115.696 51.3674 116.283 52.1073 116.283H140.01Z" fill="#FF847F"/>
<path d="M142.44 116.322C72.8815 116.322 88.1426 20.6643 68.6663 20.6643C61.4596 20.6643 57.5465 29.5399 55.6056 41.1332C53.4305 54.1251 50.9509 101.688 50.7773 114.956C50.7676 115.696 51.3674 116.283 52.1073 116.283H142.44" stroke="#FF847F" stroke-width="2.67955" stroke-linecap="round"/>
<path d="M201.344 116.283C135.161 114.069 175.045 20.1264 129.983 20.6642C122.776 20.6642 118.863 29.5397 116.922 41.1331C114.747 54.1249 115.058 101.688 115.083 114.956C115.084 115.696 115.684 116.283 116.424 116.283H201.344Z" fill="#FF847F"/>
<path d="M203.757 116.322C134.198 116.322 175.582 20.12 129.983 20.6642C122.776 20.6642 118.863 29.5397 116.922 41.1331C114.747 54.1249 115.058 101.688 115.083 114.956C115.084 115.696 115.684 116.283 116.424 116.283H203.757" stroke="#FF847F" stroke-width="1.33977" stroke-linecap="round"/>
<path d="M323.96 116.283C257.188 114.076 271.863 20.6643 252.617 20.6643C245.41 20.6643 241.497 29.5399 239.556 41.1332C237.381 54.1251 238.621 101.688 238.713 114.956C238.718 115.696 239.318 116.283 240.058 116.283H323.96Z" fill="#FF847F"/>
<path d="M326.39 116.322C256.832 116.322 272.093 20.6643 252.617 20.6643C245.41 20.6643 241.497 29.5399 239.556 41.1332C237.381 54.1251 238.621 101.688 238.713 114.956C238.718 115.696 239.318 116.283 240.058 116.283H326.39" stroke="#FF847F" stroke-width="2.67955" stroke-linecap="round"/>
<path d="M3.53566 14.0564V18.755H9.05955V20.2368H3.53566V26.0139H1.71625V12.5746H9.99739V14.0564H3.53566Z" fill="#293D67"/>
<path d="M5.68332 69.012C6.20226 69.012 6.65867 68.9433 7.05257 68.8057C7.45271 68.6682 7.78721 68.4775 8.05606 68.2336C8.33116 67.9835 8.53748 67.6866 8.67503 67.3427C8.81258 66.9988 8.88136 66.6206 8.88136 66.2079C8.88136 65.3513 8.61564 64.6823 8.08419 64.2009C7.559 63.7195 6.75871 63.4788 5.68332 63.4788H3.52628V69.012H5.68332ZM5.68332 62.0439C6.53363 62.0439 7.2714 62.1439 7.89663 62.344C8.5281 62.5378 9.05017 62.816 9.46282 63.1787C9.87547 63.5413 10.1818 63.979 10.3819 64.4917C10.5882 65.0043 10.6914 65.5764 10.6914 66.2079C10.6914 66.8331 10.582 67.4052 10.3631 67.9242C10.1443 68.4431 9.82233 68.8901 9.39717 69.2653C8.97827 69.6404 8.4562 69.9343 7.83098 70.1468C7.212 70.3532 6.49612 70.4563 5.68332 70.4563H3.52628V75.4832H1.71625V62.0439H5.68332Z" fill="#293D67"/>
<path d="M3.00109 122.664C3.30745 123.076 3.64195 123.367 4.00458 123.536C4.36721 123.705 4.77361 123.789 5.22378 123.789C6.1116 123.789 6.7931 123.473 7.26827 122.842C7.74344 122.211 7.98103 121.31 7.98103 120.141C7.98103 119.522 7.92476 118.991 7.81222 118.547C7.70593 118.103 7.54962 117.74 7.3433 117.459C7.13697 117.171 6.88376 116.962 6.58365 116.83C6.28354 116.699 5.94279 116.633 5.5614 116.633C5.01745 116.633 4.53915 116.759 4.1265 117.009C3.7201 117.259 3.34497 117.612 3.00109 118.068V122.664ZM2.91669 116.924C3.31683 116.43 3.7795 116.033 4.30469 115.733C4.82988 115.433 5.4301 115.283 6.10535 115.283C6.65555 115.283 7.1526 115.389 7.59652 115.602C8.04043 115.808 8.41869 116.118 8.7313 116.53C9.04392 116.937 9.28463 117.443 9.45344 118.05C9.62225 118.656 9.70666 119.353 9.70666 120.141C9.70666 120.841 9.61288 121.495 9.42531 122.101C9.23774 122.701 8.96576 123.223 8.60938 123.667C8.25926 124.105 7.82785 124.452 7.31516 124.708C6.80873 124.958 6.23665 125.083 5.59891 125.083C5.01745 125.083 4.51727 124.987 4.09837 124.793C3.68572 124.593 3.31996 124.318 3.00109 123.967V128.169H1.32236V115.452H2.32585C2.56343 115.452 2.71036 115.567 2.76663 115.799L2.91669 116.924ZM13.5152 122.664C13.8215 123.076 14.156 123.367 14.5187 123.536C14.8813 123.705 15.2877 123.789 15.7379 123.789C16.6257 123.789 17.3072 123.473 17.7824 122.842C18.2575 122.211 18.4951 121.31 18.4951 120.141C18.4951 119.522 18.4388 118.991 18.3263 118.547C18.22 118.103 18.0637 117.74 17.8574 117.459C17.6511 117.171 17.3978 116.962 17.0977 116.83C16.7976 116.699 16.4569 116.633 16.0755 116.633C15.5315 116.633 15.0532 116.759 14.6406 117.009C14.2342 117.259 13.859 117.612 13.5152 118.068V122.664ZM13.4308 116.924C13.8309 116.43 14.2936 116.033 14.8188 115.733C15.344 115.433 15.9442 115.283 16.6194 115.283C17.1696 115.283 17.6667 115.389 18.1106 115.602C18.5545 115.808 18.9328 116.118 19.2454 116.53C19.558 116.937 19.7987 117.443 19.9675 118.05C20.1363 118.656 20.2207 119.353 20.2207 120.141C20.2207 120.841 20.127 121.495 19.9394 122.101C19.7518 122.701 19.4798 123.223 19.1235 123.667C18.7733 124.105 18.3419 124.452 17.8292 124.708C17.3228 124.958 16.7507 125.083 16.113 125.083C15.5315 125.083 15.0314 124.987 14.6124 124.793C14.1998 124.593 13.834 124.318 13.5152 123.967V128.169H11.8364V115.452H12.8399C13.0775 115.452 13.2244 115.567 13.2807 115.799L13.4308 116.924Z" fill="#293D67"/>
<path d="M148.79 131.705H142.516V143.709H140.697V130.27H148.79V131.705ZM152.76 139.433C151.991 139.458 151.335 139.52 150.791 139.62C150.253 139.714 149.812 139.839 149.468 139.995C149.131 140.152 148.884 140.336 148.727 140.549C148.577 140.761 148.502 140.999 148.502 141.261C148.502 141.512 148.543 141.727 148.624 141.909C148.706 142.09 148.815 142.24 148.953 142.359C149.096 142.471 149.262 142.556 149.45 142.612C149.643 142.662 149.85 142.687 150.069 142.687C150.362 142.687 150.631 142.659 150.875 142.603C151.119 142.54 151.347 142.453 151.56 142.34C151.779 142.227 151.985 142.093 152.179 141.937C152.379 141.78 152.573 141.602 152.76 141.402V139.433ZM147.368 135.55C147.893 135.044 148.459 134.665 149.065 134.415C149.672 134.165 150.344 134.04 151.081 134.04C151.613 134.04 152.085 134.128 152.498 134.303C152.91 134.478 153.257 134.722 153.539 135.034C153.82 135.347 154.032 135.725 154.176 136.169C154.32 136.613 154.392 137.101 154.392 137.632V143.709H153.651C153.489 143.709 153.363 143.684 153.276 143.634C153.188 143.578 153.12 143.472 153.07 143.315L152.882 142.415C152.632 142.646 152.388 142.853 152.151 143.034C151.913 143.209 151.663 143.359 151.4 143.484C151.138 143.603 150.856 143.694 150.556 143.756C150.262 143.825 149.934 143.859 149.571 143.859C149.203 143.859 148.856 143.809 148.53 143.709C148.205 143.603 147.921 143.447 147.677 143.24C147.439 143.034 147.249 142.775 147.105 142.462C146.967 142.143 146.899 141.768 146.899 141.336C146.899 140.961 147.002 140.602 147.208 140.258C147.414 139.908 147.749 139.598 148.212 139.33C148.674 139.061 149.278 138.842 150.022 138.673C150.766 138.498 151.679 138.398 152.76 138.373V137.632C152.76 136.894 152.601 136.338 152.282 135.963C151.963 135.581 151.497 135.391 150.884 135.391C150.472 135.391 150.125 135.444 149.843 135.55C149.568 135.65 149.328 135.766 149.121 135.897C148.921 136.022 148.746 136.138 148.596 136.244C148.452 136.344 148.309 136.394 148.165 136.394C148.052 136.394 147.955 136.366 147.874 136.31C147.793 136.247 147.724 136.172 147.668 136.085L147.368 135.55ZM158.614 141.421C158.92 141.834 159.254 142.124 159.617 142.293C159.98 142.462 160.386 142.546 160.836 142.546C161.724 142.546 162.406 142.231 162.881 141.599C163.356 140.968 163.594 140.067 163.594 138.898C163.594 138.279 163.537 137.748 163.425 137.304C163.318 136.86 163.162 136.497 162.956 136.216C162.749 135.928 162.496 135.719 162.196 135.588C161.896 135.456 161.555 135.391 161.174 135.391C160.63 135.391 160.152 135.516 159.739 135.766C159.333 136.016 158.957 136.369 158.614 136.825V141.421ZM158.529 135.681C158.929 135.187 159.392 134.79 159.917 134.49C160.442 134.19 161.043 134.04 161.718 134.04C162.268 134.04 162.765 134.146 163.209 134.359C163.653 134.565 164.031 134.875 164.344 135.287C164.656 135.694 164.897 136.2 165.066 136.807C165.235 137.413 165.319 138.11 165.319 138.898C165.319 139.598 165.225 140.252 165.038 140.858C164.85 141.458 164.578 141.98 164.222 142.424C163.872 142.862 163.44 143.209 162.928 143.465C162.421 143.715 161.849 143.841 161.211 143.841C160.63 143.841 160.13 143.744 159.711 143.55C159.298 143.35 158.932 143.075 158.614 142.724V146.926H156.935V134.209H157.938C158.176 134.209 158.323 134.325 158.379 134.556L158.529 135.681ZM178.019 134.181V143.709H176.509V137.398C176.509 137.222 176.518 137.029 176.537 136.816C176.562 136.597 176.593 136.394 176.631 136.206L173.33 141.993C173.28 142.087 173.214 142.162 173.133 142.218C173.051 142.274 172.958 142.302 172.851 142.302H172.664C172.557 142.302 172.461 142.274 172.373 142.218C172.292 142.162 172.226 142.087 172.176 141.993L168.819 136.188C168.85 136.375 168.878 136.582 168.903 136.807C168.928 137.026 168.941 137.222 168.941 137.398V143.709H167.431V134.181H168.772C168.891 134.181 169.006 134.209 169.119 134.265C169.231 134.315 169.328 134.412 169.409 134.556L172.373 139.508C172.517 139.795 172.645 140.099 172.758 140.417C172.864 140.086 172.989 139.783 173.133 139.508L176.04 134.556C176.121 134.406 176.218 134.306 176.331 134.256C176.443 134.206 176.559 134.181 176.678 134.181H178.019ZM184.66 134.059C185.354 134.059 185.979 134.175 186.536 134.406C187.092 134.637 187.568 134.965 187.961 135.391C188.355 135.816 188.655 136.332 188.862 136.938C189.074 137.538 189.181 138.21 189.181 138.954C189.181 139.705 189.074 140.38 188.862 140.98C188.655 141.58 188.355 142.093 187.961 142.518C187.568 142.943 187.092 143.272 186.536 143.503C185.979 143.728 185.354 143.841 184.66 143.841C183.96 143.841 183.328 143.728 182.766 143.503C182.209 143.272 181.734 142.943 181.34 142.518C180.946 142.093 180.643 141.58 180.431 140.98C180.224 140.38 180.121 139.705 180.121 138.954C180.121 138.21 180.224 137.538 180.431 136.938C180.643 136.332 180.946 135.816 181.34 135.391C181.734 134.965 182.209 134.637 182.766 134.406C183.328 134.175 183.96 134.059 184.66 134.059ZM184.66 142.537C185.598 142.537 186.298 142.224 186.761 141.599C187.224 140.968 187.455 140.089 187.455 138.964C187.455 137.832 187.224 136.951 186.761 136.319C186.298 135.688 185.598 135.372 184.66 135.372C184.185 135.372 183.769 135.453 183.413 135.616C183.063 135.778 182.769 136.013 182.531 136.319C182.3 136.625 182.125 137.004 182.006 137.454C181.894 137.898 181.837 138.401 181.837 138.964C181.837 140.089 182.069 140.968 182.531 141.599C183 142.224 183.71 142.537 184.66 142.537ZM199.213 134.209V143.709H197.535V139.264H192.977V143.709H191.298V134.209H192.977V137.998H197.535V134.209H199.213ZM210.017 134.209V143.709H208.347V137.257C208.347 137.132 208.354 136.997 208.366 136.854C208.379 136.71 208.394 136.566 208.413 136.422C208.357 136.547 208.301 136.663 208.244 136.769C208.188 136.875 208.129 136.972 208.066 137.06L203.48 143.297C203.411 143.397 203.324 143.494 203.217 143.587C203.117 143.675 203.005 143.719 202.88 143.719H201.867V134.218H203.546V140.671C203.546 140.789 203.539 140.921 203.527 141.065C203.514 141.202 203.499 141.343 203.48 141.487C203.536 141.368 203.593 141.258 203.649 141.158C203.705 141.052 203.761 140.955 203.818 140.868L208.404 134.631C208.473 134.531 208.56 134.437 208.666 134.35C208.773 134.256 208.888 134.209 209.013 134.209H210.017ZM217.655 138.645V135.334H216.06C215.704 135.334 215.404 135.387 215.16 135.494C214.916 135.594 214.719 135.725 214.569 135.888C214.425 136.044 214.322 136.222 214.26 136.422C214.197 136.616 214.166 136.81 214.166 137.004C214.166 137.516 214.353 137.92 214.728 138.213C215.104 138.501 215.616 138.645 216.267 138.645H217.655ZM219.249 134.209V143.709H217.655V139.705H216.923C216.748 139.705 216.601 139.72 216.482 139.752C216.37 139.777 216.27 139.814 216.182 139.864C216.101 139.914 216.029 139.98 215.966 140.061C215.904 140.136 215.838 140.224 215.769 140.324L213.687 143.128C213.581 143.328 213.45 143.475 213.294 143.569C213.143 143.662 212.922 143.709 212.628 143.709H211.465L214.222 140.127C214.447 139.752 214.744 139.501 215.113 139.376C214.632 139.314 214.225 139.201 213.894 139.039C213.562 138.876 213.29 138.686 213.078 138.467C212.872 138.242 212.721 137.995 212.628 137.726C212.534 137.457 212.487 137.185 212.487 136.91C212.487 136.585 212.55 136.26 212.675 135.935C212.806 135.609 213.012 135.322 213.294 135.072C213.575 134.815 213.938 134.609 214.381 134.453C214.832 134.29 215.376 134.209 216.013 134.209H219.249Z" fill="#293D67"/>
<path d="M49.1589 138.554C49.4777 139.01 49.8466 139.345 50.2655 139.557C50.6907 139.763 51.1283 139.867 51.5785 139.867C52.4601 139.867 53.1384 139.551 53.6136 138.919C54.0888 138.288 54.3264 137.388 54.3264 136.218C54.3264 135.599 54.2607 135.068 54.1294 134.624C54.0044 134.18 53.8262 133.818 53.5948 133.536C53.3698 133.249 53.0947 133.039 52.7695 132.908C52.4507 132.777 52.0974 132.711 51.7098 132.711C51.3534 132.711 51.0189 132.777 50.7063 132.908C50.3999 133.033 50.1311 133.22 49.8998 133.471C49.6747 133.714 49.4934 134.014 49.3558 134.371C49.2245 134.727 49.1589 135.134 49.1589 135.59V138.554ZM47.4895 135.59C47.4895 134.946 47.5864 134.365 47.7802 133.846C47.9741 133.327 48.2523 132.886 48.6149 132.523C48.9775 132.154 49.4183 131.873 49.9373 131.679C50.4625 131.479 51.0533 131.379 51.7098 131.379C52.31 131.379 52.8727 131.485 53.3979 131.698C53.9293 131.911 54.3889 132.223 54.7765 132.636C55.1704 133.049 55.4799 133.555 55.705 134.155C55.9363 134.755 56.052 135.443 56.052 136.218C56.052 136.919 55.9582 137.572 55.7706 138.179C55.5831 138.779 55.3142 139.301 54.9641 139.745C54.614 140.182 54.1826 140.529 53.6699 140.786C53.1634 141.036 52.5914 141.161 51.9536 141.161C51.3847 141.161 50.8657 141.058 50.3968 140.851C49.9279 140.639 49.5152 140.348 49.1589 139.979V144.246H47.4895V135.59Z" fill="#293D67"/>
<path fill-rule="evenodd" clip-rule="evenodd" d="M26.2621 120.352C26.2621 121.092 26.8619 121.692 27.6019 121.692C28.3418 121.692 28.9416 121.092 28.9416 120.352L28.9416 19.7471L31.0757 25.6105C31.3288 26.3059 32.0976 26.6644 32.7929 26.4113C33.4882 26.1582 33.8467 25.3894 33.5937 24.6941L28.8582 11.6831C28.6548 11.1245 28.1186 10.7833 27.5551 10.8019C26.9915 10.7833 26.4553 11.1245 26.252 11.6831L21.5165 24.6941C21.2634 25.3894 21.6219 26.1582 22.3173 26.4113C23.0126 26.6644 23.7814 26.3059 24.0345 25.6105L26.2621 19.49L26.2621 120.352Z" fill="#293D67"/>
<path fill-rule="evenodd" clip-rule="evenodd" d="M27.6083 119.044C26.8684 119.044 26.2686 119.644 26.2686 120.384C26.2686 121.124 26.8684 121.724 27.6083 121.724L351.016 121.724L345.023 123.905C344.328 124.158 343.969 124.927 344.222 125.622C344.475 126.318 345.244 126.676 345.939 126.423L358.95 121.688C359.509 121.484 359.85 120.948 359.832 120.385C359.85 119.821 359.509 119.285 358.95 119.081L345.939 114.346C345.244 114.093 344.475 114.451 344.222 115.147C343.969 115.842 344.328 116.611 345.023 116.864L351.014 119.044L27.6083 119.044Z" fill="#293D67"/>
<path fill-rule="evenodd" clip-rule="evenodd" d="M27.873 119.631L34 104.977L42.5 90.4766C48.0521 82.7036 57.8868 67.4134 68.991 59.6404C80.0952 51.8675 91.1994 51.8675 102.304 61.8613C113.408 70.7446 124.512 88.5113 135.616 91.8426C146.72 94.0634 156.714 81.8488 167.818 79.628C178.922 76.2967 190.027 81.8488 201.131 79.628C212.235 76.2967 223.339 64.0821 234.443 64.0821C245.548 64.0821 256.652 76.2967 267.756 72.9655C278.86 70.7446 289.964 51.8675 301.069 55.1988C312.173 58.53 323.277 81.8488 328.829 94.0634C334.381 106.278 334.381 120.709 334.381 120.709H328.829C323.277 120.709 312.173 120.709 301.069 120.709C289.964 120.709 278.86 120.709 267.756 120.709C256.652 120.709 245.548 120.709 234.443 120.709C223.339 120.709 212.235 120.709 201.131 120.709C190.027 120.709 178.922 120.709 167.818 120.709C156.714 120.709 146.72 120.709 135.616 120.709C124.512 120.709 113.408 120.709 102.304 120.709C91.1994 120.709 80.0952 120.709 68.991 120.709C57.8868 120.709 46.7826 120.709 41.2305 120.709H35.6784L27.873 119.631Z" fill="#293D67"/>
<path d="M116.084 116.283C116.084 105.251 114.667 54.605 116.922 41.133C118.863 29.5397 122.776 20.6641 129.983 20.6641C175.582 20.1199 134.941 119.477 204.5 119.477" stroke="#FF847F" stroke-width="1.33977" stroke-linecap="round" stroke-dasharray="5.36 5.36"/>
<path d="M116.163 75.9172C111.529 70.0343 114.252 79.239 112.918 79.5249V119.386L186.735 118.142L183.5 116.977L155.844 110.264C143.981 104.036 120.285 91.4947 120.399 91.1516C120.542 90.7227 116.466 76.3026 116.163 75.9172Z" fill="#293D67"/>
<path d="M259 119.477C192.577 117.524 235.354 41.0317 183.899 41.0317C176.692 41.0317 172.779 49.9073 170.838 61.5007C168.668 74.4635 169.903 107.512 170 119.477" stroke="#CC0033" stroke-width="1.33977" stroke-linecap="round" stroke-dasharray="5.36 5.36"/>
<path d="M56.9048 12.8999H55.4441C55.2818 12.8999 55.1418 12.8579 55.0243 12.774C54.9124 12.6844 54.806 12.5557 54.7053 12.3878L51.5235 7.98035C51.378 7.76208 51.2213 7.61097 51.0534 7.52702C50.8855 7.43747 50.656 7.39269 50.365 7.39269H48.921V12.8999H47.3008V0.869675H48.921V6.14182H50.1719C50.4238 6.14182 50.6364 6.10264 50.8099 6.02429C50.989 5.94593 51.1653 5.79202 51.3388 5.56256L54.487 1.33141C54.571 1.19709 54.6717 1.08795 54.7892 1.004C54.9124 0.914449 55.0551 0.869675 55.2174 0.869675H56.5858L52.9507 5.81441C52.6765 6.20059 52.3239 6.46643 51.8929 6.61195C52.1895 6.6903 52.4386 6.81623 52.6401 6.98973C52.8472 7.15763 53.0431 7.39269 53.2277 7.69492L56.9048 12.8999ZM61.158 4.26131C61.7792 4.26131 62.3389 4.36485 62.837 4.57193C63.3351 4.77901 63.7605 5.07284 64.1131 5.45342C64.4657 5.834 64.7343 6.29573 64.919 6.83862C65.1093 7.3759 65.2045 7.97756 65.2045 8.64357C65.2045 9.31518 65.1093 9.91963 64.919 10.4569C64.7343 10.9942 64.4657 11.4531 64.1131 11.8337C63.7605 12.2143 63.3351 12.5081 62.837 12.7152C62.3389 12.9167 61.7792 13.0174 61.158 13.0174C60.5312 13.0174 59.9659 12.9167 59.4622 12.7152C58.9641 12.5081 58.5387 12.2143 58.1861 11.8337C57.8335 11.4531 57.5621 10.9942 57.3718 10.4569C57.1871 9.91963 57.0948 9.31518 57.0948 8.64357C57.0948 7.97756 57.1871 7.3759 57.3718 6.83862C57.5621 6.29573 57.8335 5.834 58.1861 5.45342C58.5387 5.07284 58.9641 4.77901 59.4622 4.57193C59.9659 4.36485 60.5312 4.26131 61.158 4.26131ZM61.158 11.8505C61.9975 11.8505 62.6244 11.5707 63.0385 11.011C63.4527 10.4457 63.6598 9.65938 63.6598 8.65196C63.6598 7.63895 63.4527 6.84981 63.0385 6.28454C62.6244 5.71926 61.9975 5.43663 61.158 5.43663C60.7326 5.43663 60.3605 5.50939 60.0414 5.6549C59.728 5.80042 59.465 6.0103 59.2523 6.28454C59.0452 6.55878 58.8885 6.89738 58.7822 7.30035C58.6814 7.69772 58.6311 8.14826 58.6311 8.65196C58.6311 9.65938 58.8381 10.4457 59.2523 11.011C59.6721 11.5707 60.3073 11.8505 61.158 11.8505ZM74.1853 4.39563V12.8999H72.6826V8.92061H68.6025V12.8999H67.0998V4.39563H68.6025V7.78727H72.6826V4.39563H74.1853ZM82.4793 5.90676C82.4345 5.96832 82.3897 6.01589 82.345 6.04947C82.3002 6.08305 82.2386 6.09984 82.1603 6.09984C82.0763 6.09984 81.984 6.06626 81.8832 5.9991C81.7825 5.92634 81.6566 5.84799 81.5054 5.76404C81.3599 5.68009 81.178 5.60453 80.9598 5.53737C80.7471 5.46461 80.484 5.42823 80.1706 5.42823C79.7509 5.42823 79.3815 5.50379 79.0625 5.6549C78.7434 5.80042 78.4748 6.01309 78.2565 6.29293C78.0438 6.57277 77.8815 6.91137 77.7696 7.30874C77.6633 7.70611 77.6101 8.15105 77.6101 8.64357C77.6101 9.15847 77.6689 9.6174 77.7864 10.0204C77.9039 10.4177 78.069 10.7535 78.2817 11.0278C78.5 11.2964 78.7602 11.5035 79.0625 11.649C79.3703 11.7889 79.7145 11.8589 80.0951 11.8589C80.4588 11.8589 80.7583 11.8169 80.9933 11.733C81.2284 11.6434 81.4215 11.5455 81.5726 11.4391C81.7293 11.3328 81.858 11.2377 81.9588 11.1537C82.0651 11.0642 82.1687 11.0194 82.2694 11.0194C82.3925 11.0194 82.4877 11.067 82.5548 11.1621L82.9746 11.7078C82.7899 11.9373 82.58 12.1331 82.345 12.2955C82.1099 12.4578 81.8552 12.5949 81.581 12.7068C81.3124 12.8132 81.0297 12.8915 80.7331 12.9419C80.4365 12.9922 80.1342 13.0174 79.8264 13.0174C79.2947 13.0174 78.7994 12.9195 78.3405 12.7236C77.8871 12.5277 77.4926 12.2451 77.1568 11.8757C76.821 11.5007 76.5579 11.0418 76.3676 10.4989C76.1773 9.95601 76.0822 9.33757 76.0822 8.64357C76.0822 8.01114 76.1689 7.42627 76.3424 6.88899C76.5215 6.3517 76.779 5.88997 77.1148 5.50379C77.4562 5.11202 77.8731 4.80699 78.3657 4.58872C78.8638 4.37045 79.4346 4.26131 80.0783 4.26131C80.6771 4.26131 81.2032 4.35925 81.6566 4.55514C82.1155 4.74543 82.5213 5.01687 82.8739 5.36947L82.4793 5.90676ZM84.3269 11.9764C84.3269 11.8309 84.352 11.6938 84.4024 11.5651C84.4584 11.4364 84.5311 11.3244 84.6207 11.2293C84.7158 11.1341 84.8278 11.0586 84.9565 11.0026C85.0852 10.9466 85.2223 10.9187 85.3679 10.9187C85.5134 10.9187 85.6505 10.9466 85.7792 11.0026C85.9079 11.0586 86.0199 11.1341 86.115 11.2293C86.2102 11.3244 86.2857 11.4364 86.3417 11.5651C86.3977 11.6938 86.4256 11.8309 86.4256 11.9764C86.4256 12.1275 86.3977 12.2675 86.3417 12.3962C86.2857 12.5193 86.2102 12.6285 86.115 12.7236C86.0199 12.8187 85.9079 12.8915 85.7792 12.9419C85.6505 12.9978 85.5134 13.0258 85.3679 13.0258C85.2223 13.0258 85.0852 12.9978 84.9565 12.9419C84.8278 12.8915 84.7158 12.8187 84.6207 12.7236C84.5311 12.6285 84.4584 12.5193 84.4024 12.3962C84.352 12.2675 84.3269 12.1275 84.3269 11.9764ZM102.321 4.37045V12.8999H100.969V7.24998C100.969 7.09327 100.978 6.91977 100.994 6.72948C101.017 6.53359 101.045 6.3517 101.078 6.1838L98.1232 11.3636C98.0784 11.4475 98.0197 11.5147 97.9469 11.5651C97.8742 11.6154 97.7902 11.6406 97.6951 11.6406H97.5272C97.432 11.6406 97.3453 11.6154 97.2669 11.5651C97.1942 11.5147 97.1354 11.4475 97.0906 11.3636L94.0852 6.167C94.1131 6.33491 94.1383 6.5196 94.1607 6.72108C94.1831 6.91697 94.1943 7.09327 94.1943 7.24998V12.8999H92.8427V4.37045H94.0432C94.1495 4.37045 94.2531 4.39563 94.3538 4.446C94.4545 4.49078 94.5413 4.57753 94.6141 4.70625L97.2669 9.13888C97.3956 9.39633 97.5104 9.66778 97.6111 9.95321C97.7063 9.65658 97.8182 9.38514 97.9469 9.13888L100.549 4.70625C100.622 4.57193 100.709 4.48238 100.81 4.43761C100.91 4.39283 101.014 4.37045 101.12 4.37045H102.321ZM110.373 7.7201C110.373 7.37311 110.323 7.05689 110.222 6.77145C110.127 6.48042 109.984 6.23137 109.794 6.02429C109.609 5.81161 109.382 5.6493 109.114 5.53737C108.845 5.41984 108.54 5.36107 108.199 5.36107C107.482 5.36107 106.914 5.57095 106.494 5.99071C106.08 6.40487 105.823 6.98133 105.722 7.7201H110.373ZM111.582 11.7078C111.397 11.9317 111.176 12.1275 110.919 12.2955C110.661 12.4578 110.384 12.5921 110.088 12.6984C109.797 12.8048 109.494 12.8831 109.181 12.9335C108.868 12.9895 108.557 13.0174 108.249 13.0174C107.661 13.0174 107.119 12.9195 106.62 12.7236C106.128 12.5221 105.7 12.2311 105.336 11.8505C104.978 11.4643 104.698 10.9886 104.496 10.4233C104.295 9.85807 104.194 9.20884 104.194 8.47567C104.194 7.88241 104.284 7.32833 104.463 6.81343C104.648 6.29853 104.911 5.85359 105.252 5.4786C105.593 5.09802 106.01 4.8014 106.503 4.58872C106.995 4.37045 107.549 4.26131 108.165 4.26131C108.674 4.26131 109.145 4.34806 109.575 4.52156C110.012 4.68946 110.387 4.93572 110.7 5.26033C111.019 5.57935 111.269 5.97671 111.448 6.45244C111.627 6.92257 111.716 7.45986 111.716 8.0643C111.716 8.29937 111.691 8.45608 111.641 8.53443C111.59 8.61279 111.495 8.65196 111.355 8.65196H105.672C105.689 9.18925 105.761 9.65658 105.89 10.054C106.024 10.4513 106.209 10.7843 106.444 11.053C106.679 11.316 106.959 11.5147 107.284 11.649C107.608 11.7778 107.972 11.8421 108.375 11.8421C108.75 11.8421 109.072 11.8001 109.34 11.7162C109.615 11.6266 109.85 11.5315 110.046 11.4308C110.242 11.33 110.404 11.2377 110.533 11.1537C110.667 11.0642 110.782 11.0194 110.877 11.0194C111 11.0194 111.095 11.067 111.162 11.1621L111.582 11.7078ZM121.007 12.8999H119.512V5.57095H116.826C116.759 6.65112 116.658 7.58578 116.524 8.37492C116.389 9.15847 116.227 9.82728 116.037 10.3814C115.852 10.9298 115.642 11.3776 115.407 11.7246C115.178 12.066 114.934 12.3318 114.677 12.5221C114.425 12.7124 114.162 12.8411 113.888 12.9083C113.619 12.9755 113.35 13.009 113.082 13.009C112.606 13.009 112.368 12.9335 112.368 12.7824V11.8337H112.805C112.995 11.8337 113.188 11.8001 113.384 11.733C113.58 11.6658 113.77 11.5371 113.955 11.3468C114.145 11.1565 114.327 10.8907 114.5 10.5493C114.674 10.2023 114.831 9.75453 114.971 9.20604C115.116 8.65196 115.239 7.98315 115.34 7.19961C115.446 6.41046 115.527 5.47581 115.583 4.39563H121.007V12.8999ZM126.958 4.26131C127.579 4.26131 128.139 4.36485 128.637 4.57193C129.135 4.77901 129.561 5.07284 129.913 5.45342C130.266 5.834 130.534 6.29573 130.719 6.83862C130.909 7.3759 131.005 7.97756 131.005 8.64357C131.005 9.31518 130.909 9.91963 130.719 10.4569C130.534 10.9942 130.266 11.4531 129.913 11.8337C129.561 12.2143 129.135 12.5081 128.637 12.7152C128.139 12.9167 127.579 13.0174 126.958 13.0174C126.331 13.0174 125.766 12.9167 125.262 12.7152C124.764 12.5081 124.339 12.2143 123.986 11.8337C123.634 11.4531 123.362 10.9942 123.172 10.4569C122.987 9.91963 122.895 9.31518 122.895 8.64357C122.895 7.97756 122.987 7.3759 123.172 6.83862C123.362 6.29573 123.634 5.834 123.986 5.45342C124.339 5.07284 124.764 4.77901 125.262 4.57193C125.766 4.36485 126.331 4.26131 126.958 4.26131ZM126.958 11.8505C127.798 11.8505 128.424 11.5707 128.839 11.011C129.253 10.4457 129.46 9.65938 129.46 8.65196C129.46 7.63895 129.253 6.84981 128.839 6.28454C128.424 5.71926 127.798 5.43663 126.958 5.43663C126.533 5.43663 126.161 5.50939 125.842 5.6549C125.528 5.80042 125.265 6.0103 125.052 6.28454C124.845 6.55878 124.689 6.89738 124.582 7.30035C124.482 7.69772 124.431 8.14826 124.431 8.65196C124.431 9.65938 124.638 10.4457 125.052 11.011C125.472 11.5707 126.107 11.8505 126.958 11.8505ZM138.448 11.8085V5.57095H135.753C135.697 6.44404 135.619 7.2164 135.518 7.88801C135.418 8.55962 135.3 9.15008 135.166 9.65938C135.037 10.1631 134.891 10.5912 134.729 10.9438C134.572 11.2964 134.407 11.5847 134.234 11.8085H138.448ZM141.454 11.7666V15.3681C141.454 15.5136 141.412 15.6255 141.328 15.7039C141.249 15.7878 141.146 15.8298 141.017 15.8298H140.102V12.8999H132.949V15.4017C132.949 15.508 132.916 15.6059 132.849 15.6955C132.787 15.785 132.684 15.8298 132.538 15.8298H131.598V11.8085H131.875C132.071 11.8085 132.264 11.775 132.454 11.7078C132.65 11.6406 132.837 11.5147 133.017 11.33C133.196 11.1397 133.364 10.8739 133.52 10.5325C133.683 10.1911 133.828 9.74613 133.957 9.19765C134.086 8.64917 134.197 7.98315 134.293 7.19961C134.388 6.41046 134.463 5.47581 134.519 4.39563H139.901V11.7666H141.454ZM150.263 4.39563V12.8999H148.769V7.12405C148.769 7.01211 148.774 6.89178 148.785 6.76306C148.797 6.63433 148.811 6.50561 148.827 6.37688C148.777 6.48882 148.727 6.59236 148.676 6.6875C148.626 6.78265 148.573 6.8694 148.517 6.94775L144.411 12.5305C144.35 12.6201 144.272 12.7068 144.176 12.7908C144.087 12.8691 143.986 12.9083 143.874 12.9083H142.968V4.40403H144.47V10.1799C144.47 10.2862 144.465 10.4037 144.453 10.5325C144.442 10.6556 144.428 10.7815 144.411 10.9103C144.462 10.8039 144.512 10.706 144.563 10.6164C144.613 10.5213 144.663 10.4345 144.714 10.3562L148.819 4.77341C148.881 4.68386 148.959 4.59991 149.054 4.52156C149.149 4.43761 149.253 4.39563 149.365 4.39563H150.263ZM157.1 8.36653V5.40305H155.673C155.354 5.40305 155.085 5.45062 154.867 5.54576C154.648 5.63531 154.472 5.75284 154.338 5.89836C154.209 6.03828 154.117 6.19779 154.061 6.37688C154.005 6.55038 153.977 6.72388 153.977 6.89738C153.977 7.35632 154.145 7.71731 154.481 7.98035C154.816 8.2378 155.275 8.36653 155.857 8.36653H157.1ZM158.527 4.39563V12.8999H157.1V9.31518H156.445C156.288 9.31518 156.157 9.32917 156.05 9.35716C155.95 9.37954 155.86 9.41312 155.782 9.4579C155.709 9.50267 155.645 9.56144 155.589 9.63419C155.533 9.70136 155.474 9.77971 155.412 9.86926L153.549 12.3794C153.454 12.5585 153.336 12.69 153.196 12.774C153.062 12.8579 152.863 12.8999 152.6 12.8999H151.559L154.027 9.69296C154.229 9.35716 154.495 9.13329 154.825 9.02135C154.394 8.96538 154.03 8.86464 153.733 8.71913C153.437 8.57361 153.193 8.40291 153.003 8.20702C152.818 8.00554 152.684 7.78447 152.6 7.54381C152.516 7.30315 152.474 7.05969 152.474 6.81343C152.474 6.5224 152.53 6.23137 152.642 5.94034C152.76 5.6493 152.944 5.39185 153.196 5.16798C153.448 4.93852 153.773 4.75382 154.17 4.6139C154.573 4.46839 155.06 4.39563 155.631 4.39563H158.527Z" fill="#FF847F"/>
<path d="M176.657 31.9052V25.6676H173.963C173.907 26.5407 173.828 27.3131 173.728 27.9847C173.627 28.6563 173.509 29.2468 173.375 29.7561C173.246 30.2598 173.101 30.6879 172.938 31.0405C172.782 31.3931 172.617 31.6813 172.443 31.9052H176.657ZM179.663 31.8632V35.4648C179.663 35.6103 179.621 35.7222 179.537 35.8006C179.459 35.8845 179.355 35.9265 179.226 35.9265H178.311V32.9966H171.159V35.4983C171.159 35.6047 171.125 35.7026 171.058 35.7922C170.996 35.8817 170.893 35.9265 170.747 35.9265H169.807V31.9052H170.084C170.28 31.9052 170.473 31.8716 170.663 31.8045C170.859 31.7373 171.047 31.6114 171.226 31.4267C171.405 31.2364 171.573 30.9706 171.729 30.6292C171.892 30.2878 172.037 29.8428 172.166 29.2943C172.295 28.7458 172.407 28.0798 172.502 27.2963C172.597 26.5071 172.673 25.5725 172.728 24.4923H178.11V31.8632H179.663ZM188.472 24.4923V32.9966H186.978V27.2207C186.978 27.1088 186.983 26.9885 186.995 26.8597C187.006 26.731 187.02 26.6023 187.037 26.4736C186.986 26.5855 186.936 26.689 186.885 26.7842C186.835 26.8793 186.782 26.9661 186.726 27.0444L182.621 32.6272C182.559 32.7167 182.481 32.8035 182.386 32.8874C182.296 32.9658 182.195 33.005 182.083 33.005H181.177V24.5007H182.679V30.2766C182.679 30.3829 182.674 30.5004 182.663 30.6292C182.652 30.7523 182.638 30.8782 182.621 31.0069C182.671 30.9006 182.721 30.8027 182.772 30.7131C182.822 30.618 182.873 30.5312 182.923 30.4529L187.028 24.8701C187.09 24.7805 187.168 24.6966 187.263 24.6182C187.358 24.5343 187.462 24.4923 187.574 24.4923H188.472ZM196.753 26.0034C196.708 26.065 196.663 26.1126 196.619 26.1462C196.574 26.1797 196.512 26.1965 196.434 26.1965C196.35 26.1965 196.258 26.1629 196.157 26.0958C196.056 26.023 195.93 25.9447 195.779 25.8607C195.634 25.7768 195.452 25.7012 195.233 25.634C195.021 25.5613 194.758 25.5249 194.444 25.5249C194.025 25.5249 193.655 25.6005 193.336 25.7516C193.017 25.8971 192.749 26.1098 192.53 26.3896C192.318 26.6694 192.155 27.0081 192.043 27.4054C191.937 27.8028 191.884 28.2477 191.884 28.7402C191.884 29.2552 191.943 29.7141 192.06 30.1171C192.178 30.5144 192.343 30.8502 192.555 31.1245C192.774 31.3931 193.034 31.6002 193.336 31.7457C193.644 31.8856 193.988 31.9556 194.369 31.9556C194.733 31.9556 195.032 31.9136 195.267 31.8297C195.502 31.7401 195.695 31.6422 195.846 31.5358C196.003 31.4295 196.132 31.3343 196.233 31.2504C196.339 31.1608 196.442 31.1161 196.543 31.1161C196.666 31.1161 196.761 31.1636 196.829 31.2588L197.248 31.8045C197.064 32.0339 196.854 32.2298 196.619 32.3921C196.384 32.5544 196.129 32.6916 195.855 32.8035C195.586 32.9098 195.303 32.9882 195.007 33.0386C194.71 33.0889 194.408 33.1141 194.1 33.1141C193.568 33.1141 193.073 33.0162 192.614 32.8203C192.161 32.6244 191.766 32.3418 191.43 31.9724C191.095 31.5974 190.832 31.1385 190.641 30.5956C190.451 30.0527 190.356 29.4342 190.356 28.7402C190.356 28.1078 190.443 27.523 190.616 26.9857C190.795 26.4484 191.053 25.9866 191.389 25.6005C191.73 25.2087 192.147 24.9037 192.639 24.6854C193.138 24.4671 193.708 24.358 194.352 24.358C194.951 24.358 195.477 24.4559 195.93 24.6518C196.389 24.8421 196.795 25.1136 197.148 25.4661L196.753 26.0034ZM204.623 26.0034C204.579 26.065 204.534 26.1126 204.489 26.1462C204.444 26.1797 204.383 26.1965 204.304 26.1965C204.22 26.1965 204.128 26.1629 204.027 26.0958C203.927 26.023 203.801 25.9447 203.65 25.8607C203.504 25.7768 203.322 25.7012 203.104 25.634C202.891 25.5613 202.628 25.5249 202.315 25.5249C201.895 25.5249 201.526 25.6005 201.207 25.7516C200.888 25.8971 200.619 26.1098 200.401 26.3896C200.188 26.6694 200.026 27.0081 199.914 27.4054C199.807 27.8028 199.754 28.2477 199.754 28.7402C199.754 29.2552 199.813 29.7141 199.931 30.1171C200.048 30.5144 200.213 30.8502 200.426 31.1245C200.644 31.3931 200.904 31.6002 201.207 31.7457C201.514 31.8856 201.859 31.9556 202.239 31.9556C202.603 31.9556 202.902 31.9136 203.138 31.8297C203.373 31.7401 203.566 31.6422 203.717 31.5358C203.873 31.4295 204.002 31.3343 204.103 31.2504C204.209 31.1608 204.313 31.1161 204.414 31.1161C204.537 31.1161 204.632 31.1636 204.699 31.2588L205.119 31.8045C204.934 32.0339 204.724 32.2298 204.489 32.3921C204.254 32.5544 203.999 32.6916 203.725 32.8035C203.457 32.9098 203.174 32.9882 202.877 33.0386C202.581 33.0889 202.278 33.1141 201.971 33.1141C201.439 33.1141 200.944 33.0162 200.485 32.8203C200.031 32.6244 199.637 32.3418 199.301 31.9724C198.965 31.5974 198.702 31.1385 198.512 30.5956C198.322 30.0527 198.226 29.4342 198.226 28.7402C198.226 28.1078 198.313 27.523 198.487 26.9857C198.666 26.4484 198.923 25.9866 199.259 25.6005C199.6 25.2087 200.017 24.9037 200.51 24.6854C201.008 24.4671 201.579 24.358 202.222 24.358C202.821 24.358 203.347 24.4559 203.801 24.6518C204.26 24.8421 204.665 25.1136 205.018 25.4661L204.623 26.0034ZM206.471 32.0731C206.471 31.9276 206.496 31.7905 206.547 31.6618C206.603 31.533 206.675 31.4211 206.765 31.326C206.86 31.2308 206.972 31.1552 207.101 31.0993C207.229 31.0433 207.367 31.0153 207.512 31.0153C207.658 31.0153 207.795 31.0433 207.923 31.0993C208.052 31.1552 208.164 31.2308 208.259 31.326C208.354 31.4211 208.43 31.533 208.486 31.6618C208.542 31.7905 208.57 31.9276 208.57 32.0731C208.57 32.2242 208.542 32.3641 208.486 32.4929C208.43 32.616 208.354 32.7251 208.259 32.8203C208.164 32.9154 208.052 32.9882 207.923 33.0386C207.795 33.0945 207.658 33.1225 207.512 33.1225C207.367 33.1225 207.229 33.0945 207.101 33.0386C206.972 32.9882 206.86 32.9154 206.765 32.8203C206.675 32.7251 206.603 32.616 206.547 32.4929C206.496 32.3641 206.471 32.2242 206.471 32.0731Z" fill="#CC0033"/>
<path d="M328.333 140.989L327.471 142.459L324.08 140.499C323.845 140.355 323.636 140.212 323.453 140.068C323.27 139.924 323.107 139.741 322.963 139.519C323.172 139.95 323.277 140.427 323.277 140.95V144.83H321.552V140.97C321.552 140.708 321.565 140.467 321.591 140.244C321.631 140.022 321.703 139.807 321.807 139.598C321.663 139.781 321.507 139.944 321.337 140.088C321.167 140.231 320.971 140.369 320.749 140.499L317.378 142.439L316.516 140.97L319.886 139.01C320.383 138.709 320.879 138.552 321.376 138.539C321.115 138.513 320.86 138.468 320.612 138.402C320.376 138.324 320.135 138.206 319.886 138.049L316.496 136.07L317.358 134.6L320.749 136.56C320.984 136.704 321.193 136.854 321.376 137.011C321.559 137.168 321.722 137.357 321.866 137.579C321.657 137.122 321.552 136.632 321.552 136.109V132.229H323.277V136.09C323.277 136.351 323.257 136.599 323.218 136.834C323.192 137.057 323.127 137.272 323.022 137.481C323.166 137.298 323.323 137.135 323.492 136.991C323.662 136.848 323.858 136.704 324.08 136.56L327.451 134.62L328.313 136.09L324.943 138.049C324.721 138.193 324.498 138.304 324.276 138.383C324.054 138.461 323.819 138.513 323.571 138.539C323.819 138.566 324.054 138.618 324.276 138.696C324.498 138.762 324.721 138.866 324.943 139.01L328.333 140.989Z" fill="#293D67"/>
</g>
<defs>
<clipPath id="clip0_0_4256">
<rect width="361" height="147" fill="white" transform="translate(0 0.101074)"/>
</clipPath>
</defs>
</svg>
