<svg width="144" height="139" viewBox="0 0 144 139" fill="none" xmlns="http://www.w3.org/2000/svg">
<path d="M79.1237 58.6648C79.1237 58.6648 74.4094 63.0278 78.604 66.1814C78.604 66.1814 81.8521 64.9162 84.1071 65.8651C86.3622 66.814 88.0048 68.3675 83.0028 67.0186C78.0101 65.6698 84.7846 66.5442 86.984 68.4885C86.984 68.4885 89.2391 69.0094 90.5476 66.4419C91.856 63.865 91.9117 64.4976 91.4384 62.1347C90.9652 59.7718 89.2391 51.9389 88.9792 50.9994C88.7194 50.0505 86.7798 46.2178 89.2391 43.4828C91.6983 40.7478 91.8096 39.1756 96.1063 39.9105C100.403 40.6455 101.034 41.4827 101.294 42.3292C101.554 43.1665 101.665 44.7945 101.294 44.5898C100.923 44.3851 95.1598 42.2269 93.4337 43.0642C91.7076 43.9014 89.0349 45.6875 88.9792 46.5341C88.9235 47.3713 88.9235 49.6877 89.6567 49.6319C90.3898 49.5761 90.3341 47.4736 93.6378 47.2132C96.9415 46.9527 98.5656 48.9435 98.7697 49.79C98.9832 50.6273 95.8836 50.9436 95.1505 50.897C94.4174 50.8412 91.5312 51.2133 91.1693 49.2132C90.7981 47.2132 95.466 46.7945 95.7815 48.376C96.0971 49.9575 92.7933 50.9994 92.2737 49.1109M92.2737 49.1109C91.754 47.2225 94.9463 47.1853 94.5287 48.6365C94.1111 50.0877 93.378 50.2087 92.2737 49.1109ZM92.2737 49.1109C91.1786 48.0132 94.241 47.7806 94.241 49.3435C94.241 50.8971 92.4593 48.2458 93.0068 47.6969C93.5543 47.148 96.0971 46.441 99.3451 49.2691C99.3451 49.2691 99.9761 50.5342 100.867 50.6366C101.758 50.7389 100.765 52.1064 100.709 53.7902C100.654 55.474 100.236 58.3578 99.8741 59.409C99.5029 60.4602 102.129 61.1393 102.547 59.0369C102.964 56.9345 102.918 53.539 101.34 54.1344C99.772 54.7298 100.663 59.716 103.382 58.8788C106.11 58.0415 107.363 58.3578 108.514 57.4647C109.665 56.5717 110.871 54.3669 112.291 52.8413C113.701 51.3157 115.381 48.2737 114.861 47.3806C114.342 46.4876 113.915 42.7013 112.244 42.813C110.574 42.9246 109.627 42.7572 107.948 46.8039C106.268 50.8505 105.275 51.2133 103.336 51.9017C101.396 52.5808 100.245 48.4876 101.452 46.441C102.658 44.3944 104.069 44.8689 104.069 43.6595C104.069 42.4502 102.547 41.399 102.807 40.8222C103.066 40.2454 104.375 40.0315 106.268 39.3524C108.152 38.6733 109.256 36.7755 110.463 38.0872C111.669 39.3989 113.924 45.0735 109.154 43.0269C104.384 40.9803 109.256 37.5663 108.365 35.3057C107.474 33.0451 105.748 28.6357 103.809 26.4309C101.869 24.2262 99.0667 16.0863 98.2779 14.3467C97.4891 12.6071 92.9325 4.49512 88.2182 3.3974C83.5039 2.29038 81.1468 0.792652 79.7269 1.82525C78.3164 2.84855 81.6943 3.79741 82.5574 4.11371C83.4204 4.43 80.7477 0.253086 75.2446 1.11824C69.7415 1.98339 65.3428 1.11824 61.0182 2.14154C56.6937 3.16483 46.003 7.49991 39.8688 20.7377C33.7347 33.9754 36.0918 35.1569 36.0918 35.1569C36.0918 35.1569 35.2288 37.6779 40.8897 38.7012C46.5505 39.7245 35.6186 34.8406 33.976 33.6591C32.3334 32.4777 29.1039 35.7057 30.2825 38.0686C31.4611 40.4315 32.7232 44.9247 41.6785 46.4969C50.6338 48.069 47.6549 42.4037 46.235 41.6129C44.8151 40.8222 40.5741 39.1663 41.6785 43.8177C42.7828 48.469 48.9077 45.3898 48.9912 44.2921C49.0654 43.1851 42.3838 44.5247 39.1636 47.2039C35.9434 49.8831 32.9552 43.8921 31.6931 43.734C30.431 43.5758 25.4011 42.1618 25.6424 49.1667C25.8744 56.181 32.2499 55.9391 34.208 56.2554C36.1754 56.5717 34.3008 53.3437 32.7974 54.5995C31.294 55.8554 32.7974 58.6927 39.6368 59.9579C46.4763 61.223 50.2533 60.5067 51.5896 59.8835C52.926 59.2509 55.5986 57.2043 53.7148 53.0274C51.8309 48.8504 47.2651 56.3391 49.548 59.1765C51.8309 62.0138 54.2623 55.7903 52.694 54.9251C51.1256 54.06 49.8635 58.0787 50.7266 58.4694C51.5896 58.8602 53.1672 52.0878 53.9468 50.5901C54.7356 49.0923 53.0002 52.6366 46.2443 51.6134C39.4884 50.5901 38.384 49.9575 37.6787 49.2505C36.9734 48.5435 47.3486 51.3808 50.6523 50.9808C53.9561 50.5807 56.0719 47.9109 56.7865 46.255C57.4918 44.5991 62.8371 42.2362 66.2986 40.0315C69.7601 37.8267 78.7989 38.0593 80.2095 38.9245C81.6201 39.7896 82.2511 43.734 79.7362 43.1014C77.2213 42.4688 70.7623 40.4501 66.2986 41.5292C61.8256 42.6083 61.1853 46.0224 62.1318 46.4969C63.0784 46.9713 66.2151 47.9109 68.3402 46.3387C70.4654 44.7666 74.5022 44.534 77.5832 46.8504C77.5832 46.8504 77.9637 48.2551 74.892 48.776C71.8203 49.297 68.5351 48.5621 69.129 46.8131C69.723 45.0642 73.1102 44.8875 73.7413 46.255C74.3723 47.6225 72.4513 49.9668 70.6324 47.4457C70.6324 47.4457 69.6859 45.4177 71.7832 45.6596C73.8805 45.9015 71.8852 47.8644 71.2635 47.6597C70.6324 47.4457 71.811 46.6457 72.0337 46.0131C72.2564 45.3805 67.0039 46.8225 67.0039 46.8225" stroke="#293D67" stroke-width="1.22576" stroke-miterlimit="10" stroke-linecap="round"/>
<path d="M56.7772 46.2457C56.7772 46.2457 59.7654 43.0176 57.7237 38.1337C55.6821 33.2498 54.1973 25.6867 57.6124 23.8726C61.0275 22.0586 68.8135 21.2679 71.5604 21.426C74.3073 21.5842 78.6318 23.1563 81.0725 22.9238C83.5132 22.6912 85.1558 21.1469 89.1648 21.4074C93.1738 21.6679 95.1412 20.8772 99.1502 25.4448C103.159 30.0124 100.561 36.636 101.192 38.8407C101.823 41.0454 100.932 46.4317 101.192 46.4317" stroke="#293D67" stroke-width="1.22576" stroke-miterlimit="10" stroke-linecap="round"/>
<path d="M99.8741 59.3999C99.8741 59.3999 98.4356 66.8049 96.9415 69.6422C95.4474 72.4795 95.2154 74.0517 95.1319 74.6098C95.0577 75.1587 91.4384 75.7913 90.1021 75.7169C88.7658 75.6425 84.831 76.582 83.3462 76.5076C81.8521 76.4332 77.3698 75.4006 75.8014 75.4843C74.2331 75.5587 73.4536 73.6703 70.3076 75.4843C67.1616 77.2983 71.7182 74.7773 72.971 73.9121C74.2331 73.047 73.9918 74.7029 76.8222 74.5447C79.6527 74.3866 80.5157 73.4377 82.8729 73.9959C85.23 74.5447 85.7033 73.8377 86.6499 73.8377C87.5965 73.8377 89.8701 73.5214 90.3434 74.3122C90.8167 75.1029 90.3434 77.5402 89.7123 78.4053C89.0813 79.2705 84.5247 81.6334 79.4949 79.5124C74.4651 77.382 74.9569 75.7169 74.363 75.1215" stroke="#293D67" stroke-width="1.22576" stroke-miterlimit="10" stroke-linecap="round"/>
<path d="M30.3474 55.623C30.3474 55.623 30.3567 59.0092 34.0502 60.0418C37.7437 61.0744 35.6185 68.8701 35.4608 70.2097C35.303 71.5493 32.3983 71.7819 32.7881 73.2052C33.1779 74.6192 34.0502 73.9959 34.672 75.4936C35.303 76.9914 33.9667 78.7217 34.2822 79.2798C34.5977 79.838 35.2288 80.2287 36.2125 80.7776C37.1962 81.3264 37.8179 76.2099 36.6393 73.2145C35.4608 70.219 35.1452 78.3403 38.2077 79.9868C41.2701 81.6427 38.5975 75.4936 40.5648 72.74C42.5322 69.9864 44.6481 67.0654 44.6481 66.2747C44.6481 65.4839 42.5972 62.3582 43.386 61.4651C44.1748 60.5721 46.0587 60.0511 45.9844 62.0977C45.9102 64.1443 47.0888 64.228 47.2465 63.0466C47.4043 61.8651 51.6453 61.9396 51.2555 63.3629C50.8658 64.7769 49.9192 70.1353 48.1931 69.0376C46.467 67.9398 45.0471 67.8561 45.4462 67.3817C45.8359 66.9072 46.9403 71.0841 46.8568 71.7911C46.7732 72.4981 51.339 72.1074 52.9074 74.9448C54.4757 77.7821 57.3062 83.8475 60.5356 86.2941C63.7558 88.7407 73.036 94.1735 78.9288 93.5409C84.8217 92.9083 87.6521 93.8572 90.6403 87.8662C93.6285 81.8753 94.7236 78.8798 94.8813 77.7821C95.0391 76.6751 95.5866 76.4425 96.6074 77.9402C97.6283 79.438 99.5771 80.331 101.424 81.5869C103.271 82.8521 104.625 84.108 105.47 84.7405C106.305 85.3731 106.936 91.9873 108.514 93.0386C110.091 94.0898 113.544 95.7735 114.277 97.9783C115.01 100.183 114.796 103.439 117.738 104.49C120.671 105.541 121.562 106.909 122.768 108.165C123.975 109.43 124.652 110.37 124.652 110.37C124.652 110.37 124.55 134.919 124.652 135.571C124.754 136.222 115.112 131.068 113.126 129.598C111.131 128.128 112.393 127.598 111.131 128.128C109.869 128.649 110.184 130.435 108.718 130.231C107.252 130.017 106.936 125.71 106.203 125.505C105.47 125.291 103.475 124.984 105.052 127.393C106.621 129.812 106.936 130.017 110.5 131.18C114.063 132.333 113.33 137.273 107.252 132.017C101.173 126.761 99.9112 126.026 98.0273 122.984C96.1434 119.933 97.6097 123.617 94.3617 121.3C91.1136 118.993 95.0948 123.3 90.167 119.412C85.2393 115.523 84.0886 119.095 86.1859 114.472C88.2832 109.849 85.7683 108.165 89.6474 113.839C93.5265 119.514 92.3757 116.993 94.8906 118.361C97.4055 119.728 96.8859 126.556 100.969 121.514C105.052 116.472 104.95 115.207 102.435 115.737C99.9204 116.258 102.853 118.044 104.635 118.993C106.417 119.942 103.8 121.3 104.319 122.984C104.839 124.668 109.034 120.249 110.184 121.412C111.335 122.565 109.349 125.821 111.019 126.556C112.699 127.291 115.001 124.668 113.952 121.83C112.903 118.993 110.388 117.84 109.238 117.84C108.087 117.84 109.024 117.523 107.242 112.695C105.461 107.858 107.976 107.969 108.607 112.909C109.238 117.849 107.976 119.951 106.825 118.584C105.674 117.216 106.509 108.5 105.257 107.653C103.994 106.816 102.64 106.286 99.8555 105.551C97.0807 104.816 98.3335 101.662 99.8555 102.192C101.377 102.713 101.582 105.867 96.3476 105.867C91.1043 105.867 89.7402 105.765 88.0697 103.765C86.3993 101.764 83.8194 99.9784 84.5247 98.5086C85.2393 97.0387 88.2739 96.3038 91.9488 94.9363C95.6238 93.5688 97.2942 93.3641 99.8648 99.4574C102.435 105.551 99.1873 109.337 95.4103 108.072C91.6333 106.807 86.9654 113.328 84.534 113.532C82.1026 113.737 78.8731 112.798 77.4997 110.695C76.1262 108.593 79.6898 108.276 76.8594 105.439C74.0289 102.602 70.7809 93.4572 75.8107 96.0898C80.8405 98.7132 83.8844 99.7644 88.2832 98.8248C92.682 97.876 92.0602 100.927 90.5847 101.448C89.1184 101.969 85.3414 103.02 79.2629 99.0295C73.1844 95.0386 71.9223 100.602 68.0525 96.9271C64.1827 93.2525 57.798 84.4056 54.55 81.9962C51.3019 79.5775 46.9032 74.2192 45.1214 72.1167C43.3396 70.0143 41.7713 72.433 42.0775 76.1076C42.393 79.7822 58.0115 98.1736 59.2643 99.8481C60.5171 101.523 61.3616 118.026 59.4777 121.7C57.5938 125.375 56.7494 130.631 49.9378 118.23C43.1261 105.83 36.1011 95.6433 34.4214 92.0711C32.7417 88.4988 36.9363 84.6103 38.1984 82.8242C39.4605 81.038 45.6411 77.0472 30.9692 93.7549C16.2881 110.463 19.434 108.472 19.434 108.472L19.1556 136.836L124.671 137.571V135.552" stroke="#293D67" stroke-width="1.22576" stroke-miterlimit="10" stroke-linecap="round"/>
<path d="M105.479 84.7216C105.479 84.7216 104.486 83.9309 103.688 84.6658C102.89 85.4007 102.287 87.6613 103.076 93.7545C104.644 105.941 104.857 113.616 105.489 108.462C106.12 103.318 102.398 89.5497 104.097 86.2938C105.795 83.0378 106.621 88.2659 106.769 88.8613" stroke="#293D67" stroke-width="1.22576" stroke-miterlimit="10" stroke-linecap="round"/>
</svg>
