<svg width="35" height="30" viewBox="0 0 35 30" fill="none" xmlns="http://www.w3.org/2000/svg">
<g clip-path="url(#clip0_0_3300)">
<mask id="path-1-inside-1_0_3300" fill="white">
<path fill-rule="evenodd" clip-rule="evenodd" d="M17.6282 2C17.7856 2 18.0108 2.00623 18.1296 2.01558C18.2484 2.02337 18.4643 2.0483 18.6078 2.06855C18.7513 2.09036 18.9672 2.12775 19.086 2.15423C19.2048 2.18072 19.3637 2.21967 19.4408 2.24148C19.518 2.26329 19.6661 2.30847 19.7725 2.3443C19.8789 2.37857 20.0425 2.43777 20.135 2.47361C20.2276 2.511 20.3911 2.5811 20.4976 2.6294C20.604 2.67925 20.7768 2.76805 20.8832 2.82725C20.9897 2.88645 21.184 3.00797 21.3152 3.09677C21.4463 3.18557 21.6268 3.31644 21.7162 3.38966C21.8057 3.46132 21.9754 3.61556 22.0942 3.7324C22.213 3.84924 22.3194 3.94427 22.3302 3.94583C22.3395 3.94583 22.4305 3.89442 22.5292 3.83055C22.6295 3.76823 22.7745 3.6841 22.8501 3.64671C22.9257 3.60777 23.0491 3.55012 23.1247 3.51896C23.1987 3.48781 23.3437 3.43484 23.4471 3.39901C23.552 3.36473 23.7032 3.31955 23.7834 3.2993C23.8636 3.27905 23.9839 3.251 24.0503 3.23854C24.1151 3.22452 24.2616 3.20271 24.3727 3.18869C24.5054 3.17155 24.6951 3.1622 24.9095 3.1622C25.1209 3.1622 25.3199 3.17155 25.4572 3.18869C25.576 3.20271 25.7564 3.23231 25.8583 3.25256C25.9601 3.27437 26.1298 3.31644 26.2362 3.34604C26.3427 3.37564 26.5154 3.43172 26.6219 3.47067C26.7283 3.50962 26.9042 3.58284 27.0152 3.63425C27.1263 3.6841 27.2744 3.75888 27.3469 3.79783C27.4194 3.83834 27.5505 3.91779 27.64 3.97388C27.7295 4.02996 27.8544 4.11409 27.9177 4.16082C27.9809 4.20912 28.1028 4.30415 28.1877 4.3727C28.2725 4.44281 28.4314 4.58613 28.5409 4.69363C28.6505 4.80113 28.8016 4.96159 28.8788 5.05195C28.9559 5.14231 29.0778 5.29654 29.1503 5.39469C29.2228 5.49284 29.3369 5.66109 29.4033 5.76859C29.4696 5.87609 29.5683 6.05057 29.6223 6.15807C29.6748 6.26556 29.7504 6.42603 29.7889 6.51639C29.826 6.60675 29.8799 6.74384 29.9062 6.82018C29.9339 6.89652 29.9787 7.0414 30.008 7.13955C30.0373 7.2377 30.0805 7.41686 30.1067 7.53682C30.1314 7.65678 30.1638 7.84996 30.1777 7.96525C30.1916 8.08053 30.207 8.26437 30.224 8.57283L30.4168 8.63671C30.5232 8.67254 30.7099 8.74109 30.8333 8.79094C30.9567 8.84079 31.1372 8.91869 31.2344 8.96387C31.3316 9.01061 31.4874 9.0885 31.5815 9.13991C31.6756 9.18977 31.8036 9.26299 31.8669 9.30194C31.9301 9.34088 32.0489 9.41566 32.1291 9.46863C32.2093 9.52316 32.3451 9.61819 32.4299 9.68207C32.5148 9.74594 32.6706 9.87057 32.777 9.96093C32.8835 10.0497 33.0701 10.2242 33.1936 10.3489C33.317 10.4735 33.4836 10.6558 33.5653 10.7539C33.6456 10.8521 33.7535 10.9892 33.8044 11.0577C33.8569 11.1263 33.9464 11.2556 34.0065 11.3459C34.0652 11.4363 34.15 11.5718 34.1963 11.6497C34.241 11.7276 34.3166 11.8709 34.366 11.9691C34.4153 12.0672 34.4878 12.2261 34.5279 12.3196C34.5681 12.4131 34.6421 12.6172 34.693 12.7714C34.7439 12.9256 34.8087 13.1469 34.8365 13.2621C34.8658 13.3774 34.9059 13.5784 34.9275 13.7062C34.9491 13.8355 34.9738 14.0177 34.983 14.1112C34.9907 14.2047 34.9985 14.4477 35 14.6487C35 14.8497 34.9923 15.0989 34.983 15.2018C34.9738 15.3046 34.9491 15.4946 34.9275 15.6224C34.9059 15.7517 34.8658 15.9542 34.8365 16.0742C34.8087 16.1941 34.7516 16.3936 34.7131 16.5182C34.673 16.6428 34.6097 16.8251 34.5711 16.9232C34.5326 17.0214 34.4524 17.2083 34.3907 17.3361C34.3289 17.4654 34.2256 17.6648 34.1577 17.7801C34.0914 17.8954 33.9957 18.0527 33.9448 18.1306C33.8939 18.2085 33.789 18.355 33.7119 18.4578C33.6348 18.5606 33.5098 18.718 33.4342 18.8083C33.3586 18.8987 33.1843 19.0841 33.0485 19.2212C32.9113 19.3583 32.7138 19.5437 32.6074 19.634C32.5009 19.7228 32.3389 19.8537 32.2448 19.9222C32.1507 19.9923 32.0026 20.0983 31.9132 20.159C31.8237 20.2198 31.6571 20.3242 31.5429 20.3912C31.4288 20.4581 31.2267 20.5688 31.0956 20.6342C30.9644 20.7012 30.7377 20.804 30.3319 20.9723L30.3227 21.1639C30.3165 21.2698 30.2934 21.4817 30.2702 21.6359C30.2486 21.7902 30.207 22.0176 30.1777 22.1423C30.1499 22.2669 30.0897 22.4803 30.0466 22.6174C30.0018 22.7545 29.9417 22.9259 29.9123 22.9991C29.883 23.0723 29.8275 23.2016 29.7874 23.2873C29.7473 23.373 29.6732 23.521 29.6208 23.6145C29.5699 23.708 29.4943 23.8388 29.4526 23.9027C29.4125 23.9666 29.3107 24.1099 29.2289 24.2221C29.1456 24.3342 28.9991 24.5118 28.9019 24.6193C28.8047 24.7268 28.6458 24.8842 28.5486 24.9699C28.4515 25.0555 28.3388 25.1553 28.2956 25.1895C28.2525 25.2238 28.1599 25.2955 28.0874 25.3469C28.0149 25.3983 27.876 25.4902 27.7789 25.5494C27.6817 25.6102 27.532 25.6943 27.4472 25.7364C27.3623 25.78 27.2173 25.847 27.1232 25.8859C27.0291 25.9249 26.881 25.9825 26.7916 26.0137C26.7021 26.0448 26.5293 26.0978 26.4059 26.1305C26.2825 26.1632 26.0819 26.2084 25.9585 26.2302C25.8351 26.252 25.6546 26.2785 25.5574 26.2894C25.4603 26.2988 25.2165 26.3081 25.0175 26.3081C24.8185 26.3081 24.5717 26.2988 24.4699 26.2894C24.3681 26.2785 24.1799 26.252 24.0534 26.2302C23.9253 26.21 23.7109 26.1632 23.5751 26.1289C23.4394 26.0947 23.2172 26.0292 23.0815 25.9825C22.9457 25.9373 22.7298 25.8563 22.3719 25.7068L22.3333 25.7582C22.3117 25.7878 22.2469 25.8672 22.1868 25.9358C22.1281 26.0043 22.0063 26.1367 21.9168 26.2302C21.8273 26.3237 21.6684 26.4764 21.562 26.5714C21.4555 26.6649 21.2797 26.8098 21.1686 26.8939C21.0575 26.978 20.9156 27.0793 20.8524 27.1198C20.7891 27.1618 20.678 27.2304 20.6055 27.2725C20.533 27.3145 20.4158 27.3784 20.3433 27.4158C20.2708 27.4516 20.1319 27.517 20.0348 27.5607C19.9376 27.6027 19.7602 27.6713 19.6414 27.7102C19.5226 27.7507 19.3282 27.8084 19.2094 27.838C19.0907 27.8691 18.8932 27.9096 18.7698 27.9299C18.6464 27.9501 18.4628 27.9751 18.361 27.9829C18.2592 27.9922 18.0478 28 17.8905 28C17.7331 28 17.528 27.9922 17.4354 27.9844C17.3428 27.9751 17.1685 27.9533 17.0497 27.9361C16.9309 27.919 16.7289 27.88 16.6024 27.8504C16.4743 27.8224 16.2877 27.7741 16.1858 27.7445C16.084 27.7149 15.9035 27.6557 15.7848 27.6136C15.666 27.5716 15.4917 27.5046 15.3991 27.4672C15.3065 27.4282 15.1152 27.341 14.9749 27.2725C14.8345 27.2055 14.6478 27.1089 14.5583 27.0575C14.4689 27.0076 14.327 26.925 14.2421 26.8736C14.1573 26.8222 13.9737 26.7023 13.8333 26.6072C13.6929 26.5122 13.4785 26.358 13.3551 26.2645C13.2317 26.171 13.0697 26.0417 12.9941 25.9763C12.9185 25.9108 12.8352 25.8407 12.7612 25.7831L12.63 25.847C12.5575 25.8828 12.4465 25.9311 12.3832 25.956C12.32 25.9809 12.1842 26.0277 12.0824 26.0588C11.9806 26.0884 11.8109 26.1321 11.7044 26.1523C11.598 26.1741 11.4314 26.1991 11.3342 26.2068C11.237 26.2162 11.0766 26.224 10.9794 26.224C10.8822 26.224 10.7079 26.2162 10.5937 26.2068C10.4796 26.1991 10.296 26.1741 10.1849 26.1523C10.0739 26.1305 9.91806 26.0962 9.83784 26.0744C9.75762 26.0526 9.61416 26.0105 9.5216 25.9794C9.42904 25.9482 9.29329 25.8999 9.22078 25.8703C9.14828 25.8407 9.02024 25.7846 8.93539 25.7441C8.85054 25.7036 8.70091 25.6273 8.60372 25.5728C8.50653 25.5182 8.3461 25.4201 8.24891 25.3562C8.15172 25.2908 8.00517 25.188 7.92495 25.1257C7.84474 25.0633 7.70127 24.9465 7.60871 24.8655C7.51615 24.7829 7.34492 24.6193 7.23076 24.5009C7.11506 24.381 6.96234 24.2112 6.88984 24.1208C6.81733 24.0304 6.70935 23.8902 6.64918 23.8092C6.59056 23.7282 6.50263 23.602 6.45635 23.5288C6.41007 23.4556 6.32831 23.3185 6.27432 23.225C6.22033 23.1315 6.1324 22.9633 6.07995 22.8511C6.0275 22.7389 5.95808 22.5816 5.92722 22.5006C5.89483 22.4196 5.83929 22.2622 5.80073 22.15C5.7637 22.0379 5.70971 21.8525 5.6804 21.7372C5.65109 21.6219 5.61406 21.4427 5.5971 21.3399C5.58013 21.2371 5.56316 21.153 5.56162 21.1514C5.55853 21.1514 5.50145 21.1312 5.43358 21.1062C5.3657 21.0829 5.24074 21.0361 5.1559 21.005C5.07105 20.9723 4.90445 20.9006 4.78566 20.8461C4.66688 20.7915 4.47868 20.6949 4.36915 20.6326C4.25962 20.5703 4.09147 20.4675 3.99891 20.4052C3.90635 20.3429 3.76289 20.2416 3.68267 20.1808C3.60245 20.1185 3.46361 20.0079 3.37414 19.9331C3.28466 19.8583 3.10726 19.6932 2.98076 19.5639C2.85272 19.4362 2.68766 19.2601 2.6167 19.1744C2.54419 19.0887 2.42849 18.9454 2.36062 18.8551C2.29274 18.7647 2.19555 18.6292 2.14465 18.5513C2.09374 18.4734 1.99964 18.3238 1.93639 18.2163C1.8716 18.1088 1.77132 17.9234 1.7127 17.8035C1.65254 17.6835 1.58004 17.5262 1.54918 17.4529C1.51833 17.3797 1.47822 17.2816 1.45971 17.2348C1.44274 17.1881 1.40263 17.079 1.37332 16.9934C1.34401 16.9077 1.29927 16.7706 1.27613 16.6896C1.25145 16.6085 1.21134 16.4574 1.18512 16.3546C1.16044 16.2518 1.12033 16.0664 1.09873 15.9418C1.07559 15.8171 1.04782 15.6348 1.03548 15.5367C1.02314 15.4386 1.00926 15.1721 1.00309 14.9447C0.996915 14.6767 1 14.4446 1.01234 14.2826C1.02314 14.1455 1.04165 13.9663 1.05245 13.8853C1.06479 13.8043 1.08793 13.6641 1.1049 13.5737C1.12187 13.4834 1.15272 13.3369 1.17586 13.2466C1.199 13.1562 1.23757 13.0129 1.26225 12.9272C1.28693 12.8415 1.3363 12.6904 1.37178 12.5922C1.40572 12.4941 1.46588 12.3399 1.5029 12.2495C1.54147 12.1591 1.60626 12.0189 1.64637 11.9379C1.68648 11.8569 1.76053 11.7198 1.80835 11.6341C1.85771 11.5484 1.94719 11.4051 2.00581 11.3148C2.06597 11.2244 2.15545 11.0951 2.2079 11.0265C2.2588 10.958 2.3529 10.8396 2.41615 10.7617C2.4794 10.6838 2.63675 10.5155 2.76325 10.3878C2.89129 10.2585 3.08258 10.084 3.18902 9.99832C3.29546 9.91264 3.44819 9.79579 3.5284 9.73815C3.60862 9.68207 3.75826 9.58548 3.86007 9.52316C3.96189 9.4624 4.12849 9.37048 4.23031 9.32063C4.33212 9.27078 4.50182 9.19444 4.60826 9.15238C4.7147 9.10875 4.88748 9.04488 4.99392 9.01061C5.10036 8.97633 5.25617 8.93115 5.34102 8.90778C5.42586 8.88597 5.5647 8.85481 5.64955 8.83768C5.73439 8.82054 5.80844 8.80185 5.81307 8.79561C5.81924 8.78782 5.83466 8.67098 5.85009 8.53388C5.86398 8.39679 5.89637 8.16933 5.92105 8.02756C5.94728 7.88579 5.98893 7.68638 6.01361 7.58356C6.03984 7.48074 6.07686 7.33741 6.09846 7.26419C6.12005 7.19096 6.15553 7.07879 6.17713 7.01492C6.19873 6.95105 6.24501 6.82485 6.2774 6.7345C6.31134 6.64414 6.37305 6.49769 6.41316 6.40733C6.45327 6.31698 6.53348 6.15963 6.59056 6.0568C6.64764 5.95398 6.74329 5.79663 6.80345 5.70627C6.86207 5.61591 6.96388 5.4757 7.02868 5.39469C7.09192 5.31368 7.22459 5.16412 7.32178 5.0613C7.42051 4.96003 7.57015 4.81826 7.65499 4.74504C7.73984 4.67338 7.88947 4.55965 7.98666 4.49266C8.08385 4.42567 8.23348 4.33064 8.31833 4.2839C8.40318 4.2356 8.5559 4.16082 8.65771 4.11564C8.75953 4.07202 8.92614 4.00815 9.02795 3.97388C9.12976 3.9396 9.30717 3.88975 9.42133 3.86015C9.53548 3.83211 9.77613 3.79004 9.95354 3.76667C10.2544 3.72772 10.3068 3.72461 10.6863 3.7324C10.9794 3.73707 11.1645 3.74798 11.3419 3.7729C11.4777 3.79004 11.6936 3.82743 11.8201 3.85392C11.9466 3.8804 12.141 3.92558 12.2521 3.95362C12.3632 3.98322 12.5714 4.04554 12.7149 4.09228C12.8583 4.14057 12.9879 4.17796 13.0003 4.17796C13.0126 4.17796 13.0728 4.11409 13.1314 4.03463C13.19 3.95674 13.3427 3.78693 13.4708 3.65606C13.5973 3.52675 13.7685 3.36629 13.8487 3.2993C13.9289 3.23231 14.0647 3.12949 14.1495 3.06873C14.2344 3.00797 14.3732 2.91449 14.4581 2.86308C14.5429 2.81167 14.6956 2.72599 14.7975 2.67302C14.8993 2.62161 15.0489 2.54994 15.1291 2.51567C15.2093 2.48139 15.3636 2.42064 15.4731 2.38169C15.5811 2.34274 15.757 2.2851 15.865 2.25394C15.9745 2.22278 16.1519 2.1776 16.263 2.15268C16.374 2.12775 16.5854 2.0888 16.7335 2.06699C16.8816 2.04674 17.0806 2.02337 17.1731 2.01558C17.2657 2.00935 17.4709 2.00156 17.6282 2ZM16.988 4.38049C16.8692 4.39918 16.6826 4.43657 16.5715 4.46618C16.4604 4.49578 16.3015 4.54563 16.2167 4.57679C16.1319 4.6095 15.9791 4.67649 15.8773 4.72635C15.7755 4.7762 15.6228 4.86344 15.5379 4.92109C15.4531 4.97717 15.3358 5.06286 15.2772 5.11115C15.2186 5.161 15.1214 5.25292 15.0613 5.31835C15.0011 5.38223 14.9085 5.49751 14.8561 5.57541C14.8052 5.65175 14.7234 5.7904 14.6771 5.88543C14.6309 5.98047 14.5738 6.10198 14.5522 6.15807C14.529 6.21415 14.4812 6.29672 14.4457 6.34346C14.4103 6.38864 14.3362 6.46186 14.2807 6.50392C14.2251 6.54599 14.1233 6.6083 14.0524 6.64102C13.9829 6.6753 13.8657 6.71892 13.7901 6.73761C13.6868 6.76254 13.6081 6.77033 13.4476 6.77033C13.2857 6.77033 13.2085 6.76254 13.1005 6.73605C13.0203 6.71736 12.8892 6.66595 12.7874 6.61765C12.6933 6.57091 12.5915 6.52729 12.5637 6.52262C12.5375 6.51639 12.5005 6.49925 12.4835 6.48367C12.4665 6.46965 12.3755 6.42759 12.2829 6.39176C12.1904 6.35592 12.0191 6.29984 11.905 6.26556C11.7908 6.23129 11.6073 6.18299 11.4962 6.15807C11.3851 6.13314 11.1645 6.09731 11.0025 6.07861C10.7727 6.05213 10.6632 6.04746 10.4935 6.05525C10.3747 6.05992 10.2081 6.0755 10.1232 6.08796C10.0384 6.10043 9.90726 6.13003 9.83013 6.15184C9.753 6.17365 9.61416 6.22817 9.5216 6.27335C9.42904 6.31853 9.2902 6.4011 9.21461 6.45563C9.13902 6.51016 9.02486 6.61142 8.96007 6.67997C8.89528 6.75007 8.79964 6.86848 8.74873 6.94481C8.69628 7.02271 8.61452 7.15825 8.56824 7.24861C8.52042 7.33897 8.45408 7.48229 8.42014 7.56798C8.38621 7.65366 8.33838 7.79699 8.31216 7.88735C8.28593 7.97771 8.24428 8.1522 8.2196 8.27683C8.19338 8.40146 8.16252 8.58685 8.15018 8.68968C8.13784 8.7925 8.11933 8.9997 8.11007 9.14926C8.10082 9.29882 8.07922 9.52627 8.06225 9.65558C8.04682 9.78333 8.01597 9.95159 7.99283 10.0295C7.97123 10.1074 7.92033 10.2398 7.88022 10.3255C7.84011 10.4112 7.77995 10.5202 7.74601 10.567C7.71053 10.6137 7.64574 10.6869 7.59946 10.7305C7.55318 10.7726 7.4529 10.8412 7.37731 10.8801C7.30018 10.9206 7.18294 10.9705 7.11506 10.9923C7.04719 11.0156 6.91143 11.0515 6.81425 11.0733C6.71706 11.0951 6.53966 11.1231 6.42087 11.1356C6.30209 11.1496 6.07686 11.1777 5.91951 11.1995C5.73285 11.2244 5.5971 11.2524 5.52613 11.2789C5.46751 11.3007 5.34873 11.3537 5.26388 11.3973C5.17904 11.4394 5.051 11.5095 4.97849 11.5531C4.90599 11.5983 4.79492 11.6731 4.73167 11.7214C4.66842 11.7681 4.54964 11.8678 4.46942 11.9395C4.3892 12.0127 4.26579 12.142 4.19483 12.2277C4.12387 12.3118 4.01897 12.452 3.96189 12.5377C3.90327 12.6234 3.81225 12.7776 3.75672 12.8805C3.70272 12.9833 3.63176 13.1266 3.60091 13.1998C3.57006 13.2731 3.52069 13.4102 3.48984 13.5036C3.46053 13.5971 3.41425 13.7731 3.38956 13.8931C3.36488 14.0131 3.33557 14.1813 3.32477 14.267C3.31552 14.3527 3.30626 14.5848 3.30626 14.7811C3.30626 14.9774 3.31552 15.2095 3.32632 15.2952C3.33712 15.3809 3.36334 15.5351 3.38339 15.638C3.40345 15.7408 3.44202 15.8981 3.46515 15.9885C3.48984 16.0789 3.54229 16.2331 3.57931 16.3312C3.61788 16.4294 3.67958 16.5774 3.71661 16.6584C3.75363 16.7394 3.82922 16.8843 3.88321 16.9778C3.93566 17.0712 4.02051 17.2083 4.06833 17.2816C4.11615 17.3548 4.21488 17.4872 4.28584 17.5776C4.35681 17.6679 4.49102 17.819 4.58512 17.9125C4.67922 18.006 4.82114 18.1369 4.90136 18.2023C4.98158 18.2677 5.1343 18.3783 5.24074 18.4484C5.34719 18.5185 5.52768 18.6245 5.64183 18.6821C5.75599 18.7413 5.9118 18.813 5.98893 18.8442C6.06606 18.8738 6.20027 18.9205 6.28975 18.9454C6.37922 18.9719 6.51343 19.0046 6.59056 19.0186C6.6677 19.0327 6.79882 19.0654 6.88367 19.0903C6.96851 19.1168 7.0873 19.1666 7.14592 19.2025C7.20454 19.2383 7.30327 19.3162 7.36343 19.377C7.42359 19.4362 7.50227 19.5312 7.53775 19.5873C7.57323 19.6434 7.6226 19.7384 7.64728 19.7976C7.67042 19.8568 7.71207 19.9908 7.73984 20.0936C7.77172 20.2182 7.79743 20.3792 7.81697 20.5765C7.8324 20.7401 7.86016 20.9427 7.87713 21.0283C7.8941 21.114 7.9265 21.2433 7.94809 21.3166C7.96969 21.3898 8.00826 21.5051 8.03448 21.5736C8.06071 21.6422 8.13476 21.8026 8.20109 21.9319C8.26588 22.0597 8.36615 22.2357 8.42169 22.3214C8.47877 22.4071 8.58367 22.5504 8.65463 22.6408C8.72559 22.7311 8.8598 22.8776 8.9539 22.9679C9.04646 23.0583 9.19147 23.1845 9.27632 23.2499C9.35962 23.3138 9.49074 23.4057 9.56788 23.454C9.64501 23.5023 9.78693 23.5818 9.88412 23.6285C9.98131 23.6752 10.1109 23.7313 10.1695 23.7531C10.2281 23.7749 10.35 23.8108 10.4395 23.8326C10.5289 23.8544 10.6848 23.8778 10.7866 23.8856C10.8884 23.8918 11.0411 23.8933 11.126 23.8856C11.2108 23.8793 11.325 23.8622 11.3805 23.8482C11.436 23.8341 11.5301 23.8014 11.5887 23.7749C11.6474 23.7485 11.7415 23.697 11.797 23.6597C11.8525 23.6223 11.942 23.5568 11.9976 23.5132C12.0531 23.4696 12.1534 23.4073 12.2212 23.373C12.2891 23.3403 12.4218 23.292 12.5143 23.2655C12.6069 23.239 12.7427 23.211 12.8152 23.2032C12.9123 23.1923 12.9771 23.1938 13.062 23.2094C13.1252 23.2203 13.2301 23.2484 13.2934 23.2717C13.3566 23.2951 13.4538 23.3403 13.5093 23.373C13.5649 23.4057 13.6544 23.4665 13.7084 23.507C13.7639 23.549 13.8811 23.6628 13.9706 23.7594C14.0601 23.856 14.2282 24.0117 14.3424 24.1037C14.4565 24.1956 14.6278 24.3296 14.7203 24.4012C14.8129 24.4713 14.9795 24.5913 15.0906 24.6661C15.2016 24.7393 15.3682 24.8468 15.4608 24.9029C15.5534 24.959 15.7416 25.0618 15.8773 25.1303C16.0131 25.1989 16.1905 25.283 16.2707 25.3173C16.3509 25.3516 16.4867 25.4045 16.5715 25.4341C16.6564 25.4637 16.806 25.5089 16.9032 25.5354C17.0004 25.5619 17.1917 25.6024 17.3274 25.6257C17.5387 25.6616 17.619 25.6678 17.8905 25.6678C18.145 25.6678 18.2468 25.6616 18.4073 25.6351C18.5183 25.6164 18.6741 25.5821 18.7544 25.5588C18.8346 25.5369 18.9534 25.498 19.0166 25.4731C19.0799 25.4466 19.2094 25.3889 19.302 25.3406C19.3946 25.2939 19.5411 25.2098 19.626 25.1537C19.7108 25.0976 19.8388 25.0057 19.9113 24.9496C19.9838 24.892 20.1289 24.758 20.2353 24.6505C20.3417 24.543 20.4898 24.3779 20.5639 24.2844C20.6379 24.1909 20.7675 24.0117 20.8524 23.8871C20.9357 23.7625 21.0514 23.6129 21.11 23.5537C21.1671 23.4961 21.2535 23.4213 21.2997 23.3886C21.346 23.3559 21.4123 23.3185 21.4463 23.3029C21.4802 23.2889 21.5836 23.2499 21.6777 23.2157C21.7718 23.1814 21.8998 23.1424 21.9631 23.13C22.0417 23.1128 22.125 23.1066 22.2253 23.1128C22.3256 23.1175 22.4135 23.1331 22.503 23.1627C22.5755 23.1861 22.6681 23.2234 22.7113 23.2453C22.7529 23.2655 22.8578 23.3263 22.9427 23.3777C23.0275 23.4275 23.1602 23.5023 23.2358 23.5413C23.3113 23.5786 23.4301 23.6347 23.498 23.6643C23.5659 23.6955 23.6708 23.736 23.7294 23.7578C23.788 23.7781 23.896 23.8139 23.9685 23.8341C24.041 23.856 24.1829 23.8902 24.2848 23.912C24.3866 23.9323 24.5501 23.9572 24.6473 23.9666C24.7522 23.9775 24.9512 23.9806 25.1332 23.9759C25.38 23.9697 25.4819 23.9603 25.6423 23.9276C25.7534 23.9058 25.9061 23.8669 25.9817 23.8419C26.0573 23.817 26.173 23.7749 26.2362 23.7469C26.2995 23.7204 26.4044 23.6706 26.4676 23.6347C26.5309 23.6005 26.6388 23.535 26.7067 23.4883C26.7746 23.4431 26.8995 23.3481 26.9844 23.2764C27.0692 23.2032 27.1973 23.0754 27.2667 22.9898C27.3377 22.9056 27.4379 22.7732 27.4888 22.6953C27.5397 22.6174 27.6277 22.4569 27.6863 22.337C27.7434 22.217 27.8113 22.0566 27.8375 21.9787C27.8637 21.9008 27.8992 21.7824 27.9162 21.7138C27.9331 21.6453 27.9624 21.5019 27.9794 21.3945C28.0041 21.2558 28.0149 21.1047 28.0211 20.8726C28.0257 20.6934 28.0226 20.4675 28.0133 20.374C28.0041 20.2665 28.0041 20.1512 28.0133 20.0624C28.0226 19.983 28.0442 19.8817 28.0658 19.8288C28.0858 19.7773 28.126 19.6963 28.1537 19.6496C28.1799 19.6029 28.2663 19.5 28.3419 19.4221C28.4175 19.3442 28.5301 19.2476 28.5887 19.2087C28.6474 19.1713 28.7662 19.1043 28.851 19.0607C28.9358 19.0171 29.1163 18.9439 29.2521 18.8971C29.3878 18.8488 29.5853 18.7756 29.6917 18.7304C29.7982 18.6868 29.9956 18.5933 30.1314 18.5217C30.2672 18.4516 30.4615 18.3409 30.5633 18.2755C30.6652 18.2101 30.8318 18.0948 30.9336 18.0169C31.0354 17.9406 31.1943 17.8081 31.2884 17.7225C31.3825 17.6383 31.5167 17.5012 31.5877 17.4218C31.6586 17.3408 31.7651 17.2115 31.8252 17.1336C31.8839 17.0557 31.9656 16.9451 32.0057 16.8843C32.0458 16.8235 32.1199 16.702 32.1723 16.6117C32.2232 16.5213 32.305 16.3608 32.3528 16.2533C32.4006 16.1458 32.4608 16.0025 32.4839 15.934C32.5086 15.8654 32.5456 15.747 32.5672 15.6691C32.5888 15.5912 32.6259 15.423 32.649 15.2952C32.6876 15.0802 32.6907 15.0304 32.6907 14.6643C32.6907 14.2982 32.6876 14.2483 32.649 14.0333C32.6259 13.904 32.5919 13.7513 32.575 13.6906C32.558 13.6298 32.5194 13.5114 32.4886 13.4257C32.4577 13.34 32.4037 13.2076 32.3682 13.1297C32.3328 13.0518 32.2711 12.9303 32.2294 12.8571C32.1893 12.7839 32.1214 12.6717 32.0782 12.6078C32.0366 12.544 31.9656 12.4427 31.9209 12.3819C31.8761 12.3212 31.7774 12.2028 31.7003 12.1171C31.6247 12.0314 31.4936 11.9005 31.4103 11.8258C31.3254 11.751 31.2128 11.6559 31.1573 11.6139C31.1017 11.5718 30.9845 11.4892 30.895 11.4285C30.8055 11.3677 30.6436 11.2696 30.5325 11.2088C30.4214 11.1465 30.2425 11.0577 30.1314 11.0094C30.0203 10.9611 29.8645 10.8988 29.7843 10.8708C29.7041 10.8427 29.5853 10.8038 29.5221 10.7851C29.4588 10.7664 29.34 10.7337 29.2598 10.7134C29.1796 10.6947 29.0747 10.6636 29.0284 10.648C28.9821 10.6308 28.9081 10.6121 28.8664 10.6059C28.8232 10.6012 28.7399 10.5825 28.6813 10.567C28.6227 10.5514 28.5286 10.5171 28.4731 10.4922C28.4175 10.4673 28.3203 10.4049 28.2571 10.3535C28.1938 10.3021 28.1059 10.2118 28.0612 10.1526C28.018 10.0934 27.9609 9.99988 27.9362 9.9438C27.9115 9.88771 27.8776 9.80047 27.8622 9.74906C27.8421 9.68051 27.8344 9.60261 27.8344 9.45305C27.8329 9.3144 27.8421 9.2069 27.8606 9.11031C27.8807 9.0184 27.893 8.86884 27.8976 8.6741C27.9038 8.48559 27.8992 8.32201 27.8884 8.2223C27.8776 8.13662 27.8545 8.00264 27.8375 7.9263C27.8205 7.84996 27.7819 7.71598 27.7526 7.6303C27.7233 7.54461 27.6662 7.4044 27.6261 7.31871C27.586 7.23303 27.5166 7.09905 27.4703 7.02271C27.424 6.94637 27.3377 6.81551 27.276 6.7345C27.2158 6.65348 27.1124 6.52729 27.0446 6.45563C26.9782 6.38397 26.8564 6.26868 26.7761 6.20169C26.6959 6.13314 26.571 6.03811 26.4985 5.98981C26.426 5.94152 26.2917 5.86206 26.1976 5.81377C26.1035 5.76547 25.9647 5.70004 25.8891 5.67044C25.8135 5.63928 25.667 5.5941 25.5652 5.56762C25.4633 5.54269 25.3122 5.51465 25.2289 5.5053C25.1471 5.49596 25.0005 5.48817 24.9049 5.48817C24.8108 5.48817 24.6689 5.49596 24.5933 5.5053C24.5177 5.51309 24.3881 5.53958 24.3079 5.56139C24.2277 5.5832 24.1104 5.62059 24.0487 5.64552C23.9886 5.67044 23.8806 5.72341 23.8096 5.76236C23.7402 5.80131 23.6476 5.85895 23.606 5.89011C23.5628 5.92127 23.4841 5.98514 23.4301 6.03188C23.3746 6.08017 23.2635 6.20013 23.1833 6.29828C23.1015 6.39643 22.9966 6.50704 22.9504 6.54287C22.9041 6.58026 22.7961 6.6457 22.7113 6.69087C22.6172 6.73917 22.4999 6.78435 22.4104 6.80772C22.3071 6.83264 22.2207 6.84355 22.1173 6.84355C22.0248 6.84355 21.923 6.83109 21.8397 6.81083C21.7656 6.7937 21.6576 6.75163 21.5928 6.71736C21.5296 6.68153 21.4355 6.62077 21.3846 6.5787C21.3337 6.5382 21.2519 6.45407 21.2041 6.3902C21.1563 6.32632 21.073 6.1939 21.0205 6.09575C20.9681 5.9976 20.8971 5.87453 20.8632 5.82312C20.8292 5.77171 20.7583 5.67667 20.7043 5.6128C20.6518 5.54892 20.567 5.45701 20.5176 5.40871C20.4682 5.36042 20.3834 5.28252 20.3279 5.23734C20.2723 5.1906 20.1474 5.09869 20.0502 5.03326C19.953 4.96782 19.8064 4.87902 19.7262 4.8354C19.646 4.79334 19.5103 4.72635 19.4254 4.68896C19.3406 4.65001 19.1986 4.59392 19.1092 4.56432C19.0197 4.53472 18.8639 4.48799 18.7621 4.4615C18.6603 4.43657 18.4767 4.39918 18.3533 4.38205C18.2299 4.36335 18.0247 4.34154 17.8982 4.33531C17.7701 4.32752 17.6467 4.32129 17.6205 4.32285C17.5943 4.32285 17.4909 4.32908 17.3891 4.33687C17.2873 4.3431 17.1068 4.36335 16.988 4.38049Z"/>
</mask>
<path fill-rule="evenodd" clip-rule="evenodd" d="M17.6282 2C17.7856 2 18.0108 2.00623 18.1296 2.01558C18.2484 2.02337 18.4643 2.0483 18.6078 2.06855C18.7513 2.09036 18.9672 2.12775 19.086 2.15423C19.2048 2.18072 19.3637 2.21967 19.4408 2.24148C19.518 2.26329 19.6661 2.30847 19.7725 2.3443C19.8789 2.37857 20.0425 2.43777 20.135 2.47361C20.2276 2.511 20.3911 2.5811 20.4976 2.6294C20.604 2.67925 20.7768 2.76805 20.8832 2.82725C20.9897 2.88645 21.184 3.00797 21.3152 3.09677C21.4463 3.18557 21.6268 3.31644 21.7162 3.38966C21.8057 3.46132 21.9754 3.61556 22.0942 3.7324C22.213 3.84924 22.3194 3.94427 22.3302 3.94583C22.3395 3.94583 22.4305 3.89442 22.5292 3.83055C22.6295 3.76823 22.7745 3.6841 22.8501 3.64671C22.9257 3.60777 23.0491 3.55012 23.1247 3.51896C23.1987 3.48781 23.3437 3.43484 23.4471 3.39901C23.552 3.36473 23.7032 3.31955 23.7834 3.2993C23.8636 3.27905 23.9839 3.251 24.0503 3.23854C24.1151 3.22452 24.2616 3.20271 24.3727 3.18869C24.5054 3.17155 24.6951 3.1622 24.9095 3.1622C25.1209 3.1622 25.3199 3.17155 25.4572 3.18869C25.576 3.20271 25.7564 3.23231 25.8583 3.25256C25.9601 3.27437 26.1298 3.31644 26.2362 3.34604C26.3427 3.37564 26.5154 3.43172 26.6219 3.47067C26.7283 3.50962 26.9042 3.58284 27.0152 3.63425C27.1263 3.6841 27.2744 3.75888 27.3469 3.79783C27.4194 3.83834 27.5505 3.91779 27.64 3.97388C27.7295 4.02996 27.8544 4.11409 27.9177 4.16082C27.9809 4.20912 28.1028 4.30415 28.1877 4.3727C28.2725 4.44281 28.4314 4.58613 28.5409 4.69363C28.6505 4.80113 28.8016 4.96159 28.8788 5.05195C28.9559 5.14231 29.0778 5.29654 29.1503 5.39469C29.2228 5.49284 29.3369 5.66109 29.4033 5.76859C29.4696 5.87609 29.5683 6.05057 29.6223 6.15807C29.6748 6.26556 29.7504 6.42603 29.7889 6.51639C29.826 6.60675 29.8799 6.74384 29.9062 6.82018C29.9339 6.89652 29.9787 7.0414 30.008 7.13955C30.0373 7.2377 30.0805 7.41686 30.1067 7.53682C30.1314 7.65678 30.1638 7.84996 30.1777 7.96525C30.1916 8.08053 30.207 8.26437 30.224 8.57283L30.4168 8.63671C30.5232 8.67254 30.7099 8.74109 30.8333 8.79094C30.9567 8.84079 31.1372 8.91869 31.2344 8.96387C31.3316 9.01061 31.4874 9.0885 31.5815 9.13991C31.6756 9.18977 31.8036 9.26299 31.8669 9.30194C31.9301 9.34088 32.0489 9.41566 32.1291 9.46863C32.2093 9.52316 32.3451 9.61819 32.4299 9.68207C32.5148 9.74594 32.6706 9.87057 32.777 9.96093C32.8835 10.0497 33.0701 10.2242 33.1936 10.3489C33.317 10.4735 33.4836 10.6558 33.5653 10.7539C33.6456 10.8521 33.7535 10.9892 33.8044 11.0577C33.8569 11.1263 33.9464 11.2556 34.0065 11.3459C34.0652 11.4363 34.15 11.5718 34.1963 11.6497C34.241 11.7276 34.3166 11.8709 34.366 11.9691C34.4153 12.0672 34.4878 12.2261 34.5279 12.3196C34.5681 12.4131 34.6421 12.6172 34.693 12.7714C34.7439 12.9256 34.8087 13.1469 34.8365 13.2621C34.8658 13.3774 34.9059 13.5784 34.9275 13.7062C34.9491 13.8355 34.9738 14.0177 34.983 14.1112C34.9907 14.2047 34.9985 14.4477 35 14.6487C35 14.8497 34.9923 15.0989 34.983 15.2018C34.9738 15.3046 34.9491 15.4946 34.9275 15.6224C34.9059 15.7517 34.8658 15.9542 34.8365 16.0742C34.8087 16.1941 34.7516 16.3936 34.7131 16.5182C34.673 16.6428 34.6097 16.8251 34.5711 16.9232C34.5326 17.0214 34.4524 17.2083 34.3907 17.3361C34.3289 17.4654 34.2256 17.6648 34.1577 17.7801C34.0914 17.8954 33.9957 18.0527 33.9448 18.1306C33.8939 18.2085 33.789 18.355 33.7119 18.4578C33.6348 18.5606 33.5098 18.718 33.4342 18.8083C33.3586 18.8987 33.1843 19.0841 33.0485 19.2212C32.9113 19.3583 32.7138 19.5437 32.6074 19.634C32.5009 19.7228 32.3389 19.8537 32.2448 19.9222C32.1507 19.9923 32.0026 20.0983 31.9132 20.159C31.8237 20.2198 31.6571 20.3242 31.5429 20.3912C31.4288 20.4581 31.2267 20.5688 31.0956 20.6342C30.9644 20.7012 30.7377 20.804 30.3319 20.9723L30.3227 21.1639C30.3165 21.2698 30.2934 21.4817 30.2702 21.6359C30.2486 21.7902 30.207 22.0176 30.1777 22.1423C30.1499 22.2669 30.0897 22.4803 30.0466 22.6174C30.0018 22.7545 29.9417 22.9259 29.9123 22.9991C29.883 23.0723 29.8275 23.2016 29.7874 23.2873C29.7473 23.373 29.6732 23.521 29.6208 23.6145C29.5699 23.708 29.4943 23.8388 29.4526 23.9027C29.4125 23.9666 29.3107 24.1099 29.2289 24.2221C29.1456 24.3342 28.9991 24.5118 28.9019 24.6193C28.8047 24.7268 28.6458 24.8842 28.5486 24.9699C28.4515 25.0555 28.3388 25.1553 28.2956 25.1895C28.2525 25.2238 28.1599 25.2955 28.0874 25.3469C28.0149 25.3983 27.876 25.4902 27.7789 25.5494C27.6817 25.6102 27.532 25.6943 27.4472 25.7364C27.3623 25.78 27.2173 25.847 27.1232 25.8859C27.0291 25.9249 26.881 25.9825 26.7916 26.0137C26.7021 26.0448 26.5293 26.0978 26.4059 26.1305C26.2825 26.1632 26.0819 26.2084 25.9585 26.2302C25.8351 26.252 25.6546 26.2785 25.5574 26.2894C25.4603 26.2988 25.2165 26.3081 25.0175 26.3081C24.8185 26.3081 24.5717 26.2988 24.4699 26.2894C24.3681 26.2785 24.1799 26.252 24.0534 26.2302C23.9253 26.21 23.7109 26.1632 23.5751 26.1289C23.4394 26.0947 23.2172 26.0292 23.0815 25.9825C22.9457 25.9373 22.7298 25.8563 22.3719 25.7068L22.3333 25.7582C22.3117 25.7878 22.2469 25.8672 22.1868 25.9358C22.1281 26.0043 22.0063 26.1367 21.9168 26.2302C21.8273 26.3237 21.6684 26.4764 21.562 26.5714C21.4555 26.6649 21.2797 26.8098 21.1686 26.8939C21.0575 26.978 20.9156 27.0793 20.8524 27.1198C20.7891 27.1618 20.678 27.2304 20.6055 27.2725C20.533 27.3145 20.4158 27.3784 20.3433 27.4158C20.2708 27.4516 20.1319 27.517 20.0348 27.5607C19.9376 27.6027 19.7602 27.6713 19.6414 27.7102C19.5226 27.7507 19.3282 27.8084 19.2094 27.838C19.0907 27.8691 18.8932 27.9096 18.7698 27.9299C18.6464 27.9501 18.4628 27.9751 18.361 27.9829C18.2592 27.9922 18.0478 28 17.8905 28C17.7331 28 17.528 27.9922 17.4354 27.9844C17.3428 27.9751 17.1685 27.9533 17.0497 27.9361C16.9309 27.919 16.7289 27.88 16.6024 27.8504C16.4743 27.8224 16.2877 27.7741 16.1858 27.7445C16.084 27.7149 15.9035 27.6557 15.7848 27.6136C15.666 27.5716 15.4917 27.5046 15.3991 27.4672C15.3065 27.4282 15.1152 27.341 14.9749 27.2725C14.8345 27.2055 14.6478 27.1089 14.5583 27.0575C14.4689 27.0076 14.327 26.925 14.2421 26.8736C14.1573 26.8222 13.9737 26.7023 13.8333 26.6072C13.6929 26.5122 13.4785 26.358 13.3551 26.2645C13.2317 26.171 13.0697 26.0417 12.9941 25.9763C12.9185 25.9108 12.8352 25.8407 12.7612 25.7831L12.63 25.847C12.5575 25.8828 12.4465 25.9311 12.3832 25.956C12.32 25.9809 12.1842 26.0277 12.0824 26.0588C11.9806 26.0884 11.8109 26.1321 11.7044 26.1523C11.598 26.1741 11.4314 26.1991 11.3342 26.2068C11.237 26.2162 11.0766 26.224 10.9794 26.224C10.8822 26.224 10.7079 26.2162 10.5937 26.2068C10.4796 26.1991 10.296 26.1741 10.1849 26.1523C10.0739 26.1305 9.91806 26.0962 9.83784 26.0744C9.75762 26.0526 9.61416 26.0105 9.5216 25.9794C9.42904 25.9482 9.29329 25.8999 9.22078 25.8703C9.14828 25.8407 9.02024 25.7846 8.93539 25.7441C8.85054 25.7036 8.70091 25.6273 8.60372 25.5728C8.50653 25.5182 8.3461 25.4201 8.24891 25.3562C8.15172 25.2908 8.00517 25.188 7.92495 25.1257C7.84474 25.0633 7.70127 24.9465 7.60871 24.8655C7.51615 24.7829 7.34492 24.6193 7.23076 24.5009C7.11506 24.381 6.96234 24.2112 6.88984 24.1208C6.81733 24.0304 6.70935 23.8902 6.64918 23.8092C6.59056 23.7282 6.50263 23.602 6.45635 23.5288C6.41007 23.4556 6.32831 23.3185 6.27432 23.225C6.22033 23.1315 6.1324 22.9633 6.07995 22.8511C6.0275 22.7389 5.95808 22.5816 5.92722 22.5006C5.89483 22.4196 5.83929 22.2622 5.80073 22.15C5.7637 22.0379 5.70971 21.8525 5.6804 21.7372C5.65109 21.6219 5.61406 21.4427 5.5971 21.3399C5.58013 21.2371 5.56316 21.153 5.56162 21.1514C5.55853 21.1514 5.50145 21.1312 5.43358 21.1062C5.3657 21.0829 5.24074 21.0361 5.1559 21.005C5.07105 20.9723 4.90445 20.9006 4.78566 20.8461C4.66688 20.7915 4.47868 20.6949 4.36915 20.6326C4.25962 20.5703 4.09147 20.4675 3.99891 20.4052C3.90635 20.3429 3.76289 20.2416 3.68267 20.1808C3.60245 20.1185 3.46361 20.0079 3.37414 19.9331C3.28466 19.8583 3.10726 19.6932 2.98076 19.5639C2.85272 19.4362 2.68766 19.2601 2.6167 19.1744C2.54419 19.0887 2.42849 18.9454 2.36062 18.8551C2.29274 18.7647 2.19555 18.6292 2.14465 18.5513C2.09374 18.4734 1.99964 18.3238 1.93639 18.2163C1.8716 18.1088 1.77132 17.9234 1.7127 17.8035C1.65254 17.6835 1.58004 17.5262 1.54918 17.4529C1.51833 17.3797 1.47822 17.2816 1.45971 17.2348C1.44274 17.1881 1.40263 17.079 1.37332 16.9934C1.34401 16.9077 1.29927 16.7706 1.27613 16.6896C1.25145 16.6085 1.21134 16.4574 1.18512 16.3546C1.16044 16.2518 1.12033 16.0664 1.09873 15.9418C1.07559 15.8171 1.04782 15.6348 1.03548 15.5367C1.02314 15.4386 1.00926 15.1721 1.00309 14.9447C0.996915 14.6767 1 14.4446 1.01234 14.2826C1.02314 14.1455 1.04165 13.9663 1.05245 13.8853C1.06479 13.8043 1.08793 13.6641 1.1049 13.5737C1.12187 13.4834 1.15272 13.3369 1.17586 13.2466C1.199 13.1562 1.23757 13.0129 1.26225 12.9272C1.28693 12.8415 1.3363 12.6904 1.37178 12.5922C1.40572 12.4941 1.46588 12.3399 1.5029 12.2495C1.54147 12.1591 1.60626 12.0189 1.64637 11.9379C1.68648 11.8569 1.76053 11.7198 1.80835 11.6341C1.85771 11.5484 1.94719 11.4051 2.00581 11.3148C2.06597 11.2244 2.15545 11.0951 2.2079 11.0265C2.2588 10.958 2.3529 10.8396 2.41615 10.7617C2.4794 10.6838 2.63675 10.5155 2.76325 10.3878C2.89129 10.2585 3.08258 10.084 3.18902 9.99832C3.29546 9.91264 3.44819 9.79579 3.5284 9.73815C3.60862 9.68207 3.75826 9.58548 3.86007 9.52316C3.96189 9.4624 4.12849 9.37048 4.23031 9.32063C4.33212 9.27078 4.50182 9.19444 4.60826 9.15238C4.7147 9.10875 4.88748 9.04488 4.99392 9.01061C5.10036 8.97633 5.25617 8.93115 5.34102 8.90778C5.42586 8.88597 5.5647 8.85481 5.64955 8.83768C5.73439 8.82054 5.80844 8.80185 5.81307 8.79561C5.81924 8.78782 5.83466 8.67098 5.85009 8.53388C5.86398 8.39679 5.89637 8.16933 5.92105 8.02756C5.94728 7.88579 5.98893 7.68638 6.01361 7.58356C6.03984 7.48074 6.07686 7.33741 6.09846 7.26419C6.12005 7.19096 6.15553 7.07879 6.17713 7.01492C6.19873 6.95105 6.24501 6.82485 6.2774 6.7345C6.31134 6.64414 6.37305 6.49769 6.41316 6.40733C6.45327 6.31698 6.53348 6.15963 6.59056 6.0568C6.64764 5.95398 6.74329 5.79663 6.80345 5.70627C6.86207 5.61591 6.96388 5.4757 7.02868 5.39469C7.09192 5.31368 7.22459 5.16412 7.32178 5.0613C7.42051 4.96003 7.57015 4.81826 7.65499 4.74504C7.73984 4.67338 7.88947 4.55965 7.98666 4.49266C8.08385 4.42567 8.23348 4.33064 8.31833 4.2839C8.40318 4.2356 8.5559 4.16082 8.65771 4.11564C8.75953 4.07202 8.92614 4.00815 9.02795 3.97388C9.12976 3.9396 9.30717 3.88975 9.42133 3.86015C9.53548 3.83211 9.77613 3.79004 9.95354 3.76667C10.2544 3.72772 10.3068 3.72461 10.6863 3.7324C10.9794 3.73707 11.1645 3.74798 11.3419 3.7729C11.4777 3.79004 11.6936 3.82743 11.8201 3.85392C11.9466 3.8804 12.141 3.92558 12.2521 3.95362C12.3632 3.98322 12.5714 4.04554 12.7149 4.09228C12.8583 4.14057 12.9879 4.17796 13.0003 4.17796C13.0126 4.17796 13.0728 4.11409 13.1314 4.03463C13.19 3.95674 13.3427 3.78693 13.4708 3.65606C13.5973 3.52675 13.7685 3.36629 13.8487 3.2993C13.9289 3.23231 14.0647 3.12949 14.1495 3.06873C14.2344 3.00797 14.3732 2.91449 14.4581 2.86308C14.5429 2.81167 14.6956 2.72599 14.7975 2.67302C14.8993 2.62161 15.0489 2.54994 15.1291 2.51567C15.2093 2.48139 15.3636 2.42064 15.4731 2.38169C15.5811 2.34274 15.757 2.2851 15.865 2.25394C15.9745 2.22278 16.1519 2.1776 16.263 2.15268C16.374 2.12775 16.5854 2.0888 16.7335 2.06699C16.8816 2.04674 17.0806 2.02337 17.1731 2.01558C17.2657 2.00935 17.4709 2.00156 17.6282 2ZM16.988 4.38049C16.8692 4.39918 16.6826 4.43657 16.5715 4.46618C16.4604 4.49578 16.3015 4.54563 16.2167 4.57679C16.1319 4.6095 15.9791 4.67649 15.8773 4.72635C15.7755 4.7762 15.6228 4.86344 15.5379 4.92109C15.4531 4.97717 15.3358 5.06286 15.2772 5.11115C15.2186 5.161 15.1214 5.25292 15.0613 5.31835C15.0011 5.38223 14.9085 5.49751 14.8561 5.57541C14.8052 5.65175 14.7234 5.7904 14.6771 5.88543C14.6309 5.98047 14.5738 6.10198 14.5522 6.15807C14.529 6.21415 14.4812 6.29672 14.4457 6.34346C14.4103 6.38864 14.3362 6.46186 14.2807 6.50392C14.2251 6.54599 14.1233 6.6083 14.0524 6.64102C13.9829 6.6753 13.8657 6.71892 13.7901 6.73761C13.6868 6.76254 13.6081 6.77033 13.4476 6.77033C13.2857 6.77033 13.2085 6.76254 13.1005 6.73605C13.0203 6.71736 12.8892 6.66595 12.7874 6.61765C12.6933 6.57091 12.5915 6.52729 12.5637 6.52262C12.5375 6.51639 12.5005 6.49925 12.4835 6.48367C12.4665 6.46965 12.3755 6.42759 12.2829 6.39176C12.1904 6.35592 12.0191 6.29984 11.905 6.26556C11.7908 6.23129 11.6073 6.18299 11.4962 6.15807C11.3851 6.13314 11.1645 6.09731 11.0025 6.07861C10.7727 6.05213 10.6632 6.04746 10.4935 6.05525C10.3747 6.05992 10.2081 6.0755 10.1232 6.08796C10.0384 6.10043 9.90726 6.13003 9.83013 6.15184C9.753 6.17365 9.61416 6.22817 9.5216 6.27335C9.42904 6.31853 9.2902 6.4011 9.21461 6.45563C9.13902 6.51016 9.02486 6.61142 8.96007 6.67997C8.89528 6.75007 8.79964 6.86848 8.74873 6.94481C8.69628 7.02271 8.61452 7.15825 8.56824 7.24861C8.52042 7.33897 8.45408 7.48229 8.42014 7.56798C8.38621 7.65366 8.33838 7.79699 8.31216 7.88735C8.28593 7.97771 8.24428 8.1522 8.2196 8.27683C8.19338 8.40146 8.16252 8.58685 8.15018 8.68968C8.13784 8.7925 8.11933 8.9997 8.11007 9.14926C8.10082 9.29882 8.07922 9.52627 8.06225 9.65558C8.04682 9.78333 8.01597 9.95159 7.99283 10.0295C7.97123 10.1074 7.92033 10.2398 7.88022 10.3255C7.84011 10.4112 7.77995 10.5202 7.74601 10.567C7.71053 10.6137 7.64574 10.6869 7.59946 10.7305C7.55318 10.7726 7.4529 10.8412 7.37731 10.8801C7.30018 10.9206 7.18294 10.9705 7.11506 10.9923C7.04719 11.0156 6.91143 11.0515 6.81425 11.0733C6.71706 11.0951 6.53966 11.1231 6.42087 11.1356C6.30209 11.1496 6.07686 11.1777 5.91951 11.1995C5.73285 11.2244 5.5971 11.2524 5.52613 11.2789C5.46751 11.3007 5.34873 11.3537 5.26388 11.3973C5.17904 11.4394 5.051 11.5095 4.97849 11.5531C4.90599 11.5983 4.79492 11.6731 4.73167 11.7214C4.66842 11.7681 4.54964 11.8678 4.46942 11.9395C4.3892 12.0127 4.26579 12.142 4.19483 12.2277C4.12387 12.3118 4.01897 12.452 3.96189 12.5377C3.90327 12.6234 3.81225 12.7776 3.75672 12.8805C3.70272 12.9833 3.63176 13.1266 3.60091 13.1998C3.57006 13.2731 3.52069 13.4102 3.48984 13.5036C3.46053 13.5971 3.41425 13.7731 3.38956 13.8931C3.36488 14.0131 3.33557 14.1813 3.32477 14.267C3.31552 14.3527 3.30626 14.5848 3.30626 14.7811C3.30626 14.9774 3.31552 15.2095 3.32632 15.2952C3.33712 15.3809 3.36334 15.5351 3.38339 15.638C3.40345 15.7408 3.44202 15.8981 3.46515 15.9885C3.48984 16.0789 3.54229 16.2331 3.57931 16.3312C3.61788 16.4294 3.67958 16.5774 3.71661 16.6584C3.75363 16.7394 3.82922 16.8843 3.88321 16.9778C3.93566 17.0712 4.02051 17.2083 4.06833 17.2816C4.11615 17.3548 4.21488 17.4872 4.28584 17.5776C4.35681 17.6679 4.49102 17.819 4.58512 17.9125C4.67922 18.006 4.82114 18.1369 4.90136 18.2023C4.98158 18.2677 5.1343 18.3783 5.24074 18.4484C5.34719 18.5185 5.52768 18.6245 5.64183 18.6821C5.75599 18.7413 5.9118 18.813 5.98893 18.8442C6.06606 18.8738 6.20027 18.9205 6.28975 18.9454C6.37922 18.9719 6.51343 19.0046 6.59056 19.0186C6.6677 19.0327 6.79882 19.0654 6.88367 19.0903C6.96851 19.1168 7.0873 19.1666 7.14592 19.2025C7.20454 19.2383 7.30327 19.3162 7.36343 19.377C7.42359 19.4362 7.50227 19.5312 7.53775 19.5873C7.57323 19.6434 7.6226 19.7384 7.64728 19.7976C7.67042 19.8568 7.71207 19.9908 7.73984 20.0936C7.77172 20.2182 7.79743 20.3792 7.81697 20.5765C7.8324 20.7401 7.86016 20.9427 7.87713 21.0283C7.8941 21.114 7.9265 21.2433 7.94809 21.3166C7.96969 21.3898 8.00826 21.5051 8.03448 21.5736C8.06071 21.6422 8.13476 21.8026 8.20109 21.9319C8.26588 22.0597 8.36615 22.2357 8.42169 22.3214C8.47877 22.4071 8.58367 22.5504 8.65463 22.6408C8.72559 22.7311 8.8598 22.8776 8.9539 22.9679C9.04646 23.0583 9.19147 23.1845 9.27632 23.2499C9.35962 23.3138 9.49074 23.4057 9.56788 23.454C9.64501 23.5023 9.78693 23.5818 9.88412 23.6285C9.98131 23.6752 10.1109 23.7313 10.1695 23.7531C10.2281 23.7749 10.35 23.8108 10.4395 23.8326C10.5289 23.8544 10.6848 23.8778 10.7866 23.8856C10.8884 23.8918 11.0411 23.8933 11.126 23.8856C11.2108 23.8793 11.325 23.8622 11.3805 23.8482C11.436 23.8341 11.5301 23.8014 11.5887 23.7749C11.6474 23.7485 11.7415 23.697 11.797 23.6597C11.8525 23.6223 11.942 23.5568 11.9976 23.5132C12.0531 23.4696 12.1534 23.4073 12.2212 23.373C12.2891 23.3403 12.4218 23.292 12.5143 23.2655C12.6069 23.239 12.7427 23.211 12.8152 23.2032C12.9123 23.1923 12.9771 23.1938 13.062 23.2094C13.1252 23.2203 13.2301 23.2484 13.2934 23.2717C13.3566 23.2951 13.4538 23.3403 13.5093 23.373C13.5649 23.4057 13.6544 23.4665 13.7084 23.507C13.7639 23.549 13.8811 23.6628 13.9706 23.7594C14.0601 23.856 14.2282 24.0117 14.3424 24.1037C14.4565 24.1956 14.6278 24.3296 14.7203 24.4012C14.8129 24.4713 14.9795 24.5913 15.0906 24.6661C15.2016 24.7393 15.3682 24.8468 15.4608 24.9029C15.5534 24.959 15.7416 25.0618 15.8773 25.1303C16.0131 25.1989 16.1905 25.283 16.2707 25.3173C16.3509 25.3516 16.4867 25.4045 16.5715 25.4341C16.6564 25.4637 16.806 25.5089 16.9032 25.5354C17.0004 25.5619 17.1917 25.6024 17.3274 25.6257C17.5387 25.6616 17.619 25.6678 17.8905 25.6678C18.145 25.6678 18.2468 25.6616 18.4073 25.6351C18.5183 25.6164 18.6741 25.5821 18.7544 25.5588C18.8346 25.5369 18.9534 25.498 19.0166 25.4731C19.0799 25.4466 19.2094 25.3889 19.302 25.3406C19.3946 25.2939 19.5411 25.2098 19.626 25.1537C19.7108 25.0976 19.8388 25.0057 19.9113 24.9496C19.9838 24.892 20.1289 24.758 20.2353 24.6505C20.3417 24.543 20.4898 24.3779 20.5639 24.2844C20.6379 24.1909 20.7675 24.0117 20.8524 23.8871C20.9357 23.7625 21.0514 23.6129 21.11 23.5537C21.1671 23.4961 21.2535 23.4213 21.2997 23.3886C21.346 23.3559 21.4123 23.3185 21.4463 23.3029C21.4802 23.2889 21.5836 23.2499 21.6777 23.2157C21.7718 23.1814 21.8998 23.1424 21.9631 23.13C22.0417 23.1128 22.125 23.1066 22.2253 23.1128C22.3256 23.1175 22.4135 23.1331 22.503 23.1627C22.5755 23.1861 22.6681 23.2234 22.7113 23.2453C22.7529 23.2655 22.8578 23.3263 22.9427 23.3777C23.0275 23.4275 23.1602 23.5023 23.2358 23.5413C23.3113 23.5786 23.4301 23.6347 23.498 23.6643C23.5659 23.6955 23.6708 23.736 23.7294 23.7578C23.788 23.7781 23.896 23.8139 23.9685 23.8341C24.041 23.856 24.1829 23.8902 24.2848 23.912C24.3866 23.9323 24.5501 23.9572 24.6473 23.9666C24.7522 23.9775 24.9512 23.9806 25.1332 23.9759C25.38 23.9697 25.4819 23.9603 25.6423 23.9276C25.7534 23.9058 25.9061 23.8669 25.9817 23.8419C26.0573 23.817 26.173 23.7749 26.2362 23.7469C26.2995 23.7204 26.4044 23.6706 26.4676 23.6347C26.5309 23.6005 26.6388 23.535 26.7067 23.4883C26.7746 23.4431 26.8995 23.3481 26.9844 23.2764C27.0692 23.2032 27.1973 23.0754 27.2667 22.9898C27.3377 22.9056 27.4379 22.7732 27.4888 22.6953C27.5397 22.6174 27.6277 22.4569 27.6863 22.337C27.7434 22.217 27.8113 22.0566 27.8375 21.9787C27.8637 21.9008 27.8992 21.7824 27.9162 21.7138C27.9331 21.6453 27.9624 21.5019 27.9794 21.3945C28.0041 21.2558 28.0149 21.1047 28.0211 20.8726C28.0257 20.6934 28.0226 20.4675 28.0133 20.374C28.0041 20.2665 28.0041 20.1512 28.0133 20.0624C28.0226 19.983 28.0442 19.8817 28.0658 19.8288C28.0858 19.7773 28.126 19.6963 28.1537 19.6496C28.1799 19.6029 28.2663 19.5 28.3419 19.4221C28.4175 19.3442 28.5301 19.2476 28.5887 19.2087C28.6474 19.1713 28.7662 19.1043 28.851 19.0607C28.9358 19.0171 29.1163 18.9439 29.2521 18.8971C29.3878 18.8488 29.5853 18.7756 29.6917 18.7304C29.7982 18.6868 29.9956 18.5933 30.1314 18.5217C30.2672 18.4516 30.4615 18.3409 30.5633 18.2755C30.6652 18.2101 30.8318 18.0948 30.9336 18.0169C31.0354 17.9406 31.1943 17.8081 31.2884 17.7225C31.3825 17.6383 31.5167 17.5012 31.5877 17.4218C31.6586 17.3408 31.7651 17.2115 31.8252 17.1336C31.8839 17.0557 31.9656 16.9451 32.0057 16.8843C32.0458 16.8235 32.1199 16.702 32.1723 16.6117C32.2232 16.5213 32.305 16.3608 32.3528 16.2533C32.4006 16.1458 32.4608 16.0025 32.4839 15.934C32.5086 15.8654 32.5456 15.747 32.5672 15.6691C32.5888 15.5912 32.6259 15.423 32.649 15.2952C32.6876 15.0802 32.6907 15.0304 32.6907 14.6643C32.6907 14.2982 32.6876 14.2483 32.649 14.0333C32.6259 13.904 32.5919 13.7513 32.575 13.6906C32.558 13.6298 32.5194 13.5114 32.4886 13.4257C32.4577 13.34 32.4037 13.2076 32.3682 13.1297C32.3328 13.0518 32.2711 12.9303 32.2294 12.8571C32.1893 12.7839 32.1214 12.6717 32.0782 12.6078C32.0366 12.544 31.9656 12.4427 31.9209 12.3819C31.8761 12.3212 31.7774 12.2028 31.7003 12.1171C31.6247 12.0314 31.4936 11.9005 31.4103 11.8258C31.3254 11.751 31.2128 11.6559 31.1573 11.6139C31.1017 11.5718 30.9845 11.4892 30.895 11.4285C30.8055 11.3677 30.6436 11.2696 30.5325 11.2088C30.4214 11.1465 30.2425 11.0577 30.1314 11.0094C30.0203 10.9611 29.8645 10.8988 29.7843 10.8708C29.7041 10.8427 29.5853 10.8038 29.5221 10.7851C29.4588 10.7664 29.34 10.7337 29.2598 10.7134C29.1796 10.6947 29.0747 10.6636 29.0284 10.648C28.9821 10.6308 28.9081 10.6121 28.8664 10.6059C28.8232 10.6012 28.7399 10.5825 28.6813 10.567C28.6227 10.5514 28.5286 10.5171 28.4731 10.4922C28.4175 10.4673 28.3203 10.4049 28.2571 10.3535C28.1938 10.3021 28.1059 10.2118 28.0612 10.1526C28.018 10.0934 27.9609 9.99988 27.9362 9.9438C27.9115 9.88771 27.8776 9.80047 27.8622 9.74906C27.8421 9.68051 27.8344 9.60261 27.8344 9.45305C27.8329 9.3144 27.8421 9.2069 27.8606 9.11031C27.8807 9.0184 27.893 8.86884 27.8976 8.6741C27.9038 8.48559 27.8992 8.32201 27.8884 8.2223C27.8776 8.13662 27.8545 8.00264 27.8375 7.9263C27.8205 7.84996 27.7819 7.71598 27.7526 7.6303C27.7233 7.54461 27.6662 7.4044 27.6261 7.31871C27.586 7.23303 27.5166 7.09905 27.4703 7.02271C27.424 6.94637 27.3377 6.81551 27.276 6.7345C27.2158 6.65348 27.1124 6.52729 27.0446 6.45563C26.9782 6.38397 26.8564 6.26868 26.7761 6.20169C26.6959 6.13314 26.571 6.03811 26.4985 5.98981C26.426 5.94152 26.2917 5.86206 26.1976 5.81377C26.1035 5.76547 25.9647 5.70004 25.8891 5.67044C25.8135 5.63928 25.667 5.5941 25.5652 5.56762C25.4633 5.54269 25.3122 5.51465 25.2289 5.5053C25.1471 5.49596 25.0005 5.48817 24.9049 5.48817C24.8108 5.48817 24.6689 5.49596 24.5933 5.5053C24.5177 5.51309 24.3881 5.53958 24.3079 5.56139C24.2277 5.5832 24.1104 5.62059 24.0487 5.64552C23.9886 5.67044 23.8806 5.72341 23.8096 5.76236C23.7402 5.80131 23.6476 5.85895 23.606 5.89011C23.5628 5.92127 23.4841 5.98514 23.4301 6.03188C23.3746 6.08017 23.2635 6.20013 23.1833 6.29828C23.1015 6.39643 22.9966 6.50704 22.9504 6.54287C22.9041 6.58026 22.7961 6.6457 22.7113 6.69087C22.6172 6.73917 22.4999 6.78435 22.4104 6.80772C22.3071 6.83264 22.2207 6.84355 22.1173 6.84355C22.0248 6.84355 21.923 6.83109 21.8397 6.81083C21.7656 6.7937 21.6576 6.75163 21.5928 6.71736C21.5296 6.68153 21.4355 6.62077 21.3846 6.5787C21.3337 6.5382 21.2519 6.45407 21.2041 6.3902C21.1563 6.32632 21.073 6.1939 21.0205 6.09575C20.9681 5.9976 20.8971 5.87453 20.8632 5.82312C20.8292 5.77171 20.7583 5.67667 20.7043 5.6128C20.6518 5.54892 20.567 5.45701 20.5176 5.40871C20.4682 5.36042 20.3834 5.28252 20.3279 5.23734C20.2723 5.1906 20.1474 5.09869 20.0502 5.03326C19.953 4.96782 19.8064 4.87902 19.7262 4.8354C19.646 4.79334 19.5103 4.72635 19.4254 4.68896C19.3406 4.65001 19.1986 4.59392 19.1092 4.56432C19.0197 4.53472 18.8639 4.48799 18.7621 4.4615C18.6603 4.43657 18.4767 4.39918 18.3533 4.38205C18.2299 4.36335 18.0247 4.34154 17.8982 4.33531C17.7701 4.32752 17.6467 4.32129 17.6205 4.32285C17.5943 4.32285 17.4909 4.32908 17.3891 4.33687C17.2873 4.3431 17.1068 4.36335 16.988 4.38049Z" fill="#FFF8E3" stroke="#293D67" stroke-width="0.7" mask="url(#path-1-inside-1_0_3300)"/>
<path d="M25.304 10.0424C25.2003 10.0226 25.0224 10.0062 24.8895 10.0012C24.7617 9.99794 24.5976 10.0012 24.5268 10.0111C24.456 10.0193 24.3351 10.0407 24.2591 10.0605C24.1831 10.0786 24.0622 10.1165 23.9914 10.1412C23.9206 10.1675 23.8066 10.2251 23.7409 10.2696C23.6753 10.314 23.582 10.3897 23.5354 10.4391C23.4905 10.4885 23.4335 10.5626 23.4111 10.6054C23.3886 10.6498 23.3575 10.7272 23.3437 10.7782C23.3299 10.8309 23.3178 10.9066 23.3178 10.9478C23.3178 10.9889 23.3299 11.0663 23.3454 11.1206C23.361 11.1749 23.3903 11.2523 23.4111 11.2935C23.4318 11.3346 23.4767 11.4038 23.5095 11.4498C23.544 11.4943 23.6287 11.5815 23.696 11.6424C23.7634 11.705 23.867 11.784 23.9257 11.8219C23.9862 11.8581 24.0967 11.9157 24.1727 11.9503C24.2487 11.9848 24.3731 12.0326 24.449 12.0556C24.525 12.0803 24.6528 12.1149 24.734 12.133C24.8152 12.1511 24.9931 12.1741 25.1313 12.184C25.3454 12.2005 25.4128 12.2005 25.601 12.1774C25.7254 12.161 25.8964 12.1264 25.9896 12.0984C26.0829 12.0704 26.1952 12.0293 26.2401 12.0079C26.2867 11.9865 26.3264 11.9684 26.3316 11.9684C26.3368 11.9684 26.3402 13.8154 26.3402 16.0706V20.1744C26.4076 20.2567 26.4525 20.2929 26.4819 20.3078C26.5216 20.3259 26.5613 20.3324 26.6079 20.3242C26.6459 20.3193 26.6943 20.3028 26.715 20.2896C26.7375 20.2765 26.7703 20.2337 26.7893 20.1942C26.8152 20.1399 26.8238 20.0888 26.8238 19.9555C26.8238 19.8485 26.8394 19.7086 26.867 19.5686C26.8895 19.4501 26.9361 19.274 26.9706 19.1785C27.0035 19.083 27.0812 18.9102 27.1416 18.7917C27.2021 18.6731 27.3161 18.4822 27.3938 18.3637C27.4715 18.2451 27.6235 18.0377 27.7306 17.9027C27.8394 17.7661 28.0017 17.5636 28.0933 17.45C28.1848 17.3365 28.3074 17.1735 28.3679 17.0879C28.4283 17.0023 28.513 16.8722 28.5561 16.7998C28.5976 16.7274 28.6649 16.6023 28.7047 16.52C28.7444 16.4377 28.8083 16.2862 28.8446 16.1825C28.8808 16.0788 28.924 15.9372 28.9378 15.8697C28.9516 15.8023 28.9724 15.6804 28.9827 15.5981C28.9914 15.5158 29 15.3792 29 15.2936C29 15.208 28.9879 15.0434 28.9741 14.9265C28.9603 14.8113 28.9326 14.6483 28.9136 14.5644C28.8929 14.482 28.848 14.3273 28.8117 14.2236C28.7755 14.1199 28.7029 13.9487 28.6511 13.845C28.5993 13.7413 28.4801 13.5289 28.3869 13.3758C28.2936 13.2211 28.1848 13.0433 28.1468 12.9808C28.1071 12.9166 28.0604 12.8425 28.0397 12.8161C28.019 12.7882 27.9724 12.7536 27.9361 12.7355C27.8912 12.7157 27.8497 12.7091 27.8117 12.7157C27.7824 12.7207 27.7288 12.7503 27.6943 12.7783C27.6615 12.8079 27.6252 12.8589 27.6149 12.8902C27.6028 12.9314 27.6028 12.9643 27.6166 13.0055C27.6269 13.0367 27.7254 13.2079 27.8342 13.3841C27.9447 13.5602 28.0915 13.8154 28.1623 13.952C28.2314 14.087 28.3126 14.2615 28.3402 14.3388C28.3696 14.4162 28.4111 14.5644 28.4352 14.6681C28.4594 14.7718 28.4888 14.9298 28.4974 15.017C28.5078 15.1059 28.5164 15.2327 28.5164 15.2969C28.5164 15.3627 28.5078 15.4829 28.4974 15.5652C28.487 15.6475 28.4594 15.7841 28.4352 15.8697C28.4128 15.9553 28.3627 16.1002 28.3247 16.1907C28.2867 16.2813 28.2193 16.4179 28.1762 16.4953C28.133 16.5727 28.0397 16.7175 27.9724 16.8163C27.9033 16.915 27.7168 17.157 27.5596 17.3513C27.4007 17.5455 27.2107 17.7908 27.1364 17.8945C27.0622 17.9982 26.9603 18.1464 26.9102 18.2237L26.8204 18.3637L26.8325 11.0877C26.7651 10.9214 26.7133 10.8292 26.677 10.7766C26.639 10.7222 26.5458 10.6235 26.4698 10.556C26.3938 10.4868 26.2763 10.398 26.2107 10.3584C26.1451 10.3173 26.0276 10.258 25.9516 10.2284C25.8756 10.1971 25.7392 10.151 25.6494 10.123C25.5596 10.0967 25.4041 10.0605 25.304 10.0424Z" fill="#FFF8E3"/>
<path d="M12.285 10.4934C12.2556 10.4803 12.2159 10.4704 12.1986 10.4704C12.1831 10.472 12.1416 10.4803 12.1088 10.4918C12.076 10.5033 12.0363 10.5313 12.0207 10.5527C12.0035 10.5757 11.9827 10.6136 11.9724 10.6383C11.9585 10.6712 11.9534 11.9173 11.9534 14.7751V18.8657C11.7927 18.8015 11.6788 18.767 11.5941 18.7472C11.468 18.7176 11.399 18.711 11.1675 18.7126C10.9603 18.7143 10.8463 18.7242 10.7098 18.7505C10.6097 18.7703 10.4352 18.8147 10.3212 18.8509C10.2073 18.8871 10.0363 18.9563 9.94128 19.0024C9.84629 19.0501 9.72193 19.1209 9.66494 19.1604C9.60795 19.1999 9.51468 19.2707 9.45941 19.3168C9.40242 19.3629 9.31261 19.4534 9.25907 19.516C9.20553 19.5785 9.13817 19.6789 9.10708 19.7382C9.07772 19.7975 9.04145 19.8896 9.02591 19.944C9.01209 19.9983 9 20.0888 9 20.1448C9 20.2024 9.01382 20.2913 9.03109 20.3423C9.04836 20.395 9.08117 20.4707 9.10708 20.5119C9.13126 20.553 9.20207 20.632 9.26598 20.688C9.33852 20.7539 9.42487 20.8115 9.50432 20.8477C9.5734 20.879 9.69257 20.9201 9.76857 20.9399C9.84456 20.958 9.981 20.981 10.0708 20.9909C10.1883 21.0041 10.2902 21.0024 10.4335 20.9893C10.5423 20.9794 10.6978 20.958 10.7789 20.9399C10.8601 20.9234 11 20.8856 11.0898 20.8576C11.1796 20.8296 11.3282 20.772 11.418 20.7308C11.5078 20.6913 11.6442 20.6189 11.7202 20.5711C11.7962 20.5218 11.9188 20.4279 11.9948 20.3621C12.0691 20.2946 12.1658 20.1958 12.209 20.1415C12.2522 20.0872 12.304 20.0049 12.3264 19.9604C12.3489 19.9143 12.3851 19.8189 12.4059 19.7464L12.4456 19.6147L12.4629 12.4705C12.5406 12.5972 12.6252 12.724 12.7012 12.8326C12.7772 12.9413 12.9672 13.1898 13.1261 13.3841C13.2832 13.5783 13.4853 13.8417 13.5734 13.9684C13.6632 14.0952 13.7841 14.2944 13.8446 14.4129C13.905 14.5298 13.9741 14.6829 13.9983 14.7504C14.0207 14.8179 14.0587 14.9512 14.0794 15.0467C14.1105 15.1866 14.1174 15.2738 14.1174 15.5076C14.1174 15.7068 14.1088 15.8434 14.0898 15.9521C14.0725 16.0377 14.0432 16.171 14.0225 16.2484C14.0035 16.3257 13.9516 16.4706 13.9102 16.5694C13.8687 16.6681 13.791 16.8278 13.7392 16.9233C13.6857 17.0188 13.5596 17.2295 13.4594 17.3924C13.3575 17.5554 13.2625 17.725 13.247 17.771C13.2211 17.8435 13.2211 17.8616 13.2418 17.9225C13.2591 17.9719 13.2867 18.0064 13.3299 18.0344C13.3679 18.0591 13.4214 18.0772 13.456 18.0789C13.4888 18.0789 13.5389 18.069 13.5682 18.0542C13.5976 18.041 13.6321 18.0163 13.6477 17.9999C13.6632 17.9818 13.7651 17.8287 13.8722 17.6558C13.9793 17.483 14.1313 17.2245 14.2073 17.0797C14.2988 16.9085 14.3782 16.7274 14.437 16.5611C14.4853 16.4212 14.5406 16.2286 14.5596 16.1331C14.5786 16.0377 14.6028 15.878 14.6149 15.7792C14.6269 15.6739 14.6304 15.5125 14.6252 15.3924C14.6183 15.2788 14.5993 15.1125 14.582 15.022C14.563 14.9314 14.5112 14.7504 14.4646 14.6187C14.4197 14.487 14.3333 14.2878 14.2746 14.1742C14.2159 14.0606 14.095 13.8647 14.0069 13.738C13.9171 13.6112 13.715 13.3479 13.5579 13.1536C13.4007 12.9594 13.2366 12.7519 13.1934 12.6927C13.1503 12.6334 13.0622 12.5034 12.9965 12.4046C12.9326 12.3058 12.8238 12.1116 12.7548 11.9766C12.6857 11.84 12.6097 11.6704 12.5838 11.598C12.5596 11.5256 12.5199 11.3791 12.4974 11.2721C12.4663 11.1321 12.4542 11.0284 12.4542 10.8934C12.4542 10.793 12.4456 10.6827 12.4352 10.6515C12.4231 10.6202 12.399 10.5757 12.3782 10.5543C12.3592 10.5329 12.3161 10.505 12.285 10.4934Z" fill="#FFF8E3"/>
<path d="M19.5872 12.9873C19.4974 12.9659 19.4041 12.9561 19.285 12.9577C19.19 12.9594 19.0691 12.9659 19.0173 12.9742C18.9655 12.9808 18.8515 13.0071 18.7668 13.0301C18.6805 13.0532 18.5458 13.1026 18.4646 13.1388C18.3834 13.175 18.2712 13.2376 18.2142 13.2754C18.1572 13.3149 18.0604 13.3972 17.9983 13.4598C17.9292 13.5289 17.8618 13.6195 17.8256 13.6886C17.7703 13.794 17.7651 13.8154 17.7651 13.952C17.7651 14.0771 17.772 14.1133 17.8083 14.1824C17.8325 14.2269 17.8826 14.2927 17.9223 14.3306C17.9603 14.3668 18.038 14.4195 18.095 14.4491C18.1503 14.4771 18.247 14.5133 18.3092 14.5281C18.3713 14.543 18.4801 14.5594 18.551 14.5644C18.6218 14.5693 18.7496 14.5644 18.8359 14.5528C18.9206 14.543 19.057 14.515 19.1382 14.4936C19.2193 14.4705 19.3627 14.4162 19.4577 14.3718C19.5561 14.3273 19.6874 14.2466 19.7651 14.1874C19.8377 14.1298 19.9309 14.0425 19.9706 13.9931C20.0086 13.9438 20.0656 13.8549 20.095 13.7956C20.1399 13.7034 20.1485 13.6688 20.1485 13.5569C20.1485 13.4483 20.1399 13.4104 20.1019 13.3347C20.0777 13.2853 20.019 13.2112 19.9724 13.1701C19.9257 13.1289 19.8497 13.0779 19.8031 13.0565C19.7547 13.0351 19.658 13.0038 19.5872 12.9873Z" fill="#FFF8E3"/>
<path d="M20.9257 13.7018C20.9067 13.6935 20.8687 13.6853 20.8394 13.6837C20.81 13.6837 20.7478 13.7018 20.7012 13.7248C20.6528 13.7479 20.5527 13.8269 20.4767 13.901C20.4007 13.975 20.2867 14.1018 20.2211 14.1824C20.1572 14.2648 20.0656 14.4047 20.0207 14.4952C19.9741 14.5858 19.9154 14.7207 19.8912 14.7948C19.867 14.8705 19.8342 15.0006 19.8204 15.0829C19.8066 15.1668 19.7876 15.3808 19.7772 15.557C19.7668 15.7331 19.7582 16.3307 19.7582 16.8821C19.7582 17.4336 19.7668 18.1233 19.7772 18.413C19.7858 18.7028 19.7997 18.9612 19.8066 18.9892C19.8135 19.0172 19.8428 19.0616 19.8722 19.0896C19.905 19.1225 19.9499 19.1456 19.9931 19.1538C20.0449 19.162 20.0794 19.1587 20.1295 19.1357C20.1675 19.1176 20.2142 19.083 20.2332 19.0583C20.2694 19.0122 20.2694 19.0024 20.2694 17.4369C20.2694 16.3027 20.2763 15.8023 20.2902 15.6475C20.3022 15.5306 20.3212 15.3677 20.3316 15.2854C20.342 15.2031 20.3679 15.0681 20.3921 14.9841C20.4145 14.9018 20.4577 14.7866 20.487 14.729C20.5181 14.673 20.5786 14.5759 20.6235 14.5117C20.6684 14.4475 20.7841 14.3125 20.8808 14.2104C21.0173 14.0672 21.057 14.0129 21.0656 13.9635C21.0708 13.9306 21.0725 13.8796 21.0656 13.8532C21.0604 13.8269 21.0345 13.7841 21.0086 13.761C20.981 13.7363 20.9447 13.71 20.9257 13.7018Z" fill="#FFF8E3"/>
<path d="M18.9136 14.831C18.8238 14.8096 18.7306 14.7998 18.6114 14.8014C18.5164 14.803 18.3955 14.8096 18.3437 14.8179C18.2919 14.8244 18.1779 14.8508 18.0933 14.8738C18.0069 14.8969 17.8722 14.9463 17.791 14.9825C17.7098 15.0187 17.5976 15.0812 17.5406 15.1191C17.4836 15.1586 17.3869 15.2409 17.3247 15.3035C17.2556 15.3726 17.1883 15.4631 17.152 15.5323C17.0967 15.6376 17.0915 15.659 17.0915 15.7957C17.0915 15.9208 17.0984 15.957 17.1347 16.0261C17.1589 16.0706 17.209 16.1364 17.2487 16.1743C17.2867 16.2105 17.3644 16.2632 17.4214 16.2928C17.4767 16.3208 17.5734 16.357 17.6356 16.3718C17.6978 16.3866 17.8066 16.4031 17.8774 16.408C17.9482 16.413 18.076 16.408 18.1623 16.3965C18.247 16.3866 18.3834 16.3587 18.4646 16.3373C18.5458 16.3142 18.6891 16.2599 18.7841 16.2154C18.8826 16.171 19.0138 16.0903 19.0915 16.0311C19.1641 15.9735 19.2573 15.8862 19.2971 15.8368C19.3351 15.7874 19.3921 15.6985 19.4214 15.6393C19.4663 15.5471 19.475 15.5125 19.475 15.4006C19.475 15.2919 19.4663 15.2541 19.4283 15.1784C19.4041 15.129 19.3454 15.0549 19.2988 15.0138C19.2522 14.9726 19.1762 14.9216 19.1295 14.9002C19.0812 14.8788 18.9845 14.8475 18.9136 14.831Z" fill="#FFF8E3"/>
</g>
<defs>
<clipPath id="clip0_0_3300">
<rect width="34" height="30" fill="white" transform="translate(0.5)"/>
</clipPath>
</defs>
</svg>
