<svg width="45" height="30" viewBox="0 0 45 30" fill="none" xmlns="http://www.w3.org/2000/svg">
<path d="M12.1028 9.7058C12.0585 9.67783 11.9839 9.65918 11.928 9.65918C11.8487 9.65918 11.8114 9.6755 11.7461 9.73611C11.6995 9.77574 11.6506 9.84801 11.6366 9.8923C11.6179 9.95058 11.6179 11.6337 11.6319 15.7623C11.6436 18.9444 11.6482 21.5484 11.6412 21.5484C11.6342 21.5484 11.5666 21.5228 11.4897 21.4878C11.4128 21.4552 11.2613 21.4062 11.1517 21.3782C10.9862 21.3363 10.8883 21.3293 10.5572 21.3316C10.2518 21.334 10.105 21.3456 9.91613 21.3852C9.78092 21.4109 9.56179 21.4715 9.42658 21.5181C9.29137 21.5624 9.08855 21.6487 8.97199 21.7046C8.85776 21.7629 8.67359 21.8678 8.56403 21.9401C8.45446 22.0123 8.27262 22.1662 8.15606 22.2828C8.04183 22.3993 7.91128 22.5532 7.87165 22.6231C7.82969 22.6907 7.76675 22.8166 7.73178 22.9005C7.6735 23.0381 7.6665 23.0777 7.6665 23.3318C7.6665 23.6046 7.66884 23.6185 7.74577 23.7747C7.79472 23.875 7.87631 23.9869 7.95558 24.0661C8.02784 24.1384 8.15373 24.234 8.23765 24.2806C8.32158 24.3272 8.45679 24.3879 8.54071 24.4158C8.62464 24.4415 8.79715 24.4811 8.92536 24.4998C9.08855 24.5254 9.24707 24.5324 9.44989 24.5254C9.61074 24.5184 9.8462 24.4904 9.97442 24.4648C10.1026 24.4391 10.3171 24.3809 10.4523 24.3342C10.5875 24.2876 10.7927 24.2037 10.9069 24.1477C11.0235 24.0918 11.196 23.9962 11.2916 23.9309C11.3871 23.868 11.5293 23.7608 11.6063 23.6931C11.6832 23.6255 11.8021 23.5066 11.8697 23.4274C11.9373 23.3505 12.0399 23.1919 12.0958 23.0754C12.1541 22.9542 12.2101 22.7956 12.2287 22.7024C12.252 22.5718 12.259 21.5321 12.259 17.4874C12.259 14.7063 12.2637 12.4333 12.2707 12.4333C12.2777 12.4333 12.3709 12.5755 12.4805 12.7504C12.59 12.9229 12.7882 13.212 12.9234 13.3891C13.0586 13.5663 13.3057 13.895 13.4759 14.1165C13.6438 14.3379 13.8582 14.6457 13.9515 14.7995C14.0447 14.9534 14.1613 15.1679 14.2126 15.2774C14.2639 15.387 14.3431 15.5968 14.3921 15.7437C14.441 15.8905 14.4993 16.112 14.518 16.2332C14.539 16.3591 14.5553 16.5899 14.5553 16.7694C14.5553 16.9419 14.539 17.1937 14.518 17.3289C14.4993 17.4641 14.4574 17.6693 14.4271 17.7835C14.3967 17.9001 14.3385 18.0889 14.2965 18.2031C14.2545 18.3197 14.145 18.5598 14.0541 18.7393C13.9631 18.9188 13.7836 19.2382 13.6577 19.4503C13.5319 19.6625 13.4083 19.8769 13.385 19.9282C13.364 19.9795 13.343 20.0588 13.343 20.1031C13.343 20.1474 13.364 20.2196 13.3897 20.2616C13.4153 20.3012 13.4713 20.3525 13.5132 20.3735C13.5645 20.3991 13.6204 20.4085 13.6927 20.3991C13.7766 20.3898 13.8139 20.3688 13.8769 20.2966C13.9188 20.2476 14.0657 20.0191 14.1986 19.7883C14.3338 19.5576 14.511 19.2428 14.5926 19.089C14.6718 18.9351 14.7861 18.695 14.842 18.5528C14.898 18.4129 14.9726 18.2031 15.0052 18.0866C15.0378 17.9723 15.0798 17.7975 15.1008 17.7019C15.1194 17.6063 15.1474 17.4385 15.1637 17.3289C15.1777 17.2193 15.1917 16.9629 15.1917 16.7578C15.1917 16.5153 15.1777 16.3078 15.1521 16.1633C15.1311 16.0421 15.0868 15.8416 15.0518 15.7204C15.0192 15.5991 14.9446 15.3847 14.8886 15.2425C14.8327 15.1026 14.7231 14.8718 14.6462 14.7296C14.5693 14.5897 14.4271 14.3589 14.3338 14.2167C14.2382 14.0768 14.0191 13.7761 13.8442 13.5523C13.6694 13.3285 13.4409 13.0231 13.3337 12.8763C13.2288 12.7294 13.0773 12.5033 12.9957 12.3751C12.9164 12.2468 12.7765 11.9951 12.688 11.8156C12.5994 11.6361 12.4921 11.3796 12.4478 11.2444C12.4036 11.1092 12.3453 10.8854 12.3173 10.7432C12.2893 10.6033 12.2613 10.3516 12.2544 10.1837C12.2474 10.0019 12.2287 9.855 12.2101 9.8177C12.1914 9.7804 12.1425 9.73145 12.1028 9.7058Z" fill="#FFF8E3"/>
<path d="M23.6506 9.70532C23.6063 9.67734 23.5317 9.65869 23.4757 9.65869C23.3964 9.65869 23.3591 9.67501 23.2938 9.73563C23.2472 9.77526 23.1983 9.84754 23.1843 9.89183C23.1656 9.95012 23.1656 11.6334 23.1796 15.7623C23.1913 18.9447 23.1959 21.5489 23.1889 21.5489C23.1819 21.5489 23.1143 21.5233 23.0374 21.4883C22.9605 21.4557 22.8089 21.4067 22.6993 21.3787C22.5338 21.3368 22.4359 21.3298 22.1048 21.3321C21.7994 21.3344 21.6525 21.3461 21.4637 21.3857C21.3285 21.4114 21.1093 21.472 20.9741 21.5186C20.8389 21.5629 20.636 21.6492 20.5195 21.7051C20.4052 21.7634 20.221 21.8683 20.1115 21.9406C20.0019 22.0129 19.82 22.1667 19.7035 22.2833C19.5892 22.3999 19.4587 22.5538 19.419 22.6237C19.3771 22.6913 19.3141 22.8172 19.2791 22.9011C19.2209 23.0387 19.2139 23.0783 19.2139 23.3325C19.2139 23.6052 19.2162 23.6192 19.2931 23.7754C19.3421 23.8757 19.4237 23.9876 19.503 24.0668C19.5752 24.1391 19.7011 24.2347 19.7851 24.2813C19.869 24.328 20.0042 24.3886 20.0881 24.4166C20.1721 24.4422 20.3446 24.4818 20.4728 24.5005C20.636 24.5261 20.7946 24.5331 20.9974 24.5261C21.1583 24.5191 21.3937 24.4912 21.522 24.4655C21.6502 24.4399 21.8647 24.3816 21.9999 24.335C22.1351 24.2883 22.3403 24.2044 22.4545 24.1484C22.5711 24.0925 22.7436 23.9969 22.8392 23.9316C22.9348 23.8687 23.077 23.7614 23.154 23.6938C23.2309 23.6262 23.3498 23.5073 23.4174 23.428C23.485 23.3511 23.5876 23.1926 23.6436 23.076C23.7018 22.9548 23.7578 22.7962 23.7764 22.703C23.7998 22.5724 23.8068 21.3134 23.8044 16.2216C23.8021 10.3814 23.7998 9.89883 23.7648 9.82888C23.7415 9.78692 23.6902 9.73097 23.6506 9.70532Z" fill="#FFF8E3"/>
<path d="M35.8962 9.70532C35.8519 9.67734 35.7773 9.65869 35.7213 9.65869C35.642 9.65869 35.6047 9.67501 35.5395 9.73563C35.4928 9.77526 35.4439 9.84754 35.4299 9.89183C35.4112 9.95012 35.4112 11.6334 35.4252 15.7623C35.4369 18.9447 35.4415 21.5489 35.4345 21.5489C35.4275 21.5489 35.3599 21.5233 35.283 21.4883C35.2061 21.4557 35.0545 21.4067 34.9449 21.3787C34.7794 21.3368 34.6815 21.3298 34.3504 21.3321C34.045 21.3344 33.8981 21.3461 33.7093 21.3857C33.5741 21.4114 33.3549 21.472 33.2197 21.5186C33.0845 21.5629 32.8816 21.6492 32.7651 21.7051C32.6508 21.7634 32.4666 21.8683 32.3571 21.9406C32.2475 22.0129 32.0656 22.1667 31.9491 22.2833C31.8348 22.3999 31.7043 22.5538 31.6646 22.6237C31.6227 22.6913 31.5597 22.8172 31.5248 22.9011C31.4665 23.0387 31.4595 23.0783 31.4595 23.3325C31.4595 23.6052 31.4618 23.6192 31.5387 23.7754C31.5877 23.8757 31.6693 23.9876 31.7486 24.0668C31.8208 24.1391 31.9467 24.2347 32.0307 24.2813C32.1146 24.328 32.2498 24.3886 32.3338 24.4166C32.4177 24.4422 32.5902 24.4818 32.7184 24.5005C32.8816 24.5261 33.0402 24.5331 33.243 24.5261C33.4039 24.5191 33.6393 24.4912 33.7676 24.4655C33.8958 24.4399 34.1103 24.3816 34.2455 24.335C34.3807 24.2883 34.5859 24.2044 34.7001 24.1484C34.8167 24.0925 34.9892 23.9969 35.0848 23.9316C35.1804 23.8687 35.3226 23.7614 35.3996 23.6938C35.4765 23.6262 35.5954 23.5073 35.663 23.428C35.7306 23.3511 35.8332 23.1926 35.8892 23.076C35.9474 22.9548 36.0034 22.7962 36.0221 22.703C36.0454 22.5724 36.0524 21.3134 36.05 16.2216C36.0477 10.3814 36.0454 9.89883 36.0104 9.82888C35.9871 9.78692 35.9358 9.73097 35.8962 9.70532Z" fill="#FFF8E3"/>
<path d="M23.5 10L35.7004 10" stroke="#FFF8E3" stroke-width="0.7" stroke-linecap="round"/>
<path d="M8 7.99995C17.7164 -0.86173 31.1343 0.910678 39 8" stroke="#FFF8E3" stroke-linecap="round"/>
</svg>
