<svg width="147" height="140" viewBox="0 0 147 140" fill="none" xmlns="http://www.w3.org/2000/svg">
<path d="M86.4165 48.8514C86.4165 48.8514 86.4696 52.2092 89.5143 50.7612C92.5589 49.3133 93.2139 49.2244 94.1167 49.9884C95.0195 50.7523 93.9662 51.2587 93.6653 51.5607C93.3644 51.8627 95.0106 52.1647 96.3117 51.5607C97.6128 50.9567 100.206 49.8551 98.0641 45.8933C95.9134 41.9315 92.7182 35.7133 92.2668 34.2565C91.8155 32.7997 91.9128 30.046 92.913 28.9889C93.9131 27.9318 95.7629 28.5359 94.515 29.2909C93.267 30.046 91.1694 27.3811 96.4179 29.744C101.666 32.098 100.914 32.0003 100.967 32.6043C101.02 33.2084 100.764 32.6043 98.9138 32.3023C97.064 32.0002 94.6566 32.4355 93.9131 34.4076C93.1696 36.3796 93.329 36.0598 93.6918 36.3618C94.0636 36.6638 96.1612 37.7654 98.8076 36.8149C101.454 35.8644 100.41 34.5053 99.6573 33.4038C98.905 32.3023 95.9577 32.1512 95.462 33.8568C94.9664 35.5623 96.8604 36.4151 98.2589 34.9139C99.6573 33.4127 97.2587 32.1513 96.4622 33.3061C95.6656 34.4609 101.065 33.6081 102.012 33.3061C102.959 33.004 101.79 29.5663 100.666 27.8341C99.5422 26.1019 95.046 16.5438 93.9928 15.8686C92.9395 15.1935 90.9215 11.8802 85.8235 11.1251C80.7254 10.3701 79.8226 11.9512 76.3796 12.4043C72.9278 12.8573 66.1127 10.752 63.484 14.5895C60.8641 18.427 60.634 27.008 58.8373 30.5434C57.0406 34.0789 55.766 38.3694 56.359 41.5318C56.9609 44.6941 57.3326 47.3235 58.8373 50.2638C60.3419 53.204 58.085 47.6344 56.2174 46.8793C54.3411 46.1243 50.8981 44.7741 48.5703 47.0304C46.2425 49.2866 49.1722 50.2637 49.243 52.6C49.3138 54.9362 48.7916 57.3436 52.0133 59.5998C55.235 61.8561 51.3406 57.1925 51.5619 54.6342C51.7832 52.0759 53.1373 50.2727 53.2878 51.9249C53.4383 53.5772 55.3146 55.9134 54.1906 56.7395C53.0665 57.5656 53.8189 52.2269 55.6156 54.1101C57.4123 55.9933 53.5179 59.5288 53.8897 60.8079C54.2614 62.0871 59.5099 63.5173 59.4391 61.332C59.3683 59.1468 61.0146 65.7735 61.7669 68.6339C62.5192 71.4942 72.1843 72.8977 75.7866 73.102C79.3889 73.3064 87.4786 75.305 90.6826 74.4078C93.8866 73.5106 95.6833 70.597 94.4796 70.4993C93.2758 70.4016 94.3822 73.6084 96.0816 73.8127C97.7809 74.017 102.481 74.5144 103.083 69.3978C103.684 64.2812 101.587 58.6671 100.587 58.6671C99.5865 58.6671 97.9845 59.3689 96.1878 58.9691C94.3911 58.5694 90.4879 60.6747 88.7885 61.0744C87.0891 61.4742 85.9916 61.4741 85.0888 61.1721C84.1861 60.8701 86.9918 61.4741 90.3905 59.2623C93.7892 57.0593 95.0903 57.761 96.0904 57.761C97.0906 57.761 98.3916 56.2598 99.1882 56.4553C99.9848 56.6596 99.5865 61.1721 97.7898 61.7762C95.9931 62.3802 94.7894 61.3764 92.5943 62.4779C90.3993 63.5794 95.7895 62.2736 98.1881 60.4704C100.587 58.6671 104.384 58.5605 104.286 56.2598C104.189 53.9502 103.888 49.7397 104.286 48.5316C104.685 47.3235 104.189 43.1129 104.286 41.0076C104.384 38.9024 102.737 36.2463 102.383 34.7895C102.029 33.3327 104.083 30.2769 103.383 27.0613C102.684 23.8545 100.383 19.8394 99.2856 16.9258C98.1881 14.0121 95.7895 9.19751 95.7895 9.19751C95.7895 9.19751 93.9928 3.98317 89.5939 3.0771C85.195 2.17104 80.3005 3.37911 80.097 4.28518C79.8934 5.19125 80.4953 7.90058 81.4954 8.90436C82.4955 9.90814 82.4955 4.85371 78.0967 2.7662C73.6978 0.678686 64.0062 -0.227396 56.5007 3.88545C49.004 7.99829 45.6053 12.3155 44.7025 14.1187C43.7997 15.922 36.7014 25.9598 35.9048 36.4951C35.1082 47.0303 33.9045 62.5756 33.9045 64.9918C33.9045 67.408 33.1079 75.9268 37.6042 83.7528C42.1004 91.5787 51.8982 89.6689 56.7927 85.0586C61.6873 80.4394 62.7936 73.5196 62.2891 71.814C61.7935 70.1085 59.687 62.4868 51.2964 63.4906C42.8969 64.4944 36.2057 64.8142 35.6039 71.1123C35.002 77.4103 45.7027 82.5536 56.2971 74.1236C66.8915 65.6936 42.4987 64.4944 40.5072 69.5044C38.5069 74.5233 47.8003 83.3531 55.8988 79.2402C63.9973 75.1274 65.0948 73.5195 64.192 73.1198C63.2892 72.7201 62.4927 78.7339 61.6961 79.8443C60.8995 80.9458 57.5008 85.4583 57.3946 86.6664C57.2972 87.8745 59.5896 84.6589 64.493 84.0548C69.3963 83.4508 72.5915 87.2616 76.7868 88.674C80.9821 90.0775 90.3816 92.0851 92.2846 87.3682C94.1875 82.6513 94.6831 77.739 96.2851 77.3392C97.8871 76.9395 100.799 79.8443 104.437 79.5422C108.074 79.2402 112.376 76.8329 111.978 71.814C111.579 66.7951 111.216 65.1428 106.676 68.6072C102.136 72.0716 100.179 74.6299 100.879 76.2289C101.578 77.8367 106.472 79.1425 105.977 72.5158C105.481 65.8979 108.278 64.7875 108.172 61.5807C108.066 58.374 106.472 57.1659 106.773 54.4566C107.074 51.7472 107.375 50.1394 106.278 46.3286M106.278 46.3286C105.18 42.5178 106.579 40.1105 105.977 38.2006C105.375 36.2908 104.702 33.8479 104.074 31.6804C103.445 29.513 104.569 42.9797 105.278 45.6624C105.977 48.3362 106.278 46.3286 106.278 46.3286Z" stroke="#293D67" stroke-width="1.1452" stroke-miterlimit="10" stroke-linecap="round"/>
<path d="M68.2279 37.7119C68.2279 37.7119 70.5734 33.1993 75.875 31.5914C81.1767 29.9836 81.2209 31.1917 82.9203 30.1879C84.6196 29.1842 87.0182 28.8377 87.1687 29.5395C87.3191 30.2413 86.8147 32.0445 84.6728 32.5953C82.522 33.146 78.6719 33.3503 76.4238 34.1498C74.1756 34.9493 70.9274 34.8515 70.4229 35.953C69.9273 37.0545 72.3258 40.6166 73.9721 39.1154C75.6183 37.6142 76.769 35.1536 79.2206 34.5495C81.6723 33.9455 83.3717 35.0026 83.3717 35.3046C83.3717 35.6066 83.3717 38.8667 80.7695 39.8171C80.7695 39.8171 77.8222 40.3768 76.2202 39.4174C74.6182 38.458 78.548 33.8477 81.2475 35.731C83.947 37.6142 78.0789 39.604 78.247 37.6142C78.247 37.6142 77.7602 36.1307 79.6986 35.2868C81.6369 34.4429 82.3096 36.0774 81.9024 36.4771C81.4953 36.8857 78.2647 36.4061 78.9462 35.7221" stroke="#293D67" stroke-width="1.1452" stroke-miterlimit="10" stroke-linecap="round"/>
<path d="M57.3768 86.6221C57.3768 86.6221 54.8808 94.8478 57.3768 96.6511C59.8727 98.4543 63.5723 100.266 65.5726 97.6548C67.5729 95.0432 72.1488 89.3315 77.7071 90.735C83.2654 92.1385 85.071 96.8554 80.6721 99.467C76.2733 102.079 72.0249 104.584 69.706 105.987C67.3782 107.391 63.0855 102.674 66.378 98.6675C69.6794 94.6524 78.5745 92.3961 80.5748 93.1511C82.5751 93.9062 78.3798 102.478 81.5749 103.18C84.7701 103.882 91.5675 105.792 92.6739 99.9733C93.7802 94.1549 93.674 91.3479 90.1779 91.3479C86.6819 91.3479 80.5836 89.2426 80.5836 93.1511C80.5836 97.0597 81.5572 103.775 89.3637 103.775C97.1701 103.775 99.3739 106.191 102.073 104.086C104.773 101.981 106.171 93.1512 103.87 91.5433C101.569 89.9355 95.6743 87.4305 94.6742 87.8302C93.674 88.2299 93.7714 88.9317 92.373 90.7439C90.9745 92.5471 92.1694 100.773 94.6742 102.079C97.1701 103.384 97.8693 103.784 108.065 102.381C118.262 100.977 119.465 103.482 119.164 97.3617C119.164 97.3617 118.465 94.8567 116.465 92.5471C114.465 90.2375 116.668 88.2211 112.367 90.2819C108.065 92.3428 103.569 93.4443 101.773 88.9317C99.9758 84.4191 100.277 79.7022 98.2765 78.4941M98.2765 78.4941C96.2762 77.286 96.7807 77.286 99.2766 83.1133C101.773 88.9317 98.2765 78.4941 98.2765 78.4941Z" stroke="#293D67" stroke-width="1.1452" stroke-miterlimit="10" stroke-linecap="round"/>
<path d="M61.2358 98.6941C61.2358 98.6941 64.2805 106.28 67.1747 115.412C70.0778 124.544 71.7683 133.969 74.4147 137.486C77.0611 141.004 97.8606 131.97 97.8606 130.566C97.8606 129.163 96.9932 106.804 97.4623 105.783C97.9314 104.77 100.56 99.458 102.162 107.284C103.764 115.11 111.057 128.355 107.561 136.278C104.065 144.202 122.953 133.471 126.953 129.66C130.954 125.849 128.856 102.576 128.254 101.572C127.652 100.568 121.253 96.5533 119.156 97.3616C117.058 98.1611 110.349 101.03 103.003 103.011" stroke="#293D67" stroke-width="1.1452" stroke-miterlimit="10" stroke-linecap="round"/>
<path d="M44.0209 88.7007C44.0209 88.7007 41.286 90.7349 35.4887 94.146C29.6914 97.557 29.4878 98.9606 24.1951 99.8666C18.8934 100.773 17.9995 101.776 17.9995 105.587C17.9995 109.398 14.999 130.469 18.4951 130.771" stroke="#293D67" stroke-width="1.1452" stroke-miterlimit="10" stroke-linecap="round"/>
</svg>
