<svg width="30" height="30" viewBox="0 0 30 30" fill="none" xmlns="http://www.w3.org/2000/svg">
<path d="M14.8125 11.0767H14.6578C14.4171 11.0767 14.2219 11.2718 14.2219 11.5126V12.1595C14.2219 12.4002 14.4171 12.5954 14.6578 12.5954H14.8125C15.0533 12.5954 15.2484 12.4002 15.2484 12.1595V11.5126C15.2484 11.2718 15.0533 11.0767 14.8125 11.0767Z" fill="#293D67"/>
<path d="M10.0875 11.6298V12.2767C10.0875 12.3343 10.0761 12.3914 10.0539 12.4446C10.0317 12.4978 9.99915 12.546 9.95817 12.5866C9.91719 12.6271 9.86858 12.6591 9.81515 12.6808C9.76172 12.7024 9.70452 12.7132 9.64688 12.7126H9.49688C9.43949 12.7131 9.38258 12.7022 9.32947 12.6804C9.27635 12.6587 9.22809 12.6266 9.18751 12.586C9.14693 12.5455 9.11484 12.4972 9.09311 12.4441C9.07138 12.391 9.06044 12.3341 9.06094 12.2767V11.6298C9.06082 11.5725 9.07201 11.5158 9.09388 11.4628C9.11574 11.4099 9.14785 11.3618 9.18835 11.3213C9.22886 11.2808 9.27696 11.2486 9.32991 11.2268C9.38286 11.2049 9.4396 11.1937 9.49688 11.1938H9.64688C9.76305 11.1935 9.87463 11.2391 9.95721 11.3208C10.0398 11.4025 10.0866 11.5136 10.0875 11.6298Z" fill="#293D67"/>
<path d="M8.64844 11.4235C8.5999 11.4235 8.55255 11.4084 8.51294 11.3804C8.47332 11.3523 8.4434 11.3127 8.42729 11.2669C8.41119 11.2211 8.4097 11.1714 8.42303 11.1247C8.43636 11.0781 8.46386 11.0367 8.50172 11.0063C8.72469 10.8268 9.00231 10.729 9.28852 10.729C9.57474 10.729 9.85235 10.8268 10.0753 11.0063C10.1237 11.0454 10.1545 11.1021 10.1611 11.164C10.1676 11.2258 10.1493 11.2877 10.1102 11.3361C10.0711 11.3844 10.0144 11.4153 9.95259 11.4218C9.89075 11.4284 9.82884 11.4101 9.78047 11.371C9.64059 11.2596 9.46708 11.199 9.28829 11.199C9.1095 11.199 8.93599 11.2596 8.7961 11.371C8.75436 11.4049 8.70223 11.4235 8.64844 11.4235Z" fill="#293D67"/>
<path d="M15.0938 11.3062C15.0404 11.3062 14.9887 11.288 14.947 11.2546C14.8073 11.1419 14.6332 11.0805 14.4537 11.0805C14.2742 11.0805 14.1001 11.1419 13.9603 11.2546C13.9118 11.2936 13.8499 11.3117 13.788 11.305C13.7262 11.2982 13.6695 11.2672 13.6306 11.2187C13.5916 11.1702 13.5735 11.1083 13.5802 11.0464C13.5869 10.9846 13.6179 10.9279 13.6664 10.889C13.8896 10.7096 14.1673 10.6118 14.4537 10.6118C14.74 10.6118 15.0178 10.7096 15.2409 10.889C15.2788 10.9194 15.3064 10.9608 15.3197 11.0075C15.333 11.0542 15.3315 11.1039 15.3153 11.1498C15.2991 11.1956 15.2691 11.2352 15.2294 11.2633C15.1898 11.2913 15.1423 11.3063 15.0938 11.3062Z" fill="#293D67"/>
<path d="M11.9798 15.9277C11.8187 15.938 11.6572 15.9158 11.5048 15.8626C11.3524 15.8094 11.2122 15.7262 11.0925 15.6179C11.053 15.5699 11.0341 15.5082 11.0401 15.4463C11.0461 15.3844 11.0764 15.3274 11.1244 15.2879C11.1724 15.2484 11.2341 15.2295 11.296 15.2355C11.3579 15.2415 11.4148 15.2718 11.4544 15.3198C11.6075 15.4286 11.7947 15.4786 11.9817 15.4604C12.1314 15.4698 12.2814 15.4487 12.4226 15.3983C12.5638 15.3478 12.6932 15.2691 12.803 15.167C12.8424 15.1188 12.8993 15.0884 12.9612 15.0822C13.0231 15.0761 13.0849 15.0947 13.133 15.1341C13.1811 15.1736 13.2116 15.2305 13.2177 15.2923C13.2239 15.3542 13.2052 15.416 13.1658 15.4641C13.0133 15.6219 12.8287 15.745 12.6245 15.8253C12.4203 15.9055 12.2013 15.9409 11.9822 15.9291L11.9798 15.9277Z" fill="#293D67"/>
<path d="M11.8313 14.3599C11.6697 14.3591 11.5146 14.2965 11.3977 14.185C11.329 14.1292 11.2775 14.055 11.2493 13.9712C11.221 13.8873 11.217 13.7972 11.2378 13.7111C11.2561 13.6559 11.2942 13.6094 11.3448 13.5807C11.3955 13.5521 11.4549 13.5432 11.5117 13.556C11.5685 13.5687 11.6185 13.6021 11.652 13.6497C11.6855 13.6973 11.7001 13.7556 11.693 13.8133C11.7118 13.8406 11.7375 13.8625 11.7675 13.8766C11.7853 13.8856 11.8047 13.8907 11.8246 13.8916C11.8445 13.8924 11.8643 13.8891 11.8828 13.8818C11.9117 13.8695 11.9428 13.8631 11.9742 13.8631C12.0057 13.863 12.0368 13.8693 12.0657 13.8815C12.0947 13.8938 12.1208 13.9117 12.1427 13.9342C12.1646 13.9568 12.1817 13.9835 12.1931 14.0128C12.2044 14.0421 12.2098 14.0734 12.2088 14.1048C12.2078 14.1362 12.2005 14.1671 12.1874 14.1956C12.1742 14.2241 12.1554 14.2497 12.1322 14.2709C12.1089 14.292 12.0817 14.3082 12.052 14.3186C11.9816 14.3458 11.9068 14.3598 11.8313 14.3599Z" fill="#293D67"/>
<path d="M15.3281 10.2748C15.276 10.2747 15.2253 10.2572 15.1842 10.2251C14.5686 10.0338 13.9186 9.97941 13.2797 10.0658C13.2517 10.0787 13.2215 10.086 13.1908 10.0872C13.16 10.0885 13.1293 10.0837 13.1004 10.073C13.0715 10.0624 13.0449 10.0462 13.0223 10.0253C12.9997 10.0045 12.9814 9.97933 12.9684 9.95138C12.9555 9.92344 12.9482 9.89322 12.947 9.86245C12.9457 9.83168 12.9505 9.80097 12.9612 9.77207C12.9718 9.74317 12.988 9.71664 13.0089 9.694C13.0297 9.67137 13.0549 9.65306 13.0828 9.64013C13.4691 9.46154 15.1073 9.57029 15.4734 9.85576C15.5119 9.8858 15.54 9.92711 15.5539 9.9739C15.5677 10.0207 15.5666 10.0706 15.5507 10.1168C15.5348 10.1629 15.5049 10.203 15.4652 10.2313C15.4255 10.2596 15.3779 10.2748 15.3291 10.2748H15.3281Z" fill="#293D67"/>
<path d="M19.5591 13.037C19.524 13.037 19.4894 13.0292 19.4577 13.014C19.4261 12.9989 19.3983 12.9769 19.3763 12.9496C19.3543 12.9223 19.3387 12.8904 19.3307 12.8563C19.3226 12.8222 19.3223 12.7867 19.3298 12.7524C19.3953 12.5182 19.5418 12.3149 19.7432 12.1786C19.9446 12.0424 20.1878 11.9821 20.4295 12.0085C20.4912 12.0161 20.5473 12.0479 20.5855 12.0969C20.6238 12.1458 20.641 12.2079 20.6334 12.2696C20.6251 12.331 20.5931 12.3868 20.5442 12.4249C20.4953 12.463 20.4335 12.4804 20.3719 12.4735C20.2463 12.4629 20.1208 12.4944 20.015 12.563C19.9093 12.6315 19.8294 12.7333 19.7878 12.8523C19.7765 12.9045 19.7476 12.9513 19.706 12.9849C19.6644 13.0185 19.6125 13.0369 19.5591 13.037Z" fill="#293D67"/>
<path d="M23.5842 25.3783C22.8103 23.0889 21.7519 22.0502 18.8672 20.7545C18.7625 20.7079 18.6644 20.6478 18.5752 20.5759C17.5819 19.8063 17.3625 17.7859 17.3231 17.2947C18.0716 16.6202 18.6536 15.7814 19.0233 14.8441C19.1617 14.9337 19.3148 14.9983 19.4756 15.0349C20.5683 15.2781 21.4687 14.3125 21.7097 13.2372C21.8678 12.6072 21.7763 11.9404 21.4542 11.3763C21.4026 11.2964 21.3443 11.2212 21.2798 11.1513C21.3555 11.0878 21.4406 11.0365 21.532 10.9994C21.693 10.9229 21.8495 10.8373 22.0008 10.743C23.9695 9.50126 23.6822 7.03282 22.5811 5.2647C21.5609 3.66277 20.0258 2.45592 18.2283 1.84282C17.5879 1.64045 16.9143 1.56451 16.245 1.61923C16.024 1.63392 15.8045 1.574 15.6216 1.44907C14.1741 0.525168 11.8889 0.917512 10.6655 1.86345C10.0686 2.33794 9.40526 2.7222 8.69671 3.00392C8.37562 3.1422 8.01187 3.2997 7.54875 3.53782C6.07312 4.29579 5.44359 5.47798 4.79906 7.39282C4.63408 7.85822 4.58917 8.3577 4.66849 8.84506C4.7478 9.33241 4.94878 9.79189 5.25281 10.1809C5.53678 10.533 5.90058 10.8123 6.31404 10.9957C6.7275 11.1792 7.17872 11.2614 7.63031 11.2356C7.70484 11.6467 7.75218 12.0095 7.75921 12.1352C7.90359 14.9594 8.40937 16.7069 9.39984 17.8019C9.85903 18.2725 10.4122 18.6411 11.0234 18.8836C11.6345 19.1262 12.2899 19.2372 12.9469 19.2095C13.0059 19.2095 13.0875 19.2034 13.1812 19.1941C13.4156 20.1784 13.3908 20.86 13.1002 21.0738C12.8399 21.215 12.5679 21.3335 12.2873 21.4281L12.105 21.4984C10.725 22.0277 7.85296 23.1292 6.59812 25.6384C6.09328 26.6406 6.51187 27.213 6.94968 27.5134C7.94812 28.2138 10.2717 29.0327 13.5342 29.0374C17.8805 29.0374 20.9752 28.0295 22.3059 27.1666C23.1197 26.636 23.8312 26.0988 23.5842 25.3783ZM12.7462 21.7502C12.9668 21.6741 13.1782 21.5735 13.3762 21.4502C13.8398 21.1089 13.9256 20.3214 13.643 19.1181C13.9891 19.0404 14.3273 18.9305 14.6531 18.79C14.682 18.7777 14.7081 18.7597 14.7299 18.7371C14.7517 18.7146 14.7687 18.6878 14.78 18.6585C14.7913 18.6292 14.7965 18.598 14.7955 18.5666C14.7944 18.5352 14.7871 18.5044 14.7739 18.4759C14.7607 18.4474 14.742 18.4219 14.7187 18.4008C14.6955 18.3797 14.6682 18.3635 14.6386 18.3532C14.609 18.3428 14.5776 18.3385 14.5462 18.3405C14.5149 18.3425 14.4843 18.3508 14.4562 18.3649C14.0944 18.5204 13.7158 18.6336 13.328 18.7024C13.2018 18.7219 13.0745 18.7338 12.9469 18.738C12.3555 18.7657 11.7649 18.6688 11.2134 18.4535C10.6619 18.2383 10.1619 17.9094 9.74578 17.4883C8.83359 16.4795 8.36531 14.8211 8.22609 12.1113C8.21812 11.9589 8.16796 11.5891 8.09765 11.1916C8.10796 11.1916 8.11828 11.1916 8.12859 11.1874C10.238 10.7959 11.363 8.91861 11.6855 7.42986C11.8172 6.82329 12.0562 5.9847 12.6122 5.70392C12.8144 5.62603 13.0315 5.59445 13.2475 5.61148C13.4635 5.62852 13.673 5.69374 13.8605 5.80236C14.0497 5.88711 14.2641 5.89716 14.4605 5.83048C14.6756 5.73994 14.91 5.70515 15.1422 5.72932C15.3743 5.7535 15.5966 5.83585 15.7884 5.96876C16.5778 6.55657 16.8197 8.0397 16.7859 9.13095C16.7799 9.73689 16.9492 10.3317 17.2736 10.8435C17.598 11.3553 18.0635 11.7624 18.6141 12.0156C18.6683 12.0378 18.7287 12.0392 18.7839 12.0195C18.8391 11.9999 18.8851 11.9606 18.9131 11.9092C19.0182 11.7371 19.1496 11.5826 19.3027 11.4513C19.4535 11.3282 19.6285 11.2382 19.8163 11.1868C20.004 11.1355 20.2005 11.124 20.393 11.1531C20.5303 11.1827 20.6601 11.2399 20.7745 11.3214C20.8888 11.4029 20.9854 11.5069 21.0581 11.627C21.3111 12.0868 21.3803 12.6253 21.2517 13.1341C21.0642 13.967 20.3728 14.7541 19.5778 14.5774C19.3813 14.5228 19.2004 14.423 19.0495 14.2858C19.0194 14.2627 18.9842 14.2473 18.9468 14.2409C18.9094 14.2344 18.871 14.2371 18.8349 14.2488C18.7988 14.2605 18.7661 14.2807 18.7395 14.3078C18.713 14.3349 18.6934 14.3681 18.6825 14.4044C18.2774 15.6052 17.4955 16.6432 16.4531 17.3641C16.4261 17.3798 16.4025 17.4007 16.3837 17.4257C16.3649 17.4507 16.3513 17.4791 16.3437 17.5094C16.336 17.5397 16.3345 17.5713 16.3393 17.6021C16.344 17.633 16.3548 17.6627 16.3712 17.6893C16.3875 17.7159 16.4091 17.739 16.4345 17.7572C16.4599 17.7754 16.4886 17.7883 16.5191 17.7953C16.5496 17.8022 16.5811 17.8029 16.6119 17.7974C16.6427 17.792 16.672 17.7804 16.6983 17.7634C16.7639 17.7227 16.8206 17.6753 16.883 17.6327C16.9716 18.3995 17.258 20.0102 18.1528 20.8277C17.6147 22.2002 14.8814 24.0517 13.4372 23.9875C13.333 23.9833 13.2315 23.9535 13.1416 23.9008C13.0517 23.8481 12.9761 23.774 12.9216 23.6852C12.6133 23.0876 12.5504 22.3934 12.7462 21.7502Z" fill="#293D67"/>
</svg>
