<svg width="150" height="144" viewBox="0 0 150 144" fill="none" xmlns="http://www.w3.org/2000/svg">
<path d="M85.1331 60.2344C85.1331 60.2344 81.3987 64.1818 84.7449 65.4821C88.0818 66.7824 88.3221 65.7607 89.3389 66.7824C90.3557 67.804 85.6877 65.7607 85.9188 65.5564C86.1499 65.3614 90.9473 67.609 91.4188 67.609C91.8902 67.609 93.6927 66.4666 94.0532 66.0672C94.4137 65.6679 94.6448 64.0146 94.0532 62.0455C93.4616 60.0765 94.1271 58.8505 94.0532 57.5502C93.9792 56.2499 93.6649 52.8505 93.6187 52.061C93.5818 51.2716 92.4818 50.2871 94.007 48.1973C95.5414 46.1075 98.1296 43.0239 101.198 43.6555C104.267 44.2871 104.73 47.9558 104.73 48.3552C104.73 48.7545 103.278 45.8289 101.513 45.6338C99.7472 45.4388 96.6044 45.7546 95.9389 46.9713C95.2733 48.188 96.6876 47.3614 97.9447 47.0549C99.2019 46.7391 102.465 46.8227 103.325 48.9868C104.184 51.1601 102.622 52.1818 102.419 52.061C102.215 51.9403 101.716 50.2499 100.653 49.7762C99.5901 49.3026 97.8246 48.2809 94.9591 50.5285C94.9591 50.5285 93.5355 51.4759 97.3901 52.3397C101.245 53.1942 99.8767 49.544 99.2943 49.4697C98.712 49.3954 96.7338 48.7639 96.0036 50.6957C95.2733 52.6276 98.3422 51.4295 98.6842 50.6678C99.0262 49.9062 98.0002 49.5905 97.612 49.962C97.2237 50.3335 97.6027 51.6152 98.7582 51.0115C99.9044 50.4078 99.1741 48.6152 98.1943 49.4697C97.2237 50.3242 98.6565 51.383 98.9523 51.5038C99.2481 51.6245 98.7304 53.222 101.365 52.5812C103.999 51.9403 104.434 51.6709 104.461 51.5502C104.489 51.4295 104.535 49.9341 104.748 49.5255C104.961 49.1261 105.589 47.6214 105.626 46.4511C105.663 45.2809 105.756 43.6741 105.756 42.2716C105.756 40.8691 106.985 36.6152 106.421 33.671C105.857 30.7267 103.888 25.7763 102.622 24.2995C101.356 22.8227 101.559 22.4883 97.3254 22.5905C93.0919 22.6927 87.9062 19.5626 84.4768 18.9961C81.0474 18.4295 77.0634 16.3397 72.1181 18.9961C67.1728 21.6524 67.4316 22.219 67.4316 25.0518C67.4316 27.8846 67.6719 30.058 67.4316 34.1726C67.182 38.2964 65.3241 44.7236 64.8896 45.383C64.4552 46.0425 68.8182 45.3831 71.5727 44.1571C74.3273 42.9311 77.7197 40.2747 82.8037 41.2871C87.8877 42.2994 87.8322 43.154 87.3054 44.0549C86.7785 44.9558 83.7558 43.6834 81.8516 42.9403C79.9474 42.1973 73.3198 44.0549 72.3122 44.6957C71.3047 45.3366 72.3122 47.1477 74.0593 46.0239C75.8063 44.9001 77.9231 43.5719 80.8903 44.3707C83.8575 45.1694 85.0222 48.0394 85.1793 48.4666C85.3365 48.8939 84.7541 49.3211 83.6449 48.7824C82.5357 48.253 81.4819 46.8691 80.3172 46.6276C79.1525 46.3861 76.9618 46.2282 75.8988 47.6121C74.8357 48.9867 76.9987 50.77 78.5239 50.092C80.0491 49.414 80.6869 48.3737 79.8365 46.9991C78.9861 45.6245 76.8786 47.2778 77.6088 48.1601C78.3391 49.0518 79.8365 48.1323 79.2264 47.5471C78.6164 46.962 77.276 46.962 77.1559 47.4821C77.0357 48.0022 79.9475 48.0115 79.7811 47.3614C79.6147 46.7112 78.8012 46.2283 78.5332 46.8413C78.2651 47.4543 76.3702 49.9991 76.25 49.6183C74.6509 44.4264 79.3743 49.6183 79.3743 49.6183" stroke="#293D67" stroke-width="1.1721" stroke-miterlimit="10" stroke-linecap="round"/>
<path d="M64.8804 45.3926C64.8804 45.3926 62.3199 46.8694 61.4141 52.8879C60.5082 58.9065 58.8813 58.5907 57.9662 58.795C57.0511 58.9994 60.1939 64.0891 59.4914 65.7238C58.7796 67.3585 57.4671 69.086 56.857 68.8817C56.2469 68.6774 62.0149 71.8352 64.8619 75.6061C67.709 79.377 74.2996 83.9653 74.9097 84.3647C75.5198 84.7733 79.2727 87.1139 79.2727 87.1139C79.2727 87.1139 80.6962 90.3739 82.5172 90.5783C84.3382 90.7826 88.8029 90.2717 91.4373 87.216C94.0717 84.1603 97.8246 76.2099 98.333 74.9932C98.8414 73.7672 96.1053 72.1418 93.8683 73.1634C91.6406 74.1851 90.9104 74.3059 89.2003 74.6681C87.4903 75.0303 87.3793 74.0365 85.7062 73.8972C84.0332 73.7579 80.7609 73.6278 79.8181 72.2253C78.8752 70.8229 80.4929 72.0489 81.1676 72.1325C81.8424 72.2161 86.1962 71.8631 86.1962 71.8631C88.2205 71.7702 88.3499 72.4947 88.8398 72.5876C89.3297 72.6804 90.1432 72.3182 90.4575 72.3182C90.7717 72.3182 92.3894 72.9777 92.3894 73.1541C92.3894 73.3306 92.1306 74.7888 91.844 75.0396C91.5574 75.2997 90.1894 77.0179 88.4516 76.8972C86.7138 76.7764 83.7743 76.3213 83.0996 74.9188C82.4248 73.5164 83.2197 73.6557 83.2197 73.6557" stroke="#293D67" stroke-width="1.1721" stroke-miterlimit="10" stroke-linecap="round"/>
<path d="M98.3237 74.993C98.3237 74.993 100.607 69.5596 101.254 67.2933C101.91 65.0271 103.685 60.7453 103.685 60.3274C103.685 59.9094 104.572 56.2779 104.397 53.2407C104.221 50.2036 105.876 56.2221 105.876 57.5874C105.876 58.9528 101.901 61.0333 103.62 63.4481C105.34 65.863 107.53 66.5224 110.137 65.0921C112.744 63.6618 109.841 59.6029 108.436 59.6029C107.031 59.6029 106.68 64.5906 113.65 61.7113C120.619 58.8321 120.092 54.0673 118.863 53.0085C117.634 51.9497 112.661 47.2407 111.191 51.5967C109.73 55.9528 111.015 57.7175 112.892 58.6555C114.768 59.5936 113.243 52.6556 109.435 51.5967C105.626 50.5379 113.613 57.1231 119.602 51.2995C125.592 45.476 117.162 41.0085 114.176 41.2407C111.191 41.4729 109.314 44.8259 111.071 46.7113C112.827 48.5968 121.793 47.4729 121.701 40.4791C121.608 33.4761 112.245 34.4791 111.773 36.9497C111.302 39.4203 112.069 40.1819 115.055 40.0705C118.04 39.9497 113.705 35.4265 111.838 32.8909C109.961 30.3646 108.251 32.6587 110.017 33.7732C111.782 34.8878 115.702 32.6587 115.877 27.4203C116.053 22.1819 112.134 18.894 110.904 18.3646C109.675 17.8352 104.582 17.603 104.637 21.7733C104.693 25.9529 107.392 25.8321 109.675 25.5999C111.958 25.3677 112.18 12.7176 110.017 11.1293C107.854 9.54111 110.488 12.7176 106.92 14.8909C103.352 17.0643 103.232 14.0643 103.408 12.5968C103.583 11.1293 106.92 15.3646 103.935 18.2996C100.949 21.2346 96.6784 18.1231 96.6137 14.9467C96.5582 11.7702 102.289 7.35844 104.813 8.59374C107.327 9.82903 102.409 14.473 98.6103 14.6494C94.8019 14.8259 100.422 7.29343 98.1389 5.64947C95.8557 4.00551 94.5061 3.35535 92.5742 2.17578C90.6423 0.996217 89.8196 0.708292 87.7768 1.29343C85.7247 1.87857 84.9113 2.7052 79.6424 6.64328C74.3736 10.5813 74.4937 11.7609 76.5366 11.8166C78.5886 11.8724 86.3718 8.34296 87.1297 6.64328C87.8877 4.94359 81.6852 7.75783 77.6458 9.41108C73.6063 11.055 67.4593 13.5256 69.3358 10.2934C71.2122 7.06124 76.1853 3.41109 77.7105 4.11697C79.2357 4.82285 73.671 13.7671 70.5097 14.1758C67.3484 14.5844 59.1586 15.2717 60.4619 12.4854C61.7653 9.70828 61.867 8.24079 64.64 8.70519C67.4131 9.16958 68.9198 14.6866 64.3258 18.2531C59.7317 21.8197 52.004 21.8197 51.3847 19.8785C50.7562 17.9374 55.5628 13.1169 57.125 12.6897C58.6872 12.2717 69.9644 11.1665 58.0124 25.4327C58.0124 25.4327 55.8679 27.4296 54.204 27.4296C52.5402 27.4296 55.4612 22.9157 59.2141 26.538C62.9762 30.1603 64.5938 31.7856 63.4938 35.0829C62.3938 38.3893 53.1595 37.4977 52.3276 35.5008C51.4956 33.5039 63.6048 33.7175 63.6048 39.281C63.6048 44.8445 57.809 48.411 53.899 45.6804C49.9797 42.9497 51.8654 38.5472 56.2469 39.7547C60.6283 40.9621 61.414 45.8382 59.6393 49.9806C57.8645 54.1231 58.3359 57.2716 51.8654 56.798C45.3949 56.3243 42.2058 52.284 42.3167 50.3986C42.4184 48.5132 50.673 50.7144 52.4939 53.2314C54.3242 55.7484 56.8292 57.7918 54.4259 58.7949C52.0225 59.7887 51.5049 60.1045 52.5494 60.476C53.5939 60.8475 53.6956 60.7732 55.3132 61.702C56.9309 62.6308 56.7737 61.4698 56.2561 61.0054C55.7385 60.5317 57.199 64.7856 57.4023 65.6215C57.6149 66.4574 57.9199 68.1943 55.0544 66.2995C52.1797 64.4141 50.3587 64.4605 49.8873 63.4388C49.4158 62.4172 46.7537 57.2717 46.4394 56.6494C46.1251 56.0178 42.7882 50.5658 44.7201 46.5256C46.652 42.4853 47.2806 53.2872 43.7772 54.0766C40.2832 54.8661 36.3084 46.6277 38.3512 43.6928C40.3941 40.7578 42.4184 41.0643 41.8453 42.6432C41.2722 44.2221 36.6782 42.2253 38.2958 38.2965C39.9134 34.3584 45.2932 34.2562 45.2377 36.411C45.1823 38.5658 38.0832 35.1478 40.2277 29.9559C42.3722 24.764 44.0915 25.2841 45.3949 26.7051C46.6982 28.1169 49.2032 30.6897 45.8108 29.6401C42.4184 28.5906 44.0915 21.2996 48.8889 20.8816C53.6956 20.4637 58.8073 24.5504 58.7057 28.5906C58.604 32.6309 54.9712 38.1664 52.3368 35.5101" stroke="#293D67" stroke-width="1.1721" stroke-miterlimit="10" stroke-linecap="round"/>
<path d="M41.7067 53.6307C41.5772 53.5007 40.2277 56.3892 44.2486 58.3397C48.2696 60.2901 45.8108 55.9898 44.2486 55.9805C42.6865 55.9805 44.0915 60.2251 45.8108 63.448C47.5301 66.6709 48.3158 70.2096 50.3494 69.03C52.383 67.8505 53.557 68.0827 54.4166 68.7978C55.2763 69.513 63.7342 76.6647 67.182 80.5192C70.6299 84.3737 76.0744 89.4913 79.7348 89.5656C79.7348 89.5656 82.7667 93.1043 88.3221 90.1972C93.8775 87.2901 95.2086 83.6678 97.0943 82.804C98.9708 81.9402 97.122 80.0641 97.0943 78.8659C97.0666 77.6678 94.8204 82.7204 94.8204 85.7111C94.8204 88.7019 98.2682 94.0517 103.038 99.8752C107.808 105.699 106.56 112.776 112.198 116.631C117.837 120.485 119.011 122.77 121.044 124.655C123.078 126.541 130.649 135.541 130.547 137.64C130.445 139.739 111.126 142.572 109.98 138.271C108.834 133.971 106.948 125.575 105.7 120.959C104.443 116.343 99.6455 102.912 97.6582 99.8752C95.6708 96.8288 93.591 90.8009 92.9624 90.6151C92.3339 90.4294 90.5591 91.6926 90.8734 92.6306C91.1877 93.578 96.6876 105.216 98.3699 109.312C100.052 113.408 103.713 134.175 104.859 138.058C106.005 141.94 98.0372 140.361 98.3699 137.742C98.7027 135.123 100.477 127.878 98.8044 121.59C97.1313 115.293 93.4801 110.891 93.2675 108.894C93.0549 106.897 96.5027 101.761 92.9532 103.024C89.4036 104.287 86.0667 106.377 87.4163 107.64C88.7751 108.903 89.7087 113.306 87.8322 115.293C85.9558 117.29 85.9558 113.408 91.8994 117.29C91.8994 117.29 94.8204 117.606 94.5061 115.191C94.1918 112.776 86.1499 116.658 83.8575 116.872C81.5651 117.086 78.3206 118.024 78.5332 116.454C78.7458 114.884 82.0827 111.736 83.0256 109.423C83.9684 107.11 80.8718 107.538 79.7071 108.792C78.5332 110.055 86.5751 110.789 86.9911 109.21C87.407 107.64 80.8718 108.058 77.5626 110.045C74.2534 112.042 74.3551 119.593 73.0055 118.33C71.8593 117.262 75.8618 118.748 77.4424 118.349C77.729 118.275 77.9416 118.135 78.0155 117.912C78.5332 116.445 79.3096 107.528 77.5626 106.377C75.8155 105.225 69.8719 104.38 68.3005 104.38C66.7383 104.38 71.5358 112.033 72.266 115.182C72.9962 118.33 71.9517 108.151 66.6274 99.448C61.3031 90.7452 58.4838 83.6121 57.2359 79.2003C55.9788 74.7978 53.5847 68.7143 54.4166 70.2839C55.2485 71.8536 72.1643 98.3984 75.7139 102.485C79.2634 106.572 84.2549 109.2 85.9373 103.117C87.6196 97.0331 87.823 90.0022 89.912 90.1136C92.0011 90.2251 87.1759 103.869 85.9373 106.061C84.6894 108.253 87.407 114.346 90.6423 119.593C93.8775 124.841 94.5061 127.145 93.8775 129.559C93.249 131.974 96.9094 142.674 96.17 143.305C95.4305 143.937 89.6809 133.655 85.928 129.457C82.1751 125.259 79.9752 121.823 78.2096 120.123C76.4441 118.423 77.4701 116.482 75.8063 116.658C74.1425 116.844 72.6727 119.491 74.6601 125.575C76.6475 131.658 80.1323 136.59 79.6886 139.005C79.2449 141.42 23.4968 139.219 22.7665 138.587C22.0363 137.956 22.9791 130.618 25.3732 129.671C27.7673 128.723 42.289 128.519 46.2545 130.934C50.22 133.349 45.3117 132.401 32.8883 130.414C20.4649 128.426 27.9799 129.782 29.5513 121.395C31.1135 112.999 31.3261 110.593 31.7421 105.346C32.158 100.098 37.8151 94.0517 28.7102 98.4913C19.6052 102.931 20.2153 103.98 19.6052 104.928C18.9951 105.875 30.7992 98.6306 33.5076 94.4418C36.2252 90.2436 44.8865 82.7947 47.6041 76.609C50.3217 70.4232 50.8486 66.7638 54.3889 70.3118" stroke="#293D67" stroke-width="1.1721" stroke-miterlimit="10" stroke-linecap="round"/>
<path d="M47.5393 132.244C49.8779 129.894 61.2383 119.807 63.6417 117.077C66.045 114.346 70.371 112.386 69.3542 108.383" stroke="#293D67" stroke-width="1.1721" stroke-miterlimit="10" stroke-linecap="round"/>
</svg>
