<svg width="148" height="142" viewBox="0 0 148 142" fill="none" xmlns="http://www.w3.org/2000/svg">
<path d="M89.0823 70.5969C89.0823 70.5969 94.6971 71.7185 96.2454 70.5379C96.4119 70.4297 96.6765 70.2723 96.6765 70.2723L98.2541 69.4754C98.2835 69.4655 98.3129 69.4754 98.3227 69.5049C98.4795 69.9968 99.6064 73.7649 101.537 75.9884C103.604 78.3693 102.134 75.4866 100.028 77.5625C98.0484 79.5105 97.5976 78.5267 97.5584 78.389C97.5584 78.3791 97.5584 78.3791 97.5584 78.3594C97.5878 78.2512 97.7544 77.4641 96.5491 77.4641C95.2361 77.4641 95.432 77.3658 94.5795 77.5625C93.727 77.7593 88.5336 75.2603 87.1814 74.8176C85.8585 74.3847 94.4228 77.7199 94.8147 77.8675C94.8245 77.8675 94.8245 77.8774 94.8245 77.8774C95.0205 78.3102 97.529 82.8261 99.1948 87.2632C100.91 91.8184 101.89 96.4129 101.89 96.4129C101.89 96.4129 104.418 93.8352 105.829 92.1135C107.24 90.3918 107.24 91.1887 107.24 89.2505C107.24 87.332 108.749 90.077 106.485 84.4002C104.212 78.7235 104.369 77.6216 103.614 78.3791C102.86 79.1367 102.144 81.2126 104.173 80.3566C106.201 79.5007 106.142 77.3166 108.768 80.1599C111.394 82.9933 113.923 84.2133 112.512 88.9455C111.101 93.6778 108.719 96.1866 110.934 95.4782C113.148 94.76 113.207 93.6581 113.962 91.5232C114.716 89.3981 114.942 84.0165 116.157 88.6209C117.372 93.2351 117.235 92.6546 118.234 97.5148C119.243 102.375 109.19 92.5661 114.971 102.05C120.762 111.554 120.605 105.425 118.567 102.611C116.529 99.7973 119.126 105.592 113.962 104.815C108.798 104.018 104.957 103.565 104.349 100.191C103.722 96.8163 103.418 93.5204 106.152 99.7973C108.886 106.074 108.347 102.168 110.846 109.124C113.354 116.119 114.981 112.499 115.539 118.697C116.098 124.885 118.273 127.886 118.753 119.415C119.224 110.934 115.236 105.75 119.224 108.652C123.212 111.554 123.359 106.605 123.526 115.017C123.682 123.429 123.055 123.498 123.526 127.502C123.996 131.506 125.642 135.029 122.673 135.737C119.704 136.455 119.704 136.209 118.371 130.71C117.048 125.2 117.744 124.895 119.547 127.414C121.35 129.932 117.744 128.83 118.068 132.923C118.391 137.016 118.626 138.502 116.98 139.289C115.334 140.086 67.4071 142.663 64.5753 140.145C61.7728 137.626 63.9481 116.267 64.1833 111.407C64.4185 106.546 67.7011 106.615 66.0647 117.772C64.4185 128.909 65.4964 132.903 63.3896 136.278" stroke="#293D67" stroke-width="1.2593" stroke-miterlimit="9.0703" stroke-linejoin="round"/>
<path d="M64.438 46.1189C64.438 46.1189 62.1353 46.1484 61.8707 44.2004C61.6061 42.2426 63.4189 43.5413 62.586 44.8301C61.7531 46.1189 59.9599 43.6692 59.7835 45.4597C59.5974 47.2405 61.175 47.4373 62.8702 49.0311C64.5654 50.6249 64.0657 51.3726 65.8883 51.6087C67.7011 51.835 68.5928 52.0416 68.3576 51.2054C68.1322 50.3691 67.3287 49.5132 66.2802 51.2644C65.2219 53.0058 64.8986 53.7142 65.3591 55.2194C65.7903 56.7149 75.305 68.5898 89.1215 70.6362C89.2097 70.646 91.4144 70.7247 89.876 72.8105C89.7388 72.9974 89.0627 73.8927 88.5826 74.5617C88.514 74.6601 88.514 74.6601 88.0632 75.0832" stroke="#293D67" stroke-width="1.2593" stroke-miterlimit="9.0703" stroke-linejoin="round"/>
<path d="M24.5074 141.65C24.5074 141.65 26.9964 122.78 30.2398 116.719C33.4931 110.679 33.2971 110.964 35.4038 106.753C37.5106 102.532 38.7551 100.909 40.3621 98.5183C41.9985 96.1178 43.1352 94.8781 45.9965 91.4248C48.8578 87.9814 56.1188 76.3721 57.1574 75.1325C58.2059 73.883 60.8712 69.6721 61.1652 66.8977C61.4396 64.1135 57.1574 58.9385 52.3854 59.9026C47.6133 60.8668 39.1176 70.7544 41.4106 76.5984C44.5364 82.1767 54.1492 81.675 60.1265 71.5513C62.6154 67.3503 63.7717 62.5 63.6051 57.6201C63.2818 48.2638 60.6361 47.5161 59.7444 46.7782C58.6959 45.9223 55.4622 48.8935 56.1188 52.819C56.7851 56.7445 60.8614 49.9166 57.3142 46.3453C57.3044 46.3355 57.2456 46.3355 57.226 46.3552C56.9615 46.9848 54.7175 52.1008 52.0914 53.2912C46.849 55.6918 44.6344 51.5695 44.556 49.4542C44.458 47.339 45.8005 43.5119 47.9073 42.1837C50.014 40.8555 53.7278 36.2413 64.9868 34.795C76.2457 33.3488 64.8888 42.2821 65.3787 37.9433C65.8491 33.6439 69.0043 34.677 68.0538 38.7993C67.1425 42.7346 66.5742 42.8232 66.9368 45.0663C66.9466 45.1253 66.8682 45.1549 66.8486 45.0958C66.4762 44.3678 65.4669 42.6559 64.3204 43.6004C62.8996 44.7515 63.076 45.4205 64.8888 46.3847C66.7016 47.3488 66.5252 47.1422 69.0925 52.6222C71.6598 58.1022 73.4922 63.8281 81.0374 67.3798C88.5728 70.9216 97.088 69.0228 98.8028 67.3798C100.518 65.7565 102.428 64.9792 103.967 58.663C103.967 58.5548 104.163 54.5604 100.518 57.994C97.3036 60.9947 94.3051 58.5646 92.6197 58.5154C91.0421 58.4564 91.7672 57.7874 90.3268 58.1809C90.268 58.1907 90.2386 58.1219 90.2974 58.0924C90.8559 57.7874 92.1102 57.2364 93.8544 57.3742C96.2453 57.5709 97.0194 58.9483 98.2541 57.8759C101.782 55.1704 100.861 60.247 98.1463 60.7389C95.4222 61.2406 94.1288 60.0699 94.1288 58.8597" stroke="#293D67" stroke-width="1.2593" stroke-miterlimit="9.0703" stroke-linejoin="round"/>
<path d="M92.4432 47.7128C92.4432 47.7128 90.0523 48.9131 91.3948 50.8512C92.7372 52.7992 93.7269 52.1499 94.7264 52.0515C95.7161 51.9531 95.1575 52.0417 96.5588 52.937C97.96 53.8323 100.145 53.3404 100.88 51.3825C101.252 50.3495 101.615 49.4935 100.478 47.2504C99.3319 45.0072 98.0482 41.7999 97.5485 39.5568C97.0487 37.3136 98.7048 36.0248 99.5475 34.7261C100.4 33.4274 102.272 32.5518 104.476 32.7781C104.476 32.7781 104.476 32.7781 104.486 32.7781C104.574 32.7683 105.544 32.6109 105.74 34.2539C105.936 35.9658 105.976 36.8217 105.672 37.5596C105.368 38.2975 102.458 35.9067 100.429 37.4022C98.3912 38.8976 99.0085 38.7303 100.165 39.4092C101.321 40.0782 102.889 38.9074 102.693 37.8646C102.497 36.8315 100.488 37.1267 101.272 38.6024C101.527 39.1042 103.104 39.9306 104.525 38.7894C105.946 37.6481 107.553 38.4549 107.347 35.2967C107.151 32.1485 106.691 29.7872 106.799 27.8688C106.906 25.9503 108.768 26.8554 109.523 29.679C110.277 32.5026 108.406 33.9095 107.818 31.991C107.249 30.0726 108.896 30.9777 109.797 33.4766C110.708 35.9756 111.277 34.9918 111.845 35.7591C112.413 36.5167 114.775 40.8849 111.816 43.8561C108.856 46.8273 107.396 44.4071 107.416 44.0824C107.436 43.7578 107.063 41.2195 107.347 39.2321C107.632 37.2447 107.024 27.7704 106.779 25.2321C106.524 22.6938 106.191 21.4344 104.868 19.0437C103.526 16.6431 102.399 15.8462 99.5279 18.2468C96.6568 20.6474 89.5036 18.7387 86.9853 16.9481C84.4669 15.1575 81.9192 10.8287 77.2157 13.1604C72.5123 15.4921 71.9537 18.5223 71.8949 20.5195C71.8361 22.5167 74.423 24.3564 73.7763 27.9868C73.1296 31.6172 71.4442 33.3291 70.6505 34.4605C69.8567 35.6116 76.6082 35.8575 77.98 35.5525C79.3715 35.2475 80.1162 34.3523 81.8408 33.762C83.5654 33.1716 82.8305 33.3586 85.6624 34.0177C88.4845 34.6671 89.3762 34.6081 91.3654 34.9524C93.3448 35.3066 94.0895 35.4148 92.5608 34.49C91.0224 33.575 89.9935 33.3979 87.2988 33.2897C84.6237 33.1913 86.1523 32.0894 83.4772 32.7978C80.8021 33.4865 80.6062 33.3487 80.0182 34.0965C79.4303 34.8343 79.9202 37.8252 80.4788 38.6811C81.0275 39.5174 81.2431 38.9173 82.0956 38.3466C82.9285 37.776 83.2911 37.3628 84.3395 37.0578C85.3978 36.7823 86.4169 36.7233 87.2106 37.048C88.0043 37.3726 88.6021 37.4415 89.6506 38.081C90.7088 38.7402 91.7867 38.75 91.336 39.2616C90.8754 39.7634 90.0915 39.8224 88.847 39.8618C87.6026 39.9208 86.3581 39.8618 85.5154 40.088C84.8589 40.2553 84.3395 39.7142 84.124 38.996C83.8986 38.2679 84.4767 37.3726 85.2018 37.5694C85.29 37.5793 85.6722 37.6776 85.7506 37.9629C85.8388 38.2679 85.8388 38.6123 85.7408 38.8878C85.5448 39.4485 84.7119 40.0093 83.9084 39.8814C82.7521 39.7142 82.1054 39.36 81.7722 38.632" stroke="#293D67" stroke-width="1.2593" stroke-miterlimit="9.0703" stroke-linecap="round" stroke-linejoin="round"/>
<path d="M107.71 26.9143L107.338 21.1884C107.338 21.1884 107.249 16.2298 105.466 12.4912C103.683 8.78217 101.713 5.7913 98.1854 3.8433C94.6578 1.90513 89.7192 1 84.3984 1C79.0775 1 73.6489 1.05903 68.7593 2.39705C63.8598 3.74491 56.8438 8.39847 53.6592 15.246C50.4745 22.0935 48.5245 27.0324 48.2991 30.7021C48.0738 34.362 46.7215 33.7422 46.2708 36.4576C45.8102 39.1631 45.771 41.2489 46.8293 41.7113C47.8876 42.1737 53.2868 37.8743 54.5313 36.92C55.7757 35.9558 57.6277 36.979 59.9697 34.9425C62.3312 32.9059 63.6149 30.0233 62.1646 29.6888C60.6948 29.3542 57.7551 31.0661 59.1759 32.0106C60.587 32.9748 62.0274 28.9115 59.6463 29.3739C57.2848 29.8363 51.1506 32.2369 49.0145 34.0373C46.8783 35.8378 46.1924 36.8511 46.1924 36.8511" stroke="#293D67" stroke-width="1.2593" stroke-miterlimit="9.0703" stroke-linejoin="round"/>
<path d="M57.2455 46.5908C57.2455 46.5908 56.6184 47.3189 53.424 47.2205C50.2295 47.1123 49.2104 46.4925 49.0242 44.574C48.9654 43.9246 49.1124 43.4426 49.2986 43.0589C49.6318 42.4292 50.5529 42.5965 50.6803 43.295C50.9154 44.692 51.0036 46.64 49.426 45.9317" stroke="#293D67" stroke-width="1.2593" stroke-miterlimit="9.0703" stroke-linejoin="round"/>
<path d="M59.4797 62.9029C59.4797 62.9029 58.4214 61.2599 54.5018 67.9796C50.5921 74.6795 48.5245 74.1876 48.8871 76.6078C49.2398 79.0477 52.1501 79.9726 51.2192 77.6015C50.2981 75.26 48.7891 75.1616 45.8886 76.7456C42.9881 78.3197 40.3326 78.605 40.7834 75.5945C41.2047 72.6134 46.6333 63.0702 49.0634 61.496C51.4936 59.9219 56.0697 60.6795 57.1574 58.9577C58.2156 57.2459 58.2352 54.2943 57.6571 53.4482" stroke="#293D67" stroke-width="1.2593" stroke-miterlimit="9.0703" stroke-linejoin="round"/>
<path d="M88.1613 75.0436C88.1613 75.0436 74.8641 72.5742 66.6134 61.8011C66.6036 61.7913 65.8491 61.8897 65.4964 61.201C65.4278 61.0436 65.271 61.2698 65.271 58.9185C65.271 56.2031 65.4964 56.1145 65.4082 55.4849" stroke="#293D67" stroke-width="1.2593" stroke-miterlimit="9.0703" stroke-linejoin="round"/>
<path d="M85.5352 39.8518C85.5352 39.8518 86.3681 38.3564 86.1819 37.6382" stroke="#293D67" stroke-width="1.2593" stroke-miterlimit="9.0703" stroke-linejoin="round"/>
<path d="M102.84 39.2124C102.84 39.2124 103.163 37.9925 102.948 37.2939" stroke="#293D67" stroke-width="1.2593" stroke-miterlimit="9.0703" stroke-linejoin="round"/>
<path d="M107.426 39.8516C107.426 39.8516 108.181 45.607 106.211 50.7427C104.3 55.7602 104.261 55.6717 104.104 58.6331" stroke="#293D67" stroke-width="1.2593" stroke-miterlimit="9.0703" stroke-linejoin="round"/>
<path d="M80.8615 39.1043C80.8615 39.1043 82.4783 36.1527 85.8197 36.1035C89.1709 36.0445 91.5227 38.6025 91.6207 39.0747" stroke="#293D67" stroke-width="1.2593" stroke-miterlimit="9.0703" stroke-linejoin="round"/>
<path d="M99.3323 38.5434C99.3323 38.5434 99.9202 35.8378 102.948 36.3002C105.976 36.7626 105.849 37.5891 105.849 37.5891" stroke="#293D67" stroke-width="1.2593" stroke-miterlimit="9.0703" stroke-linejoin="round"/>
</svg>
