<svg width="24" height="24" viewBox="0 0 24 24" fill="none" xmlns="http://www.w3.org/2000/svg">
<circle cx="12" cy="12" r="12" fill="#293D67"/>
<path d="M9.51351 19C9.01702 19 8.64064 18.8817 8.38438 18.6451C8.12813 18.3927 8 18.0694 8 17.6751C8 17.2492 8.12012 16.8549 8.36036 16.4921C8.61662 16.1136 8.94494 15.8139 9.34535 15.5931C9.74575 15.3722 10.1622 15.2618 10.5946 15.2618C10.7868 15.2618 10.979 15.2855 11.1712 15.3328C11.3794 15.3644 11.5796 15.4196 11.7718 15.4984V4H12.6607V15.5694C12.6607 16.2476 12.5085 16.847 12.2042 17.3675C11.9159 17.8722 11.5315 18.2744 11.0511 18.5741C10.5866 18.858 10.0741 19 9.51351 19ZM14.1742 15.664C14.4464 15.0489 14.6466 14.4574 14.7748 13.8896C14.9029 13.306 14.967 12.7697 14.967 12.2808C14.967 11.5394 14.8308 10.9164 14.5586 10.4117C14.3023 9.89117 13.974 9.48107 13.5736 9.18139C13.1732 8.8817 12.7648 8.70032 12.3483 8.63722V4.82808C12.5405 5.19085 12.7648 5.52997 13.021 5.84543C13.2773 6.14511 13.5335 6.4448 13.7898 6.74448C14.1582 7.1388 14.5105 7.56467 14.8468 8.02208C15.1832 8.4795 15.4555 9.00789 15.6637 9.60726C15.8879 10.2066 16 10.9164 16 11.7366C16 12.4779 15.8959 13.1719 15.6877 13.8186C15.4955 14.4653 15.1912 15.0804 14.7748 15.664H14.1742Z" fill="#FFF8E3"/>
</svg>
