<svg width="33" height="30" viewBox="0 0 33 30" fill="none" xmlns="http://www.w3.org/2000/svg">
<g clip-path="url(#clip0_0_3351)">
<path d="M6.10282 5.42602C6.05853 5.39804 5.98393 5.37939 5.92798 5.37939C5.84872 5.37939 5.81142 5.39571 5.74615 5.45632C5.69952 5.49596 5.65057 5.56822 5.63658 5.61252C5.61793 5.6708 5.61793 7.35394 5.63191 11.4825C5.64357 14.6647 5.64823 17.2686 5.64124 17.2686C5.63425 17.2686 5.56664 17.243 5.48971 17.208C5.41278 17.1754 5.26125 17.1264 5.15168 17.0985C4.98617 17.0565 4.88826 17.0495 4.55722 17.0518C4.25183 17.0542 4.10496 17.0658 3.91613 17.1055C3.78092 17.1311 3.56179 17.1917 3.42658 17.2383C3.29137 17.2826 3.08855 17.3689 2.97199 17.4248C2.85776 17.4831 2.67359 17.588 2.56403 17.6603C2.45446 17.7326 2.27262 17.8864 2.15606 18.003C2.04183 18.1195 1.91128 18.2734 1.87165 18.3433C1.82969 18.4109 1.76675 18.5368 1.73178 18.6207C1.6735 18.7583 1.6665 18.7979 1.6665 19.052C1.6665 19.3248 1.66884 19.3388 1.74577 19.495C1.79472 19.5952 1.87631 19.7071 1.95558 19.7864C2.02784 19.8586 2.15373 19.9542 2.23765 20.0008C2.32158 20.0475 2.45679 20.1081 2.54071 20.136C2.62464 20.1617 2.79715 20.2013 2.92536 20.22C3.08855 20.2456 3.24707 20.2526 3.44989 20.2456C3.61074 20.2386 3.8462 20.2106 3.97442 20.185C4.10263 20.1594 4.31711 20.1011 4.45232 20.0545C4.58753 20.0078 4.79268 19.9239 4.9069 19.868C5.02347 19.812 5.19598 19.7164 5.29156 19.6511C5.38714 19.5882 5.52934 19.481 5.60627 19.4134C5.6832 19.3458 5.8021 19.2269 5.8697 19.1476C5.93731 19.0707 6.03988 18.9122 6.09583 18.7956C6.15411 18.6744 6.21006 18.5158 6.22871 18.4226C6.25202 18.292 6.25901 17.2523 6.25901 13.2076C6.25901 10.4265 6.26368 8.15355 6.27067 8.15355C6.27766 8.15355 6.37091 8.29576 6.48048 8.4706C6.59005 8.64311 6.7882 8.93218 6.92341 9.10935C7.05862 9.28653 7.30573 9.61523 7.47591 9.8367C7.64376 10.0582 7.85823 10.3659 7.95148 10.5197C8.04473 10.6736 8.16129 10.8881 8.21258 10.9976C8.26387 11.1072 8.34313 11.317 8.39208 11.4639C8.44104 11.6108 8.49932 11.8322 8.51797 11.9534C8.53895 12.0793 8.55527 12.3101 8.55527 12.4896C8.55527 12.6621 8.53895 12.9139 8.51797 13.0491C8.49932 13.1843 8.45736 13.3895 8.42705 13.5037C8.39675 13.6203 8.33847 13.8091 8.2965 13.9233C8.25454 14.0399 8.14497 14.28 8.05406 14.4595C7.96314 14.639 7.78364 14.9584 7.65775 15.1705C7.53186 15.3827 7.40831 15.5971 7.385 15.6484C7.36402 15.6997 7.34303 15.779 7.34303 15.8233C7.34303 15.8676 7.36401 15.9398 7.38966 15.9818C7.4153 16.0214 7.47125 16.0727 7.51321 16.0937C7.5645 16.1193 7.62045 16.1287 7.69272 16.1193C7.77664 16.11 7.81394 16.089 7.87688 16.0168C7.91885 15.9678 8.06571 15.7394 8.19859 15.5086C8.3338 15.2778 8.51098 14.9631 8.59257 14.8092C8.67183 14.6553 8.78606 14.4152 8.84201 14.273C8.89796 14.1331 8.97256 13.9233 9.0052 13.8068C9.03783 13.6925 9.0798 13.5177 9.10078 13.4221C9.11943 13.3265 9.1474 13.1587 9.16372 13.0491C9.17771 12.9396 9.1917 12.6831 9.1917 12.478C9.1917 12.2355 9.17771 12.028 9.15206 11.8835C9.13108 11.7623 9.08679 11.5618 9.05182 11.4406C9.01918 11.3194 8.94459 11.1049 8.88864 10.9627C8.83269 10.8228 8.72312 10.592 8.64619 10.4498C8.56926 10.3099 8.42705 10.0791 8.3338 9.93694C8.23822 9.79706 8.01909 9.49634 7.84425 9.27254C7.6694 9.04874 7.44094 8.74335 7.33371 8.59648C7.2288 8.44962 7.07727 8.22349 6.99568 8.09527C6.91642 7.96705 6.77655 7.71528 6.68796 7.53578C6.59937 7.35627 6.49214 7.09984 6.44784 6.96463C6.40355 6.82942 6.34527 6.60562 6.3173 6.46341C6.28932 6.32354 6.26135 6.07177 6.25435 5.90392C6.24736 5.72208 6.22871 5.57522 6.21006 5.53792C6.19141 5.50062 6.14245 5.45166 6.10282 5.42602Z" fill="#FFF8E3"/>
<rect x="0.575195" y="23.248" width="7.43164" height="1.37219" fill="#FFF8E3"/>
<path d="M17.7195 5.42602C17.6752 5.39804 17.6006 5.37939 17.5447 5.37939C17.4654 5.37939 17.4281 5.39571 17.3628 5.45632C17.3162 5.49596 17.2673 5.56822 17.2533 5.61252C17.2346 5.6708 17.2346 7.35394 17.2486 11.4825C17.2603 14.6647 17.2649 17.2686 17.2579 17.2686C17.2509 17.2686 17.1833 17.243 17.1064 17.208C17.0295 17.1754 16.878 17.1264 16.7684 17.0985C16.6029 17.0565 16.505 17.0495 16.1739 17.0518C15.8685 17.0542 15.7217 17.0658 15.5328 17.1055C15.3976 17.1311 15.1785 17.1917 15.0433 17.2383C14.9081 17.2826 14.7052 17.3689 14.5887 17.4248C14.4745 17.4831 14.2903 17.588 14.1807 17.6603C14.0712 17.7326 13.8893 17.8864 13.7728 18.003C13.6585 18.1195 13.528 18.2734 13.4884 18.3433C13.4464 18.4109 13.3834 18.5368 13.3485 18.6207C13.2902 18.7583 13.2832 18.7979 13.2832 19.052C13.2832 19.3248 13.2855 19.3388 13.3625 19.495C13.4114 19.5952 13.493 19.7071 13.5723 19.7864C13.6445 19.8586 13.7704 19.9542 13.8544 20.0008C13.9383 20.0475 14.0735 20.1081 14.1574 20.136C14.2413 20.1617 14.4138 20.2013 14.5421 20.22C14.7052 20.2456 14.8638 20.2526 15.0666 20.2456C15.2274 20.2386 15.4629 20.2106 15.5911 20.185C15.7193 20.1594 15.9338 20.1011 16.069 20.0545C16.2042 20.0078 16.4094 19.9239 16.5236 19.868C16.6402 19.812 16.8127 19.7164 16.9083 19.6511C17.0038 19.5882 17.146 19.481 17.223 19.4134C17.2999 19.3458 17.4188 19.2269 17.4864 19.1476C17.554 19.0707 17.6566 18.9122 17.7125 18.7956C17.7708 18.6744 17.8268 18.5158 17.8454 18.4226C17.8687 18.292 17.8757 17.2523 17.8757 13.2076C17.8757 10.4265 17.8804 8.15355 17.8874 8.15355C17.8944 8.15355 17.9876 8.29576 18.0972 8.4706C18.2067 8.64311 18.4049 8.93218 18.5401 9.10935C18.6753 9.28653 18.9224 9.61523 19.0926 9.8367C19.2605 10.0582 19.4749 10.3659 19.5682 10.5197C19.6614 10.6736 19.778 10.8881 19.8293 10.9976C19.8806 11.1072 19.9598 11.317 20.0088 11.4639C20.0577 11.6108 20.116 11.8322 20.1347 11.9534C20.1557 12.0793 20.172 12.3101 20.172 12.4896C20.172 12.6621 20.1557 12.9139 20.1347 13.0491C20.116 13.1843 20.0741 13.3895 20.0438 13.5037C20.0134 13.6203 19.9552 13.8091 19.9132 13.9233C19.8712 14.0399 19.7617 14.28 19.6708 14.4595C19.5798 14.639 19.4003 14.9584 19.2744 15.1705C19.1486 15.3827 19.025 15.5971 19.0017 15.6484C18.9807 15.6997 18.9597 15.779 18.9597 15.8233C18.9597 15.8676 18.9807 15.9398 19.0064 15.9818C19.032 16.0214 19.088 16.0727 19.1299 16.0937C19.1812 16.1193 19.2371 16.1287 19.3094 16.1193C19.3933 16.11 19.4306 16.089 19.4936 16.0168C19.5355 15.9678 19.6824 15.7394 19.8153 15.5086C19.9505 15.2778 20.1277 14.9631 20.2093 14.8092C20.2885 14.6553 20.4028 14.4152 20.4587 14.273C20.5147 14.1331 20.5893 13.9233 20.6219 13.8068C20.6545 13.6925 20.6965 13.5177 20.7175 13.4221C20.7361 13.3265 20.7641 13.1587 20.7804 13.0491C20.7944 12.9396 20.8084 12.6831 20.8084 12.478C20.8084 12.2355 20.7944 12.028 20.7688 11.8835C20.7478 11.7623 20.7035 11.5618 20.6685 11.4406C20.6359 11.3194 20.5613 11.1049 20.5053 10.9627C20.4494 10.8228 20.3398 10.592 20.2629 10.4498C20.186 10.3099 20.0438 10.0791 19.9505 9.93694C19.8549 9.79706 19.6358 9.49634 19.4609 9.27254C19.2861 9.04874 19.0576 8.74335 18.9504 8.59648C18.8455 8.44962 18.694 8.22349 18.6124 8.09527C18.5331 7.96705 18.3932 7.71528 18.3047 7.53578C18.2161 7.35627 18.1088 7.09984 18.0645 6.96463C18.0202 6.82942 17.962 6.60562 17.934 6.46341C17.906 6.32354 17.878 6.07177 17.8711 5.90392C17.8641 5.72208 17.8454 5.57522 17.8268 5.53792C17.8081 5.50062 17.7592 5.45166 17.7195 5.42602Z" fill="#FFF8E3"/>
<rect x="12.1919" y="23.248" width="7.43164" height="1.37219" fill="#FFF8E3"/>
<path d="M29.3357 5.42602C29.2914 5.39804 29.2168 5.37939 29.1609 5.37939C29.0816 5.37939 29.0443 5.39571 28.9791 5.45632C28.9324 5.49596 28.8835 5.56822 28.8695 5.61252C28.8508 5.6708 28.8508 7.35394 28.8648 11.4825C28.8765 14.6647 28.8811 17.2686 28.8742 17.2686C28.8672 17.2686 28.7996 17.243 28.7226 17.208C28.6457 17.1754 28.4942 17.1264 28.3846 17.0985C28.2191 17.0565 28.1212 17.0495 27.7901 17.0518C27.4847 17.0542 27.3379 17.0658 27.149 17.1055C27.0138 17.1311 26.7947 17.1917 26.6595 17.2383C26.5243 17.2826 26.3215 17.3689 26.2049 17.4248C26.0907 17.4831 25.9065 17.588 25.7969 17.6603C25.6874 17.7326 25.5055 17.8864 25.389 18.003C25.2747 18.1195 25.1442 18.2734 25.1046 18.3433C25.0626 18.4109 24.9997 18.5368 24.9647 18.6207C24.9064 18.7583 24.8994 18.7979 24.8994 19.052C24.8994 19.3248 24.9017 19.3388 24.9787 19.495C25.0276 19.5952 25.1092 19.7071 25.1885 19.7864C25.2608 19.8586 25.3866 19.9542 25.4706 20.0008C25.5545 20.0475 25.6897 20.1081 25.7736 20.136C25.8575 20.1617 26.0301 20.2013 26.1583 20.22C26.3215 20.2456 26.48 20.2526 26.6828 20.2456C26.8437 20.2386 27.0791 20.2106 27.2073 20.185C27.3355 20.1594 27.55 20.1011 27.6852 20.0545C27.8204 20.0078 28.0256 19.9239 28.1398 19.868C28.2564 19.812 28.4289 19.7164 28.5245 19.6511C28.62 19.5882 28.7623 19.481 28.8392 19.4134C28.9161 19.3458 29.035 19.2269 29.1026 19.1476C29.1702 19.0707 29.2728 18.9122 29.3287 18.7956C29.387 18.6744 29.443 18.5158 29.4616 18.4226C29.4849 18.292 29.4919 17.2523 29.4919 13.2076C29.4919 10.4265 29.4966 8.15355 29.5036 8.15355C29.5106 8.15355 29.6038 8.29576 29.7134 8.4706C29.823 8.64311 30.0211 8.93218 30.1563 9.10935C30.2915 9.28653 30.5386 9.61523 30.7088 9.8367C30.8767 10.0582 31.0911 10.3659 31.1844 10.5197C31.2776 10.6736 31.3942 10.8881 31.4455 10.9976C31.4968 11.1072 31.576 11.317 31.625 11.4639C31.674 11.6108 31.7322 11.8322 31.7509 11.9534C31.7719 12.0793 31.7882 12.3101 31.7882 12.4896C31.7882 12.6621 31.7719 12.9139 31.7509 13.0491C31.7322 13.1843 31.6903 13.3895 31.66 13.5037C31.6297 13.6203 31.5714 13.8091 31.5294 13.9233C31.4875 14.0399 31.3779 14.28 31.287 14.4595C31.196 14.639 31.0165 14.9584 30.8907 15.1705C30.7648 15.3827 30.6412 15.5971 30.6179 15.6484C30.5969 15.6997 30.5759 15.779 30.5759 15.8233C30.5759 15.8676 30.5969 15.9398 30.6226 15.9818C30.6482 16.0214 30.7042 16.0727 30.7461 16.0937C30.7974 16.1193 30.8534 16.1287 30.9256 16.1193C31.0096 16.11 31.0469 16.089 31.1098 16.0168C31.1518 15.9678 31.2986 15.7394 31.4315 15.5086C31.5667 15.2778 31.7439 14.9631 31.8255 14.8092C31.9047 14.6553 32.019 14.4152 32.0749 14.273C32.1309 14.1331 32.2055 13.9233 32.2381 13.8068C32.2707 13.6925 32.3127 13.5177 32.3337 13.4221C32.3523 13.3265 32.3803 13.1587 32.3966 13.0491C32.4106 12.9396 32.4246 12.6831 32.4246 12.478C32.4246 12.2355 32.4106 12.028 32.385 11.8835C32.364 11.7623 32.3197 11.5618 32.2847 11.4406C32.2521 11.3194 32.1775 11.1049 32.1215 10.9627C32.0656 10.8228 31.956 10.592 31.8791 10.4498C31.8022 10.3099 31.66 10.0791 31.5667 9.93694C31.4711 9.79706 31.252 9.49634 31.0772 9.27254C30.9023 9.04874 30.6739 8.74335 30.5666 8.59648C30.4617 8.44962 30.3102 8.22349 30.2286 8.09527C30.1493 7.96705 30.0095 7.71528 29.9209 7.53578C29.8323 7.35627 29.725 7.09984 29.6808 6.96463C29.6365 6.82942 29.5782 6.60562 29.5502 6.46341C29.5222 6.32354 29.4943 6.07177 29.4873 5.90392C29.4803 5.72208 29.4616 5.57522 29.443 5.53792C29.4243 5.50062 29.3754 5.45166 29.3357 5.42602Z" fill="#FFF8E3"/>
<rect x="23.8081" y="23.248" width="7.43164" height="1.37219" fill="#FFF8E3"/>
</g>
<defs>
<clipPath id="clip0_0_3351">
<rect width="32" height="30" fill="white" transform="translate(0.5)"/>
</clipPath>
</defs>
</svg>
