<svg width="31" height="31" viewBox="0 0 31 31" fill="none" xmlns="http://www.w3.org/2000/svg">
<g clip-path="url(#clip0_0_3340)">
<path d="M4.06064 18.624C4.36664 19.062 4.72064 19.383 5.12264 19.587C5.53064 19.785 5.95064 19.884 6.38264 19.884C7.22864 19.884 7.87964 19.581 8.33564 18.975C8.79164 18.369 9.01964 17.505 9.01964 16.383C9.01964 15.789 8.95664 15.279 8.83064 14.853C8.71064 14.427 8.53964 14.079 8.31764 13.809C8.10164 13.533 7.83764 13.332 7.52564 13.206C7.21964 13.08 6.88064 13.017 6.50864 13.017C6.16664 13.017 5.84564 13.08 5.54564 13.206C5.25164 13.326 4.99364 13.506 4.77164 13.746C4.55564 13.98 4.38164 14.268 4.24964 14.61C4.12364 14.952 4.06064 15.342 4.06064 15.78V18.624ZM2.45864 15.78C2.45864 15.162 2.55164 14.604 2.73764 14.106C2.92364 13.608 3.19064 13.185 3.53864 12.837C3.88664 12.483 4.30964 12.213 4.80764 12.027C5.31164 11.835 5.87864 11.739 6.50864 11.739C7.08464 11.739 7.62464 11.841 8.12864 12.045C8.63864 12.249 9.07964 12.549 9.45164 12.945C9.82964 13.341 10.1266 13.827 10.3426 14.403C10.5646 14.979 10.6756 15.639 10.6756 16.383C10.6756 17.055 10.5856 17.682 10.4056 18.264C10.2256 18.84 9.96764 19.341 9.63164 19.767C9.29564 20.187 8.88164 20.52 8.38964 20.766C7.90364 21.006 7.35464 21.126 6.74264 21.126C6.19664 21.126 5.69864 21.027 5.24864 20.829C4.79864 20.625 4.40264 20.346 4.06064 19.992V24.087H2.45864V15.78Z" fill="#FFF8E3"/>
<path d="M22.2792 21.48C22.2792 21.48 22.1792 21.44 21.9792 21.36C21.7792 21.28 21.5292 21.18 21.2292 21.06C20.9492 20.92 20.6792 20.76 20.4192 20.58L20.3892 20.31C20.3892 20.31 20.5192 20.19 20.7792 19.95C21.0392 19.69 21.3792 19.39 21.7992 19.05C22.2192 18.69 22.6592 18.35 23.1192 18.03L23.9892 18.51L24.0792 18.72C23.7592 19.14 23.4592 19.57 23.1792 20.01C22.9192 20.43 22.6992 20.78 22.5192 21.06C22.3592 21.34 22.2792 21.48 22.2792 21.48ZM22.8792 17.55C22.3792 17.37 21.8792 17.22 21.3792 17.1C20.8992 16.96 20.4992 16.86 20.1792 16.8C19.8592 16.72 19.6992 16.68 19.6992 16.68C19.6992 16.68 19.6992 16.57 19.6992 16.35C19.7192 16.13 19.7492 15.87 19.7892 15.57C19.8292 15.25 19.8892 14.94 19.9692 14.64L20.2392 14.52C20.2392 14.52 20.3892 14.61 20.6892 14.79C21.0092 14.95 21.3992 15.18 21.8592 15.48C22.3392 15.76 22.7992 16.07 23.2392 16.41L23.0592 17.4L22.8792 17.55ZM26.2092 21.99L25.9392 21.96C25.9392 21.96 25.8592 21.8 25.6992 21.48C25.5592 21.14 25.3792 20.72 25.1592 20.22C24.9592 19.72 24.7792 19.2 24.6192 18.66L25.3392 17.97L25.5792 17.94C25.8992 18.38 26.2092 18.8 26.5092 19.2C26.8292 19.58 27.0892 19.9 27.2892 20.16C27.5092 20.4 27.6192 20.52 27.6192 20.52C27.6192 20.52 27.5492 20.61 27.4092 20.79C27.2892 20.95 27.1192 21.14 26.8992 21.36C26.6992 21.58 26.4692 21.79 26.2092 21.99ZM23.8092 16.17L23.6292 16.05C23.6292 15.51 23.6192 14.99 23.5992 14.49C23.5792 13.97 23.5492 13.55 23.5092 13.23C23.4892 12.91 23.4792 12.75 23.4792 12.75C23.4792 12.75 23.5792 12.72 23.7792 12.66C23.9992 12.6 24.2592 12.54 24.5592 12.48C24.8792 12.42 25.1892 12.39 25.4892 12.39L25.6992 12.6C25.6992 12.6 25.6592 12.78 25.5792 13.14C25.5192 13.48 25.4192 13.91 25.2792 14.43C25.1592 14.95 25.0092 15.48 24.8292 16.02L23.8092 16.17ZM25.6692 17.4L25.2492 16.53L25.2792 16.29C25.7992 16.13 26.2892 15.96 26.7492 15.78C27.2292 15.6 27.6192 15.45 27.9192 15.33C28.2192 15.19 28.3692 15.12 28.3692 15.12C28.3692 15.12 28.4292 15.21 28.5492 15.39C28.6692 15.57 28.7992 15.8 28.9392 16.08C29.0992 16.34 29.2292 16.62 29.3292 16.92L29.2092 17.19C29.2092 17.19 29.0292 17.21 28.6692 17.25C28.3092 17.29 27.8592 17.33 27.3192 17.37C26.7792 17.41 26.2292 17.42 25.6692 17.4Z" fill="#FFF8E3"/>
</g>
<defs>
<clipPath id="clip0_0_3340">
<rect width="30" height="31" fill="white"/>
</clipPath>
</defs>
</svg>
