<svg width="365" height="125" viewBox="0 0 365 125" fill="none" xmlns="http://www.w3.org/2000/svg">
<path d="M33.6647 96.9617C31.6872 81.4974 30.853 57.7766 35.3268 39.0908C39.1767 23.0107 46.9383 10.7002 61.2327 10.7002C99.8641 10.7002 115.531 97.7002 253.5 97.7002" stroke="#9E91E3" stroke-width="2"/>
<path d="M102.638 97.1489C102.699 97.6485 103.124 98.0169 103.627 98.0169H255.421C170.412 98.0169 131.114 65.2478 104.435 40.0908C100.044 58.4304 100.741 81.6734 102.638 97.1489Z" fill="#9E91E3"/>
<path d="M1.98242 97.0169C1.43014 97.0169 0.982422 97.4646 0.982422 98.0169C0.982422 98.5692 1.43014 99.0169 1.98242 99.0169V97.0169ZM363.018 99.0169C363.571 99.0169 364.018 98.5692 364.018 98.0169C364.018 97.4646 363.571 97.0169 363.018 97.0169V99.0169ZM104.435 40.0908L103.462 39.858L104.435 40.0908ZM102.638 97.1489L103.631 97.0273L102.638 97.1489ZM1.98242 99.0169H33.6668V97.0169H1.98242V99.0169ZM33.6668 99.0169H255.421V97.0169H33.6668V99.0169ZM255.421 99.0169H363.018V97.0169H255.421V99.0169ZM130.34 12.7002C139.605 12.7002 147.702 17.8664 156.915 25.9393C161.513 29.9684 166.328 34.6647 171.684 39.7374C177.031 44.8005 182.892 50.2153 189.537 55.6336C216.163 77.3439 255.264 99.0169 324.501 99.0169V97.0169C255.768 97.0169 217.105 75.5315 190.801 54.0835C184.213 48.7122 178.394 43.3374 173.06 38.2853C167.735 33.2427 162.869 28.4981 158.233 24.4351C148.976 16.3236 140.392 10.7002 130.34 10.7002V12.7002ZM103.627 99.0169H255.421V97.0169H103.627V99.0169ZM255.421 97.0169C213.052 97.0169 182.124 88.8522 158.484 77.585C134.84 66.3155 118.436 51.919 105.121 39.3633L103.749 40.8184C117.113 53.4197 133.697 67.9861 157.624 79.3904C181.556 90.797 212.781 99.0169 255.421 99.0169V97.0169ZM103.462 39.858C99.0315 58.3633 99.7418 81.741 101.645 97.2706L103.631 97.0273C101.74 81.6057 101.056 58.4975 105.407 40.3237L103.462 39.858ZM105.407 40.3237C107.315 32.3566 110.17 25.4249 114.241 20.5028C118.285 15.615 123.528 12.7002 130.34 12.7002V10.7002C122.858 10.7002 117.074 13.9407 112.7 19.2281C108.355 24.4813 105.404 31.7449 103.462 39.858L105.407 40.3237ZM103.627 97.0169C103.624 97.0169 103.623 97.0164 103.624 97.0166C103.624 97.0167 103.624 97.0169 103.625 97.0176C103.626 97.0182 103.627 97.0196 103.629 97.0222C103.63 97.0252 103.631 97.0275 103.631 97.0273L101.645 97.2706C101.769 98.2817 102.629 99.0169 103.627 99.0169V97.0169Z" fill="#9E91E3"/>
<path d="M102.778 97.9617C100.8 82.4974 99.9663 58.7766 104.44 40.0908C108.29 24.0107 116.052 11.7002 130.346 11.7002C168.977 11.7002 186.537 98.0169 324.506 98.0169" stroke="#293D67" stroke-width="2"/>
<rect x="101.388" y="97.3398" width="2.62744" height="1.33026" fill="#AEA1F6"/>
<rect x="292.389" y="97.3174" width="36.3745" height="1.39223" fill="#9E91E3"/>
<path d="M114.246 110.402V119H113.076V115.28C112.62 115.4 112.176 115.496 111.744 115.568C111.312 115.636 110.906 115.668 110.526 115.664C110.15 115.66 109.804 115.614 109.488 115.526C109.172 115.438 108.9 115.298 108.672 115.106C108.448 114.91 108.272 114.658 108.144 114.35C108.02 114.038 107.958 113.658 107.958 113.21V110.402H109.122V113.216C109.122 113.612 109.202 113.932 109.362 114.176C109.522 114.42 109.766 114.59 110.094 114.686C110.422 114.782 110.832 114.808 111.324 114.764C111.82 114.72 112.404 114.61 113.076 114.434V110.402H114.246ZM119.304 116.264C118.812 116.28 118.392 116.32 118.044 116.384C117.7 116.444 117.418 116.524 117.198 116.624C116.982 116.724 116.824 116.842 116.724 116.978C116.628 117.114 116.58 117.266 116.58 117.434C116.58 117.594 116.606 117.732 116.658 117.848C116.71 117.964 116.78 118.06 116.868 118.136C116.96 118.208 117.066 118.262 117.186 118.298C117.31 118.33 117.442 118.346 117.582 118.346C117.77 118.346 117.942 118.328 118.098 118.292C118.254 118.252 118.4 118.196 118.536 118.124C118.676 118.052 118.808 117.966 118.932 117.866C119.06 117.766 119.184 117.652 119.304 117.524V116.264ZM115.854 113.78C116.19 113.456 116.552 113.214 116.94 113.054C117.328 112.894 117.758 112.814 118.23 112.814C118.57 112.814 118.872 112.87 119.136 112.982C119.4 113.094 119.622 113.25 119.802 113.45C119.982 113.65 120.118 113.892 120.21 114.176C120.302 114.46 120.348 114.772 120.348 115.112V119H119.874C119.77 119 119.69 118.984 119.634 118.952C119.578 118.916 119.534 118.848 119.502 118.748L119.382 118.172C119.222 118.32 119.066 118.452 118.914 118.568C118.762 118.68 118.602 118.776 118.434 118.856C118.266 118.932 118.086 118.99 117.894 119.03C117.706 119.074 117.496 119.096 117.264 119.096C117.028 119.096 116.806 119.064 116.598 119C116.39 118.932 116.208 118.832 116.052 118.7C115.9 118.568 115.778 118.402 115.686 118.202C115.598 117.998 115.554 117.758 115.554 117.482C115.554 117.242 115.62 117.012 115.752 116.792C115.884 116.568 116.098 116.37 116.394 116.198C116.69 116.026 117.076 115.886 117.552 115.778C118.028 115.666 118.612 115.602 119.304 115.586V115.112C119.304 114.64 119.202 114.284 118.998 114.044C118.794 113.8 118.496 113.678 118.104 113.678C117.84 113.678 117.618 113.712 117.438 113.78C117.262 113.844 117.108 113.918 116.976 114.002C116.848 114.082 116.736 114.156 116.64 114.224C116.548 114.288 116.456 114.32 116.364 114.32C116.292 114.32 116.23 114.302 116.178 114.266C116.126 114.226 116.082 114.178 116.046 114.122L115.854 113.78ZM126.205 114.002C126.173 114.046 126.141 114.08 126.109 114.104C126.077 114.128 126.033 114.14 125.977 114.14C125.917 114.14 125.851 114.116 125.779 114.068C125.707 114.016 125.617 113.96 125.509 113.9C125.405 113.84 125.275 113.786 125.119 113.738C124.967 113.686 124.779 113.66 124.555 113.66C124.255 113.66 123.991 113.714 123.763 113.822C123.535 113.926 123.343 114.078 123.187 114.278C123.035 114.478 122.919 114.72 122.839 115.004C122.763 115.288 122.725 115.606 122.725 115.958C122.725 116.326 122.767 116.654 122.851 116.942C122.935 117.226 123.053 117.466 123.205 117.662C123.361 117.854 123.547 118.002 123.763 118.106C123.983 118.206 124.229 118.256 124.501 118.256C124.761 118.256 124.975 118.226 125.143 118.166C125.311 118.102 125.449 118.032 125.557 117.956C125.669 117.88 125.761 117.812 125.833 117.752C125.909 117.688 125.983 117.656 126.055 117.656C126.143 117.656 126.211 117.69 126.259 117.758L126.559 118.148C126.427 118.312 126.277 118.452 126.109 118.568C125.941 118.684 125.759 118.782 125.563 118.862C125.371 118.938 125.169 118.994 124.957 119.03C124.745 119.066 124.529 119.084 124.309 119.084C123.929 119.084 123.575 119.014 123.247 118.874C122.923 118.734 122.641 118.532 122.401 118.268C122.161 118 121.973 117.672 121.837 117.284C121.701 116.896 121.633 116.454 121.633 115.958C121.633 115.506 121.695 115.088 121.819 114.704C121.947 114.32 122.131 113.99 122.371 113.714C122.615 113.434 122.913 113.216 123.265 113.06C123.621 112.904 124.029 112.826 124.489 112.826C124.917 112.826 125.293 112.896 125.617 113.036C125.945 113.172 126.235 113.366 126.487 113.618L126.205 114.002ZM132.757 113.738H130.423V119H129.355V113.738H127.021V112.922H132.757V113.738ZM136.11 118.22C136.326 118.22 136.512 118.194 136.668 118.142C136.828 118.086 136.96 118.01 137.064 117.914C137.168 117.814 137.246 117.698 137.298 117.566C137.35 117.434 137.376 117.29 137.376 117.134C137.376 116.99 137.354 116.856 137.31 116.732C137.266 116.604 137.192 116.492 137.088 116.396C136.988 116.3 136.856 116.224 136.692 116.168C136.528 116.112 136.328 116.084 136.092 116.084H134.802V118.22H136.11ZM136.092 115.304C136.512 115.304 136.864 115.354 137.148 115.454C137.436 115.554 137.666 115.688 137.838 115.856C138.014 116.024 138.14 116.218 138.216 116.438C138.292 116.658 138.33 116.886 138.33 117.122C138.33 117.394 138.282 117.646 138.186 117.878C138.09 118.106 137.948 118.304 137.76 118.472C137.572 118.636 137.34 118.766 137.064 118.862C136.788 118.954 136.47 119 136.11 119H133.776V112.922H134.802V115.304H136.092ZM147.652 119H146.578V113.738H143.662V119H142.588V112.922H147.652V119ZM153.418 115.298C153.418 115.05 153.382 114.824 153.31 114.62C153.242 114.412 153.14 114.234 153.004 114.086C152.872 113.934 152.71 113.818 152.518 113.738C152.326 113.654 152.108 113.612 151.864 113.612C151.352 113.612 150.946 113.762 150.646 114.062C150.35 114.358 150.166 114.77 150.094 115.298H153.418ZM154.282 118.148C154.15 118.308 153.992 118.448 153.808 118.568C153.624 118.684 153.426 118.78 153.214 118.856C153.006 118.932 152.79 118.988 152.566 119.024C152.342 119.064 152.12 119.084 151.9 119.084C151.48 119.084 151.092 119.014 150.736 118.874C150.384 118.73 150.078 118.522 149.818 118.25C149.562 117.974 149.362 117.634 149.218 117.23C149.074 116.826 149.002 116.362 149.002 115.838C149.002 115.414 149.066 115.018 149.194 114.65C149.326 114.282 149.514 113.964 149.758 113.696C150.002 113.424 150.3 113.212 150.652 113.06C151.004 112.904 151.4 112.826 151.84 112.826C152.204 112.826 152.54 112.888 152.848 113.012C153.16 113.132 153.428 113.308 153.652 113.54C153.88 113.768 154.058 114.052 154.186 114.392C154.314 114.728 154.378 115.112 154.378 115.544C154.378 115.712 154.36 115.824 154.324 115.88C154.288 115.936 154.22 115.964 154.12 115.964H150.058C150.07 116.348 150.122 116.682 150.214 116.966C150.31 117.25 150.442 117.488 150.61 117.68C150.778 117.868 150.978 118.01 151.21 118.106C151.442 118.198 151.702 118.244 151.99 118.244C152.258 118.244 152.488 118.214 152.68 118.154C152.876 118.09 153.044 118.022 153.184 117.95C153.324 117.878 153.44 117.812 153.532 117.752C153.628 117.688 153.71 117.656 153.778 117.656C153.866 117.656 153.934 117.69 153.982 117.758L154.282 118.148ZM156.764 117.536C156.96 117.8 157.174 117.986 157.406 118.094C157.638 118.202 157.898 118.256 158.186 118.256C158.754 118.256 159.19 118.054 159.494 117.65C159.798 117.246 159.95 116.67 159.95 115.922C159.95 115.526 159.914 115.186 159.842 114.902C159.774 114.618 159.674 114.386 159.542 114.206C159.41 114.022 159.248 113.888 159.056 113.804C158.864 113.72 158.646 113.678 158.402 113.678C158.054 113.678 157.748 113.758 157.484 113.918C157.224 114.078 156.984 114.304 156.764 114.596V117.536ZM156.71 113.864C156.966 113.548 157.262 113.294 157.598 113.102C157.934 112.91 158.318 112.814 158.75 112.814C159.102 112.814 159.42 112.882 159.704 113.018C159.988 113.15 160.23 113.348 160.43 113.612C160.63 113.872 160.784 114.196 160.892 114.584C161 114.972 161.054 115.418 161.054 115.922C161.054 116.37 160.994 116.788 160.874 117.176C160.754 117.56 160.58 117.894 160.352 118.178C160.128 118.458 159.852 118.68 159.524 118.844C159.2 119.004 158.834 119.084 158.426 119.084C158.054 119.084 157.734 119.022 157.466 118.898C157.202 118.77 156.968 118.594 156.764 118.37V121.058H155.69V112.922H156.332C156.484 112.922 156.578 112.996 156.614 113.144L156.71 113.864ZM164.739 118.25C165.139 118.25 165.455 118.158 165.687 117.974C165.919 117.786 166.035 117.53 166.035 117.206C166.035 117.062 166.013 116.932 165.969 116.816C165.925 116.696 165.853 116.592 165.753 116.504C165.653 116.416 165.519 116.348 165.351 116.3C165.187 116.252 164.985 116.228 164.745 116.228H163.431V118.25H164.739ZM163.431 113.642V115.55H164.601C164.777 115.55 164.939 115.526 165.087 115.478C165.239 115.426 165.369 115.356 165.477 115.268C165.585 115.176 165.669 115.068 165.729 114.944C165.789 114.816 165.819 114.676 165.819 114.524C165.819 114.412 165.799 114.304 165.759 114.2C165.719 114.092 165.651 113.998 165.555 113.918C165.459 113.834 165.333 113.768 165.177 113.72C165.021 113.668 164.829 113.642 164.601 113.642H163.431ZM164.631 112.922C165.007 112.922 165.329 112.96 165.597 113.036C165.865 113.112 166.085 113.216 166.257 113.348C166.429 113.476 166.555 113.628 166.635 113.804C166.715 113.98 166.755 114.168 166.755 114.368C166.755 114.5 166.737 114.638 166.701 114.782C166.665 114.926 166.601 115.064 166.509 115.196C166.421 115.328 166.299 115.448 166.143 115.556C165.991 115.66 165.799 115.742 165.567 115.802C166.031 115.882 166.389 116.044 166.641 116.288C166.893 116.528 167.019 116.846 167.019 117.242C167.019 117.538 166.959 117.796 166.839 118.016C166.723 118.232 166.561 118.414 166.353 118.562C166.149 118.71 165.909 118.82 165.633 118.892C165.357 118.964 165.061 119 164.745 119H162.405V112.922H164.631ZM170.92 112.826C171.364 112.826 171.764 112.9 172.12 113.048C172.476 113.196 172.78 113.406 173.032 113.678C173.284 113.95 173.476 114.28 173.608 114.668C173.744 115.052 173.812 115.482 173.812 115.958C173.812 116.438 173.744 116.87 173.608 117.254C173.476 117.638 173.284 117.966 173.032 118.238C172.78 118.51 172.476 118.72 172.12 118.868C171.764 119.012 171.364 119.084 170.92 119.084C170.472 119.084 170.068 119.012 169.708 118.868C169.352 118.72 169.048 118.51 168.796 118.238C168.544 117.966 168.35 117.638 168.214 117.254C168.082 116.87 168.016 116.438 168.016 115.958C168.016 115.482 168.082 115.052 168.214 114.668C168.35 114.28 168.544 113.95 168.796 113.678C169.048 113.406 169.352 113.196 169.708 113.048C170.068 112.9 170.472 112.826 170.92 112.826ZM170.92 118.25C171.52 118.25 171.968 118.05 172.264 117.65C172.56 117.246 172.708 116.684 172.708 115.964C172.708 115.24 172.56 114.676 172.264 114.272C171.968 113.868 171.52 113.666 170.92 113.666C170.616 113.666 170.35 113.718 170.122 113.822C169.898 113.926 169.71 114.076 169.558 114.272C169.41 114.468 169.298 114.71 169.222 114.998C169.15 115.282 169.114 115.604 169.114 115.964C169.114 116.684 169.262 117.246 169.558 117.65C169.858 118.05 170.312 118.25 170.92 118.25ZM179.108 113.738H176.24V119H175.166V112.922H179.108V113.738ZM182.392 112.826C182.836 112.826 183.236 112.9 183.592 113.048C183.948 113.196 184.252 113.406 184.504 113.678C184.756 113.95 184.948 114.28 185.08 114.668C185.216 115.052 185.284 115.482 185.284 115.958C185.284 116.438 185.216 116.87 185.08 117.254C184.948 117.638 184.756 117.966 184.504 118.238C184.252 118.51 183.948 118.72 183.592 118.868C183.236 119.012 182.836 119.084 182.392 119.084C181.944 119.084 181.54 119.012 181.18 118.868C180.824 118.72 180.52 118.51 180.268 118.238C180.016 117.966 179.822 117.638 179.686 117.254C179.554 116.87 179.488 116.438 179.488 115.958C179.488 115.482 179.554 115.052 179.686 114.668C179.822 114.28 180.016 113.95 180.268 113.678C180.52 113.406 180.824 113.196 181.18 113.048C181.54 112.9 181.944 112.826 182.392 112.826ZM182.392 118.25C182.992 118.25 183.44 118.05 183.736 117.65C184.032 117.246 184.18 116.684 184.18 115.964C184.18 115.24 184.032 114.676 183.736 114.272C183.44 113.868 182.992 113.666 182.392 113.666C182.088 113.666 181.822 113.718 181.594 113.822C181.37 113.926 181.182 114.076 181.03 114.272C180.882 114.468 180.77 114.71 180.694 114.998C180.622 115.282 180.586 115.604 180.586 115.964C180.586 116.684 180.734 117.246 181.03 117.65C181.33 118.05 181.784 118.25 182.392 118.25ZM189.325 113.546C189.553 113.33 189.829 113.156 190.153 113.024C190.481 112.892 190.875 112.826 191.335 112.826C191.703 112.826 192.027 112.872 192.307 112.964C192.587 113.052 192.821 113.17 193.009 113.318C193.201 113.466 193.345 113.636 193.441 113.828C193.541 114.016 193.591 114.212 193.591 114.416C193.591 114.536 193.571 114.662 193.531 114.794C193.495 114.926 193.433 115.052 193.345 115.172C193.257 115.292 193.143 115.404 193.003 115.508C192.863 115.612 192.689 115.696 192.481 115.76C192.869 115.876 193.173 116.062 193.393 116.318C193.617 116.574 193.729 116.888 193.729 117.26C193.729 117.54 193.665 117.794 193.537 118.022C193.409 118.246 193.237 118.438 193.021 118.598C192.805 118.754 192.553 118.874 192.265 118.958C191.981 119.042 191.683 119.084 191.371 119.084C191.175 119.084 190.975 119.066 190.771 119.03C190.571 118.994 190.375 118.938 190.183 118.862C189.991 118.782 189.809 118.684 189.637 118.568C189.469 118.452 189.319 118.312 189.187 118.148L189.487 117.758C189.535 117.69 189.603 117.656 189.691 117.656C189.763 117.656 189.839 117.688 189.919 117.752C190.003 117.812 190.105 117.88 190.225 117.956C190.345 118.032 190.491 118.102 190.663 118.166C190.839 118.226 191.053 118.256 191.305 118.256C191.525 118.256 191.721 118.23 191.893 118.178C192.069 118.122 192.217 118.046 192.337 117.95C192.457 117.854 192.549 117.74 192.613 117.608C192.677 117.476 192.709 117.332 192.709 117.176C192.709 116.876 192.583 116.634 192.331 116.45C192.083 116.266 191.705 116.174 191.197 116.174H190.507V115.466H191.197C191.417 115.466 191.615 115.444 191.791 115.4C191.967 115.352 192.117 115.288 192.241 115.208C192.365 115.128 192.459 115.032 192.523 114.92C192.587 114.804 192.619 114.68 192.619 114.548C192.619 114.428 192.591 114.314 192.535 114.206C192.483 114.098 192.401 114.004 192.289 113.924C192.181 113.844 192.045 113.78 191.881 113.732C191.717 113.684 191.525 113.66 191.305 113.66C191.065 113.66 190.861 113.684 190.693 113.732C190.529 113.78 190.389 113.832 190.273 113.888C190.161 113.944 190.069 113.996 189.997 114.044C189.925 114.092 189.863 114.116 189.811 114.116C189.759 114.116 189.715 114.106 189.679 114.086C189.647 114.066 189.611 114.024 189.571 113.96L189.325 113.546ZM197.434 118.25C197.834 118.25 198.15 118.158 198.382 117.974C198.614 117.786 198.73 117.53 198.73 117.206C198.73 117.062 198.708 116.932 198.664 116.816C198.62 116.696 198.548 116.592 198.448 116.504C198.348 116.416 198.214 116.348 198.046 116.3C197.882 116.252 197.68 116.228 197.44 116.228H196.126V118.25H197.434ZM196.126 113.642V115.55H197.296C197.472 115.55 197.634 115.526 197.782 115.478C197.934 115.426 198.064 115.356 198.172 115.268C198.28 115.176 198.364 115.068 198.424 114.944C198.484 114.816 198.514 114.676 198.514 114.524C198.514 114.412 198.494 114.304 198.454 114.2C198.414 114.092 198.346 113.998 198.25 113.918C198.154 113.834 198.028 113.768 197.872 113.72C197.716 113.668 197.524 113.642 197.296 113.642H196.126ZM197.326 112.922C197.702 112.922 198.024 112.96 198.292 113.036C198.56 113.112 198.78 113.216 198.952 113.348C199.124 113.476 199.25 113.628 199.33 113.804C199.41 113.98 199.45 114.168 199.45 114.368C199.45 114.5 199.432 114.638 199.396 114.782C199.36 114.926 199.296 115.064 199.204 115.196C199.116 115.328 198.994 115.448 198.838 115.556C198.686 115.66 198.494 115.742 198.262 115.802C198.726 115.882 199.084 116.044 199.336 116.288C199.588 116.528 199.714 116.846 199.714 117.242C199.714 117.538 199.654 117.796 199.534 118.016C199.418 118.232 199.256 118.414 199.048 118.562C198.844 118.71 198.604 118.82 198.328 118.892C198.052 118.964 197.756 119 197.44 119H195.1V112.922H197.326ZM206.133 112.922L202.743 120.794C202.707 120.874 202.661 120.938 202.605 120.986C202.553 121.034 202.471 121.058 202.359 121.058H201.567L202.677 118.646L200.169 112.922H201.093C201.185 112.922 201.257 112.946 201.309 112.994C201.365 113.038 201.403 113.088 201.423 113.144L203.049 116.972C203.113 117.14 203.167 117.316 203.211 117.5C203.267 117.312 203.327 117.134 203.391 116.966L204.969 113.144C204.993 113.08 205.033 113.028 205.089 112.988C205.149 112.944 205.215 112.922 205.287 112.922H206.133ZM210.766 113.222C210.822 113.134 210.896 113.062 210.988 113.006C211.08 112.95 211.178 112.922 211.282 112.922H212.116L210.538 115.238C210.442 115.386 210.342 115.508 210.238 115.604C210.134 115.696 210.006 115.768 209.854 115.82C210.046 115.872 210.208 115.954 210.34 116.066C210.472 116.174 210.59 116.314 210.694 116.486L212.29 119H211.546C211.354 119 211.206 118.968 211.102 118.904C210.998 118.84 210.908 118.748 210.832 118.628L209.65 116.738C209.462 116.426 209.18 116.27 208.804 116.27H208.15V119.006H207.076V112.922H208.15V115.55H208.726C209.046 115.55 209.296 115.414 209.476 115.142L210.766 113.222ZM216.581 116.264C216.089 116.28 215.669 116.32 215.321 116.384C214.977 116.444 214.695 116.524 214.475 116.624C214.259 116.724 214.101 116.842 214.001 116.978C213.905 117.114 213.857 117.266 213.857 117.434C213.857 117.594 213.883 117.732 213.935 117.848C213.987 117.964 214.057 118.06 214.145 118.136C214.237 118.208 214.343 118.262 214.463 118.298C214.587 118.33 214.719 118.346 214.859 118.346C215.047 118.346 215.219 118.328 215.375 118.292C215.531 118.252 215.677 118.196 215.813 118.124C215.953 118.052 216.085 117.966 216.209 117.866C216.337 117.766 216.461 117.652 216.581 117.524V116.264ZM213.131 113.78C213.467 113.456 213.829 113.214 214.217 113.054C214.605 112.894 215.035 112.814 215.507 112.814C215.847 112.814 216.149 112.87 216.413 112.982C216.677 113.094 216.899 113.25 217.079 113.45C217.259 113.65 217.395 113.892 217.487 114.176C217.579 114.46 217.625 114.772 217.625 115.112V119H217.151C217.047 119 216.967 118.984 216.911 118.952C216.855 118.916 216.811 118.848 216.779 118.748L216.659 118.172C216.499 118.32 216.343 118.452 216.191 118.568C216.039 118.68 215.879 118.776 215.711 118.856C215.543 118.932 215.363 118.99 215.171 119.03C214.983 119.074 214.773 119.096 214.541 119.096C214.305 119.096 214.083 119.064 213.875 119C213.667 118.932 213.485 118.832 213.329 118.7C213.177 118.568 213.055 118.402 212.963 118.202C212.875 117.998 212.831 117.758 212.831 117.482C212.831 117.242 212.897 117.012 213.029 116.792C213.161 116.568 213.375 116.37 213.671 116.198C213.967 116.026 214.353 115.886 214.829 115.778C215.305 115.666 215.889 115.602 216.581 115.586V115.112C216.581 114.64 216.479 114.284 216.275 114.044C216.071 113.8 215.773 113.678 215.381 113.678C215.117 113.678 214.895 113.712 214.715 113.78C214.539 113.844 214.385 113.918 214.253 114.002C214.125 114.082 214.013 114.156 213.917 114.224C213.825 114.288 213.733 114.32 213.641 114.32C213.569 114.32 213.507 114.302 213.455 114.266C213.403 114.226 213.359 114.178 213.323 114.122L213.131 113.78Z" fill="#9E91E3"/>
</svg>
