<svg width="34" height="30" viewBox="0 0 34 30" fill="none" xmlns="http://www.w3.org/2000/svg">
<g clip-path="url(#clip0_0_3311)">
<path d="M16.1169 17.8L15.9769 17.64L16.0969 16.6L19.5769 16.2C20.0435 16.1467 20.3769 16.1067 20.5769 16.08C20.7769 16.04 20.8769 16.02 20.8769 16.02L21.0169 16.2L20.9169 17.28L16.1169 17.8ZM22.2287 22.24L22.3487 21.32C22.9754 21.2 23.3887 21.0267 23.5887 20.8C23.8021 20.56 23.9087 20.16 23.9087 19.6L23.9287 11.2C23.9287 10.7733 23.8821 10.4867 23.7887 10.34C23.6954 10.1933 23.4954 10.12 23.1887 10.12C23.0687 10.12 22.9221 10.1267 22.7487 10.14C22.5887 10.1533 22.5087 10.16 22.5087 10.16L22.4687 10.08L22.6087 9.2C22.6087 9.2 22.6954 9.20667 22.8687 9.22C23.0421 9.22 23.2687 9.22667 23.5487 9.24C23.8287 9.24 24.1287 9.24667 24.4487 9.26C24.7821 9.26 25.0954 9.26 25.3887 9.26C26.3087 9.26 27.1087 9.25333 27.7887 9.24C28.4687 9.22667 29.0687 9.2 29.5887 9.16C30.1221 9.12 30.5954 9.07333 31.0087 9.02L31.0687 9.14C31.0687 9.14 31.0354 9.29333 30.9687 9.6C30.9154 9.90667 30.8487 10.32 30.7687 10.84C30.7021 11.3467 30.6487 11.9067 30.6087 12.52L29.6487 12.6C29.6487 12.6 29.6554 12.48 29.6687 12.24C29.6821 12 29.6887 11.8133 29.6887 11.68C29.6887 11.24 29.6354 10.92 29.5287 10.72C29.4221 10.52 29.1754 10.3933 28.7887 10.34C28.4154 10.2867 27.8221 10.26 27.0087 10.26C26.5821 10.26 26.2687 10.2733 26.0687 10.3C25.8687 10.3267 25.7421 10.3933 25.6887 10.5C25.6487 10.6067 25.6221 10.7867 25.6087 11.04L25.4487 15.26L27.5087 15.28C27.7221 15.28 27.9887 15.26 28.3087 15.22C28.6421 15.18 28.9421 15.1467 29.2087 15.12C29.4754 15.08 29.6087 15.06 29.6087 15.06L29.6887 15.16L29.4087 16.36C29.4087 16.36 29.2687 16.3533 28.9887 16.34C28.7087 16.3267 28.3754 16.32 27.9887 16.32C27.6154 16.3067 27.2687 16.3 26.9487 16.3C26.6554 16.3 26.3687 16.32 26.0887 16.36C25.8087 16.3867 25.5821 16.4133 25.4087 16.44L25.3287 19.76C25.3287 20.2933 25.3887 20.6533 25.5087 20.84C25.6287 21.0267 25.8621 21.12 26.2087 21.12C26.3421 21.12 26.5221 21.1133 26.7487 21.1C26.9754 21.0867 27.1754 21.08 27.3487 21.08C27.5354 21.0667 27.6287 21.06 27.6287 21.06L27.6687 21.14L27.4887 22.08C27.4887 22.08 27.3821 22.0733 27.1687 22.06C26.9687 22.06 26.7087 22.0533 26.3887 22.04C26.0821 22.0267 25.7554 22.0133 25.4087 22C25.0754 22 24.7754 22 24.5087 22C24.1754 22 23.8287 22.02 23.4687 22.06C23.1221 22.1 22.8287 22.14 22.5887 22.18C22.3487 22.22 22.2287 22.24 22.2287 22.24Z" fill="#FFF8E3"/>
</g>
<path d="M4.92426 26.266L5.01426 25.564C5.39826 25.516 5.64426 25.408 5.75226 25.24C5.87226 25.084 5.93226 24.76 5.93226 24.268C5.93226 24.076 5.93226 23.794 5.93226 23.422C5.94426 23.05 5.95026 22.66 5.95026 22.252C5.96226 21.856 5.96826 21.532 5.96826 21.28V15.916C5.96826 15.508 5.90226 15.226 5.77026 15.07C5.63826 14.902 5.41026 14.818 5.08626 14.818H4.88826L4.83426 14.746L4.88826 14.152C5.30826 14.08 5.71026 14.008 6.09426 13.936C6.47826 13.852 6.79026 13.78 7.03026 13.72C7.28226 13.66 7.40826 13.63 7.40826 13.63L7.51626 13.774C7.51626 13.774 7.49226 13.876 7.44426 14.08C7.39626 14.284 7.36026 14.506 7.33626 14.746L7.40826 14.872C7.93626 14.5 8.38026 14.212 8.74026 14.008C9.11226 13.804 9.36426 13.702 9.49626 13.702C10.1923 13.702 10.7983 13.864 11.3143 14.188C11.8303 14.5 12.2323 14.944 12.5203 15.52C12.8203 16.084 12.9703 16.744 12.9703 17.5C12.9703 18.148 12.8503 18.76 12.6103 19.336C12.3823 19.9 12.0583 20.398 11.6383 20.83C11.2303 21.262 10.7563 21.604 10.2163 21.856C9.67626 22.096 9.10026 22.216 8.48826 22.216C8.34426 22.216 8.17026 22.21 7.96626 22.198C7.76226 22.186 7.57626 22.174 7.40826 22.162C7.25226 22.15 7.17426 22.144 7.17426 22.144C7.17426 22.444 7.17426 22.75 7.17426 23.062C7.18626 23.374 7.19226 23.686 7.19226 23.998C7.19226 24.55 7.24626 24.922 7.35426 25.114C7.47426 25.318 7.70226 25.42 8.03826 25.42C8.13426 25.42 8.23626 25.414 8.34426 25.402C8.45226 25.402 8.55426 25.402 8.65026 25.402L8.68626 25.456L8.54226 26.14C8.39826 26.14 8.25426 26.14 8.11026 26.14C7.96626 26.14 7.82226 26.14 7.67826 26.14C7.54626 26.14 7.40826 26.14 7.26426 26.14C7.12026 26.14 6.97626 26.14 6.83226 26.14C6.49626 26.14 6.17826 26.146 5.87826 26.158C5.59026 26.182 5.35626 26.206 5.17626 26.23C5.00826 26.254 4.92426 26.266 4.92426 26.266ZM8.99226 21.226C9.79626 21.226 10.4263 20.956 10.8823 20.416C11.3503 19.864 11.5843 19.114 11.5843 18.166C11.5843 17.554 11.4763 17.008 11.2603 16.528C11.0563 16.036 10.7743 15.646 10.4143 15.358C10.0543 15.07 9.65226 14.926 9.20826 14.926C8.96826 14.926 8.67426 15.01 8.32626 15.178C7.97826 15.334 7.64826 15.544 7.33626 15.808C7.31226 16.3 7.28826 16.84 7.26426 17.428C7.24026 18.016 7.22226 18.61 7.21026 19.21C7.19826 19.81 7.19226 20.368 7.19226 20.884C7.43226 20.98 7.71426 21.064 8.03826 21.136C8.37426 21.196 8.69226 21.226 8.99226 21.226Z" fill="#FFF8E3"/>
<defs>
<clipPath id="clip0_0_3311">
<rect width="34" height="30" fill="white"/>
</clipPath>
</defs>
</svg>
