<svg width="146" height="143" viewBox="0 0 146 143" fill="none" xmlns="http://www.w3.org/2000/svg">
<path d="M100.536 74.9371C100.536 74.9371 102.185 76.7494 102.417 76.5914C102.648 76.4334 101.481 75.0208 100.536 74.9371ZM100.536 74.9371C99.5914 74.8628 98.8873 76.1174 97.7108 76.2011C96.5343 76.2754 96.3027 74.1564 95.3579 74.2308C94.413 74.3051 92.5324 75.2531 90.5685 74.9371C88.6046 74.6211 85.4642 76.2011 85.0751 76.8237C84.6861 77.4557 90.6982 79.8442 91.041 80.2067C94.7279 84.1472 99.7488 82.0933 98.8873 82.2513C98.0258 82.4093 94.3666 82.9855 93.431 81.1732C91.3374 77.1583 84.6768 77.8089 84.3711 77.4464C84.0654 77.084 81.2307 77.2141 82.7221 77.6788C84.2136 78.1527 86.2516 77.4464 89.6236 77.2048C92.9956 76.9725 94.3296 77.8368 96.0619 78.3107C97.7942 78.7847 97.47 77.9948 99.2023 77.9948C100.935 77.9948 101.324 79.1007 102.889 79.7234C104.455 80.3554 106.734 77.9948 105.168 83.1063C103.603 88.2272 97.3217 95.8573 95.7562 96.415C94.1906 96.9633 91.1243 95.151 89.1604 95.625C87.1965 96.099 86.8074 95.941 82.1756 95.625C77.5437 95.309 65.3805 86.2569 62.0919 82.4C58.794 78.5431 51.3923 73.5338 51.7073 72.3256C52.0223 71.1174 51.7443 64.7419 52.0037 64.8348C54.0788 65.5133 58.6829 66.6099 58.794 65.0857C58.9052 63.5616 57.5342 58.0504 58.0066 58.5244C58.4791 58.9983 57.0154 61.6749 55.913 61.4612C54.8106 61.2474 55.3386 59.9928 54.4493 58.7288C53.56 57.4649 51.9944 57.0002 51.4108 56.3682C50.8365 55.7362 50.8365 55.5783 51.3553 53.9518C51.874 52.3254 51.2533 52.1674 50.4659 52.4277C49.6785 52.6879 49.6322 55.6805 49.0023 52.8459C48.3723 50.0113 51.4108 50.541 48.5854 48.4871C45.76 46.4425 46.0194 49.1656 46.0749 50.1693C46.1305 51.1637 46.4455 53.3663 46.1305 55.002C45.8155 56.6284 47.6961 57.3626 48.7985 58.0968C49.9008 58.8311 52.5688 59.147 52.7263 60.253C52.8838 61.3589 54.19 62.4556 53.1432 62.9854C52.0964 63.5058 51.0495 62.4091 50.4196 61.3032C49.7897 60.1972 48.5854 58.8868 46.8068 57.8366C45.0281 56.7864 44.5094 53.6916 44.7688 52.5857C45.0281 51.4797 43.8794 48.5429 43.8239 47.4462C43.7683 46.3496 44.1944 43.1432 48.0111 45.2436C51.8277 47.344 52.2446 51.5448 52.9764 52.7994C53.7082 54.0634 52.3002 54.7976 51.9852 55.1043C51.6702 55.4203 53.5507 55.5782 54.2363 56.9909C54.9125 58.4035 56.5337 60.5597 57.0617 62.8181C57.5897 65.0765 56.9598 66.0709 53.5044 65.1787C50.0491 64.2865 49.1598 62.8181 49.1598 62.8181C45.2875 60.7177 43.7683 56.3589 43.1939 54.7883C42.6196 53.2176 41.7303 50.9035 41.4153 46.9165C41.1003 42.9294 45.7044 42.1953 47.27 42.1953C48.8355 42.1953 50.8272 43.7659 52.189 44.9276C53.5508 46.08 54.1807 50.699 56.6911 54.4816C59.2016 58.2641 63.3888 51.8607 64.0187 48.7102C64.6487 45.5596 62.4532 39.5744 62.342 39.3235C62.2308 39.0726 63.9076 30.6524 64.6394 29.0818C65.3712 27.5111 62.6477 25.9312 64.6394 20.9962C66.6311 16.0612 72.5877 12.5947 73.1157 12.4924C73.6345 12.3902 78.0347 12.1765 82.7407 14.4906C87.4467 16.7954 91.5319 13.2267 93.3106 13.7564C95.0892 14.2861 98.4334 15.643 104.297 15.643C110.161 15.643 111.097 16.907 112.357 18.8958C113.617 20.894 113.19 26.1357 113.404 28.552C113.617 30.9684 114.191 38.1525 114.395 39.1562C114.599 40.1599 116.331 41.0428 116.488 42.3533C116.646 43.6637 114.923 46.554 114.654 47.028C114.395 47.502 113.061 46.238 112.301 46.4518C111.393 46.7027 112.542 46.0986 109.457 47.2139C106.178 48.3942 104.955 46.7771 105.956 45.8942C107.521 44.5187 110.513 48.8031 107.188 49.2678C105.566 49.5001 104.223 47.409 105.483 46.2194C106.743 45.0298 108.623 46.173 108.938 46.1079C109.253 46.0336 110.93 49.054 111.273 48.8496C111.625 48.6358 110.606 47.3812 109.457 46.396C108.309 45.4202 105.687 45.1042 104.334 46.1172C102.973 47.1302 103.436 49.9648 102.889 47.6042C102.343 45.2436 106.187 42.093 107.595 42.251C109.003 42.409 112.542 43.1153 113.95 42.9573C115.358 42.7994 113.163 41.303 109.559 40.2064C105.946 39.1004 103.362 43.1153 101.87 44.9276C100.379 46.7399 102.5 52.7251 103.417 57.0466C104.334 61.3682 104.825 63.608 103.417 65.1322C102.009 66.6564 98.8132 66.2846 98.0258 65.6527C97.2384 65.0207 96.1916 64.082 94.5241 64.8627C92.8567 65.6434 91.3837 64.8627 91.3837 64.8627C88.8084 62.372 90.4573 60.2344 91.2911 59.3143C91.4208 59.1749 92.0507 58.7939 92.1989 58.6638C93.0327 57.9853 93.1716 57.3533 94.7835 58.1433C96.9327 59.1935 98.8595 60.5039 98.8132 58.8218C98.7576 57.1396 100.119 53.3106 98.4982 50.5317C96.8771 47.7529 95.7747 44.6023 95.6728 43.2919C95.5709 41.9815 94.1536 38.0967 89.3457 36.6283C84.5286 35.1599 79.8782 37.1488 76.7378 37.5205C73.5974 37.8923 73.0786 40.6711 72.0782 41.9257C71.0869 43.1897 72.1337 44.2306 79.4058 40.8755C86.6778 37.5205 91.3837 39.7696 92.588 41.0335C93.7923 42.2975 90.2906 44.5001 89.6051 43.9704C88.9196 43.4406 86.7796 42.8644 84.1117 42.6599C81.4438 42.4462 79.0908 42.9759 76.4784 44.5466C73.8661 46.1172 72.8193 46.331 72.6062 46.015C72.3931 45.699 78.6183 44.2306 80.3507 43.7566C82.0737 43.2826 83.5744 42.725 85.0381 43.4592C86.5017 44.1934 85.0751 46.9072 83.0371 46.489C80.9991 46.0707 80.3692 43.7194 81.8606 43.4034C83.4077 43.0782 84.0376 43.1246 83.9635 44.4629C83.9079 45.4388 81.5549 44.6767 82.9167 43.5429C83.9079 42.7157 85.6402 46.5354 80.6193 45.383C76.9787 44.5466 72.6155 46.015 72.6155 46.015" stroke="#293D67" stroke-width="1.20683" stroke-miterlimit="10" stroke-linecap="round"/>
<path d="M111.282 48.8684C111.282 48.8684 112.496 48.3666 113.274 50.4948C114.061 52.6231 114.145 58.9615 111.764 66.6846C109.42 74.2868 105.168 83.1345 105.168 83.1345" stroke="#293D67" stroke-width="1.20683" stroke-miterlimit="10" stroke-linecap="round"/>
<path d="M44.5371 42.7064C44.5371 42.7064 45.0281 39.6488 44.5371 37.6506C44.0461 35.6525 44.8243 32.0837 45.6117 31.0892C46.3991 30.0948 48.4371 21.5632 49.5395 19.1189C50.6419 16.6746 56.2094 7.78053 63.5092 4.87159C70.809 1.96264 79.8318 0.856689 83.0463 1.01468C86.2608 1.17268 95.2096 2.42734 96.5436 4.32326C97.8775 6.20989 100.777 7.15786 101.49 7.3902C102.204 7.62254 101.101 8.18017 103.139 9.20248C105.177 10.2248 105.576 9.75081 106.196 10.2248C106.826 10.6988 107.141 11.6374 108.864 12.9014C110.587 14.1653 112.283 17.065 109.883 16.4516C107.484 15.8289 109.374 14.1467 111.829 18.0966" stroke="#293D67" stroke-width="1.20683" stroke-miterlimit="10" stroke-linecap="round"/>
<path d="M23.1379 93.441C23.1379 93.441 28.4553 87.874 35.6717 87.874C42.8882 87.874 28.4553 91.9633 38.1822 86.3034C47.9091 80.6342 50.8827 74.5189 51.8925 74.2308C52.893 73.9427 51.1607 76.5357 53.8842 80.3182C56.6077 84.1008 72.3004 99.7328 74.0791 103.302C75.8577 106.87 84.6489 121.043 87.9931 128.915C91.3373 136.787 91.3373 136.787 91.3373 136.787C91.3373 136.787 82.1292 136.852 81.9254 136.452C81.7123 136.053 83.0741 127.447 75.5427 121.359C68.0113 115.272 87.6782 138.255 87.6782 138.255L94.7927 136.452C94.7927 136.452 88.095 130.597 86.8444 129.129C85.5846 127.661 88.2062 129.863 88.5212 127.661C88.8361 125.458 91.7635 124.092 89.568 118.107C87.3725 112.121 81.7679 109.082 78.9703 109.287C76.1726 109.501 83.8152 113.906 86.0107 109.603C88.2062 105.3 88.938 103.729 89.3549 104.463C89.7718 105.198 94.4777 137.53 95.3207 138.785C96.1637 140.04 99.3967 139.055 99.091 136.452C98.9614 135.356 98.563 132.698 98.0443 129.854C97.3309 125.95 96.3768 121.675 95.5338 120.523C94.0701 118.525 97.3124 126.508 100.453 128.608C103.593 130.709 100.351 129.25 99.1929 129.556C98.0442 129.863 101.49 133.859 101.185 137.53C100.87 141.202 105.418 137.949 105.187 135.012C104.955 132.075 105.001 128.293 105.187 127.456C105.372 126.62 90.1979 108.144 90.4109 106.777C90.624 105.411 92.8195 115.699 100.249 118.218C107.678 120.737 112.273 127.354 113.793 127.354C115.312 127.354 118.035 130.504 118.137 132.707C118.239 134.91 123.89 136.694 123.686 137.642C123.473 138.59 111.755 137.224 111.755 137.224C111.755 137.224 112.069 128.934 110.189 126.936C108.308 124.937 113.302 138.887 113.302 138.887C113.302 138.887 89.1326 107.502 89.8644 102.883C89.8644 102.883 92.5879 97.2142 93.2086 97.112C93.8385 97.0098 90.9112 97.0098 89.4383 97.8462C87.9746 98.6826 83.5836 104.463 84.3154 105.086C85.0473 105.718 90.2813 96.5823 87.9746 96.5358C85.6679 96.4893 87.5577 97.9484 86.196 98.2644C84.8342 98.5804 82.9537 96.164 81.6938 97.3165C80.434 98.4689 87.7615 101.935 87.7615 101.935L89.8551 102.883" stroke="#293D67" stroke-width="1.20683" stroke-miterlimit="10" stroke-linecap="round"/>
<path d="M81.3419 46.7864C81.3419 46.7864 86.9742 48.3291 88.9752 46.5726C91.0317 44.7789 85.8533 44.0354 84.788 43.3384" stroke="#293D67" stroke-width="1.20683" stroke-miterlimit="10" stroke-linecap="round"/>
<path d="M105.761 47C105.761 47 107.947 47.3345 106.595 45.6431" stroke="#293D67" stroke-width="1.20683" stroke-miterlimit="10" stroke-linecap="round"/>
</svg>
