<svg width="144" height="139" viewBox="0 0 144 139" fill="none" xmlns="http://www.w3.org/2000/svg">
<path d="M73.6555 50.0363C73.6555 50.0363 71.1692 53.7885 74.5207 54.8384C74.5207 54.8384 76.1782 54.2632 78.0816 54.3363C79.9941 54.4093 76.8248 52.8208 76.0325 53.5055C75.2401 54.1902 79.2838 54.2267 80.7592 54.4093C82.2254 54.5919 83.9558 53.3229 83.8101 51.1227C83.6644 48.9225 83.1635 53.0308 83.4185 53.7976C83.6735 54.5554 85.4949 53.6972 84.6024 52.0996C83.7099 50.5019 83.5915 48.8495 83.3821 47.8087C83.1726 46.768 81.506 42.7601 81.4058 39.4005C81.2965 36.0408 80.9049 33.9867 83.2454 31.7865C85.586 29.5863 88.8282 29.4768 89.5841 29.5133C90.34 29.5498 92.5713 29.7689 93.4365 31.8961C94.3017 34.0233 91.0231 32.1517 89.5841 32.4712C88.1452 32.7908 84.0742 33.9502 84.0013 36.333C83.9285 38.7158 84.3292 38.1041 84.3292 38.1041C84.3292 38.1041 85.3765 36.4791 86.8884 35.9769C88.4002 35.4748 91.6424 35.0731 92.5804 36.4791C93.5184 37.885 91.8609 39.3275 89.5932 39.3275C87.3255 39.3275 86.1051 38.241 86.2782 37.3464C86.4603 36.4425 88.4002 35.1096 89.3746 36.196C90.3491 37.2824 89.4839 38.6153 88.4002 38.6153C87.3164 38.6153 86.8975 37.4833 87.1798 36.7712C87.4621 36.0591 88.5094 36.1961 88.4002 36.8077C88.2909 37.4194 87.6807 37.9306 87.4257 37.3464C87.1707 36.7712 88.2544 37.602 88.9375 38.0311C89.6205 38.4601 97.5074 36.5156 97.8262 36.0134C98.154 35.5113 98.1085 30.9923 97.8262 30.4719C97.5439 29.9515 95.522 29.4859 95.7497 27.9704C95.9774 26.4549 96.961 26.674 96.0685 23.0223C95.1669 19.3705 91.5786 13.5733 91.36 13.1259C91.1323 12.6786 90.4584 10.1497 86.4785 10.1497C82.4986 10.1497 79.2382 10.8253 77.4988 10.8253C75.7593 10.8253 68.7467 9.9854 67.0618 10.1497C65.377 10.3141 57.4719 11.2179 55.614 17.1794C53.7652 23.1409 53.4282 31.0105 53.4282 31.0105C53.4282 31.0105 53.3098 33.2199 53.4282 34.7262C53.5466 36.2326 57.2533 30.9192 58.8015 30.1159C60.3498 29.3125 64.0109 28.6551 66.1693 28.6551C68.3277 28.6551 72.8814 28.5182 73.7283 28.5182C74.5753 28.5182 72.9269 30.6819 69.5936 30.8736C66.2604 31.0653 60.6321 33.1286 59.5939 35.9587C58.5647 38.7797 61.2332 38.7797 60.8142 38.5971C60.3953 38.4054 63.2914 34.0233 68.3277 36.1413C68.3277 36.1413 69.4935 36.8899 69.4935 37.0999C69.4935 37.3099 66.5154 40.569 64.2203 39.6652C61.9253 38.7614 62.581 36.7347 64.1293 36.26C65.6775 35.7852 67.08 35.9952 67.1711 37.2185C67.2622 38.4419 65.3497 39.9391 63.6284 38.9531C61.9071 37.9672 63.8378 36.1139 64.7577 36.5338C65.6775 36.9538 66.2148 38.5332 64.2477 38.2411C63.7194 38.1589 63.4553 37.9671 63.3643 37.748C63.1002 37.1364 64.0928 36.2782 64.4025 36.7804C64.8214 37.4651 64.7577 37.6477 64.3752 37.7389C63.9836 37.8302 64.5664 37.3281 65.4954 37.2642" stroke="#293D67" stroke-width="1.20293" stroke-miterlimit="10"/>
<path d="M53.4101 34.7075C53.4101 34.7075 53.7197 40.5321 53.7197 42.997C53.7197 45.462 52.6633 61.3381 45.6233 59.0466C38.5834 56.7551 40.9331 48.3926 43.6288 46.9866C46.3246 45.5807 51.2516 45.5259 49.6123 48.0548C47.973 50.5836 43.8656 50.5197 43.984 49.4059C44.1024 48.2921 53.0731 51.1679 53.7197 55.2214C54.3663 59.2749 56.1422 65.1907 56.6249 66.3228C57.1076 67.4548 58.0821 73.0421 61.7887 73.8546C65.5045 74.6671 71.7248 77.1777 72.7721 77.8168C73.8195 78.4559 81.8976 80.6469 85.5314 77.8168C89.1652 74.9867 91.9065 68.5048 92.6351 67.4549C93.3637 66.405 95.1396 62.3515 95.1396 61.7855C95.1396 61.2194 86.0961 60.973 82.7081 61.4659C79.3202 61.9589 71.2421 62.2785 69.9489 62.5158C68.6556 62.7623 68.6647 63.8852 68.3915 63.6114C68.1183 63.3375 69.0837 61.6577 71.8705 61.5207C74.6573 61.3838 78.6463 60.2608 78.9742 60.2608C79.302 60.2608 84.6389 59.9778 85.5678 60.1239C86.4968 60.2608 89.0013 61.8494 87.1434 61.895C85.2855 61.9406 79.6208 63.5201 77.344 62.6436" stroke="#293D67" stroke-width="1.20293" stroke-miterlimit="10"/>
<path d="M95.1487 61.7948C95.1487 61.7948 95.8591 58.499 97.0977 53.1309C98.3363 47.7628 97.3436 41.7374 97.5895 40.0028C97.8354 38.2682 102.535 34.1417 105.832 36.8623C109.128 39.592 104.429 43.2255 101.132 40.7423C97.8354 38.2682 106.815 39.9206 108.136 44.2115C109.456 48.5023 109.292 51.725 104.101 51.8894C98.91 52.0537 107.07 48.2558 107.808 51.8894C108.546 55.5229 108.3 56.7644 103.773 56.098C99.2379 55.4407 98.6641 56.1802 99.1559 54.0348C99.6477 51.8894 112.252 49.1779 111.105 56.9744C109.957 64.771 101.797 63.1185 99.8208 60.0693C97.8445 57.0109 110.768 57.7596 111.187 63.785C111.606 69.8104 103.282 70.5591 96.533 66.1769C89.7846 61.7948 109.648 60.1515 111.205 60.8088C112.762 61.4661 114.411 72.2937 109.138 75.6716C103.864 79.0586 94.3109 75.8359 93.9739 72.4488C93.6369 69.0618 111.77 68.651 108.637 78.3921C105.504 88.1424 97.0977 86.6543 93.473 82.5187C89.8483 78.3921 91.4967 75.2516 93.473 75.9089C95.4493 76.5662 98.5822 84.4176 103.691 88.7906C108.801 93.1636 128.254 103.708 129.711 103.708C131.168 103.708 129.711 120.908 129.711 120.908L128.135 136.538C128.135 136.538 119.921 119.091 116.897 114.974C113.873 110.856 106.506 95.7107 103.6 92.3145C100.695 88.9184 98.6459 87.7133 96.5877 86.8642C94.5294 86.0152 93.0814 85.8966 93.3273 87.9507C93.5732 90.0048 98.4183 91.5659 98.0449 93.4922C97.6715 95.4185 100.923 94.7521 102.034 100.969C103.145 107.186 106.023 106.967 107.134 108.081C108.245 109.195 107.944 113.933 108.017 119.858C108.09 125.783 112.079 128.084 112.079 130.75C112.079 133.415 106.906 133.79 106.906 133.79C106.906 133.79 100.996 122.606 99.0011 119.128C97.0066 115.649 96.4146 112.089 92.6442 106.611C88.8738 101.134 89.2472 100.905 81.4878 97.2079C73.7284 93.5014 68.9289 90.9086 65.6047 87.7315C62.2806 84.5454 58.5102 82.3999 58.4373 80.2545C58.3645 78.1091 59.767 75.069 58.8107 72.9966C57.8545 70.9242 57.3353 80.5558 57.4811 82.7743C57.6268 84.9927 73.2549 100.184 78.1364 103.078C83.0179 105.972 83.4095 114.353 79.8303 114.755C76.2512 115.156 73.5554 111.961 74.8577 110.163C76.151 108.364 81.7246 104.676 83.2182 116.544C84.7118 128.422 85.8047 133.707 77.5444 131.507C77.5444 131.507 73.865 125.025 79.4387 125.317C85.0123 125.61 86.4058 134.2 86.4058 134.2C86.4058 134.2 45.2864 137.797 45.7327 135.552C46.1789 133.306 50.0677 116.663 49.6215 115.914C49.1752 115.166 16.1249 110.071 13.8845 109.615C11.6442 109.168 14.9319 100.768 16.4255 99.2712C17.9191 97.774 31.9807 92.3784 33.3195 91.4746C34.6673 90.5708 33.365 80.3732 41.4796 79.9898C49.5942 79.6063 58.3736 84.874 52.2626 88.7906C46.1516 92.7162 38.6928 89.2653 40.9878 82.5734C43.2828 75.8815 44.7218 78.6478 44.5305 74.1561C44.3393 69.6644 41.0789 67.0716 40.9878 65.0631C40.8967 63.0547 51.4976 64.4423 51.8801 61.2105C52.2626 57.9787 43.2919 64.8714 43.1007 65.1544C42.9094 65.4374 51.8983 71.3077 53.3737 65.8209C54.84 60.3341 45.5687 76.8219 40.9969 78.1639C36.425 79.5059 35.8513 73.8548 36.1336 71.9467C36.4159 70.0295 38.711 66.3047 38.1372 64.9627C37.5635 63.6207 34.13 62.9542 34.5125 66.4965C34.895 70.0387 37.8549 67.2633 35.2775 58.5539C32.7002 49.8444 34.3213 46.1104 34.7038 45.6357C35.0863 45.1609 40.8148 42.3856 39.0024 45.3527C37.1901 48.3197 30.6966 48.2193 34.9952 36.3602C39.2938 24.501 43.0096 33.6852 41.9623 37.5105C40.9149 41.3357 35.569 36.0771 39.7674 26.0256C43.9659 15.9741 44.3666 13.4909 53.3828 6.78985C62.399 0.0888382 73.7558 1.04744 73.7558 1.04744C73.7558 1.04744 86.26 0.664007 90.076 3.63108C93.8919 6.59815 99.4292 14.0569 101.533 18.366C103.637 22.6751 107.544 28.1254 109.265 38.9346C110.986 49.7439 113.892 58.1065 111.214 60.7906" stroke="#293D67" stroke-width="1.20293" stroke-miterlimit="10"/>
<path d="M96.5147 66.1772C96.5147 66.1772 93.2361 68.487 92.726 74.6585C92.216 80.83 91.5148 84.2079 90.9046 84.2079C90.2944 84.2079 88.8828 86.2346 85.5313 85.6321C82.1798 85.0295 82.3893 87.3849 79.6571 85.7416C76.9249 84.0983 87.462 84.3083 89.4839 87.8597C91.5057 91.411 87.5622 91.7214 89.4839 94.2594C91.4055 96.7974 93.0266 100.659 94.6477 99.2349C96.2688 97.8108 97.5529 97.9295 93.9373 96.697C90.3217 95.4554 96.879 99.2349 97.48 102.385C98.0902 105.534 100.595 107.972 98.0265 107.661C95.4582 107.36 100.221 104.713 102.043 107.05C103.864 109.387 105.895 111.724 105.385 113.851C104.875 115.987 107.343 116.051 108.017 119.877" stroke="#293D67" stroke-width="1.20293" stroke-miterlimit="10"/>
</svg>
