<svg width="148" height="142" viewBox="0 0 148 142" fill="none" xmlns="http://www.w3.org/2000/svg">
<path d="M75.119 71.9642C75.119 71.9642 71.8643 71.6629 73.6089 70.7023C75.3535 69.7417 78.1392 70.9283 78.2142 71.9642C78.2893 73.0001 80.5966 73.245 81.5533 72.2844C82.51 71.3238 82.904 69.8924 84.808 69.6476C86.7121 69.4121 84.3859 71.8041 83.2979 71.644C82.2099 71.4839 85.4458 70.6081 86.0743 70.3633C86.7121 70.1279 87.3499 68.3668 84.8831 66.0596C82.4162 63.7429 81.8629 58.8836 81.5439 57.5275C81.225 56.1714 80.5872 53.7794 81.4689 52.2632C82.3412 50.747 85.8398 48.7505 88.5411 48.8353C91.2424 48.9106 94.7409 48.2703 96.0072 48.8353C97.2828 49.4003 95.3694 49.8712 93.7842 49.7959C92.1991 49.7205 85.5021 51.3121 84.7517 52.5081C84.0108 53.7041 80.8592 57.8006 85.0894 61.5204C89.3196 65.2403 93.6154 62.6882 94.9379 61.2567C96.2604 59.8253 98.5772 57.5369 96.4105 53.3839C94.2438 49.2403 86.6652 50.3515 85.1832 53.1673C83.7012 55.983 82.2193 60.8235 88.738 62.5846C95.2568 64.3456 97.2171 56.5763 96.5793 55.6158C95.9415 54.6552 95.4819 51.9053 92.3398 51.2555C89.1976 50.6058 86.562 52.3762 85.7178 53.544C84.8737 54.7117 84.9112 56.1996 85.1832 56.1525C85.4552 56.1055 87.0966 54.6081 89.1039 54.3444C91.1111 54.0807 92.9682 54.561 93.8686 55.4651C94.7691 56.3692 91.3831 57.7535 90.7922 57.7535C90.2013 57.7535 88.2409 58.0643 87.6688 56.5292C87.0966 55.0036 89.0476 54.2973 89.9199 54.4574C89.9199 54.4574 91.777 54.5139 91.9365 55.4368C92.0959 56.3692 91.702 57.697 89.8167 57.5087C87.9408 57.3203 88.3629 55.0884 88.5692 54.9283C88.7849 54.7682 91.0548 54.0525 90.8766 55.3521C90.689 56.6517 88.7005 57.0566 88.6818 55.5122C88.663 53.9678 90.1637 55.2768 89.8167 55.7005C89.4696 56.1243 88.7849 55.305 89.4321 54.6552" stroke="#293D67" stroke-width="0.942716" stroke-miterlimit="10" stroke-linecap="round"/>
<path d="M84.7615 52.4988C84.7615 52.4988 81.9101 56.0491 79.5371 56.3034C77.1735 56.5482 75.0912 55.776 73.356 53.8925C71.6208 52.0091 68.413 49.2121 64.2485 50.9826C60.084 52.753 59.0897 56.0491 60.084 58.8931C61.0688 61.7277 64.6049 64.6754 69.4072 62.8296C71.452 62.0479 72.6525 60.7672 73.2903 59.4676C74.1533 57.7066 73.9844 55.889 73.5061 55.145C72.6619 53.836 72.5494 52.4517 68.6006 51.2839C64.6424 50.1162 60.7312 53.158 60.3372 55.7854C59.9433 58.4223 61.9224 63.404 66.5183 62.8767C71.1049 62.3493 73.431 60.2492 73.1027 57.0662C72.7745 53.8737 72.5869 51.3216 72.2586 50.7566C71.9303 50.1915 71.8553 48.6753 65.1114 48.6188C58.3675 48.5623 58.5082 48.6283 57.664 49.0615C56.8199 49.4947 56.6417 50.6247 55.685 51.3687C54.7283 52.1127 56.0039 51.0108 59.1835 50.5871C62.3632 50.1633 64.83 50.2292 66.0681 50.1256C67.3062 50.022 71.9209 50.5588 72.7932 53.902C73.6655 57.2545 73.9657 58.8272 73.3091 59.4864C72.6525 60.1456 78.1489 53.9585 83.5797 59.6842" stroke="#293D67" stroke-width="0.942716" stroke-miterlimit="10" stroke-linecap="round"/>
<path d="M77.0326 85.3369C74.4157 84.5553 72.5116 84.3763 74.3876 84.8378C76.2635 85.2992 77.464 84.593 79.293 84.3764C81.1314 84.1598 82.6791 84.6212 83.2793 84.5929C83.8796 84.5553 84.2361 83.8866 85.6055 82.9261C86.9843 81.9655 87.1906 79.63 87.6502 79.5547C88.1098 79.4793 88.2505 80.0161 87.0874 80.374C85.9244 80.7319 85.9244 79.9125 85.1928 79.1686C84.4612 78.4246 82.7447 77.2851 81.4034 78.4246C80.0622 79.5641 79.4994 78.7448 79.4994 78.7448C77.0982 77.756 76.3197 77.7842 72.1552 79.7336C67.9907 81.683 67.5311 80.5812 68.591 80.6565C69.6509 80.7319 69.2663 81.0803 70.5795 81.2592C71.8926 81.4381 76.3291 80.7978 77.5953 81.0803C78.871 81.3628 80.2404 81.7866 82.2195 81.1556C84.1985 80.5152 86.7967 80.7413 87.9034 81.0614C89.0196 81.3816 91.0831 85.2898 90.5297 88.6424C89.9763 91.9949 87.1156 92.6353 84.3298 94.6224C81.5535 96.6188 79.2461 97.4099 74.3219 97.57C69.3976 97.7301 64.4734 92.3057 67.9626 94.3775C71.4518 96.4493 73.5997 98.9261 77.1826 98.3705C80.7562 97.8148 85.6805 97.9467 86.6935 97.3063C87.6971 96.6659 91.0362 92.786 93.9532 90.8743C95.4258 89.9137 96.3638 87.2204 96.9172 84.4894C97.4612 81.796 97.6394 79.0556 97.5925 77.8596C97.4893 75.4487 99.0745 71.9737 99.8905 67.6889C100.707 63.3946 100.172 61.1344 99.853 59.0061C99.5341 56.8778 99.4684 55.6724 98.296 55.4934C97.1329 55.3145 95.8573 56.7365 96.8797 56.9814C97.902 57.2262 98.8963 57.8007 100.059 57.2639C101.222 56.7365 100.144 55.9361 99.0369 53.5441C97.9208 51.1521 97.6113 48.2798 97.3205 45.8878C97.0297 43.4958 96.9734 39.3427 97.3205 35.2745C97.6675 31.2062 91.327 24.9813 89.4229 23.3898C87.5189 21.7983 89.498 21.5535 87.5189 22.0337C85.5304 22.514 82.5946 22.6741 80.4467 22.9095C78.2988 23.145 72.8212 24.5858 69.3226 23.3898C65.824 22.1938 68.6098 18.2009 66.8558 20.1974C65.1112 22.1938 66.6213 23.7853 67.5686 23.145C68.5253 22.5046 64.0701 20.0373 62.56 19.7924C61.0499 19.557 60.2526 23.3804 61.3688 23.8607C62.4849 24.341 62.2411 22.0243 60.337 20.5081C58.433 18.9919 57.0823 22.9849 54.2216 24.1809C51.3608 25.3769 47.7028 30.8013 47.7028 32.9578C47.7028 35.1144 47.4683 35.9902 47.7028 41.8948C47.9373 47.7995 48.9784 47.2439 49.6913 44.6824C50.4041 42.1303 47.4683 44.042 45.6393 48.6C43.8103 53.1485 49.5037 55.3522 49.6631 55.3522C49.8226 55.3522 52.1487 55.7477 55.1408 55.9926C58.1328 56.2374 56.8853 57.5558 56.3038 56.972C55.7223 56.3881 56.0693 55.776 58.9301 55.6724C61.7908 55.5688 64.4077 53.5441 64.2295 54.7495M64.2295 54.7495C64.0607 55.9455 64.3139 56.1903 64.7735 56.0867C65.2331 55.9831 63.8919 54.3163 63.376 55.1827C62.8601 56.0491 64.3327 57.1132 65.1769 56.8307C66.021 56.5482 66.6213 55.3804 64.8955 55.0226C63.1696 54.6647 63.3572 56.341 63.3572 56.341C64.0326 58.8837 66.3024 57.9608 66.8183 56.4917C67.3341 55.0226 64.5297 53.5158 63.0102 55.032C61.5001 56.5482 63.6761 58.7613 65.2613 58.1962C66.8464 57.6312 69.8854 57.9796 70.5701 57.8384C71.2548 57.6971 70.9828 57.876 68.7598 56.002C67.306 54.7777 65.5708 54.58 64.2295 54.7495ZM64.2295 54.7495C63.5073 54.8436 62.907 55.0414 62.5131 55.2486C61.3875 55.8513 58.311 57.198 58.311 57.198C58.311 57.198 57.1855 57.3769 53.4243 56.3692C49.6631 55.3616 45.9582 56.793 45.8456 58.5541C45.7331 60.3151 46.9055 61.0497 47.0087 64.035C47.1119 67.0108 48.4156 66.6435 48.6501 69.7513C48.8846 72.859 51.0325 72.0679 50.5542 74.3751C50.0758 76.6918 51.5109 75.0155 52.0643 77.012C52.6177 79.0085 52.0643 81.8808 52.7021 83.3969C53.3399 84.9131 52.2237 86.3446 53.1804 88.1056C54.1372 89.8572 51.4358 86.0338 50.0008 85.158C48.5751 84.2822 45.1516 80.5341 45.2735 79.0179C45.3954 77.5017 44.4387 76.0703 45.7143 74.9496C46.99 73.829 46.127 71.776 45.0484 70.7307C43.9697 69.6853 43.4164 70.4011 43.8947 68.8095C44.3731 67.218 41.3529 68.4611 39.8146 63.9973C38.2764 59.5335 39.1768 56.1903 40.3961 56.0302C41.6155 55.8607 44.1011 56.2374 44.4762 58.2621C44.8514 60.2869 44.7951 62.886 43.5758 62.886C42.3565 62.886 39.7114 58.1491 42.0938 58.2056C44.4762 58.2621 44.5794 65.7583 44.0542 66.1821C43.5289 66.6059 38.1263 63.8937 39.9741 58.5729C41.8218 53.2521 39.2894 53.9961 38.3326 54.6365C37.3759 55.2769 35.7908 55.9737 36.2692 59.0814C36.7475 62.1892 37.6198 63.7053 38.1732 65.1085C38.7266 66.5117 38.7829 67.6889 39.6552 68.753C40.5275 69.8172 41.7468 73.2168 42.7035 74.1021C43.6602 74.9873 44.3449 75.0626 45.0296 75.138C45.7143 75.2133 44.9546 78.6789 44.6826 81.5417C44.42 84.414 40.443 82.7095 39.1768 81.0144C37.9012 79.3098 37.8543 78.3022 38.6985 72.0302C38.6985 72.0302 38.9611 71.5217 38.539 70.7401C38.1169 69.9584 36.8788 67.8301 36.7006 66.7283C36.5224 65.6265 34.8997 66.3045 33.4834 66.5117C32.0671 66.7283 28.5029 67.6229 27.3023 63.4322C26.1017 59.2415 27.1429 63.3569 29.1595 62.4528C31.1761 61.5488 29.1595 63.3569 26.355 60.7766C23.5505 58.1962 23.5505 53.6288 23.8694 53.1956C24.1883 52.7718 26.0924 58.1397 28.5873 57.0755C31.0729 56.0114 30.1725 54.2033 29.9098 53.3557C29.6472 52.5082 26.0455 50.8601 29.272 47.8278C32.4986 44.7954 35.2562 51.444 32.3485 50.6435C29.4315 49.843 28.3716 44.9555 29.8629 43.0908C31.3449 41.2262 30.9228 39.4181 31.5044 39.5782C32.0859 39.7383 30.2287 44.0985 33.8305 44.2586C37.4322 44.4187 33.7273 42.394 31.0729 44.042C28.4185 45.69 34.5715 48.2421 35.8377 47.2345C37.1133 46.2268 36.2129 41.1226 36.9539 39.6253C37.6948 38.1373 34.8904 43.298 32.93 41.3298C30.9697 39.3616 29.2251 34.6812 32.1891 32.3928C35.153 30.1044 34.7872 28.9366 36.0534 28.7765C37.329 28.6164 33.8305 33.0332 34.3557 35.2651C34.881 37.497 36.8976 33.9372 37.9012 33.1933C38.9048 32.4493 42.3002 30.6977 45.7425 30.321C49.1848 29.9443 49.5599 32.5529 41.2966 33.9372C33.0332 35.3216 44.842 31.8654 46.1177 31.4887C47.3933 31.112 50.5167 26.328 49.4005 26.328C48.2843 26.328 42.5722 29.9443 40.8745 29.8407C39.1768 29.7371 35.153 29.464 33.7273 27.185C32.3016 24.8966 33.249 22.8248 36.0065 21.9207C38.7641 21.0166 35.5844 25.8572 41.8875 24.049C48.1905 22.2409 47.2338 15.5358 44.9077 15.5358C42.5816 15.5358 37.8074 17.0237 39.824 22.0808C41.8406 27.1379 48.1905 22.8813 49.5693 21.1202C50.9481 19.3686 44.9077 17.9278 46.3897 13.6241C47.8716 9.32036 49.7757 9.84772 49.1472 11.8724C48.5094 13.8972 49.9445 15.3851 50.7887 15.5923C51.6328 15.7995 52.9647 12.8707 50.8449 10.3468C48.7252 7.823 53.49 5.91128 55.666 6.59874C57.8421 7.28621 57.889 7.76649 55.4034 10.2715C52.9178 12.7671 48.7814 12.0231 49.2598 8.84007C49.7381 5.6476 55.0845 5.80768 55.4034 5.86419C55.7223 5.92069 60.5434 5.92071 59.6429 8.63289C58.7425 11.3451 57.8421 16.4493 61.2843 16.3457C64.7266 16.2421 66.4712 11.9855 64.0888 10.7047C61.7064 9.42395 58.4705 12.7294 57.7858 12.6164C57.1011 12.5034 59.2677 8.41629 61.1718 8.0396C63.0758 7.6629 59.1083 6.97545 60.2714 6.23148C61.4344 5.48751 63.7699 4.68703 64.192 4.31976C64.6141 3.95248 66.7901 0.760009 69.6978 1.23087C72.6148 1.71116 73.3558 3.30268 73.2432 3.67938C73.1401 4.05607 68.9005 3.62288 68.0564 3.73589C67.2122 3.8489 64.1357 6.02429 63.3947 6.92835C62.6538 7.83241 65.9366 8.20912 65.9366 9.69705C65.9366 11.185 67.4748 12.3527 69.5383 11.8254C71.6018 11.298 74.0405 18.2103 69.3226 18.474C64.6047 18.7377 65.0831 13.6335 66.7808 13.2097C68.4784 12.7859 72.1927 17.2026 68.9568 16.7694C65.7115 16.3457 73.0838 13.0496 73.1963 10.1208C73.2995 7.19205 73.6747 4.69646 74.0968 3.95249C74.5189 3.20852 77.4359 -0.228814 80.3154 1.90892C83.1949 4.03723 84.0391 5.98662 81.9193 6.88126C79.7995 7.78532 78.1487 4.22558 79.2274 4.46102C80.306 4.69645 82.0131 11.5711 77.7642 11.6182C73.5153 11.6653 85.0802 14.368 80.3154 16.873C75.5506 19.378 71.3486 13.7936 74.8378 12.089C78.3269 10.3845 81.2065 15.1685 78.2801 15.7806C75.3536 16.3927 74.4063 11.5617 79.9308 11.8913C85.4554 12.2209 85.7837 15.0178 84.0391 14.7824C82.2945 14.547 80.972 10.2338 82.8573 10.4693C84.7425 10.7047 88.3349 14.8766 85.1177 15.0649C81.9099 15.2533 83.1387 7.10729 84.555 7.20147C85.9713 7.29564 87.2 7.7194 87.3876 8.71764C87.5752 9.71587 86.6372 10.846 85.2678 10.1867C83.8984 9.52754 87.6783 8.38803 89.4229 9.09433C91.1675 9.80063 88.1473 7.71941 89.7512 11.2227C91.3551 14.7259 94.8443 10.3186 93.2873 10.1302C91.7303 9.94189 90.1733 10.4128 91.8241 14.6317C93.4749 18.8507 98.099 16.6188 95.9792 14.255C93.8594 11.8819 90.8861 16.4775 94.2815 21.5534C97.6769 26.6294 98.0052 28.0891 99.187 24.6329C100.369 21.1767 94.8912 23.8795 99.3746 28.8048C103.858 33.73 110.133 35.4816 105.321 27.3828C100.51 19.2839 95.5571 26.7236 100.979 32.8354C106.409 38.9472 107.863 32.082 105.368 28.8519C102.864 25.6311 97.827 24.5952 104.59 37.9113C104.59 37.9113 107.038 41.0379 107.056 44.1456C107.075 47.2533 105.64 53.7136 104.055 51.1615C102.47 48.6094 106.362 52.5176 108.107 51.0862C109.852 49.6547 109.533 49.0143 109.223 47.0932C108.904 45.1815 107.479 51.3216 108.191 52.4422C108.904 53.5629 111.371 52.6023 111.924 51.8019C112.478 51.0014 112.478 55.7948 106.841 58.2621C101.204 60.7295 102.151 57.2262 104.064 57.7065C105.968 58.1868 103.352 63.0555 102.554 64.1668C101.757 65.2875 100.172 72.228 100.331 73.2639C100.491 74.2998 99.7779 77.1721 99.5341 77.9726C99.2996 78.7731 99.3183 81.6642 97.9489 83.8772C96.5701 86.0903 98.1084 80.3646 100.012 79.3287C101.916 78.2928 100.885 87.145 100.012 88.4258C99.1401 89.7066 97.3111 90.1021 96.5983 90.7424C95.8854 91.3828 87.4439 99.5194 84.7894 100.16C82.135 100.8 84.5174 99.7642 81.4222 100.64C78.327 101.516 70.0636 102.232 65.2894 98.9638C60.5246 95.696 55.9099 91.4676 54.5592 89.7913C53.2086 88.115 56.4633 92.1833 59.0051 94.8955C61.547 97.6077 64.3327 98.5682 64.5672 99.6795C64.8017 100.8 58.3673 97.8431 57.42 97.6077C56.4726 97.3722 48.6783 89.8666 48.0405 88.7554C47.4026 87.6347 45.3392 85.9114 45.0203 83.7265C44.7013 81.5417 46.8493 85.8831 45.6581 86.919C44.4669 87.9549 42.8817 87.6347 41.4467 89.0756C40.021 90.507 35.3781 94.1798 30.2944 105.537C25.2107 116.894 24.5729 118.684 21.7778 126.98C18.9827 135.277 16.1876 136.812 23.4286 132.979C30.6696 129.146 30.4163 131.444 33.8492 126.34C37.2821 121.236 40.9683 116.762 40.3305 112.807C39.6927 108.852 44.0166 96.0821 46.052 93.6618C48.0874 91.2321 48.0874 93.1533 47.3276 94.0479C46.5679 94.9426 43.2569 114.088 42.7504 118.552C42.2439 123.016 41.8594 126.208 41.6061 132.593C41.3529 138.978 43.8947 140.381 47.7122 138.46C51.5296 136.548 50.0008 129.146 49.8695 127.997C49.7381 126.848 55.9755 129.655 62.71 122.385C62.71 122.385 65.5051 119.578 63.2165 118.684C61.35 117.958 62.6913 121.65 66.8464 122.545C67.7844 122.742 68.863 122.808 70.073 122.639C76.6949 121.744 74.9128 110.133 74.275 110.255C73.6372 110.387 65.7584 109.747 64.8673 109.869C64.8673 109.869 59.0051 120.492 67.8219 121.933C76.6386 123.364 74.9691 120.624 74.0968 120.737C73.2245 120.85 78.5427 126.481 81.244 126.801C83.9453 127.122 90.933 125.681 94.2721 125.05C97.6113 124.409 98.718 126.17 96.8984 122.498C95.0788 118.825 90.6985 111.649 89.4323 111.169C88.1567 110.688 79.9027 110.688 75.8508 111.564C71.7988 112.44 74.4251 110.133 78.5521 108.852C82.6791 107.571 87.9316 101.911 92.0586 97.7678C96.1856 93.6242 95.7166 93.1439 97.6206 91.4676C99.5247 89.7913 101.598 89.311 100.96 91.3075C100.322 93.304 98.1834 96.0161 93.7281 102.872C89.2822 109.728 91.4208 108.777 81.8068 110.208C72.1927 111.639 67.4279 109.652 62.8226 106.855C58.2172 104.059 55.4315 101.506 52.7302 97.4382C50.0289 93.3699 50.4229 93.6901 49.1566 92.0138C47.881 90.3375 47.1588 88.6801 47.3276 90.5824C47.4964 92.4847 48.5188 92.9744 48.5188 95.9314C48.5188 98.879 47.4026 98.879 48.5188 101.28C49.635 103.682 50.0289 101.205 50.104 105.904C50.179 110.613 51.1357 111.564 52.7302 113.24C54.3154 114.917 60.9092 114.192 62.1848 113.796C63.4604 113.401 65.5333 114.427 64.2483 115.632C62.9633 116.838 64.0138 120.096 59.6429 120.181C55.2721 120.256 55.1126 118.429 50.5823 117.704C46.052 116.989 48.1155 120.812 40.0116 121.292C31.9077 121.773 43.1912 120.652 44.4575 118.976C45.7331 117.299 48.4344 114.983 52.3269 114.983C56.2194 114.983 61.622 118.495 59.1552 121.838C56.6884 125.191 53.0491 128.44 47.5527 126.707C42.0563 124.974 39.2894 123.901 38.736 122.639C38.1826 121.377 51.5296 126.227 51.5296 129.495C51.5296 132.763 50.8168 136.737 51.2107 137.339C51.6047 137.942 61.7815 137.066 62.091 133.563C62.4099 130.05 63.3666 129.655 65.1112 129.73C66.8558 129.805 67.0997 133.723 64.1545 133.723C61.2093 133.723 65.8991 132.207 67.3341 132.132C68.7598 132.056 66.7808 138.705 66.4618 139.242C66.1429 139.788 73.4496 140.268 76.4698 134.919C79.49 129.57 80.3623 127.743 82.8291 127.498C85.2959 127.263 80.9251 134.825 80.5218 137.339C80.1184 139.854 95.6134 135.635 97.4424 135.07C99.2714 134.514 103.004 134.269 106.578 135.71C110.152 137.151 113.566 140.654 114.129 140.814C114.682 140.974 117.702 131.397 117.702 130.521C117.702 129.645 119.128 106.827 117.702 103.475C116.277 100.122 111.427 88.0774 105.706 83.6889C99.9843 79.3004 97.6019 75.8725 103.239 79.9408C108.876 84.0091 114.523 97.7301 114.523 97.7301C114.523 97.7301 114.598 103.315 121.173 108.099C127.748 112.883 133.357 114.267 133.779 115.858C134.201 117.45 126.256 111.818 125.196 109.907" stroke="#293D67" stroke-width="0.942716" stroke-miterlimit="10" stroke-linecap="round"/>
<path d="M29.4971 107.242C29.4971 107.242 27.8463 108.409 24.6667 110.218C22.3405 111.536 18.6731 114.06 16.2907 116.358C15.4185 117.205 14.7056 118.015 14.3117 118.731C12.8016 121.387 27.7525 109.69 29.4971 107.242Z" stroke="#293D67" stroke-width="0.942716" stroke-miterlimit="10" stroke-linecap="round"/>
</svg>
