<svg width="147" height="142" viewBox="0 0 147 142" fill="none" xmlns="http://www.w3.org/2000/svg">
<path d="M83.8763 55.6779C83.8763 55.6779 82.7346 59.5034 86.3125 59.1154C89.8903 58.7365 90.4207 58.123 90.4207 58.123C90.4207 58.123 88.5958 57.7441 87.4542 58.4298C86.3125 59.1155 88.9734 58.962 90.4207 59.6568C91.8681 60.3515 93.5401 60.1169 94.6818 59.1967C95.8235 58.2764 96.7405 56.7516 96.2011 54.7667C95.6617 52.7818 93.9896 47.8916 93.9896 46.2857C93.9896 44.6797 93.8368 41.2421 94.6728 40.3219C95.5089 39.4016 98.1788 38.7159 100.309 38.7159C102.44 38.7159 102.97 37.2633 104.121 38.7159C105.263 40.1685 106.027 42.0812 105.487 43.5338C104.957 44.9864 104.651 41.3955 102.826 40.782C101.002 40.1685 95.8235 40.782 95.5179 41.5489C95.2122 42.3158 94.529 44.4541 95.0594 44.833C95.5898 45.212 96.7315 42.7669 99.4014 42.7669C102.071 42.7669 104.49 44.4541 103.582 45.6721C102.665 46.8992 99.7969 47.1969 97.9181 46.033C95.6887 44.6436 96.9832 44.1022 98.044 43.3353C99.1047 42.5684 102.062 42.7669 101.46 44.0661C100.849 45.3654 99.1766 44.9594 98.5743 44.6526C96.9922 43.8496 100.013 43.4797 101.235 43.5519C102.458 43.624 106.189 45.212 106.494 44.3639C106.8 43.5248 106.422 36.343 106.494 34.4303C106.566 32.5175 107.483 24.8756 106.269 23.0441C105.047 21.2125 102.233 17.4682 101.469 17.2337C100.705 16.9991 96.8214 15.0954 92.6322 16.8547C88.443 18.6141 88.3711 18.9208 86.2316 19.6065C84.092 20.2922 79.5343 19.8321 76.7115 21.2847C73.8888 22.7373 68.6388 27.3207 64.7553 33.2032C60.8718 39.0858 60.9437 38.7069 60.8718 39.0858C60.7998 39.4647 62.9304 43.6692 62.7776 50.2465C62.6247 56.8238 62.1663 56.7426 62.1663 56.7426C62.1663 56.7426 61.2493 53.0705 60.8718 52.9171C60.4942 52.7637 60.7189 56.2012 61.6359 57.8884C62.5528 59.5666 61.4111 58.5741 59.9638 59.7199C58.5165 60.8658 57.6804 61.5515 57.3748 61.786C57.0691 62.0116 52.6552 62.6883 52.4215 62.6161C52.1967 62.5439 53.4103 68.8867 56.305 71.9452C59.1997 75.0038 65.5913 78.9736 67.8837 79.515C70.176 80.0563 75.7227 81.3465 78.7702 82.8803C81.8176 84.4051 85.0899 83.7194 86.7619 82.8803C88.434 82.0413 87.7508 80.3541 87.5261 80.3541C87.3013 80.3541 87.0676 82.4924 88.8925 82.7269C90.7174 82.9525 94.0705 81.5811 95.1403 79.4428C96.2101 77.3045 98.6463 74.4715 99.4823 72.4144C100.318 70.3573 101.847 66.9108 101.154 66.7574C100.462 66.604 95.5988 67.7498 93.7649 68.0566C91.931 68.3633 89.6566 67.831 88.2093 67.3709C86.762 66.9107 80.2085 68.2912 79.6421 67.6777C79.0758 67.0642 79.4084 66.3063 79.5073 66.2251C79.6062 66.1529 78.6173 68.2912 83.0312 66.9108C87.4452 65.5394 88.5868 64.998 89.5038 65.386C90.4207 65.7739 91.023 66.4596 91.6343 66.3784C92.2456 66.3062 92.5513 65.386 93.0817 65.4582C93.6121 65.5303 94.7807 65.4221 95.365 66.5318C95.9494 67.6325 94.2953 68.5979 94.1425 69.0581C93.9896 69.5182 94.2953 71.2776 92.1647 71.4309C90.0342 71.5843 87.0586 71.6565 86.7619 71.6565" stroke="#293D67" stroke-width="1.16316" stroke-miterlimit="10" stroke-linecap="round"/>
<path d="M101.163 66.7576C101.163 66.7576 101.819 64.9803 102.835 62.6254C103.851 60.2616 105.271 58.2225 105.271 55.3714C105.271 52.5204 105.047 47.0528 105.523 45.8438C106 44.6348 106.791 43.8589 107.609 40.8003C108.418 37.7417 109.946 35.9102 109.541 29.6938C109.137 23.4774 107.015 20.2023 105.388 19.9136C103.761 19.6248 104.975 17.261 104.363 15.5287C103.752 13.7964 100.911 12.1634 99.5899 10.4311C98.2684 8.69878 94.7175 6.0462 89.7372 3.9079C84.766 1.7696 77.9608 -0.476951 69.7353 2.27487C61.5098 5.02669 55.217 5.33344 53.9944 6.14545C52.7718 6.95746 45.3643 11.9559 42.0112 20.7166C38.6581 29.4773 38.1546 32.0306 38.3524 36.9207C38.5592 41.8108 38.5592 44.1566 37.4355 46.0874C36.3118 48.0182 33.2733 51.5911 34.388 56.6887C35.5027 61.7863 35.3049 54.9564 35.5027 54.1444C35.7095 53.3324 36.3118 57.7082 36.9231 59.9548C37.5344 62.1923 33.471 62.0931 33.5699 67.9035C33.6688 73.7139 30.8281 77.2777 32.1496 82.0686C33.471 86.8595 36.2129 89.6113 36.2129 89.6113C36.2129 89.6113 39.9705 80.237 38.4423 77.0792C36.9141 73.9214 36.7163 73.7139 37.4265 70.4568C38.1367 67.1997 37.3276 71.4763 38.6491 73.4161C39.9705 75.3559 41.8943 77.386 44.4384 75.8612C46.9735 74.3364 43.2158 67.8133 43.7282 66.893C44.2316 65.9727 44.1327 74.0297 46.3712 74.5349C48.6006 75.0402 53.9854 71.8823 55.4058 72.7034C56.8261 73.5244 51.1447 74.4357 50.2277 74.9409C49.3108 75.4462 61.1951 86.4534 67.7935 88.3932C67.7935 88.3932 69.6184 88.3933 72.2614 86.5617C74.9043 84.7302 76.5225 84.8294 76.936 85.5422C77.3495 86.255 73.3851 88.3933 74.5987 89.6203C75.8213 90.8473 90.1328 91.9661 91.2475 89.6203C92.3622 87.2745 90.9868 82.6099 91.8678 82.1859C92.7488 81.7618 92.0656 88.5015 92.6679 90.0353C93.2792 91.5601 93.1713 92.0744 94.7984 93.2924C96.4255 94.5195 99.0595 91.6594 99.0595 96.1435C99.0595 100.628 93.5758 103.172 92.6589 101.954C91.7419 100.727 93.5758 96.2517 91.7419 96.2517C89.917 96.2517 86.3571 96.351 86.1594 97.0637C85.9526 97.7765 89.4046 101.034 89.7103 102.973C90.0159 104.913 86.7617 99.2021 84.6311 103.993C82.5006 108.784 83.4085 112.149 84.73 113.575C86.0515 115 90.5193 113.475 90.825 108.685C91.1306 103.894 87.5797 98.0833 83.3096 96.0533C79.0486 94.0142 80.0644 92.8954 79.0485 94.0142C78.0327 95.133 75.0931 98.0923 77.3225 102.062C79.552 106.032 91.6341 104.408 94.0792 103.388C96.5154 102.369 98.7629 95.4127 97.4324 94.5195C96.1019 93.6263 94.277 95.0247 93.3691 97.2713C92.4611 99.5179 90.5283 108.685 93.3691 111.03C96.2098 113.376 99.1584 119.999 105.244 119.286C105.244 119.286 106.566 118.059 105.343 113.376C104.121 108.685 102.386 103.109 99.8596 100.745C97.3335 98.381 99.9585 98.5073 101.891 100.339C103.824 102.17 115.6 110.579 127.323 125.25C139.045 139.92 114.378 135.49 114.378 135.49C114.378 135.49 108.481 121.424 106.863 120.359C105.244 119.295 103.419 121.433 106.161 125.556C108.903 129.68 114.081 140.84 114.081 140.84C114.081 140.84 101.81 120.973 101.747 119.899C101.684 118.826 95.2029 115.632 94.1332 114.865C93.0634 114.098 93.2162 118.528 93.8275 120.359C94.4388 122.191 100.372 131.674 101.136 132.585C101.9 133.505 90.0159 116.534 89.2608 115.767C88.4967 115 84.9997 114.847 86.3661 116.381C87.7326 117.905 100.983 132.639 101.747 134.822C102.512 137.015 77.3765 109.497 76.927 107.512C76.4775 105.527 77.4304 103.488 76.3157 102.775C75.201 102.062 73.3671 102.369 73.3671 101.349C73.3671 100.33 73.8705 97.8848 72.7558 96.8653C71.6411 95.8458 64.1257 91.4609 63.8201 91.3616C63.5144 91.2624 50.1109 82.3934 47.2701 77.7108C44.4294 73.0192 43.5125 76.592 44.834 78.9378C46.1554 81.2836 64.1257 98.2006 70.1128 103.289C76.0999 108.387 76.3067 105.635 68.6925 98.2998C61.0782 90.9646 56.3047 87.0941 54.2731 85.7678C52.2414 84.4415 43.926 78.3333 42.5955 79.2446C41.2651 80.1649 39.548 85.867 39.548 87.8068C39.548 89.7466 40.5099 98.4442 42.191 102.369C43.8631 106.294 46.0026 111.49 66.4091 121.28C86.8156 131.06 83.1658 129.689 75.8482 131.674C68.5397 133.658 64.5752 138.242 63.2088 137.177C61.8424 136.103 50.5693 117.761 45.5441 113.484C40.5189 109.208 26.9625 97.2803 26.504 96.369C26.0456 95.4488 36.3028 90.5045 37.9299 89.1512C39.557 87.7978 26.3512 96.369 22.7014 99.7253C19.0516 103.082 16.7593 105.229 16.7593 105.843" stroke="#293D67" stroke-width="1.16316" stroke-miterlimit="10" stroke-linecap="round"/>
<path d="M106.494 44.373C106.494 44.373 106.8 45.3926 107.816 49.2632C108.832 53.1338 109.847 61.4885 107.816 64.8538C105.784 68.2191 103.86 69.6447 101.622 70.1499C99.3924 70.6552 101.622 67.6688 101.622 67.6688" stroke="#293D67" stroke-width="1.16316" stroke-miterlimit="10" stroke-linecap="round"/>
<path d="M89.5936 38.7615C89.3418 38.7615 84.8201 36.6683 81.6197 35.5495C78.4194 34.4307 74.2123 33.718 71.2097 36.2081C68.2162 38.7073 71.4614 34.8367 76.7474 35.5495C82.0243 36.2623 82.7345 39.2216 84.5144 40.3855C86.2944 41.5584 89.5936 40.7915 89.5936 39.772C89.5936 38.7524 84.4695 41.1975 83.8582 41.4501C83.2469 41.7028 80.8107 40.7915 79.5162 40.6832C78.2217 40.575 76.5586 40.3223 73.6639 41.7569C70.7602 43.1824 73.61 42.2621 75.1292 42.4696C76.6485 42.6771 77.2598 43.8411 78.7341 43.8952C80.2084 43.9493 82.3389 43.8952 81.7276 42.3163C81.1163 40.7374 77.5295 40.3043 76.8552 41.5494M76.8552 41.5494C76.181 42.7945 78.4824 43.9403 80.0556 42.2621M76.8552 41.5494C77.925 41.5494 81.6287 40.584 80.0556 42.2621M76.8552 41.5494C75.7855 41.5494 79.6241 42.6952 80.0556 42.2621" stroke="#293D67" stroke-width="1.16316" stroke-miterlimit="10" stroke-linecap="round"/>
<path d="M59.3885 14.2114C59.3885 14.2114 52.5833 16.5572 50.255 30.0096C47.9177 43.4619 41.1215 42.2349 45.6883 36.1267C50.255 30.0186 43.9622 40.8183 43.4588 44.3822C42.9554 47.946 40.4113 50.6978 44.9781 55.3895C49.5448 60.0811 51.7832 60.1803 48.8346 63.3382C45.886 66.496 40.5102 68.6343 42.7396 62.0119C44.9691 55.3894 43.6566 71.9004 43.7555 74.8507C43.8544 77.801 46.3984 74.8507 46.3984 74.8507" stroke="#293D67" stroke-width="1.16316" stroke-miterlimit="10" stroke-linecap="round"/>
<path d="M101.244 43.5522C101.244 43.5522 101.73 44.4906 100.885 44.7252C100.04 44.9597 98.5833 43.9222 98.5833 43.9222" stroke="#293D67" stroke-width="1.16316" stroke-miterlimit="10" stroke-linecap="round"/>
</svg>
