<svg width="32" height="30" viewBox="0 0 32 30" fill="none" xmlns="http://www.w3.org/2000/svg">
<path d="M7.38966 8.82723C7.21482 8.60343 6.98635 8.29804 6.87912 8.15117C6.77421 8.0043 6.62268 7.77818 6.54109 7.64996C6.46183 7.52174 6.32196 7.26997 6.23337 7.09046C6.14478 6.91096 6.03755 6.65453 5.99325 6.51931C5.94896 6.3841 5.89068 6.16031 5.86271 6.0181C5.83473 5.87823 5.80676 5.62646 5.79976 5.45861C5.79277 5.27677 5.77412 5.1299 5.75547 5.09261M7.38966 8.82723L7.38822 15.3904M7.38966 8.82723C7.5645 9.05102 7.78363 9.35175 7.87921 9.49163M7.38966 8.82723L8.69747 11.4382M5.75547 5.09261C5.73682 5.05531 5.68786 5.00635 5.64823 4.98071M5.75547 5.09261L5.49545 5.22261L5.64823 4.98071M5.75547 5.09261L5.49545 5.22262L5.49245 5.22736L5.48521 5.23884L5.47339 5.25754L5.4725 5.25895L5.47186 5.25996L5.38124 5.40345C5.40114 5.41602 5.41626 5.42258 5.42316 5.42536C5.43082 5.42845 5.43597 5.42993 5.4386 5.43062C5.44137 5.43134 5.44445 5.432 5.44851 5.43257C5.45221 5.43309 5.46055 5.43408 5.47339 5.43408C5.46762 5.43408 5.51377 5.4351 5.573 5.4099C5.58912 5.40304 5.60264 5.39569 5.61311 5.38931L5.48992 5.22538L5.4902 5.22494L5.64823 4.98071M5.64823 4.98071C5.60394 4.95273 5.52934 4.93408 5.47339 4.93408C5.39413 4.93408 5.35683 4.9504 5.29156 5.01101C5.24493 5.05064 5.19598 5.12291 5.18199 5.1672C5.16334 5.22549 5.16334 6.90863 5.17733 11.0372M5.17733 11.0372C5.18581 13.3537 5.19059 15.3638 5.18986 16.286C5.20421 16.2916 5.21779 16.2971 5.23039 16.3024L5.24209 16.3074L5.24202 16.3075C5.26344 16.3173 5.28361 16.3259 5.30038 16.3329C5.30328 15.5427 5.30442 14.399 5.30442 12.7623C5.30442 12.1571 5.30465 11.5758 5.30506 11.0368L5.17733 11.0372ZM5.17733 11.0372L5.30506 11.0368C5.30561 10.3372 5.30648 9.7088 5.30763 9.19124C5.30865 8.73314 5.30989 8.36145 5.31132 8.10407C5.31203 7.97555 5.31279 7.87464 5.31361 7.80544C5.31401 7.77119 5.31445 7.7429 5.31494 7.72238C5.31517 7.71279 5.3155 7.70124 5.31603 7.69048C5.31622 7.68644 5.31679 7.67484 5.31814 7.66112L5.31817 7.66082C5.31865 7.65592 5.32056 7.63639 5.3253 7.61225L5.32537 7.6119C5.32714 7.60285 5.33406 7.56762 5.35071 7.52529C5.36132 7.50033 5.39644 7.43634 5.42318 7.39898C5.46192 7.3575 5.56305 7.29457 5.6676 7.25174M5.6676 7.25174C5.66787 7.532 5.66837 7.84298 5.66909 8.18612C5.69011 8.19259 5.7148 8.19866 5.74262 8.2028C5.74364 8.20295 5.74466 8.2031 5.74569 8.20325C5.76584 8.20612 5.78761 8.20796 5.81079 8.20821C5.81086 8.19238 5.81094 8.1769 5.81102 8.16176C5.81102 8.16115 5.81102 8.16054 5.81103 8.15993C5.81252 7.86997 5.81422 7.70824 5.81608 7.70824C5.82307 7.70824 5.91632 7.85044 6.02589 8.02529M5.6676 7.25174C5.66753 7.18484 5.66748 7.11969 5.66744 7.05627M5.6676 7.25174C5.69289 7.24137 5.71839 7.23219 5.74325 7.22476M6.02589 8.02529C6.04213 8.05086 6.06032 8.079 6.07997 8.10895C6.12678 8.08278 6.16704 8.05556 6.19326 8.03255C6.17467 8.00427 6.1572 7.97746 6.14138 7.95291L6.02589 8.02529ZM6.02589 8.02529L6.14093 7.95222C6.1333 7.94039 6.12606 7.92908 6.11926 7.9184L6.11576 7.91289L6.11579 7.91287C6.03667 7.78487 5.90995 7.55804 5.81608 7.37369C5.80524 7.3524 5.79484 7.33168 5.785 7.31174C5.77143 7.28425 5.75744 7.25507 5.74325 7.22476M5.74325 7.22476C5.76847 7.21723 5.79304 7.21152 5.81608 7.20824C5.87081 7.20824 5.91792 7.21721 5.95493 7.22788C5.98526 7.23662 6.0088 7.2465 6.02419 7.25353C6.06274 7.27114 6.0912 7.29009 6.10725 7.30153C6.13905 7.3242 6.16125 7.34572 6.17037 7.35476C6.19058 7.37479 6.20526 7.39274 6.21083 7.3996C6.22434 7.41624 6.23622 7.43266 6.24371 7.44318C6.26032 7.46652 6.2799 7.49558 6.29985 7.5258C6.33476 7.57871 6.37855 7.64696 6.42547 7.72143C6.42579 7.72193 6.42611 7.72243 6.42642 7.72293C6.43379 7.73463 6.44124 7.74648 6.44874 7.75845C6.52796 7.8831 6.65727 8.07371 6.76944 8.22952C6.76971 8.2299 6.76998 8.23028 6.77026 8.23066C6.80453 8.27824 6.83718 8.32255 6.8663 8.3607C6.92285 8.43481 6.99537 8.53062 7.07299 8.63319C7.14155 8.72377 7.21409 8.81962 7.28314 8.91044C7.33046 8.97266 7.37614 9.03253 7.41779 9.08673L7.41982 9.08937L7.41981 9.08937C7.52767 9.23169 7.65604 9.41079 7.76306 9.56779L7.87921 9.49163M5.74325 7.22476C5.71812 7.17108 5.69241 7.11387 5.66744 7.05627M7.87921 9.49163L7.76455 9.56998C7.82862 9.66403 7.88494 9.75003 7.92449 9.81528C7.97062 9.8914 8.02242 9.9818 8.07079 10.0699L8.1916 10.0045M7.87921 9.49163C7.97246 9.63383 8.11467 9.86462 8.1916 10.0045M8.1916 10.0045L8.07125 10.0707C8.12704 10.1723 8.17823 10.2707 8.21084 10.3404C8.23954 10.4017 8.27307 10.4829 8.30596 10.5678L8.43405 10.5174M8.1916 10.0045C8.26853 10.1467 8.3781 10.3775 8.43405 10.5174M8.43405 10.5174L8.30624 10.5685C8.34546 10.6697 8.38375 10.7762 8.41184 10.8605C8.42857 10.9107 8.44656 10.9693 8.46415 11.0311C8.46438 11.0319 8.4646 11.0327 8.46482 11.0335C8.50347 11.1694 8.54008 11.3201 8.55708 11.4289C8.55881 11.4394 8.56049 11.4503 8.56214 11.4616C8.56217 11.4618 8.5622 11.462 8.56222 11.4622C8.58529 11.6205 8.60005 11.8508 8.60066 12.0327C8.60067 12.0366 8.60068 12.0405 8.60068 12.0443C8.60068 12.2012 8.58896 12.4181 8.57029 12.5831L8.70913 12.6038M8.43405 10.5174C8.49 10.6596 8.56459 10.874 8.59723 10.9953C8.6322 11.1165 8.67649 11.317 8.69747 11.4382M8.70913 12.6038L8.56996 12.586C8.56627 12.6184 8.56232 12.6487 8.55813 12.6762C8.54699 12.756 8.5296 12.8533 8.51056 12.947L8.64619 12.9768M8.70913 12.6038C8.72312 12.4942 8.73711 12.2378 8.73711 12.0327C8.73711 11.7902 8.72312 11.5827 8.69747 11.4382M8.70913 12.6038C8.69281 12.7134 8.66484 12.8812 8.64619 12.9768M8.64619 12.9768L8.50991 12.9502C8.4921 13.0377 8.4729 13.1218 8.45606 13.1854C8.44552 13.2259 8.43223 13.2733 8.41748 13.3234C8.41741 13.3237 8.41735 13.3239 8.41728 13.3241C8.38457 13.4352 8.34474 13.5591 8.31181 13.6489C8.2986 13.6855 8.28117 13.7292 8.26101 13.7771C8.26091 13.7774 8.26081 13.7776 8.26071 13.7778C8.20031 13.9213 8.11546 14.102 8.04552 14.2401C8.0362 14.2585 8.02608 14.2782 8.01529 14.2988L8.13798 14.3639M8.64619 12.9768C8.62521 13.0724 8.58324 13.2472 8.55061 13.3615L8.69747 11.4382M8.13798 14.3639L8.01453 14.3003C7.91195 14.4967 7.74937 14.7845 7.63315 14.9804C7.63052 14.9848 7.62789 14.9893 7.62526 14.9937C7.62509 14.994 7.62491 14.9943 7.62473 14.9946C7.56564 15.0943 7.50799 15.193 7.46226 15.2729C7.43824 15.3148 7.41826 15.3503 7.40339 15.3774C7.39736 15.3884 7.39301 15.3964 7.39002 15.4021C7.38885 15.4059 7.38777 15.4098 7.38689 15.4134C7.38616 15.4163 7.38581 15.418 7.38572 15.4185C7.38565 15.4188 7.38572 15.4185 7.38587 15.4175C7.38607 15.4163 7.38658 15.4129 7.3871 15.4076M8.13798 14.3639C8.21724 14.21 8.33147 13.9699 8.38742 13.8277L7.3871 15.4076M8.13798 14.3639C8.05639 14.5177 7.87921 14.8325 7.744 15.0633C7.61112 15.294 7.46426 15.5225 7.42229 15.5715M7.3871 15.4076C7.38712 15.4073 7.38715 15.4071 7.38717 15.4069C7.38751 15.4033 7.38796 15.3977 7.38822 15.3904M7.3871 15.4076C7.38533 15.4109 7.38455 15.4124 7.38452 15.4124C7.3845 15.4124 7.38489 15.4116 7.38559 15.41L7.31506 15.378L7.2459 15.3465L7.20455 15.3718L7.19953 15.3749L7.1978 15.3759L7.1999 15.3778L7.20014 15.378L7.20578 15.3829L7.42229 15.5715M7.38822 15.3904C7.38836 15.3867 7.38844 15.3825 7.38844 15.378C7.38844 15.3524 7.38571 15.3355 7.38478 15.3301C7.38359 15.3233 7.38249 15.3193 7.38198 15.3175C7.38144 15.3157 7.38047 15.3127 7.37847 15.3078C7.37682 15.3039 7.37179 15.2923 7.36171 15.2758L7.25996 15.3379L7.35779 15.378L7.38822 15.3904ZM7.2489 15.3334L7.35485 15.2649C7.34409 15.2482 7.33571 15.2386 7.3332 15.2358C7.32999 15.2322 7.32802 15.2303 7.32706 15.2295C7.32614 15.2286 7.32367 15.2264 7.31885 15.2229C7.31504 15.2202 7.3027 15.2114 7.28223 15.2012C7.26264 15.1914 7.23894 15.1835 7.21396 15.1797C7.20049 15.1777 7.18986 15.1775 7.18297 15.1776L7.2489 15.3334ZM7.2489 15.3334L7.22168 15.3223L7.19797 15.3126L7.19113 15.3098L7.06049 15.2563L7.04587 15.2436C7.05491 15.2357 7.07153 15.2225 7.09448 15.2097C7.12892 15.1905 7.15918 15.1821 7.17422 15.1788C7.17626 15.1783 7.17802 15.178 7.17947 15.1777L7.2489 15.3334ZM7.42229 15.5715L7.20615 15.3862L7.20034 15.3812L7.19656 15.378L7.19569 15.3772L7.05862 15.6484C7.10991 15.674 7.16586 15.6834 7.23813 15.674C7.32205 15.6647 7.35935 15.6437 7.42229 15.5715ZM7.19158 15.3705L7.19839 15.3661L7.20042 15.3648L7.20043 15.3648L7.20355 15.3628L7.23576 15.3419L7.21629 15.3331L7.19158 15.3705ZM7.19158 15.3705L7.07469 15.2687L7.19158 15.3705ZM8.06338 12.6038L8.19986 12.625C8.18564 12.7136 8.16871 12.8123 8.15654 12.8754C8.14406 12.9318 8.12453 13.0146 8.10476 13.0928L7.97251 13.0584L8.1046 13.0935C8.09258 13.141 8.08048 13.1869 8.06984 13.2241L8.06913 13.2266C8.05029 13.2939 8.00958 13.4132 7.96862 13.5236L6.47225 8.44179L6.47223 8.44181L6.47531 8.44602C6.50231 8.48301 6.5367 8.52964 6.57587 8.58235C6.69591 8.74391 6.86084 8.9625 6.99564 9.13505C7.03815 9.18946 7.08341 9.24864 7.12876 9.30882C7.12894 9.30906 7.12912 9.3093 7.1293 9.30954C7.26249 9.4863 7.3964 9.67157 7.46374 9.76984C7.50693 9.83584 7.56046 9.92073 7.61188 10.0047C7.66595 10.0931 7.71769 10.1805 7.75265 10.2439C7.78982 10.3127 7.83609 10.406 7.87832 10.496C7.91426 10.5726 7.94728 10.6469 7.96929 10.7018C8.00089 10.7822 8.03789 10.8851 8.06792 10.9751C8.08755 11.0339 8.1042 11.0873 8.11442 11.1253L8.11435 11.1253L8.11682 11.1338C8.14263 11.2233 8.17755 11.3776 8.19795 11.4857L8.06338 11.5081M8.06338 12.6038L8.20022 12.6227C8.20517 12.5918 8.20977 12.5623 8.21372 12.5359C8.22377 12.4528 8.23657 12.2318 8.23709 12.0443C8.2371 12.0404 8.23711 12.0365 8.23711 12.0327C8.23711 11.8037 8.22352 11.629 8.20516 11.5255L8.20479 11.5235L8.2048 11.5235C8.20285 11.5122 8.20066 11.5001 8.19826 11.4874L8.06338 11.5081M8.06338 12.6038C8.08436 12.4686 8.10068 12.2168 8.10068 12.0443C8.10068 11.8648 8.08436 11.634 8.06338 11.5081M8.06338 12.6038L7.75799 10.5523C7.80928 10.6619 7.88854 10.8717 7.93749 11.0186C7.98645 11.1654 8.04473 11.3869 8.06338 11.5081M5.80923 8.60225C5.75958 8.53005 5.7117 8.45891 5.66955 8.39485C5.67123 9.13177 5.67384 10.0077 5.67732 11.0354L5.80923 8.60225ZM5.80923 8.60225C5.80621 9.51598 5.80442 11.0419 5.80442 12.7623C5.80442 16.807 5.79743 17.8467 5.77412 17.9773M5.80923 8.60225L5.67732 11.0355C5.67952 11.6363 5.68147 12.2164 5.68314 12.7623C5.6859 13.6625 5.68789 14.4697 5.68898 15.1227C5.68986 15.6473 5.69015 16.0728 5.68978 16.3674C5.6896 16.5145 5.68925 16.6297 5.68872 16.7086C5.68846 16.7477 5.68815 16.7794 5.68775 16.802C5.68756 16.8128 5.68731 16.8247 5.68689 16.8352C5.68673 16.8394 5.68631 16.85 5.6853 16.8623C5.68498 16.8662 5.68358 16.8838 5.67991 16.9057L5.67984 16.9061C5.6785 16.914 5.6732 16.9457 5.66015 16.9841C5.6516 17.0073 5.62233 17.0687 5.59946 17.1055C5.55751 17.1568 5.42443 17.2455 5.29439 17.2937M5.77412 17.9773L5.28383 17.8792C5.28315 17.8826 5.28226 17.8865 5.28118 17.8909M5.77412 17.9773C5.75547 18.0705 5.69952 18.2291 5.64124 18.3503C5.58529 18.4668 5.48272 18.6254 5.41511 18.7023C5.34751 18.7816 5.22861 18.9004 5.15168 18.9681M5.77412 17.9773L5.2819 17.8894C5.28138 17.8923 5.28116 17.8931 5.28118 17.8909M5.28118 17.8909C5.28119 17.8889 5.28141 17.8843 5.28179 17.8766C5.28307 17.8504 5.28611 17.7878 5.28881 17.6652C5.2909 17.57 5.29275 17.4481 5.29439 17.2937M5.28118 17.8909C5.26914 17.9395 5.23277 18.0459 5.19061 18.1336L5.19048 18.1339C5.15057 18.2171 5.07182 18.3355 5.03953 18.3722L5.03949 18.3722L5.03469 18.3778C4.98446 18.4367 4.88281 18.5387 4.82163 18.5925L5.15168 18.9681M5.29439 17.2937C5.25751 17.3074 5.22089 17.3179 5.18665 17.3233C5.13106 17.3233 5.08707 17.3135 5.07869 17.3117L5.07785 17.3115C5.0623 17.3081 5.04974 17.3046 5.04274 17.3026C5.02816 17.2984 5.01544 17.2941 5.00729 17.2913C4.98985 17.2852 4.97134 17.2782 4.95398 17.2714C4.92028 17.2581 4.87895 17.2408 4.83545 17.2212M5.29439 17.2937C5.29575 17.1645 5.29696 17.0126 5.29802 16.8346C5.2989 16.6868 5.29968 16.5214 5.30036 16.3366C5.29759 16.3359 5.2946 16.3353 5.29143 16.3346C5.28445 16.333 5.27313 16.3307 5.25895 16.3286C5.25229 16.3276 5.24378 16.3265 5.23382 16.3256C5.2329 16.3255 5.23197 16.3254 5.23102 16.3253C5.22801 16.325 5.22467 16.3248 5.22102 16.3245C5.21226 16.3239 5.20174 16.3234 5.18983 16.3233C5.18981 16.3492 5.18978 16.3742 5.18974 16.3982C5.18973 16.4065 5.18972 16.4146 5.1897 16.4226C5.18928 16.6811 5.18828 16.8233 5.18665 16.8233C5.17966 16.8233 5.11205 16.7977 5.03512 16.7627C4.96231 16.7318 4.82268 16.6863 4.71505 16.6578C4.7144 16.6594 4.71382 16.661 4.71332 16.6623C4.70008 16.7013 4.69488 16.7331 4.69372 16.74C4.69015 16.7613 4.68886 16.7779 4.68864 16.7806L4.68783 16.7924L4.68765 16.7963C4.68764 16.7967 4.68769 16.7951 4.68778 16.7908C4.68782 16.7892 4.68786 16.7871 4.6879 16.7846C4.6882 16.7675 4.68849 16.7402 4.68875 16.7019C4.68878 16.6966 4.68882 16.6912 4.68885 16.6857L4.57422 17.1378C4.57395 17.1377 4.57367 17.1377 4.5734 17.1376M4.83545 17.2212C4.78566 17.2007 4.66445 17.1609 4.5734 17.1376M4.83545 17.2212C4.83304 17.2201 4.83063 17.219 4.82822 17.2179L5.03512 16.7627L4.83985 17.223C4.83845 17.2224 4.83698 17.2218 4.83545 17.2212ZM4.5734 17.1376L4.68885 16.6854C4.68892 16.6746 4.68898 16.6632 4.68904 16.6511C4.52832 16.611 4.42826 16.6042 4.10263 16.6065M4.5734 17.1376C4.51278 17.1223 4.47564 17.1158 4.42333 17.1117C4.36035 17.1069 4.27254 17.1053 4.10645 17.1065M4.10263 16.6065C3.79724 16.6089 3.65037 16.6205 3.46154 16.6601C3.32633 16.6858 3.1072 16.7464 2.97199 16.793C2.83678 16.8373 2.63396 16.9236 2.5174 16.9795M4.10263 16.6065L4.10615 17.1065C4.10625 17.1065 4.10635 17.1065 4.10645 17.1065M4.10263 16.6065L4.10645 17.1065M2.5174 16.9795C2.40317 17.0378 2.219 17.1427 2.10944 17.215C1.99987 17.2872 1.81803 17.4411 1.70147 17.5577M2.5174 16.9795L2.73376 17.4303C2.73556 17.4294 2.73738 17.4285 2.73923 17.4277M2.5174 16.9795L2.74464 17.4249C2.74285 17.4258 2.74105 17.4267 2.73923 17.4277M1.70147 17.5577C1.58724 17.6742 1.45669 17.8281 1.41706 17.898C1.3751 17.9656 1.31216 18.0915 1.27719 18.1754C1.21891 18.313 1.21191 18.3526 1.21191 18.6067C1.21191 18.8795 1.21425 18.8935 1.29118 19.0496C1.34013 19.1499 1.42172 19.2618 1.50099 19.341C1.57325 19.4133 1.69914 19.5089 1.78306 19.5555C1.86699 19.6021 2.0022 19.6628 2.08612 19.6907M1.70147 17.5577L2.05502 17.9112C2.05561 17.9106 2.05619 17.91 2.05678 17.9095M1.70147 17.5577L2.05858 17.9076C2.05798 17.9082 2.05738 17.9088 2.05678 17.9095M2.08612 19.6907C2.17005 19.7164 2.34256 19.756 2.47077 19.7747C2.63396 19.8003 2.79248 19.8073 2.9953 19.8003M2.08612 19.6907L2.24423 19.2164C2.2424 19.2158 2.24049 19.2151 2.23852 19.2144M2.08612 19.6907L2.23224 19.2126C2.23423 19.2132 2.23633 19.2138 2.23852 19.2144M2.9953 19.8003C3.15615 19.7933 3.39161 19.7653 3.51983 19.7397C3.64804 19.714 3.86252 19.6558 3.99773 19.6091C4.13294 19.5625 4.33809 19.4786 4.45232 19.4226C4.56888 19.3667 4.74139 19.2711 4.83697 19.2058C4.93255 19.1429 5.07475 19.0357 5.15168 18.9681M2.9953 19.8003L2.97807 19.3006C2.97731 19.3006 2.97655 19.3006 2.97579 19.3007M2.9953 19.8003L2.97358 19.3008C2.97431 19.3007 2.97505 19.3007 2.97579 19.3007M5.15168 18.9681L4.82162 18.5925C4.76443 18.6427 4.64108 18.7362 4.56197 18.7883L4.56193 18.7882L4.55499 18.7929C4.48655 18.8397 4.33776 18.923 4.23595 18.9719L4.23594 18.9719L4.23238 18.9736C4.13936 19.0192 3.95361 19.0955 3.83473 19.1365C3.71977 19.1761 3.52698 19.2284 3.42177 19.2494C3.32205 19.2693 3.11402 19.2945 2.97579 19.3007M2.97579 19.3007C2.79666 19.3068 2.67171 19.3001 2.54839 19.2807L2.5484 19.2807L2.54275 19.2799C2.44168 19.2652 2.30052 19.2327 2.23852 19.2144M2.23852 19.2144C2.18557 19.196 2.0841 19.1508 2.02589 19.1184C1.98468 19.0955 1.8957 19.0287 1.85454 18.9875C1.81155 18.9445 1.76344 18.8773 1.74046 18.8302L1.73972 18.8287C1.72619 18.8013 1.71846 18.7847 1.71431 18.7755M1.71431 18.7755C1.71396 18.7703 1.71355 18.7627 1.7132 18.7522C1.71211 18.72 1.71191 18.6768 1.71191 18.6067C1.71191 18.544 1.71238 18.5018 1.71356 18.4703C1.71473 18.4393 1.71634 18.4269 1.71691 18.4232C1.71696 18.4229 1.71696 18.4228 1.71697 18.4227C1.717 18.4225 1.71706 18.4223 1.71757 18.4207C1.71958 18.4146 1.72411 18.4023 1.73756 18.3705L1.73757 18.3705L1.73873 18.3677C1.76589 18.3026 1.81711 18.2016 1.84188 18.1617L1.84715 18.1532L1.84918 18.1496M1.71431 18.7755C1.71126 18.7688 1.71015 18.7661 1.7101 18.7662C1.71001 18.7662 1.71324 18.7746 1.71491 18.784C1.71509 18.785 1.71517 18.7856 1.71517 18.7856C1.71517 18.7856 1.71479 18.7827 1.71431 18.7755ZM1.84918 18.1496C1.85053 18.1477 1.85445 18.142 1.86189 18.1321C1.87469 18.115 1.89237 18.0928 1.91421 18.0668C1.95753 18.0152 2.00936 17.958 2.05678 17.9095M1.84918 18.1496L1.85207 18.1445C1.84989 18.1484 1.8486 18.1504 1.84862 18.1504C1.84862 18.1504 1.8488 18.1502 1.84918 18.1496ZM2.05678 17.9095C2.15745 17.8091 2.31179 17.6805 2.38473 17.6324L2.1116 17.2183L2.38473 17.6324C2.47417 17.5734 2.63747 17.4799 2.73923 17.4277M2.73923 17.4277C2.84424 17.3776 3.02156 17.3029 3.12764 17.2682L3.12766 17.2682L3.13498 17.2657C3.25189 17.2254 3.44744 17.1717 3.55471 17.1514L3.55473 17.1515L3.56425 17.1495C3.7064 17.1196 3.81578 17.1087 4.10645 17.1065M5.66744 7.05627C5.60685 6.91648 5.55067 6.7744 5.5181 6.67497C5.46741 6.52023 5.40414 6.2772 5.37226 6.11539L5.65878 5.31778C5.65868 5.31809 5.65859 5.31839 5.65849 5.31869C5.65859 5.31838 5.65868 5.31807 5.65878 5.31777C5.66905 5.28521 5.67331 5.25948 5.67441 5.25285L5.67443 5.25271C5.67616 5.24223 5.67704 5.23453 5.67736 5.23157C5.67776 5.2279 5.67793 5.22571 5.67793 5.22563C5.67793 5.22557 5.67787 5.22637 5.67776 5.22819C5.67723 5.23677 5.67647 5.25364 5.67564 5.28155C5.67438 5.32447 5.67322 5.38457 5.67221 5.46351C5.67221 5.46365 5.67221 5.46379 5.6722 5.46392C5.67192 5.48571 5.67166 5.50893 5.6714 5.53361C5.67 5.66735 5.66898 5.84065 5.6683 6.05634L5.8627 6.0181L5.6683 6.05698C5.66783 6.20874 5.66754 6.38147 5.66742 6.57616C5.66741 6.59264 5.6674 6.60927 5.66739 6.62606C5.66733 6.75952 5.66735 6.90283 5.66744 7.05627ZM7.04096 15.2481C7.04153 15.2475 7.04218 15.2469 7.0429 15.2463L7.04935 15.2518L7.04078 15.2483C7.04084 15.2482 7.0409 15.2481 7.04096 15.2481ZM7.04039 15.2481L6.93041 15.2031C6.95372 15.1518 7.07727 14.9374 7.20316 14.7252C7.32905 14.5131 7.50855 14.1937 7.59947 14.0142L7.04039 15.2481ZM7.06278 15.2633L7.18946 15.3719L7.18005 15.378L6.93507 15.5365C6.90942 15.4945 6.88844 15.4223 6.88844 15.378L7.06278 15.2633ZM7.72301 14.0768C7.71332 14.0961 7.70388 14.1147 7.69486 14.1323L7.96832 13.5245C7.95292 13.566 7.93748 13.6062 7.92318 13.642L7.92214 13.6446C7.88093 13.7494 7.79481 13.9336 7.72301 14.0768ZM6.30978 8.44606C6.36618 8.52592 6.42138 8.60187 6.46882 8.66404C6.52255 8.73444 6.59395 8.82877 6.67116 8.93079C6.78827 9.08551 6.91877 9.25792 7.02132 9.39138L6.30978 8.44606Z" fill="#FFF8E3" stroke="#FFF8E3"/>
<circle cx="3.63745" cy="23.9343" r="1.13159" fill="#FFF8E3"/>
<path d="M18.915 8.82723C18.7402 8.60343 18.5117 8.29804 18.4045 8.15117C18.2996 8.0043 18.1481 7.77818 18.0665 7.64996C17.9872 7.52174 17.8473 7.26997 17.7588 7.09046C17.6702 6.91096 17.5629 6.65453 17.5186 6.51931C17.4744 6.3841 17.4161 6.16031 17.3881 6.0181C17.3601 5.87823 17.3321 5.62646 17.3252 5.45861C17.3182 5.27677 17.2995 5.1299 17.2809 5.09261M18.915 8.82723L18.9136 15.3904M18.915 8.82723C19.0899 9.05102 19.309 9.35175 19.4046 9.49163M18.915 8.82723L20.2229 11.4382M17.2809 5.09261C17.2622 5.05531 17.2133 5.00635 17.1736 4.98071M17.2809 5.09261L17.0208 5.22261L17.1736 4.98071M17.2809 5.09261L17.0208 5.22262L17.0178 5.22736L17.0106 5.23884L16.9988 5.25754L16.9979 5.25895L16.9973 5.25996L16.9066 5.40345C16.9265 5.41602 16.9417 5.42258 16.9486 5.42536C16.9562 5.42845 16.9614 5.42993 16.964 5.43062C16.9668 5.43134 16.9698 5.432 16.9739 5.43257C16.9776 5.43309 16.9859 5.43408 16.9988 5.43408C16.993 5.43408 17.0392 5.4351 17.0984 5.4099C17.1145 5.40304 17.128 5.39569 17.1385 5.38931L17.0153 5.22538L17.0156 5.22494L17.1736 4.98071M17.1736 4.98071C17.1293 4.95273 17.0547 4.93408 16.9988 4.93408C16.9195 4.93408 16.8822 4.9504 16.8169 5.01101C16.7703 5.05064 16.7214 5.12291 16.7074 5.1672C16.6887 5.22549 16.6887 6.90863 16.7027 11.0372M16.7027 11.0372C16.7112 13.3537 16.716 15.3638 16.7153 16.286C16.7296 16.2916 16.7432 16.2971 16.7558 16.3024L16.7675 16.3074L16.7674 16.3075C16.7888 16.3173 16.809 16.3259 16.8258 16.3329C16.8287 15.5427 16.8298 14.399 16.8298 12.7623C16.8298 12.1571 16.83 11.5758 16.8305 11.0368L16.7027 11.0372ZM16.7027 11.0372L16.8305 11.0368C16.831 10.3372 16.8319 9.7088 16.833 9.19124C16.834 8.73314 16.8353 8.36145 16.8367 8.10407C16.8374 7.97555 16.8382 7.87464 16.839 7.80544C16.8394 7.77119 16.8398 7.7429 16.8403 7.72238C16.8406 7.71279 16.8409 7.70124 16.8414 7.69048C16.8416 7.68644 16.8422 7.67484 16.8435 7.66112L16.8436 7.66082C16.844 7.65592 16.8459 7.63639 16.8507 7.61225L16.8508 7.6119C16.8525 7.60285 16.8595 7.56762 16.8761 7.52529C16.8867 7.50033 16.9218 7.43634 16.9486 7.39898C16.9873 7.3575 17.0884 7.29457 17.193 7.25174M17.193 7.25174C17.1933 7.532 17.1938 7.84298 17.1945 8.18612C17.2155 8.19259 17.2402 8.19866 17.268 8.2028C17.269 8.20295 17.2701 8.2031 17.2711 8.20325C17.2912 8.20612 17.313 8.20796 17.3362 8.20821C17.3363 8.19238 17.3363 8.1769 17.3364 8.16176C17.3364 8.16115 17.3364 8.16054 17.3364 8.15993C17.3379 7.86997 17.3396 7.70824 17.3415 7.70824C17.3485 7.70824 17.4417 7.85044 17.5513 8.02529M17.193 7.25174C17.1929 7.18484 17.1929 7.11969 17.1928 7.05627M17.193 7.25174C17.2183 7.24137 17.2438 7.23219 17.2686 7.22476M17.5513 8.02529C17.5675 8.05086 17.5857 8.079 17.6054 8.10895C17.6522 8.08278 17.6924 8.05556 17.7187 8.03255C17.7001 8.00427 17.6826 7.97746 17.6668 7.95291L17.5513 8.02529ZM17.5513 8.02529L17.6663 7.95222C17.6587 7.94039 17.6515 7.92908 17.6447 7.9184L17.6411 7.91289L17.6412 7.91287C17.5621 7.78487 17.4353 7.55804 17.3415 7.37369C17.3306 7.3524 17.3202 7.33168 17.3104 7.31174C17.2968 7.28425 17.2828 7.25507 17.2686 7.22476M17.2686 7.22476C17.2939 7.21723 17.3184 7.21152 17.3415 7.20824C17.3962 7.20824 17.4433 7.21721 17.4803 7.22788C17.5107 7.23662 17.5342 7.2465 17.5496 7.25353C17.5881 7.27114 17.6166 7.29009 17.6326 7.30153C17.6644 7.3242 17.6866 7.34572 17.6958 7.35476C17.716 7.37479 17.7307 7.39274 17.7362 7.3996C17.7497 7.41624 17.7616 7.43266 17.7691 7.44318C17.7857 7.46652 17.8053 7.49558 17.8252 7.5258C17.8602 7.57871 17.9039 7.64696 17.9509 7.72143C17.9512 7.72193 17.9515 7.72243 17.9518 7.72293C17.9592 7.73463 17.9666 7.74648 17.9741 7.75845C18.0534 7.8831 18.1827 8.07371 18.2948 8.22952C18.2951 8.2299 18.2954 8.23028 18.2956 8.23066C18.3299 8.27824 18.3626 8.32255 18.3917 8.3607C18.4482 8.43481 18.5208 8.53062 18.5984 8.63319C18.6669 8.72377 18.7395 8.81962 18.8085 8.91044C18.8559 8.97266 18.9015 9.03253 18.9432 9.08673L18.9452 9.08937L18.9452 9.08937C19.0531 9.23169 19.1814 9.41079 19.2884 9.56779L19.4046 9.49163M17.2686 7.22476C17.2435 7.17108 17.2178 7.11387 17.1928 7.05627M19.4046 9.49163L19.2899 9.56998C19.354 9.66403 19.4103 9.75003 19.4499 9.81528C19.496 9.8914 19.5478 9.9818 19.5962 10.0699L19.717 10.0045M19.4046 9.49163C19.4979 9.63383 19.6401 9.86462 19.717 10.0045M19.717 10.0045L19.5966 10.0707C19.6524 10.1723 19.7036 10.2707 19.7362 10.3404C19.7649 10.4017 19.7985 10.4829 19.8314 10.5678L19.9594 10.5174M19.717 10.0045C19.7939 10.1467 19.9035 10.3775 19.9594 10.5174M19.9594 10.5174L19.8316 10.5685C19.8709 10.6697 19.9091 10.7762 19.9372 10.8605C19.954 10.9107 19.972 10.9693 19.9895 11.0311C19.9898 11.0319 19.99 11.0327 19.9902 11.0335C20.0289 11.1694 20.0655 11.3201 20.0825 11.4289C20.0842 11.4394 20.0859 11.4503 20.0875 11.4616C20.0876 11.4618 20.0876 11.462 20.0876 11.4622C20.1107 11.6205 20.1254 11.8508 20.1261 12.0327C20.1261 12.0366 20.1261 12.0405 20.1261 12.0443C20.1261 12.2012 20.1143 12.4181 20.0957 12.5831L20.2345 12.6038M19.9594 10.5174C20.0154 10.6596 20.09 10.874 20.1226 10.9953C20.1576 11.1165 20.2019 11.317 20.2229 11.4382M20.2345 12.6038L20.0954 12.586C20.0917 12.6184 20.0877 12.6487 20.0835 12.6762C20.0724 12.756 20.055 12.8533 20.036 12.947L20.1716 12.9768M20.2345 12.6038C20.2485 12.4942 20.2625 12.2378 20.2625 12.0327C20.2625 11.7902 20.2485 11.5827 20.2229 11.4382M20.2345 12.6038C20.2182 12.7134 20.1902 12.8812 20.1716 12.9768M20.1716 12.9768L20.0353 12.9502C20.0175 13.0377 19.9983 13.1218 19.9815 13.1854C19.9709 13.2259 19.9576 13.2733 19.9429 13.3234C19.9428 13.3237 19.9427 13.3239 19.9427 13.3241C19.91 13.4352 19.8701 13.5591 19.8372 13.6489C19.824 13.6855 19.8066 13.7292 19.7864 13.7771C19.7863 13.7774 19.7862 13.7776 19.7861 13.7778C19.7257 13.9213 19.6408 14.102 19.5709 14.2401C19.5616 14.2585 19.5515 14.2782 19.5407 14.2988L19.6634 14.3639M20.1716 12.9768C20.1506 13.0724 20.1086 13.2472 20.076 13.3615L20.2229 11.4382M19.6634 14.3639L19.5399 14.3003C19.4373 14.4967 19.2748 14.7845 19.1585 14.9804C19.1559 14.9848 19.1533 14.9893 19.1507 14.9937C19.1505 14.994 19.1503 14.9943 19.1501 14.9946C19.091 15.0943 19.0334 15.193 18.9877 15.2729C18.9636 15.3148 18.9437 15.3503 18.9288 15.3774C18.9227 15.3884 18.9184 15.3964 18.9154 15.4021C18.9142 15.4059 18.9132 15.4098 18.9123 15.4134C18.9116 15.4163 18.9112 15.418 18.9111 15.4185C18.911 15.4188 18.9111 15.4185 18.9113 15.4175C18.9115 15.4163 18.912 15.4129 18.9125 15.4076M19.6634 14.3639C19.7426 14.21 19.8569 13.9699 19.9128 13.8277L18.9125 15.4076M19.6634 14.3639C19.5818 14.5177 19.4046 14.8325 19.2694 15.0633C19.1365 15.294 18.9896 15.5225 18.9477 15.5715M18.9125 15.4076C18.9125 15.4073 18.9125 15.4071 18.9126 15.4069C18.9129 15.4033 18.9133 15.3977 18.9136 15.3904M18.9125 15.4076C18.9107 15.4109 18.9099 15.4124 18.9099 15.4124C18.9099 15.4124 18.9103 15.4116 18.911 15.41L18.8404 15.378L18.7713 15.3465L18.7299 15.3718L18.7249 15.3749L18.7232 15.3759L18.7253 15.3778L18.7255 15.378L18.7312 15.3829L18.9477 15.5715M18.9136 15.3904C18.9137 15.3867 18.9138 15.3825 18.9138 15.378C18.9138 15.3524 18.9111 15.3355 18.9102 15.3301C18.909 15.3233 18.9079 15.3193 18.9074 15.3175C18.9068 15.3157 18.9059 15.3127 18.9039 15.3078C18.9022 15.3039 18.8972 15.2923 18.8871 15.2758L18.7853 15.3379L18.8832 15.378L18.9136 15.3904ZM18.7743 15.3334L18.8802 15.2649C18.8695 15.2482 18.8611 15.2386 18.8586 15.2358C18.8554 15.2322 18.8534 15.2303 18.8525 15.2295C18.8515 15.2286 18.8491 15.2264 18.8442 15.2229C18.8404 15.2202 18.8281 15.2114 18.8076 15.2012C18.788 15.1914 18.7643 15.1835 18.7394 15.1797C18.7259 15.1777 18.7153 15.1775 18.7084 15.1776L18.7743 15.3334ZM18.7743 15.3334L18.7471 15.3223L18.7234 15.3126L18.7165 15.3098L18.5859 15.2563L18.5713 15.2436C18.5803 15.2357 18.5969 15.2225 18.6199 15.2097C18.6543 15.1905 18.6846 15.1821 18.6996 15.1788C18.7017 15.1783 18.7034 15.178 18.7049 15.1777L18.7743 15.3334ZM18.9477 15.5715L18.7315 15.3862L18.7257 15.3812L18.722 15.378L18.7211 15.3772L18.584 15.6484C18.6353 15.674 18.6912 15.6834 18.7635 15.674C18.8474 15.6647 18.8847 15.6437 18.9477 15.5715ZM18.717 15.3705L18.7238 15.3661L18.7258 15.3648L18.7258 15.3648L18.7289 15.3628L18.7612 15.3419L18.7417 15.3331L18.717 15.3705ZM18.717 15.3705L18.6001 15.2687L18.717 15.3705ZM19.5888 12.6038L19.7252 12.625C19.711 12.7136 19.6941 12.8123 19.6819 12.8754C19.6695 12.9318 19.6499 13.0146 19.6302 13.0928L19.4979 13.0584L19.63 13.0935C19.618 13.141 19.6059 13.1869 19.5952 13.2241L19.5945 13.2266C19.5757 13.2939 19.535 13.4132 19.494 13.5236L17.9976 8.44179L17.9976 8.44181L18.0007 8.44602C18.0277 8.48301 18.0621 8.52964 18.1013 8.58235C18.2213 8.74391 18.3862 8.9625 18.521 9.13505C18.5635 9.18946 18.6088 9.24864 18.6542 9.30882C18.6543 9.30906 18.6545 9.3093 18.6547 9.30954C18.7879 9.4863 18.9218 9.67157 18.9891 9.76984C19.0323 9.83584 19.0858 9.92073 19.1373 10.0047C19.1913 10.0931 19.2431 10.1805 19.278 10.2439C19.3152 10.3127 19.3615 10.406 19.4037 10.496C19.4396 10.5726 19.4727 10.6469 19.4947 10.7018C19.5263 10.7822 19.5633 10.8851 19.5933 10.9751C19.6129 11.0339 19.6296 11.0873 19.6398 11.1253L19.6397 11.1253L19.6422 11.1338C19.668 11.2233 19.7029 11.3776 19.7233 11.4857L19.5888 11.5081M19.5888 12.6038L19.7256 12.6227C19.7306 12.5918 19.7352 12.5623 19.7391 12.5359C19.7492 12.4528 19.762 12.2318 19.7625 12.0443C19.7625 12.0404 19.7625 12.0365 19.7625 12.0327C19.7625 11.8037 19.7489 11.629 19.7306 11.5255L19.7302 11.5235L19.7302 11.5235C19.7282 11.5122 19.726 11.5001 19.7237 11.4874L19.5888 11.5081M19.5888 12.6038C19.6098 12.4686 19.6261 12.2168 19.6261 12.0443C19.6261 11.8648 19.6098 11.634 19.5888 11.5081M19.5888 12.6038L19.2834 10.5523C19.3347 10.6619 19.4139 10.8717 19.4629 11.0186C19.5118 11.1654 19.5701 11.3869 19.5888 11.5081M17.3346 8.60225C17.285 8.53005 17.2371 8.45891 17.1949 8.39485C17.1966 9.13177 17.1992 10.0077 17.2027 11.0354L17.3346 8.60225ZM17.3346 8.60225C17.3316 9.51598 17.3298 11.0419 17.3298 12.7623C17.3298 16.807 17.3228 17.8467 17.2995 17.9773M17.3346 8.60225L17.2027 11.0355C17.2049 11.6363 17.2069 12.2164 17.2085 12.7623C17.2113 13.6625 17.2133 14.4697 17.2144 15.1227C17.2152 15.6473 17.2155 16.0728 17.2152 16.3674C17.215 16.5145 17.2146 16.6297 17.2141 16.7086C17.2139 16.7477 17.2135 16.7794 17.2131 16.802C17.213 16.8128 17.2127 16.8247 17.2123 16.8352C17.2121 16.8394 17.2117 16.85 17.2107 16.8623C17.2104 16.8662 17.209 16.8838 17.2053 16.9057L17.2052 16.9061C17.2039 16.914 17.1986 16.9457 17.1855 16.9841C17.177 17.0073 17.1477 17.0687 17.1249 17.1055C17.0829 17.1568 16.9498 17.2455 16.8198 17.2937M17.2995 17.9773L16.8092 17.8792C16.8085 17.8826 16.8077 17.8865 16.8066 17.8909M17.2995 17.9773C17.2809 18.0705 17.2249 18.2291 17.1666 18.3503C17.1107 18.4668 17.0081 18.6254 16.9405 18.7023C16.8729 18.7816 16.754 18.9004 16.6771 18.9681M17.2995 17.9773L16.8073 17.8894C16.8068 17.8923 16.8066 17.8931 16.8066 17.8909M16.8066 17.8909C16.8066 17.8889 16.8068 17.8843 16.8072 17.8766C16.8085 17.8504 16.8115 17.7878 16.8142 17.6652C16.8163 17.57 16.8181 17.4481 16.8198 17.2937M16.8066 17.8909C16.7945 17.9395 16.7582 18.0459 16.716 18.1336L16.7159 18.1339C16.676 18.2171 16.5972 18.3355 16.5649 18.3722L16.5649 18.3722L16.5601 18.3778C16.5098 18.4367 16.4082 18.5387 16.347 18.5925L16.6771 18.9681M16.8198 17.2937C16.7829 17.3074 16.7463 17.3179 16.712 17.3233C16.6565 17.3233 16.6125 17.3135 16.6041 17.3117L16.6032 17.3115C16.5877 17.3081 16.5751 17.3046 16.5681 17.3026C16.5536 17.2984 16.5408 17.2941 16.5327 17.2913C16.5152 17.2852 16.4967 17.2782 16.4794 17.2714C16.4457 17.2581 16.4043 17.2408 16.3608 17.2212M16.8198 17.2937C16.8211 17.1645 16.8224 17.0126 16.8234 16.8346C16.8243 16.6868 16.8251 16.5214 16.8258 16.3366C16.823 16.3359 16.82 16.3353 16.8168 16.3346C16.8098 16.333 16.7985 16.3307 16.7843 16.3286C16.7777 16.3276 16.7692 16.3265 16.7592 16.3256C16.7583 16.3255 16.7574 16.3254 16.7564 16.3253C16.7534 16.325 16.7501 16.3248 16.7464 16.3245C16.7377 16.3239 16.7271 16.3234 16.7152 16.3233C16.7152 16.3492 16.7152 16.3742 16.7151 16.3982C16.7151 16.4065 16.7151 16.4146 16.7151 16.4226C16.7147 16.6811 16.7137 16.8233 16.712 16.8233C16.705 16.8233 16.6374 16.7977 16.5605 16.7627C16.4877 16.7318 16.3481 16.6863 16.2404 16.6578C16.2398 16.6594 16.2392 16.661 16.2387 16.6623C16.2255 16.7013 16.2203 16.7331 16.2191 16.74C16.2155 16.7613 16.2142 16.7779 16.214 16.7806L16.2132 16.7924L16.213 16.7963C16.213 16.7967 16.2131 16.7951 16.2132 16.7908C16.2132 16.7892 16.2132 16.7871 16.2133 16.7846C16.2136 16.7675 16.2139 16.7402 16.2141 16.7019C16.2142 16.6966 16.2142 16.6912 16.2142 16.6857L16.0996 17.1378C16.0993 17.1377 16.0991 17.1377 16.0988 17.1376M16.3608 17.2212C16.3111 17.2007 16.1898 17.1609 16.0988 17.1376M16.3608 17.2212C16.3584 17.2201 16.356 17.219 16.3536 17.2179L16.5605 16.7627L16.3652 17.223C16.3638 17.2224 16.3624 17.2218 16.3608 17.2212ZM16.0988 17.1376L16.2142 16.6854C16.2143 16.6746 16.2144 16.6632 16.2144 16.6511C16.0537 16.611 15.9536 16.6042 15.628 16.6065M16.0988 17.1376C16.0382 17.1223 16.001 17.1158 15.9487 17.1117C15.8857 17.1069 15.7979 17.1053 15.6318 17.1065M15.628 16.6065C15.3226 16.6089 15.1758 16.6205 14.9869 16.6601C14.8517 16.6858 14.6326 16.7464 14.4974 16.793C14.3622 16.8373 14.1594 16.9236 14.0428 16.9795M15.628 16.6065L15.6315 17.1065C15.6316 17.1065 15.6317 17.1065 15.6318 17.1065M15.628 16.6065L15.6318 17.1065M14.0428 16.9795C13.9286 17.0378 13.7444 17.1427 13.6348 17.215C13.5253 17.2872 13.3434 17.4411 13.2269 17.5577M14.0428 16.9795L14.2592 17.4303C14.261 17.4294 14.2628 17.4285 14.2646 17.4277M14.0428 16.9795L14.27 17.4249C14.2682 17.4258 14.2664 17.4267 14.2646 17.4277M13.2269 17.5577C13.1126 17.6742 12.9821 17.8281 12.9425 17.898C12.9005 17.9656 12.8375 18.0915 12.8026 18.1754C12.7443 18.313 12.7373 18.3526 12.7373 18.6067C12.7373 18.8795 12.7396 18.8935 12.8166 19.0496C12.8655 19.1499 12.9471 19.2618 13.0264 19.341C13.0986 19.4133 13.2245 19.5089 13.3085 19.5555C13.3924 19.6021 13.5276 19.6628 13.6115 19.6907M13.2269 17.5577L13.5804 17.9112C13.581 17.9106 13.5816 17.91 13.5822 17.9095M13.2269 17.5577L13.584 17.9076C13.5834 17.9082 13.5828 17.9088 13.5822 17.9095M13.6115 19.6907C13.6954 19.7164 13.8679 19.756 13.9962 19.7747C14.1594 19.8003 14.3179 19.8073 14.5207 19.8003M13.6115 19.6907L13.7696 19.2164C13.7678 19.2158 13.7659 19.2151 13.7639 19.2144M13.6115 19.6907L13.7576 19.2126C13.7596 19.2132 13.7617 19.2138 13.7639 19.2144M14.5207 19.8003C14.6815 19.7933 14.917 19.7653 15.0452 19.7397C15.1734 19.714 15.3879 19.6558 15.5231 19.6091C15.6583 19.5625 15.8635 19.4786 15.9777 19.4226C16.0943 19.3667 16.2668 19.2711 16.3624 19.2058C16.4579 19.1429 16.6001 19.0357 16.6771 18.9681M14.5207 19.8003L14.5035 19.3006C14.5027 19.3006 14.5019 19.3006 14.5012 19.3007M14.5207 19.8003L14.499 19.3008C14.4997 19.3007 14.5004 19.3007 14.5012 19.3007M16.6771 18.9681L16.347 18.5925C16.2898 18.6427 16.1665 18.7362 16.0874 18.7883L16.0873 18.7882L16.0804 18.7929C16.0119 18.8397 15.8632 18.923 15.7613 18.9719L15.7613 18.9719L15.7578 18.9736C15.6648 19.0192 15.479 19.0955 15.3601 19.1365C15.2452 19.1761 15.0524 19.2284 14.9472 19.2494C14.8474 19.2693 14.6394 19.2945 14.5012 19.3007M14.5012 19.3007C14.3221 19.3068 14.1971 19.3001 14.0738 19.2807L14.0738 19.2807L14.0681 19.2799C13.9671 19.2652 13.8259 19.2327 13.7639 19.2144M13.7639 19.2144C13.711 19.196 13.6095 19.1508 13.5513 19.1184C13.5101 19.0955 13.4211 19.0287 13.3799 18.9875C13.3369 18.9445 13.2888 18.8773 13.2659 18.8302L13.2651 18.8287C13.2516 18.8013 13.2439 18.7847 13.2397 18.7755M13.2397 18.7755C13.2394 18.7703 13.2389 18.7627 13.2386 18.7522C13.2375 18.72 13.2373 18.6768 13.2373 18.6067C13.2373 18.544 13.2378 18.5018 13.239 18.4703C13.2401 18.4393 13.2417 18.4269 13.2423 18.4232C13.2424 18.4229 13.2424 18.4228 13.2424 18.4227C13.2424 18.4225 13.2425 18.4223 13.243 18.4207C13.245 18.4146 13.2495 18.4023 13.263 18.3705L13.263 18.3705L13.2641 18.3677C13.2913 18.3026 13.3425 18.2016 13.3673 18.1617L13.3725 18.1532L13.3746 18.1496M13.2397 18.7755C13.2367 18.7688 13.2355 18.7661 13.2355 18.7662C13.2354 18.7662 13.2386 18.7746 13.2403 18.784C13.2405 18.785 13.2406 18.7856 13.2406 18.7856C13.2406 18.7856 13.2402 18.7827 13.2397 18.7755ZM13.3746 18.1496C13.3759 18.1477 13.3798 18.142 13.3873 18.1321C13.4001 18.115 13.4178 18.0928 13.4396 18.0668C13.4829 18.0152 13.5348 17.958 13.5822 17.9095M13.3746 18.1496L13.3775 18.1445C13.3753 18.1484 13.374 18.1504 13.374 18.1504C13.374 18.1504 13.3742 18.1502 13.3746 18.1496ZM13.5822 17.9095C13.6828 17.8091 13.8372 17.6805 13.9101 17.6324L13.637 17.2183L13.9101 17.6324C13.9996 17.5734 14.1629 17.4799 14.2646 17.4277M14.2646 17.4277C14.3696 17.3776 14.547 17.3029 14.653 17.2682L14.6531 17.2682L14.6604 17.2657C14.7773 17.2254 14.9728 17.1717 15.0801 17.1514L15.0801 17.1515L15.0896 17.1495C15.2318 17.1196 15.3412 17.1087 15.6318 17.1065M17.1928 7.05627C17.1322 6.91648 17.0761 6.7744 17.0435 6.67497C16.9928 6.52023 16.9295 6.2772 16.8977 6.11539L17.1842 5.31778C17.1841 5.31809 17.184 5.31839 17.1839 5.31869C17.184 5.31838 17.1841 5.31807 17.1842 5.31777C17.1944 5.28521 17.1987 5.25948 17.1998 5.25285L17.1998 5.25271C17.2016 5.24223 17.2024 5.23453 17.2027 5.23157C17.2031 5.2279 17.2033 5.22571 17.2033 5.22563C17.2033 5.22557 17.2033 5.22637 17.2031 5.22819C17.2026 5.23677 17.2019 5.25364 17.201 5.28155C17.1998 5.32447 17.1986 5.38457 17.1976 5.46351C17.1976 5.46365 17.1976 5.46379 17.1976 5.46392C17.1973 5.48571 17.197 5.50893 17.1968 5.53361C17.1954 5.66735 17.1944 5.84065 17.1937 6.05634L17.3881 6.0181L17.1937 6.05698C17.1932 6.20874 17.1929 6.38147 17.1928 6.57616C17.1928 6.59264 17.1928 6.60927 17.1928 6.62606C17.1927 6.75952 17.1927 6.90283 17.1928 7.05627ZM18.5664 15.2481C18.5669 15.2475 18.5676 15.2469 18.5683 15.2463L18.5747 15.2518L18.5662 15.2483C18.5662 15.2482 18.5663 15.2481 18.5664 15.2481ZM18.5658 15.2481L18.4558 15.2031C18.4791 15.1518 18.6027 14.9374 18.7285 14.7252C18.8544 14.5131 19.0339 14.1937 19.1249 14.0142L18.5658 15.2481ZM18.5882 15.2633L18.7148 15.3719L18.7054 15.378L18.4605 15.5365C18.4348 15.4945 18.4138 15.4223 18.4138 15.378L18.5882 15.2633ZM19.2484 14.0768C19.2387 14.0961 19.2293 14.1147 19.2202 14.1323L19.4937 13.5245C19.4783 13.566 19.4629 13.6062 19.4486 13.642L19.4475 13.6446C19.4063 13.7494 19.3202 13.9336 19.2484 14.0768ZM17.8352 8.44606C17.8916 8.52592 17.9468 8.60187 17.9942 8.66404C18.0479 8.73444 18.1193 8.82877 18.1966 8.93079C18.3137 9.08551 18.4442 9.25792 18.5467 9.39138L17.8352 8.44606Z" fill="#FFF8E3" stroke="#FFF8E3"/>
<circle cx="15.1628" cy="23.9343" r="1.13159" fill="#FFF8E3"/>
<path d="M30.4399 8.82723C30.2651 8.60343 30.0366 8.29804 29.9294 8.15117C29.8245 8.0043 29.673 7.77818 29.5914 7.64996C29.5121 7.52174 29.3723 7.26997 29.2837 7.09046C29.1951 6.91096 29.0878 6.65453 29.0435 6.51931C28.9993 6.3841 28.941 6.16031 28.913 6.0181C28.885 5.87823 28.857 5.62646 28.8501 5.45861C28.8431 5.27677 28.8244 5.1299 28.8058 5.09261M30.4399 8.82723L30.4385 15.3904M30.4399 8.82723C30.6148 9.05102 30.8339 9.35175 30.9295 9.49163M30.4399 8.82723L31.7478 11.4382M28.8058 5.09261C28.7871 5.05531 28.7382 5.00635 28.6985 4.98071M28.8058 5.09261L28.5457 5.22261L28.6985 4.98071M28.8058 5.09261L28.5457 5.22262L28.5427 5.22736L28.5355 5.23884L28.5237 5.25754L28.5228 5.25895L28.5222 5.25996L28.4315 5.40345C28.4514 5.41602 28.4666 5.42258 28.4735 5.42536C28.4811 5.42845 28.4863 5.42993 28.4889 5.43062C28.4917 5.43134 28.4947 5.432 28.4988 5.43257C28.5025 5.43309 28.5108 5.43408 28.5237 5.43408C28.5179 5.43408 28.5641 5.4351 28.6233 5.4099C28.6394 5.40304 28.6529 5.39569 28.6634 5.38931L28.5402 5.22538L28.5405 5.22494L28.6985 4.98071M28.6985 4.98071C28.6542 4.95273 28.5796 4.93408 28.5237 4.93408C28.4444 4.93408 28.4071 4.9504 28.3418 5.01101C28.2952 5.05064 28.2463 5.12291 28.2323 5.1672C28.2136 5.22549 28.2136 6.90863 28.2276 11.0372M28.2276 11.0372C28.2361 13.3537 28.2409 15.3638 28.2402 16.286C28.2545 16.2916 28.2681 16.2971 28.2807 16.3024L28.2924 16.3074L28.2923 16.3075C28.3137 16.3173 28.3339 16.3259 28.3507 16.3329C28.3536 15.5427 28.3547 14.399 28.3547 12.7623C28.3547 12.1571 28.3549 11.5758 28.3554 11.0368L28.2276 11.0372ZM28.2276 11.0372L28.3554 11.0368C28.3559 10.3372 28.3568 9.7088 28.3579 9.19124C28.3589 8.73314 28.3602 8.36145 28.3616 8.10407C28.3623 7.97555 28.3631 7.87464 28.3639 7.80544C28.3643 7.77119 28.3647 7.7429 28.3652 7.72238C28.3655 7.71279 28.3658 7.70124 28.3663 7.69048C28.3665 7.68644 28.3671 7.67484 28.3684 7.66112L28.3685 7.66082C28.3689 7.65592 28.3708 7.63639 28.3756 7.61225L28.3757 7.6119C28.3774 7.60285 28.3844 7.56762 28.401 7.52529C28.4116 7.50033 28.4467 7.43634 28.4735 7.39898C28.5122 7.3575 28.6133 7.29457 28.7179 7.25174M28.7179 7.25174C28.7182 7.532 28.7187 7.84298 28.7194 8.18612C28.7404 8.19259 28.7651 8.19866 28.7929 8.2028C28.7939 8.20295 28.795 8.2031 28.796 8.20325C28.8161 8.20612 28.8379 8.20796 28.8611 8.20821C28.8612 8.19238 28.8612 8.1769 28.8613 8.16176C28.8613 8.16115 28.8613 8.16054 28.8613 8.15993C28.8628 7.86997 28.8645 7.70824 28.8664 7.70824C28.8734 7.70824 28.9666 7.85044 29.0762 8.02529M28.7179 7.25174C28.7178 7.18484 28.7178 7.11969 28.7177 7.05627M28.7179 7.25174C28.7432 7.24137 28.7687 7.23219 28.7935 7.22476M29.0762 8.02529C29.0924 8.05086 29.1106 8.079 29.1303 8.10895C29.1771 8.08278 29.2173 8.05556 29.2436 8.03255C29.225 8.00427 29.2075 7.97746 29.1917 7.95291L29.0762 8.02529ZM29.0762 8.02529L29.1912 7.95222C29.1836 7.94039 29.1764 7.92908 29.1696 7.9184L29.1661 7.91289L29.1661 7.91287C29.087 7.78487 28.9602 7.55804 28.8664 7.37369C28.8555 7.3524 28.8451 7.33168 28.8353 7.31174C28.8217 7.28425 28.8077 7.25507 28.7935 7.22476M28.7935 7.22476C28.8188 7.21723 28.8433 7.21152 28.8664 7.20824C28.9211 7.20824 28.9682 7.21721 29.0052 7.22788C29.0356 7.23662 29.0591 7.2465 29.0745 7.25353C29.113 7.27114 29.1415 7.29009 29.1575 7.30153C29.1893 7.3242 29.2115 7.34572 29.2207 7.35476C29.2409 7.37479 29.2556 7.39274 29.2611 7.3996C29.2746 7.41624 29.2865 7.43266 29.294 7.44318C29.3106 7.46652 29.3302 7.49558 29.3501 7.5258C29.3851 7.57871 29.4288 7.64696 29.4758 7.72143C29.4761 7.72193 29.4764 7.72243 29.4767 7.72293C29.4841 7.73463 29.4915 7.74648 29.499 7.75845C29.5783 7.8831 29.7076 8.07371 29.8197 8.22952C29.82 8.2299 29.8203 8.23028 29.8206 8.23066C29.8548 8.27824 29.8875 8.32255 29.9166 8.3607C29.9731 8.43481 30.0457 8.53062 30.1233 8.63319C30.1918 8.72377 30.2644 8.81962 30.3334 8.91044C30.3808 8.97266 30.4264 9.03253 30.4681 9.08673L30.4701 9.08937L30.4701 9.08937C30.578 9.23169 30.7063 9.41079 30.8134 9.56779L30.9295 9.49163M28.7935 7.22476C28.7684 7.17108 28.7427 7.11387 28.7177 7.05627M30.9295 9.49163L30.8148 9.56998C30.8789 9.66403 30.9352 9.75003 30.9748 9.81528C31.0209 9.8914 31.0727 9.9818 31.1211 10.0699L31.2419 10.0045M30.9295 9.49163C31.0228 9.63383 31.165 9.86462 31.2419 10.0045M31.2419 10.0045L31.1215 10.0707C31.1773 10.1723 31.2285 10.2707 31.2611 10.3404C31.2898 10.4017 31.3234 10.4829 31.3563 10.5678L31.4843 10.5174M31.2419 10.0045C31.3188 10.1467 31.4284 10.3775 31.4843 10.5174M31.4843 10.5174L31.3565 10.5685C31.3958 10.6697 31.434 10.7762 31.4621 10.8605C31.4789 10.9107 31.4969 10.9693 31.5144 11.0311C31.5147 11.0319 31.5149 11.0327 31.5151 11.0335C31.5538 11.1694 31.5904 11.3201 31.6074 11.4289C31.6091 11.4394 31.6108 11.4503 31.6124 11.4616C31.6125 11.4618 31.6125 11.462 31.6125 11.4622C31.6356 11.6205 31.6503 11.8508 31.651 12.0327C31.651 12.0366 31.651 12.0405 31.651 12.0443C31.651 12.2012 31.6392 12.4181 31.6206 12.5831L31.7594 12.6038M31.4843 10.5174C31.5403 10.6596 31.6149 10.874 31.6475 10.9953C31.6825 11.1165 31.7268 11.317 31.7478 11.4382M31.7594 12.6038L31.6203 12.586C31.6166 12.6184 31.6126 12.6487 31.6084 12.6762C31.5973 12.756 31.5799 12.8533 31.5609 12.947L31.6965 12.9768M31.7594 12.6038C31.7734 12.4942 31.7874 12.2378 31.7874 12.0327C31.7874 11.7902 31.7734 11.5827 31.7478 11.4382M31.7594 12.6038C31.7431 12.7134 31.7151 12.8812 31.6965 12.9768M31.6965 12.9768L31.5602 12.9502C31.5424 13.0377 31.5232 13.1218 31.5064 13.1854C31.4958 13.2259 31.4825 13.2733 31.4678 13.3234C31.4677 13.3237 31.4676 13.3239 31.4676 13.3241C31.4349 13.4352 31.395 13.5591 31.3621 13.6489C31.3489 13.6855 31.3315 13.7292 31.3113 13.7771C31.3112 13.7774 31.3111 13.7776 31.311 13.7778C31.2506 13.9213 31.1658 14.102 31.0958 14.2401C31.0865 14.2585 31.0764 14.2782 31.0656 14.2988L31.1883 14.3639M31.6965 12.9768C31.6755 13.0724 31.6335 13.2472 31.6009 13.3615L31.7478 11.4382M31.1883 14.3639L31.0648 14.3003C30.9622 14.4967 30.7997 14.7845 30.6834 14.9804C30.6808 14.9848 30.6782 14.9893 30.6756 14.9937C30.6754 14.994 30.6752 14.9943 30.675 14.9946C30.6159 15.0943 30.5583 15.193 30.5126 15.2729C30.4885 15.3148 30.4686 15.3503 30.4537 15.3774C30.4476 15.3884 30.4433 15.3964 30.4403 15.4021C30.4391 15.4059 30.4381 15.4098 30.4372 15.4134C30.4365 15.4163 30.4361 15.418 30.436 15.4185C30.4359 15.4188 30.436 15.4185 30.4362 15.4175C30.4364 15.4163 30.4369 15.4129 30.4374 15.4076M31.1883 14.3639C31.2675 14.21 31.3818 13.9699 31.4377 13.8277L30.4374 15.4076M31.1883 14.3639C31.1067 14.5177 30.9295 14.8325 30.7943 15.0633C30.6614 15.294 30.5145 15.5225 30.4726 15.5715M30.4374 15.4076C30.4374 15.4073 30.4374 15.4071 30.4375 15.4069C30.4378 15.4033 30.4382 15.3977 30.4385 15.3904M30.4374 15.4076C30.4356 15.4109 30.4348 15.4124 30.4348 15.4124C30.4348 15.4124 30.4352 15.4116 30.4359 15.41L30.3654 15.378L30.2962 15.3465L30.2548 15.3718L30.2498 15.3749L30.2481 15.3759L30.2502 15.3778L30.2504 15.378L30.2561 15.3829L30.4726 15.5715M30.4385 15.3904C30.4386 15.3867 30.4387 15.3825 30.4387 15.378C30.4387 15.3524 30.436 15.3355 30.4351 15.3301C30.4339 15.3233 30.4328 15.3193 30.4323 15.3175C30.4317 15.3157 30.4308 15.3127 30.4288 15.3078C30.4271 15.3039 30.4221 15.2923 30.412 15.2758L30.3103 15.3379L30.4081 15.378L30.4385 15.3904ZM30.2992 15.3334L30.4051 15.2649C30.3944 15.2482 30.386 15.2386 30.3835 15.2358C30.3803 15.2322 30.3783 15.2303 30.3774 15.2295C30.3764 15.2286 30.374 15.2264 30.3691 15.2229C30.3653 15.2202 30.353 15.2114 30.3325 15.2012C30.3129 15.1914 30.2892 15.1835 30.2643 15.1797C30.2508 15.1777 30.2402 15.1775 30.2333 15.1776L30.2992 15.3334ZM30.2992 15.3334L30.272 15.3223L30.2483 15.3126L30.2414 15.3098L30.1108 15.2563L30.0962 15.2436C30.1052 15.2357 30.1218 15.2225 30.1448 15.2097C30.1792 15.1905 30.2095 15.1821 30.2245 15.1788C30.2266 15.1783 30.2283 15.178 30.2298 15.1777L30.2992 15.3334ZM30.4726 15.5715L30.2564 15.3862L30.2506 15.3812L30.2469 15.378L30.246 15.3772L30.1089 15.6484C30.1602 15.674 30.2162 15.6834 30.2884 15.674C30.3723 15.6647 30.4096 15.6437 30.4726 15.5715ZM30.2419 15.3705L30.2487 15.3661L30.2507 15.3648L30.2507 15.3648L30.2538 15.3628L30.2861 15.3419L30.2666 15.3331L30.2419 15.3705ZM30.2419 15.3705L30.125 15.2687L30.2419 15.3705ZM31.1137 12.6038L31.2501 12.625C31.2359 12.7136 31.219 12.8123 31.2068 12.8754C31.1944 12.9318 31.1748 13.0146 31.1551 13.0928L31.0228 13.0584L31.1549 13.0935C31.1429 13.141 31.1308 13.1869 31.1201 13.2241L31.1194 13.2266C31.1006 13.2939 31.0599 13.4132 31.0189 13.5236L29.5225 8.44179L29.5225 8.44181L29.5256 8.44602C29.5526 8.48301 29.587 8.52964 29.6262 8.58235C29.7462 8.74391 29.9111 8.9625 30.0459 9.13505C30.0884 9.18946 30.1337 9.24864 30.1791 9.30882C30.1792 9.30906 30.1794 9.3093 30.1796 9.30954C30.3128 9.4863 30.4467 9.67157 30.514 9.76984C30.5572 9.83584 30.6107 9.92073 30.6622 10.0047C30.7162 10.0931 30.768 10.1805 30.8029 10.2439C30.8401 10.3127 30.8864 10.406 30.9286 10.496C30.9646 10.5726 30.9976 10.6469 31.0196 10.7018C31.0512 10.7822 31.0882 10.8851 31.1182 10.9751C31.1378 11.0339 31.1545 11.0873 31.1647 11.1253L31.1646 11.1253L31.1671 11.1338C31.1929 11.2233 31.2278 11.3776 31.2482 11.4857L31.1137 11.5081M31.1137 12.6038L31.2505 12.6227C31.2555 12.5918 31.2601 12.5623 31.264 12.5359C31.2741 12.4528 31.2869 12.2318 31.2874 12.0443C31.2874 12.0404 31.2874 12.0365 31.2874 12.0327C31.2874 11.8037 31.2738 11.629 31.2555 11.5255L31.2551 11.5235L31.2551 11.5235C31.2531 11.5122 31.251 11.5001 31.2486 11.4874L31.1137 11.5081M31.1137 12.6038C31.1347 12.4686 31.151 12.2168 31.151 12.0443C31.151 11.8648 31.1347 11.634 31.1137 11.5081M31.1137 12.6038L30.8083 10.5523C30.8596 10.6619 30.9388 10.8717 30.9878 11.0186C31.0367 11.1654 31.095 11.3869 31.1137 11.5081M28.8595 8.60225C28.8099 8.53005 28.762 8.45891 28.7198 8.39485C28.7215 9.13177 28.7241 10.0077 28.7276 11.0354L28.8595 8.60225ZM28.8595 8.60225C28.8565 9.51598 28.8547 11.0419 28.8547 12.7623C28.8547 16.807 28.8477 17.8467 28.8244 17.9773M28.8595 8.60225L28.7276 11.0355C28.7298 11.6363 28.7318 12.2164 28.7334 12.7623C28.7362 13.6625 28.7382 14.4697 28.7393 15.1227C28.7401 15.6473 28.7404 16.0728 28.7401 16.3674C28.7399 16.5145 28.7395 16.6297 28.739 16.7086C28.7388 16.7477 28.7384 16.7794 28.738 16.802C28.7379 16.8128 28.7376 16.8247 28.7372 16.8352C28.737 16.8394 28.7366 16.85 28.7356 16.8623C28.7353 16.8662 28.7339 16.8838 28.7302 16.9057L28.7301 16.9061C28.7288 16.914 28.7235 16.9457 28.7104 16.9841C28.7019 17.0073 28.6726 17.0687 28.6498 17.1055C28.6078 17.1568 28.4747 17.2455 28.3447 17.2937M28.8244 17.9773L28.3341 17.8792C28.3334 17.8826 28.3326 17.8865 28.3315 17.8909M28.8244 17.9773C28.8058 18.0705 28.7498 18.2291 28.6915 18.3503C28.6356 18.4668 28.533 18.6254 28.4654 18.7023C28.3978 18.7816 28.2789 18.9004 28.202 18.9681M28.8244 17.9773L28.3322 17.8894C28.3317 17.8923 28.3315 17.8931 28.3315 17.8909M28.3315 17.8909C28.3315 17.8889 28.3317 17.8843 28.3321 17.8766C28.3334 17.8504 28.3364 17.7878 28.3391 17.6652C28.3412 17.57 28.343 17.4481 28.3447 17.2937M28.3315 17.8909C28.3194 17.9395 28.2831 18.0459 28.2409 18.1336L28.2408 18.1339C28.2009 18.2171 28.1221 18.3355 28.0898 18.3722L28.0898 18.3722L28.085 18.3778C28.0348 18.4367 27.9331 18.5387 27.8719 18.5925L28.202 18.9681M28.3447 17.2937C28.3078 17.3074 28.2712 17.3179 28.2369 17.3233C28.1814 17.3233 28.1374 17.3135 28.129 17.3117L28.1281 17.3115C28.1126 17.3081 28.1 17.3046 28.093 17.3026C28.0785 17.2984 28.0657 17.2941 28.0576 17.2913C28.0401 17.2852 28.0216 17.2782 28.0043 17.2714C27.9706 17.2581 27.9292 17.2408 27.8857 17.2212M28.3447 17.2937C28.346 17.1645 28.3473 17.0126 28.3483 16.8346C28.3492 16.6868 28.35 16.5214 28.3507 16.3366C28.3479 16.3359 28.3449 16.3353 28.3417 16.3346C28.3347 16.333 28.3234 16.3307 28.3092 16.3286C28.3026 16.3276 28.2941 16.3265 28.2841 16.3256C28.2832 16.3255 28.2823 16.3254 28.2813 16.3253C28.2783 16.325 28.275 16.3248 28.2713 16.3245C28.2626 16.3239 28.252 16.3234 28.2401 16.3233C28.2401 16.3492 28.2401 16.3742 28.24 16.3982C28.24 16.4065 28.24 16.4146 28.24 16.4226C28.2396 16.6811 28.2386 16.8233 28.2369 16.8233C28.2299 16.8233 28.1623 16.7977 28.0854 16.7627C28.0126 16.7318 27.873 16.6863 27.7653 16.6578C27.7647 16.6594 27.7641 16.661 27.7636 16.6623C27.7504 16.7013 27.7452 16.7331 27.744 16.74C27.7404 16.7613 27.7392 16.7779 27.7389 16.7806L27.7381 16.7924L27.7379 16.7963C27.7379 16.7967 27.738 16.7951 27.7381 16.7908C27.7381 16.7892 27.7382 16.7871 27.7382 16.7846C27.7385 16.7675 27.7388 16.7402 27.739 16.7019C27.7391 16.6966 27.7391 16.6912 27.7391 16.6857L27.6245 17.1378C27.6242 17.1377 27.624 17.1377 27.6237 17.1376M27.8857 17.2212C27.836 17.2007 27.7147 17.1609 27.6237 17.1376M27.8857 17.2212C27.8833 17.2201 27.8809 17.219 27.8785 17.2179L28.0854 16.7627L27.8901 17.223C27.8887 17.2224 27.8873 17.2218 27.8857 17.2212ZM27.6237 17.1376L27.7391 16.6854C27.7392 16.6746 27.7393 16.6632 27.7393 16.6511C27.5786 16.611 27.4786 16.6042 27.1529 16.6065M27.6237 17.1376C27.5631 17.1223 27.5259 17.1158 27.4736 17.1117C27.4106 17.1069 27.3228 17.1053 27.1567 17.1065M27.1529 16.6065C26.8475 16.6089 26.7007 16.6205 26.5118 16.6601C26.3766 16.6858 26.1575 16.7464 26.0223 16.793C25.8871 16.8373 25.6843 16.9236 25.5677 16.9795M27.1529 16.6065L27.1564 17.1065C27.1565 17.1065 27.1566 17.1065 27.1567 17.1065M27.1529 16.6065L27.1567 17.1065M25.5677 16.9795C25.4535 17.0378 25.2693 17.1427 25.1597 17.215C25.0502 17.2872 24.8683 17.4411 24.7518 17.5577M25.5677 16.9795L25.7841 17.4303C25.7859 17.4294 25.7877 17.4285 25.7895 17.4277M25.5677 16.9795L25.7949 17.4249C25.7931 17.4258 25.7913 17.4267 25.7895 17.4277M24.7518 17.5577C24.6375 17.6742 24.507 17.8281 24.4674 17.898C24.4254 17.9656 24.3624 18.0915 24.3275 18.1754C24.2692 18.313 24.2622 18.3526 24.2622 18.6067C24.2622 18.8795 24.2645 18.8935 24.3415 19.0496C24.3904 19.1499 24.472 19.2618 24.5513 19.341C24.6235 19.4133 24.7494 19.5089 24.8334 19.5555C24.9173 19.6021 25.0525 19.6628 25.1364 19.6907M24.7518 17.5577L25.1053 17.9112C25.1059 17.9106 25.1065 17.91 25.1071 17.9095M24.7518 17.5577L25.1089 17.9076C25.1083 17.9082 25.1077 17.9088 25.1071 17.9095M25.1364 19.6907C25.2203 19.7164 25.3929 19.756 25.5211 19.7747C25.6843 19.8003 25.8428 19.8073 26.0456 19.8003M25.1364 19.6907L25.2945 19.2164C25.2927 19.2158 25.2908 19.2151 25.2888 19.2144M25.1364 19.6907L25.2825 19.2126C25.2845 19.2132 25.2866 19.2138 25.2888 19.2144M26.0456 19.8003C26.2064 19.7933 26.4419 19.7653 26.5701 19.7397C26.6983 19.714 26.9128 19.6558 27.048 19.6091C27.1832 19.5625 27.3884 19.4786 27.5026 19.4226C27.6192 19.3667 27.7917 19.2711 27.8873 19.2058C27.9828 19.1429 28.125 19.0357 28.202 18.9681M26.0456 19.8003L26.0284 19.3006C26.0276 19.3006 26.0268 19.3006 26.0261 19.3007M26.0456 19.8003L26.0239 19.3008C26.0246 19.3007 26.0253 19.3007 26.0261 19.3007M28.202 18.9681L27.8719 18.5925C27.8147 18.6427 27.6914 18.7362 27.6123 18.7883L27.6122 18.7882L27.6053 18.7929C27.5368 18.8397 27.3881 18.923 27.2862 18.9719L27.2862 18.9719L27.2827 18.9736C27.1897 19.0192 27.0039 19.0955 26.885 19.1365C26.7701 19.1761 26.5773 19.2284 26.4721 19.2494C26.3723 19.2693 26.1643 19.2945 26.0261 19.3007M26.0261 19.3007C25.847 19.3068 25.722 19.3001 25.5987 19.2807L25.5987 19.2807L25.593 19.2799C25.492 19.2652 25.3508 19.2327 25.2888 19.2144M25.2888 19.2144C25.2359 19.196 25.1344 19.1508 25.0762 19.1184C25.035 19.0955 24.946 19.0287 24.9048 18.9875C24.8618 18.9445 24.8137 18.8773 24.7908 18.8302L24.79 18.8287C24.7765 18.8013 24.7688 18.7847 24.7646 18.7755M24.7646 18.7755C24.7643 18.7703 24.7638 18.7627 24.7635 18.7522C24.7624 18.72 24.7622 18.6768 24.7622 18.6067C24.7622 18.544 24.7627 18.5018 24.7639 18.4703C24.765 18.4393 24.7666 18.4269 24.7672 18.4232C24.7673 18.4229 24.7673 18.4228 24.7673 18.4227C24.7673 18.4225 24.7674 18.4223 24.7679 18.4207C24.7699 18.4146 24.7744 18.4023 24.7879 18.3705L24.7879 18.3705L24.789 18.3677C24.8162 18.3026 24.8674 18.2016 24.8922 18.1617L24.8974 18.1532L24.8995 18.1496M24.7646 18.7755C24.7616 18.7688 24.7604 18.7661 24.7604 18.7662C24.7603 18.7662 24.7635 18.7746 24.7652 18.784C24.7654 18.785 24.7655 18.7856 24.7655 18.7856C24.7655 18.7856 24.7651 18.7827 24.7646 18.7755ZM24.8995 18.1496C24.9008 18.1477 24.9047 18.142 24.9122 18.1321C24.925 18.115 24.9427 18.0928 24.9645 18.0668C25.0078 18.0152 25.0597 17.958 25.1071 17.9095M24.8995 18.1496L24.9024 18.1445C24.9002 18.1484 24.8989 18.1504 24.8989 18.1504C24.8989 18.1504 24.8991 18.1502 24.8995 18.1496ZM25.1071 17.9095C25.2077 17.8091 25.3621 17.6805 25.435 17.6324L25.1619 17.2183L25.435 17.6324C25.5245 17.5734 25.6878 17.4799 25.7895 17.4277M25.7895 17.4277C25.8945 17.3776 26.0719 17.3029 26.1779 17.2682L26.178 17.2682L26.1853 17.2657C26.3022 17.2254 26.4977 17.1717 26.605 17.1514L26.605 17.1515L26.6145 17.1495C26.7567 17.1196 26.8661 17.1087 27.1567 17.1065M28.7177 7.05627C28.6571 6.91648 28.601 6.7744 28.5684 6.67497C28.5177 6.52023 28.4544 6.2772 28.4226 6.11539L28.7091 5.31778C28.709 5.31809 28.7089 5.31839 28.7088 5.31869C28.7089 5.31838 28.709 5.31807 28.7091 5.31777C28.7193 5.28521 28.7236 5.25948 28.7247 5.25285L28.7247 5.25271C28.7265 5.24223 28.7273 5.23453 28.7277 5.23157C28.7281 5.2279 28.7282 5.22571 28.7282 5.22563C28.7282 5.22557 28.7282 5.22637 28.7281 5.22819C28.7275 5.23677 28.7268 5.25364 28.7259 5.28155C28.7247 5.32447 28.7235 5.38457 28.7225 5.46351C28.7225 5.46365 28.7225 5.46379 28.7225 5.46392C28.7222 5.48571 28.7219 5.50893 28.7217 5.53361C28.7203 5.66735 28.7193 5.84065 28.7186 6.05634L28.913 6.0181L28.7186 6.05698C28.7181 6.20874 28.7178 6.38147 28.7177 6.57616C28.7177 6.59264 28.7177 6.60927 28.7177 6.62606C28.7176 6.75952 28.7176 6.90283 28.7177 7.05627ZM30.0913 15.2481C30.0918 15.2475 30.0925 15.2469 30.0932 15.2463L30.0996 15.2518L30.0911 15.2483C30.0911 15.2482 30.0912 15.2481 30.0913 15.2481ZM30.0907 15.2481L29.9807 15.2031C30.004 15.1518 30.1276 14.9374 30.2535 14.7252C30.3793 14.5131 30.5588 14.1937 30.6498 14.0142L30.0907 15.2481ZM30.1131 15.2633L30.2398 15.3719L30.2303 15.378L29.9854 15.5365C29.9597 15.4945 29.9387 15.4223 29.9387 15.378L30.1131 15.2633ZM30.7733 14.0768C30.7636 14.0961 30.7542 14.1147 30.7451 14.1323L31.0186 13.5245C31.0032 13.566 30.9878 13.6062 30.9735 13.642L30.9724 13.6446C30.9312 13.7494 30.8451 13.9336 30.7733 14.0768ZM29.3601 8.44606C29.4165 8.52592 29.4717 8.60187 29.5191 8.66404C29.5728 8.73444 29.6442 8.82877 29.7215 8.93079C29.8386 9.08551 29.9691 9.25792 30.0716 9.39138L29.3601 8.44606Z" fill="#FFF8E3" stroke="#FFF8E3"/>
<circle cx="26.6873" cy="23.9343" r="1.13159" fill="#FFF8E3"/>
</svg>
