<svg width="151" height="150" viewBox="0 0 151 150" fill="none" xmlns="http://www.w3.org/2000/svg">
<path d="M82.0999 66.2683C82.0999 66.2683 79.48 72.4475 82.3231 74.094C82.5851 74.249 82.915 74.2103 83.1479 74.0165C83.7883 73.4935 85.2729 72.4475 86.7575 72.6122C88.7273 72.8349 86.9807 71.14 85.6028 71.8471C84.2346 72.5541 82.8665 74.3071 86.2044 74.0359C89.5423 73.7647 90.9202 74.3652 91.5218 74.3071C92.1234 74.249 93.8215 73.542 94.5881 71.6243C95.3546 69.7066 94.8598 66.9173 93.055 63.2562C91.2501 59.5952 89.1057 55.5468 89.1639 51.9923C89.2221 48.4378 89.6006 48.4959 89.6006 48.4959C89.6006 48.4959 90.3865 49.4644 95.7525 48.0407C101.118 46.617 103.428 48.4087 104.699 50.4136C105.98 52.4184 104 49.7162 101.817 48.738C99.6241 47.7501 93.9283 49.4354 91.842 51.4402C90.3962 52.8349 90.8329 54.3458 91.2404 55.14C91.3957 55.4596 91.7935 55.5661 92.0943 55.3821C93.1908 54.7042 95.8689 53.1448 97.7999 52.8543C98.0424 52.8155 98.2753 52.8058 98.4985 52.8252C100.633 52.9317 102.234 54.8785 102.399 55.0141C102.584 55.1594 100.866 54.1424 100.866 54.1424C100.866 54.1424 100.963 56.6799 98.285 56.7962C97.664 56.8252 97.043 56.6412 96.5675 56.2344C96.1309 55.847 95.7816 55.2368 96.1503 54.3264C96.878 52.5056 99.2942 53.4548 98.9643 54.1811C98.6343 54.9075 97.4991 56.0407 97.2468 54.985C96.9945 53.9293 98.6344 53.6388 99.2166 53.7066C99.7988 53.7841 103.505 56.1085 105.485 54.9075C107.455 53.7066 108.114 52.4475 107.513 47.7986C106.911 43.1496 108.871 46.5104 107.726 37.4063C107.726 37.4063 108.648 37.4063 109.007 38.1036C109.366 38.801 108.532 40.0697 108.755 36.2828C108.978 32.4959 107.901 28.767 106.911 26.8009C105.922 24.8348 106.145 23.5176 105.708 22.646C105.271 21.7743 102.855 20.399 102.419 19.6339C101.982 18.8687 103.35 18.2682 103.408 18.7622C103.467 19.2561 103.078 20.399 102.254 17.1738C101.429 13.9486 99.6241 12.7476 97.1012 12.7476C97.1012 12.7476 96.9945 9.3578 95.7816 9.85175C95.7816 9.85175 95.7234 8.98007 95.0441 8.15683C94.3649 7.33358 94.4134 8.21494 93.7633 8.15683C93.1035 8.09871 92.3951 8.05029 92.1719 7.12051C91.9488 6.19072 92.9967 5.86143 91.9488 6.19073C90.9105 6.52003 90.2507 5.75489 89.9208 5.64836C89.5909 5.54182 89.5909 6.90744 89.0475 6.57814C88.5041 6.24884 88.2809 5.04786 87.6793 4.94133C87.0777 4.83479 84.8848 4.83479 83.895 4.50549C82.9053 4.17619 83.2352 2.81057 82.4686 3.35294C81.7021 3.89532 80.8288 4.22462 79.2374 4.34085C77.6461 4.45707 76.7728 2.42317 73.3766 3.95344C73.3766 3.95344 70.6888 3.78879 69.1072 4.34085C67.5255 4.89291 61.985 6.96554 59.792 10.4135C59.792 10.4135 56.0659 8.28273 52.2816 11.4498C52.2816 11.4498 54.0865 10.9074 54.2029 12.3796C54.3096 13.8518 51.5151 10.8493 46.3626 14.7816C46.3626 14.7816 48.6138 14.5588 47.954 14.675C47.2942 14.7912 42.0932 17.5225 39.7353 22.2779C39.7353 22.2779 38.9687 23.2658 38.862 24.3603C38.7552 25.4547 34.4761 26.3845 35.0292 32.6702C35.5726 38.9559 36.834 38.7913 36.834 38.7913C36.834 38.7913 36.31 49.077 38.697 51.9535C38.697 51.9535 40.3369 54.2489 40.5892 56.6315C40.5892 56.6315 40.7056 57.2417 40.5989 57.387C40.4921 57.5323 44.1212 57.4548 46.9157 60.2441C49.7103 63.0335 48.9437 65.387 49.7103 67.5759C50.4768 69.7647 51.2434 71.6824 50.3119 71.6243C49.3804 71.5662 50.3119 71.9536 48.2257 69.4935C48.2257 69.4935 47.2359 68.893 47.3524 67.0916C47.4591 65.2901 46.7508 63.9148 46.0327 64.6315C45.3244 65.3386 46.2559 63.7018 45.2662 62.4427C44.2764 61.1836 43.6263 59.4306 43.4031 60.0407C43.1799 60.6412 43.6748 65.0189 44.4414 64.6896C45.2079 64.3603 45.9163 61.6775 44.6645 60.864C43.4031 60.0407 41.1617 58.8398 39.842 59.169C38.5224 59.4983 38.3671 63.3821 39.4054 65.0771C40.4436 66.772 40.1137 67.2659 40.8803 68.2538C41.6468 69.2417 42.4134 73.2224 44.6645 74.8882C46.9157 76.5638 46.4694 75.4112 48.0607 75.5275C49.652 75.6437 49.7006 74.3749 48.769 74.2684C47.8375 74.1618 46.5761 75.6921 44.7713 73.5032C42.9665 71.3144 41.4333 68.6316 41.7535 66.8301C42.0835 65.0286 40.9288 62.9463 40.9288 62.617C40.9288 62.2877 41.9476 60.9221 42.132 60.2635C42.3164 59.6146 41.1423 56.8737 39.8323 57.3676C38.5127 57.8616 35.6696 60.3216 39.1725 67.5952C42.6754 74.8688 42.6754 74.3943 43.5001 75.8083C44.3249 77.2224 46.188 76.9996 47.5561 78.588C48.9243 80.1764 50.5156 81.048 51.7771 78.588C53.0385 76.1279 51.5054 76.0214 51.5539 74.5396C51.6121 73.0674 53.252 73.7647 52.3787 74.8882C51.5054 76.0117 50.244 72.9028 49.0407 72.4572C47.8375 72.0214 47.5076 73.2224 46.6828 73.0577C45.8581 72.8931 44.9848 70.3749 44.4899 69.6098C43.995 68.8446 43.5584 66.1618 44.7131 65.9487C45.8678 65.726 46.1395 61.6872 48.2742 68.68C50.4089 75.6727 53.97 66.7429 52.9027 64.525C51.8353 62.3071 50.603 59.6824 51.6703 55.0916C52.7377 50.5008 61.1505 54.8979 64.3235 54.7332C67.4964 54.5686 66.8463 52.709 69.4177 52.5443C71.9891 52.3797 79.0046 50.0262 80.5959 51.7792C82.1872 53.5322 82.4007 50.1424 84.157 48.6025C85.9133 47.0625 83.0605 48.4959 78.238 49.3095C73.4154 50.1327 68.1563 50.6751 66.6716 51.169C65.1967 51.663 63.0523 56.6412 63.7121 57.2417C64.372 57.8422 68.2048 57.9003 69.408 56.6993C70.6112 55.4983 73.5222 54.3458 74.3955 54.3458C75.2688 54.3458 77.355 54.0746 79.4897 56.0407C81.6245 58.0068 78.2768 55.14 77.355 55.1109C76.7049 55.0916 73.9297 53.8616 72.3966 55.2659C72.1346 55.508 71.9891 55.8567 71.9988 56.215C72.0279 57.1255 72.3966 58.8785 74.9971 58.0068C74.9971 58.0068 76.6272 57.1642 76.1518 55.8567C75.6763 54.5395 73.6289 54.1811 73.1535 55.7114C72.678 57.2417 75.7831 57.3192 74.9777 55.4596C74.1723 53.6 70.9605 55.2465 70.815 55.3531C70.2813 55.7405 66.9822 58.3458 70.815 58.3458C74.6478 58.3458 69.4856 58.1812 69.4856 58.1812" stroke="#293D67" stroke-width="1.19208" stroke-miterlimit="10" stroke-linecap="round"/>
<path d="M52.243 53.8807C52.243 53.8807 54.7271 50.8492 54.5621 45.193C54.3972 39.5368 55.319 37.7257 54.5718 35.3528C53.8247 32.9702 51.6026 28.3794 51.6026 26.3262C51.6026 24.2729 57.1141 19.9242 58.6666 18.5295C60.2289 17.1348 68.3699 16.8055 69.6023 15.7402C70.8346 14.6748 85.962 17.5416 87.6892 16.3988C89.4164 15.2462 92.4536 15.4109 92.7835 14.1034C93.1134 12.7862 96.9753 19.2753 98.13 20.3407C99.2847 21.406 103.059 26.4133 103.797 29.7741C104.427 32.6603 106.339 42.8686 107.804 46.946C108.221 48.1083 108.367 49.348 108.231 50.578C108.095 51.7887 107.959 53.1252 107.959 53.4836C107.959 54.1906 109.551 52.3311 108.231 57.9679C106.911 63.6047 106.203 65.842 106.698 67.2657C107.193 68.6894 107.193 73.6483 107.794 74.8299C108.396 76.0115 108.338 72.9994 106.261 73.6096C104.175 74.21 102.429 78.9171 97.606 76.7282C92.7835 74.5393 93.191 73.5321 93.191 73.5321C93.191 73.5321 92.405 74.9655 90.2703 74.8299C88.1356 74.704 84.9044 73.9873 82.2748 75.3045C79.6452 76.6217 81.2365 77.9292 75.531 79.5176C69.8254 81.1059 67.584 81.2706 65.391 78.859C63.1981 76.457 59.4138 72.9219 56.464 70.549C54.9503 69.3287 54.3584 68.4376 54.1449 67.8468C54.0673 67.6337 53.7665 67.6047 53.6597 67.8178C53.0387 69.0091 51.9034 71.1786 51.6123 71.9437C51.2048 73.0091 53.4171 73.0962 52.6021 77.6871C51.7773 82.2779 50.8749 81.5418 54.4069 85.7258C54.4069 85.7258 55.1443 86.3844 55.3093 90.0745C55.4743 93.7646 56.299 91.3917 57.3664 94.4231C58.4338 97.4546 60.0833 100.244 61.4806 101.319C62.8779 102.394 61.5097 106.104 66.8756 106.491C72.2416 106.878 64.1878 102.995 66.9338 107.314C69.6702 111.634 74.9294 109.561 74.8809 108.409C74.8226 107.256 73.076 109.445 74.221 110.268C75.3757 111.091 78.3352 111.198 80.1692 109.174C82.0031 107.15 78.0053 108.97 80.1692 110.82C82.333 112.67 87.6989 111.576 87.4855 109.832C87.272 108.089 85.1858 110.268 88.5819 110.985C91.9781 111.692 99.0615 109.193 99.4884 106.007C99.5952 105.193 97.5381 106.811 99.5467 106.995C101.866 107.208 104.806 102.404 104.476 98.8493C104.146 95.2948 103.05 102.133 105.184 99.3433C107.319 96.5539 107.212 90.1035 107.542 87.5273C107.872 84.9607 109.24 79.9243 108.367 78.5587C107.494 77.1931 107.765 85.3965 108.202 85.8323C108.639 86.2682 104.204 89.2803 100.42 88.5636C96.6357 87.8565 93.4627 82.1132 92.8029 81.5127C92.143 80.9122 88.7469 80.5248 88.7469 78.7815C88.7469 77.0381 89.9501 79.382 87.4855 80.9122C85.0208 82.4425 80.14 86.3844 77.4619 86.7137C74.7741 87.043 73.1925 87.8662 73.076 87.043C72.9693 86.2197 76.6372 88.0309 77.7919 88.0309C78.9466 88.0309 83.051 84.1471 83.8758 84.089C84.7006 84.0309 87.3302 84.4764 90.1733 83.7016C93.026 82.9364 95.219 83.8081 94.336 85.0672C93.4627 86.3263 94.8794 88.1277 84.9141 88.0793C84.9141 88.0793 81.0231 88.1374 81.6247 87.5369C82.2263 86.9365 85.6806 88.8541 87.4855 88.6314C87.4855 88.6314 89.8434 86.7428 95.4325 88.796C101.022 90.8493 104.719 98.2295 107.348 100.031C109.978 101.832 109.289 120.68 103.593 125.164C97.8971 129.648 91.3183 128.99 91.3183 128.99C91.3183 128.99 93.0746 136.97 89.6784 139.159C86.2823 141.348 69.8448 149 69.8448 149L60.7528 148.544C60.7528 148.544 49.138 140.36 47.9348 137.842C46.7316 135.324 49.2544 127.556 49.2544 127.556L44.4319 125.038C44.4319 125.038 49.0312 113.009 50.6808 110.598C52.3207 108.196 47.9445 122.414 47.828 123.285C47.7213 124.157 51.3309 123.392 52.5439 124.157C53.7471 124.922 51.4474 133.784 51.4474 134.878C51.4474 135.973 62.5188 145.929 63.8288 145.929C65.1484 145.929 65.032 147.566 67.3317 146.472C69.6314 145.377 86.6219 138.375 87.7183 136.079C88.8148 133.784 87.6116 126.782 87.4952 126.123C87.3884 125.464 97.4702 125.135 98.5666 124.37C99.6631 123.605 104.699 111.353 105.252 102.278C105.805 93.2028 67.1182 141.106 66.7883 142.53C66.4584 143.954 68.8745 145.377 65.3619 137.493C61.859 129.619 57.2499 117.474 57.0365 111.682C56.823 105.891 58.3561 99.8663 58.8995 100.196C59.4429 100.525 64.5953 114.414 73.144 122.075C73.144 122.075 83.3033 111.983 83.8564 111.769C84.4095 111.556 71.6108 125.029 71.0675 124.922C70.5241 124.815 59.8504 131.518 60.5491 129.3C60.9275 128.079 69.5537 140.234 67.1279 140.021C66.0217 139.924 68.661 131.818 68.7678 130.617C68.8745 129.416 70.5241 124.602 72.1639 125.038C73.8038 125.474 79.8393 129.958 78.7428 129.958C77.6463 129.958 75.1234 127.334 73.8135 127.44C72.4939 127.547 67.4578 131.818 64.4983 132.254C61.5388 132.69 72.1736 128.205 72.1736 128.205" stroke="#293D67" stroke-width="1.19208" stroke-miterlimit="10" stroke-linecap="round"/>
<path d="M22.0464 124.796C22.0464 124.796 54.4846 110.578 56.5708 104.67C58.657 98.7625 53.9412 103.576 57.1142 112.98" stroke="#293D67" stroke-width="1.19208" stroke-miterlimit="10" stroke-linecap="round"/>
<path d="M131.306 113.416C131.306 113.416 106.242 99.5761 104.36 100.642" stroke="#293D67" stroke-width="1.19208" stroke-miterlimit="10" stroke-linecap="round"/>
</svg>
