<svg width="31" height="30" viewBox="0 0 31 30" fill="none" xmlns="http://www.w3.org/2000/svg">
<g clip-path="url(#clip0_0_3414)">
<path d="M13.0398 19.6989C11.9971 19.6989 11.2611 19.4919 10.8318 19.0779C10.4024 18.6485 10.1878 17.9279 10.1878 16.9159V11.2579C10.1878 10.8439 10.0958 10.5525 9.91176 10.3839C9.72776 10.2152 9.38276 10.1232 8.87676 10.1079L8.78476 9.96985L8.89976 9.27985C9.26776 9.09585 9.62042 8.88885 9.95776 8.65885C10.3104 8.41352 10.6171 8.18352 10.8778 7.96885C11.1538 7.73885 11.3684 7.55485 11.5218 7.41685C11.6751 7.26352 11.7518 7.18685 11.7518 7.18685L12.2118 7.37085C12.2118 7.37085 12.1888 7.51652 12.1428 7.80785C12.1121 8.09918 12.0738 8.52852 12.0278 9.09585L15.4088 9.02685L15.4778 9.09585L15.2708 10.3149L11.9358 10.2459C11.8898 10.9665 11.8514 11.8099 11.8208 12.7759C11.7901 13.7419 11.7748 14.8152 11.7748 15.9959C11.7748 16.7779 11.9051 17.3299 12.1658 17.6519C12.4418 17.9739 12.9094 18.1349 13.5688 18.1349C13.9521 18.1349 14.3048 18.0659 14.6268 17.9279C14.9641 17.7899 15.1328 17.7209 15.1328 17.7209L15.3628 18.3189C15.3628 18.3189 15.2708 18.3879 15.0868 18.5259C14.9028 18.6639 14.6728 18.8249 14.3968 19.0089C14.1361 19.1929 13.8754 19.3539 13.6148 19.4919C13.3694 19.6299 13.1778 19.6989 13.0398 19.6989ZM17.2506 18.5949C17.7106 18.5489 18.0172 18.4032 18.1706 18.1579C18.3239 17.8972 18.4006 17.4065 18.4006 16.6859V11.6259C18.4006 11.1199 18.3316 10.7595 18.1936 10.5449C18.0556 10.3302 17.8332 10.2229 17.5266 10.2229C17.4039 10.2229 17.2889 10.2382 17.1816 10.2689C17.0896 10.2842 17.0436 10.2919 17.0436 10.2919L16.9286 10.1309L16.9976 9.41785C17.4729 9.32585 17.9482 9.22618 18.4236 9.11885C18.8989 9.01152 19.2976 8.91952 19.6196 8.84285C19.9416 8.76618 20.1026 8.72785 20.1026 8.72785L20.2636 8.86585C20.2636 8.86585 20.2406 8.98852 20.1946 9.23385C20.1639 9.47918 20.1332 9.78585 20.1026 10.1539C20.0719 10.5065 20.0566 10.8669 20.0566 11.2349L20.1486 11.3039C20.6239 10.5832 21.1682 9.99285 21.7816 9.53285C22.3949 9.07285 22.9316 8.84285 23.3916 8.84285C23.6522 8.84285 23.8362 8.85818 23.9436 8.88885C24.0509 8.91952 24.1046 8.93485 24.1046 8.93485L24.1736 9.02685C24.1736 9.02685 24.1582 9.13418 24.1276 9.34885C24.0969 9.54818 24.0586 9.81652 24.0126 10.1539C23.9666 10.4759 23.9206 10.8285 23.8746 11.2119C23.8439 11.5952 23.8209 11.9632 23.8056 12.3159L22.9086 12.3849C22.9086 11.7562 22.8702 11.3422 22.7936 11.1429C22.7169 10.9282 22.5482 10.8209 22.2876 10.8209C21.9502 10.8209 21.5899 10.9589 21.2066 11.2349C20.8232 11.5109 20.4706 11.8942 20.1486 12.3849C20.1486 12.3849 20.1409 12.5305 20.1256 12.8219C20.1102 13.0979 20.0949 13.4505 20.0796 13.8799C20.0642 14.3092 20.0489 14.7539 20.0336 15.2139C20.0182 15.6585 20.0029 16.0572 19.9876 16.4099C19.9722 16.7472 19.9646 16.9695 19.9646 17.0769C19.9646 17.5982 20.0412 17.9509 20.1946 18.1349C20.3479 18.3189 20.6392 18.4109 21.0686 18.4109C21.2372 18.4109 21.4442 18.4032 21.6896 18.3879C21.9502 18.3725 22.0806 18.3649 22.0806 18.3649L22.1036 18.4569L21.8966 19.4689C21.8966 19.4689 21.8199 19.4612 21.6666 19.4459C21.5132 19.4459 21.3139 19.4459 21.0686 19.4459C20.8232 19.4459 20.5626 19.4382 20.2866 19.4229C20.0259 19.4229 19.7806 19.4229 19.5506 19.4229C19.1059 19.4229 18.6996 19.4305 18.3316 19.4459C17.9636 19.4612 17.6722 19.4765 17.4576 19.4919C17.2429 19.5072 17.1356 19.5149 17.1356 19.5149L17.2506 18.5949Z" fill="#FFF8E3"/>
<path d="M18.6474 25.9007C19.0127 25.9597 19.3537 25.949 19.6706 25.8686C19.999 25.7799 20.286 25.6338 20.5316 25.4304C20.7773 25.227 20.9807 24.9712 21.142 24.663C21.3131 24.3564 21.4298 24.0106 21.4921 23.6256L22.6471 23.8124C22.5593 24.3554 22.3989 24.846 22.1659 25.2845C21.9329 25.7229 21.6404 26.0909 21.2884 26.3885C20.9364 26.6862 20.5272 26.8986 20.0609 27.0257C19.5946 27.1529 19.0851 27.1718 18.5323 27.0824C18.0288 27.001 17.5257 26.8234 17.023 26.5496C16.5317 26.2676 16.0436 25.9658 15.5587 25.6443C15.0837 25.3243 14.6195 25.0315 14.1661 24.7657C13.7143 24.49 13.2762 24.3178 12.8517 24.2492C12.4766 24.1885 12.1298 24.2033 11.8113 24.2937C11.5042 24.3757 11.2279 24.5184 10.9823 24.7218C10.7367 24.9252 10.5283 25.1802 10.3571 25.4868C10.1959 25.795 10.0792 26.1408 10.007 26.5242L8.86684 26.3398C8.95465 25.7969 9.11505 25.3062 9.34803 24.8678C9.58101 24.4293 9.87352 24.0613 10.2255 23.7637C10.5776 23.4661 10.9818 23.2529 11.4382 23.1241C11.9045 22.9969 12.4141 22.978 12.9669 23.0674C13.4802 23.1504 13.9825 23.333 14.4738 23.615C14.9765 23.8888 15.4654 24.1856 15.9404 24.5056C16.4154 24.8255 16.8788 25.1233 17.3306 25.399C17.784 25.6648 18.2229 25.832 18.6474 25.9007Z" fill="#FFF8E3"/>
</g>
<defs>
<clipPath id="clip0_0_3414">
<rect width="31" height="30" fill="white"/>
</clipPath>
</defs>
</svg>
